<svg xmlns="http://www.w3.org/2000/svg" xmlns:xlink="http://www.w3.org/1999/xlink" width="308" height="265" viewBox="0 0 308 265"><defs><path id="u3lqa" d="M1843.86 352.968c0-7.301 3.174-14.603 15.555-27.301-6.349-4.445-13.015-6.35-22.54-6.667-7.936 10.794-11.745 17.778-14.285 30.476 7.619-1.27 12.38 0 21.27 3.492z"/><path id="u3lqb" d="M1693 123.762c6.35 6.984 9.206 11.111 11.111 18.73 3.492-1.587 5.714-2.222 7.937-1.587-1.588-8.572-4.445-13.968-10.477-21.905-3.492.952-6.031 2.54-8.571 4.762z"/><path id="u3lqc" d="M1580.937 187.429c-.318-4.762-.953-7.62-2.223-11.429-2.857 1.27-4.444 2.54-5.714 4.127 1.27 2.222 1.587 4.127 1.587 6.984 2.54-.635 4.127-.635 6.35.318z"/><path id="u3lqd" d="M1558 106.444c1.905 5.08 4.127 8.89 7.619 11.746 3.492-1.27 5.397-2.54 6.984-4.761-4.127-3.81-5.714-6.35-7.301-11.429-2.223 2.857-4.127 4.127-7.302 4.444z"/><path id="u3lqe" d="M1741 356.524c4.762.317 8.571 1.587 13.65 4.127 0-11.746.953-19.683 3.175-28.254-4.762-4.127-7.936-5.08-12.698-5.397-2.222 6.35-3.81 17.143-4.127 29.524z"/><path id="u3lqf" d="M1618.576 181c-1.587 2.857-1.904 4.444-1.27 7.619 5.08 1.27 7.937 2.54 12.382 4.762.317-1.905.634-3.175 1.27-4.127-5.08-2.54-7.937-4.762-12.382-8.254z"/><path id="u3lqg" d="M1725.27 266.095c7.301-.952 11.11-2.222 16.19-8.254-4.127-11.11-6.031-18.412-7.936-29.841-3.81 2.222-6.984 2.857-9.524 2.857 2.222 13.333 2.222 21.587 1.27 35.238z"/><path id="u3lqh" d="M1557 207.27c.952 1.905 1.905 2.857 3.175 4.127.952-1.27 1.27-1.905 1.27-2.857-.953-.635-1.588-1.27-2.223-2.54-.317.635-.952.952-2.222 1.27z"/><mask id="u3lqj" width="2" height="2" x="-1" y="-1"><path fill="#fff" d="M1822 319h38v34h-38z"/><use xlink:href="#u3lqa"/></mask><filter id="u3lqi" width="66" height="64" x="1808" y="305" filterUnits="userSpaceOnUse"><feOffset dy="2" in="SourceGraphic" result="FeOffset1629Out"/><feGaussianBlur in="FeOffset1629Out" result="FeGaussianBlur1630Out" stdDeviation="1.6 1.6"/></filter><linearGradient id="u3lqk" x1="1855.45" x2="1822.84" y1="343.89" y2="328.89" gradientUnits="userSpaceOnUse"><stop offset="0" stop-color="#0038ab"/><stop offset=".11" stop-color="#0062c9"/><stop offset=".27" stop-color="#0097f0"/><stop offset=".35" stop-color="#00acff"/><stop offset=".4" stop-color="#00bfff"/><stop offset=".47" stop-color="#00d2ff"/><stop offset=".52" stop-color="#00d9ff"/><stop offset=".66" stop-color="#00b8ff"/><stop offset=".71" stop-color="#00acff"/><stop offset=".76" stop-color="#00a2f8"/><stop offset=".83" stop-color="#0086e3"/><stop offset=".93" stop-color="#0059c3"/><stop offset="1" stop-color="#0038ab"/></linearGradient><mask id="u3lqm" width="2" height="2" x="-1" y="-1"><path fill="#fff" d="M1693 119h19v24h-19z"/><use xlink:href="#u3lqb"/></mask><filter id="u3lql" width="47" height="54" x="1679" y="105" filterUnits="userSpaceOnUse"><feOffset dy="2" in="SourceGraphic" result="FeOffset1659Out"/><feGaussianBlur in="FeOffset1659Out" result="FeGaussianBlur1660Out" stdDeviation="1.6 1.6"/></filter><linearGradient id="u3lqn" x1="1709.96" x2="1695.73" y1="128.06" y2="136.06" gradientUnits="userSpaceOnUse"><stop offset="0" stop-color="#920040"/><stop offset=".05" stop-color="#ae0052"/><stop offset=".12" stop-color="#d10069"/><stop offset=".19" stop-color="#ea007a"/><stop offset=".25" stop-color="#fa0084"/><stop offset=".3" stop-color="#ff0087"/><stop offset=".35" stop-color="#ff1a8b"/><stop offset=".43" stop-color="#ff3f92"/><stop offset=".5" stop-color="#ff5696"/><stop offset=".55" stop-color="#ff5e97"/><stop offset=".58" stop-color="#ff5696"/><stop offset=".64" stop-color="#ff3f92"/><stop offset=".71" stop-color="#ff198b"/><stop offset=".75" stop-color="#ff0087"/><stop offset=".79" stop-color="#fa0084"/><stop offset=".84" stop-color="#ea007a"/><stop offset=".9" stop-color="#d10069"/><stop offset=".96" stop-color="#ae0053"/><stop offset="1" stop-color="#920040"/></linearGradient><mask id="u3lqp" width="2" height="2" x="-1" y="-1"><path fill="#fff" d="M1573 176h8v12h-8z"/><use xlink:href="#u3lqc"/></mask><filter id="u3lqo" width="36" height="42" x="1559" y="162" filterUnits="userSpaceOnUse"><feOffset dy="2" in="SourceGraphic" result="FeOffset1695Out"/><feGaussianBlur in="FeOffset1695Out" result="FeGaussianBlur1696Out" stdDeviation="1.6 1.6"/></filter><linearGradient id="u3lqq" x1="1581.5" x2="1573.32" y1="181.41" y2="183.63" gradientUnits="userSpaceOnUse"><stop offset="0" stop-color="#ab3c00"/><stop offset=".34" stop-color="#ffc700"/><stop offset=".37" stop-color="#ffcd17"/><stop offset=".41" stop-color="#ffd533"/><stop offset=".44" stop-color="#ffda46"/><stop offset=".48" stop-color="#ffdd52"/><stop offset=".52" stop-color="#ffde56"/><stop offset=".55" stop-color="#ffdd51"/><stop offset=".59" stop-color="#ffd943"/><stop offset=".62" stop-color="#ffd32b"/><stop offset=".66" stop-color="#ffca0b"/><stop offset=".67" stop-color="#ffc700"/><stop offset="1" stop-color="#ab3c00"/></linearGradient><mask id="u3lqs" width="2" height="2" x="-1" y="-1"><path fill="#fff" d="M1558 102h15v17h-15z"/><use xlink:href="#u3lqd"/></mask><filter id="u3lqr" width="43" height="47" x="1544" y="88" filterUnits="userSpaceOnUse"><feOffset dy="2" in="SourceGraphic" result="FeOffset1725Out"/><feGaussianBlur in="FeOffset1725Out" result="FeGaussianBlur1726Out" stdDeviation="1.6 1.6"/></filter><linearGradient id="u3lqt" x1="1561.22" x2="1569.16" y1="113.14" y2="107.52" gradientUnits="userSpaceOnUse"><stop offset="0" stop-color="#ab3c00"/><stop offset=".34" stop-color="#ffc700"/><stop offset=".37" stop-color="#ffcd17"/><stop offset=".41" stop-color="#ffd533"/><stop offset=".44" stop-color="#ffda46"/><stop offset=".48" stop-color="#ffdd52"/><stop offset=".52" stop-color="#ffde56"/><stop offset=".55" stop-color="#ffdd51"/><stop offset=".59" stop-color="#ffd943"/><stop offset=".62" stop-color="#ffd32b"/><stop offset=".66" stop-color="#ffca0b"/><stop offset=".67" stop-color="#ffc700"/><stop offset="1" stop-color="#ab3c00"/></linearGradient><mask id="u3lqv" width="2" height="2" x="-1" y="-1"><path fill="#fff" d="M1741 327h17v34h-17z"/><use xlink:href="#u3lqe"/></mask><filter id="u3lqu" width="45" height="64" x="1727" y="313" filterUnits="userSpaceOnUse"><feOffset dy="2" in="SourceGraphic" result="FeOffset1755Out"/><feGaussianBlur in="FeOffset1755Out" result="FeGaussianBlur1756Out" stdDeviation="1.6 1.6"/></filter><linearGradient id="u3lqw" x1="1762.2" x2="1739.54" y1="345.81" y2="342.3" gradientUnits="userSpaceOnUse"><stop offset="0" stop-color="#400300"/><stop offset=".07" stop-color="#750300"/><stop offset=".14" stop-color="#a50300"/><stop offset=".21" stop-color="#c80300"/><stop offset=".26" stop-color="#dd0300"/><stop offset=".3" stop-color="#e50300"/><stop offset=".34" stop-color="#ee190c"/><stop offset=".39" stop-color="#f82e18"/><stop offset=".45" stop-color="#fd3c20"/><stop offset=".49" stop-color="#ff4022"/><stop offset=".54" stop-color="#fd3b1f"/><stop offset=".6" stop-color="#f72e18"/><stop offset=".66" stop-color="#ee180c"/><stop offset=".7" stop-color="#e50300"/><stop offset=".73" stop-color="#db0300"/><stop offset=".79" stop-color="#c20300"/><stop offset=".87" stop-color="#980300"/><stop offset=".95" stop-color="#5e0300"/><stop offset="1" stop-color="#3b0300"/></linearGradient><mask id="u3lqy" width="2" height="2" x="-1" y="-1"><path fill="#fff" d="M1617 181h14v13h-14z"/><use xlink:href="#u3lqf"/></mask><filter id="u3lqx" width="42" height="43" x="1603" y="167" filterUnits="userSpaceOnUse"><feOffset dy="2" in="SourceGraphic" result="FeOffset1791Out"/><feGaussianBlur in="FeOffset1791Out" result="FeGaussianBlur1792Out" stdDeviation="1.6 1.6"/></filter><linearGradient id="u3lqz" x1="1622.63" x2="1625.29" y1="191.09" y2="183.09" gradientUnits="userSpaceOnUse"><stop offset="0" stop-color="#ab3c00"/><stop offset=".34" stop-color="#ffc700"/><stop offset=".37" stop-color="#ffcd17"/><stop offset=".41" stop-color="#ffd533"/><stop offset=".44" stop-color="#ffda46"/><stop offset=".48" stop-color="#ffdd52"/><stop offset=".52" stop-color="#ffde56"/><stop offset=".55" stop-color="#ffdd51"/><stop offset=".59" stop-color="#ffd943"/><stop offset=".62" stop-color="#ffd32b"/><stop offset=".66" stop-color="#ffca0b"/><stop offset=".67" stop-color="#ffc700"/><stop offset="1" stop-color="#ab3c00"/></linearGradient><mask id="u3lqB" width="2" height="2" x="-1" y="-1"><path fill="#fff" d="M1724 228h18v39h-18z"/><use xlink:href="#u3lqg"/></mask><filter id="u3lqA" width="46" height="69" x="1710" y="214" filterUnits="userSpaceOnUse"><feOffset dy="2" in="SourceGraphic" result="FeOffset1821Out"/><feGaussianBlur in="FeOffset1821Out" result="FeGaussianBlur1822Out" stdDeviation="1.6 1.6"/></filter><linearGradient id="u3lqC" x1="1739.09" x2="1720.14" y1="244.26" y2="250.12" gradientUnits="userSpaceOnUse"><stop offset="0" stop-color="#400300"/><stop offset=".07" stop-color="#750300"/><stop offset=".14" stop-color="#a50300"/><stop offset=".21" stop-color="#c80300"/><stop offset=".26" stop-color="#dd0300"/><stop offset=".3" stop-color="#e50300"/><stop offset=".34" stop-color="#ee190c"/><stop offset=".39" stop-color="#f82e18"/><stop offset=".45" stop-color="#fd3c20"/><stop offset=".49" stop-color="#ff4022"/><stop offset=".54" stop-color="#fd3b1f"/><stop offset=".6" stop-color="#f72e18"/><stop offset=".66" stop-color="#ee180c"/><stop offset=".7" stop-color="#e50300"/><stop offset=".73" stop-color="#db0300"/><stop offset=".79" stop-color="#c20300"/><stop offset=".87" stop-color="#980300"/><stop offset=".95" stop-color="#5e0300"/><stop offset="1" stop-color="#3b0300"/></linearGradient><mask id="u3lqE" width="2" height="2" x="-1" y="-1"><path fill="#fff" d="M1557 206h5v6h-5z"/><use xlink:href="#u3lqh"/></mask><filter id="u3lqD" width="33" height="36" x="1543" y="192" filterUnits="userSpaceOnUse"><feOffset dy="2" in="SourceGraphic" result="FeOffset1857Out"/><feGaussianBlur in="FeOffset1857Out" result="FeGaussianBlur1858Out" stdDeviation="1.6 1.6"/></filter><linearGradient id="u3lqF" x1="1558.22" x2="1561.03" y1="209.7" y2="207.07" gradientUnits="userSpaceOnUse"><stop offset="0" stop-color="#400300"/><stop offset=".07" stop-color="#750300"/><stop offset=".14" stop-color="#a50300"/><stop offset=".21" stop-color="#c80300"/><stop offset=".26" stop-color="#dd0300"/><stop offset=".3" stop-color="#e50300"/><stop offset=".34" stop-color="#ee190c"/><stop offset=".39" stop-color="#f82e18"/><stop offset=".45" stop-color="#fd3c20"/><stop offset=".49" stop-color="#ff4022"/><stop offset=".54" stop-color="#fd3b1f"/><stop offset=".6" stop-color="#f72e18"/><stop offset=".66" stop-color="#ee180c"/><stop offset=".7" stop-color="#e50300"/><stop offset=".73" stop-color="#db0300"/><stop offset=".79" stop-color="#c20300"/><stop offset=".87" stop-color="#980300"/><stop offset=".95" stop-color="#5e0300"/><stop offset="1" stop-color="#3b0300"/></linearGradient></defs><g><g transform="translate(-1554 -101)"><g filter="url(#u3lqi)"><use fill="none" stroke-opacity=".3" stroke-width="0" mask="url(&quot;#u3lqj&quot;)" xlink:href="#u3lqa"/><use fill-opacity=".3" xlink:href="#u3lqa"/></g><use fill="url(#u3lqk)" xlink:href="#u3lqa"/></g><g transform="translate(-1554 -101)"><g filter="url(#u3lql)"><use fill="none" stroke-opacity=".3" stroke-width="0" mask="url(&quot;#u3lqm&quot;)" xlink:href="#u3lqb"/><use fill-opacity=".3" xlink:href="#u3lqb"/></g><use fill="url(#u3lqn)" xlink:href="#u3lqb"/></g><g transform="translate(-1554 -101)"><g filter="url(#u3lqo)"><use fill="none" stroke-opacity=".3" stroke-width="0" mask="url(&quot;#u3lqp&quot;)" xlink:href="#u3lqc"/><use fill-opacity=".3" xlink:href="#u3lqc"/></g><use fill="url(#u3lqq)" xlink:href="#u3lqc"/></g><g transform="translate(-1554 -101)"><g filter="url(#u3lqr)"><use fill="none" stroke-opacity=".3" stroke-width="0" mask="url(&quot;#u3lqs&quot;)" xlink:href="#u3lqd"/><use fill-opacity=".3" xlink:href="#u3lqd"/></g><use fill="url(#u3lqt)" xlink:href="#u3lqd"/></g><g transform="translate(-1554 -101)"><g filter="url(#u3lqu)"><use fill="none" stroke-opacity=".3" stroke-width="0" mask="url(&quot;#u3lqv&quot;)" xlink:href="#u3lqe"/><use fill-opacity=".3" xlink:href="#u3lqe"/></g><use fill="url(#u3lqw)" xlink:href="#u3lqe"/></g><g transform="translate(-1554 -101)"><g filter="url(#u3lqx)"><use fill="none" stroke-opacity=".3" stroke-width="0" mask="url(&quot;#u3lqy&quot;)" xlink:href="#u3lqf"/><use fill-opacity=".3" xlink:href="#u3lqf"/></g><use fill="url(#u3lqz)" xlink:href="#u3lqf"/></g><g transform="translate(-1554 -101)"><g filter="url(#u3lqA)"><use fill="none" stroke-opacity=".3" stroke-width="0" mask="url(&quot;#u3lqB&quot;)" xlink:href="#u3lqg"/><use fill-opacity=".3" xlink:href="#u3lqg"/></g><use fill="url(#u3lqC)" xlink:href="#u3lqg"/></g><g transform="translate(-1554 -101)"><g filter="url(#u3lqD)"><use fill="none" stroke-opacity=".3" stroke-width="0" mask="url(&quot;#u3lqE&quot;)" xlink:href="#u3lqh"/><use fill-opacity=".3" xlink:href="#u3lqh"/></g><use fill="url(#u3lqF)" xlink:href="#u3lqh"/></g></g></svg>