<svg xmlns="http://www.w3.org/2000/svg" xmlns:xlink="http://www.w3.org/1999/xlink" width="333" height="268" viewBox="0 0 333 268"><defs><path id="1xbla" d="M1823 197.698c5.714 4.127 12.38 8.254 20.635 8.572 4.444-3.81 7.936-6.032 13.65-8.572-4.761-1.904-6.348-5.396-7.618-12.698-7.302 5.397-15.556 8.571-26.667 12.698z"/><path id="1xblb" d="M1565.238 273.825c6.032-3.174 8.889-8.571 10.794-17.777-14.286-5.08-21.905-9.524-32.699-19.048-1.904 6.667-5.396 10.476-13.333 17.143 10.794 9.524 20.952 14.603 35.238 19.682z"/><path id="1xblc" d="M1670.159 70.714c.317-2.222.317-3.492-.953-5.397-3.492.318-5.714 0-9.206-.317.317 1.27.317 2.222 0 2.857 4.127.635 6.35 1.27 10.159 2.857z"/><path id="1xbld" d="M1695.111 93.667c-1.587-2.223-1.905-4.127-1.905-6.667-4.127 1.905-7.936 4.127-9.206 5.714.952 1.905 1.905 3.492 3.81 5.397 1.587-1.905 3.81-2.857 7.301-4.444z"/><path id="1xble" d="M1759.048 188.635c6.666.317 11.11-2.857 17.46-9.524-9.206-10.794-13.333-18.095-17.46-31.111-4.762 4.444-9.207 6.032-19.048 7.302 4.127 13.333 10.159 22.54 19.048 33.333z"/><path id="1xblf" d="M1538.889 306c-5.08 2.54-7.62 5.714-8.889 12.063 3.81 4.762 7.302 7.62 11.746 8.89 4.762-4.445 9.206-6.032 17.143-7.937-8.254-3.81-13.333-6.35-20-13.016z"/><path id="1xblg" d="M1663.65 113.54c-1.27-1.588-2.856-1.905-5.713-2.54-.953 5.714-4.127 11.746-7.937 18.413 2.222.635 3.175 1.587 4.762 3.174 5.08-6.666 6.984-10.793 8.889-19.047z"/><mask id="1xbli" width="2" height="2" x="-1" y="-1"><path fill="#fff" d="M1823 185h35v22h-35z"/><use xlink:href="#1xbla"/></mask><filter id="1xblh" width="63" height="52" x="1809" y="171" filterUnits="userSpaceOnUse"><feOffset dy="2" in="SourceGraphic" result="FeOffset1897Out"/><feGaussianBlur in="FeOffset1897Out" result="FeGaussianBlur1898Out" stdDeviation="1.6 1.6"/></filter><linearGradient id="1xblj" x1="1835.36" x2="1847.49" y1="190.01" y2="207.68" gradientUnits="userSpaceOnUse"><stop offset="0" stop-color="#920040"/><stop offset=".05" stop-color="#ae0052"/><stop offset=".12" stop-color="#d10069"/><stop offset=".19" stop-color="#ea007a"/><stop offset=".25" stop-color="#fa0084"/><stop offset=".3" stop-color="#ff0087"/><stop offset=".35" stop-color="#ff1a8b"/><stop offset=".43" stop-color="#ff3f92"/><stop offset=".5" stop-color="#ff5696"/><stop offset=".55" stop-color="#ff5e97"/><stop offset=".58" stop-color="#ff5696"/><stop offset=".64" stop-color="#ff3f92"/><stop offset=".71" stop-color="#ff198b"/><stop offset=".75" stop-color="#ff0087"/><stop offset=".79" stop-color="#fa0084"/><stop offset=".84" stop-color="#ea007a"/><stop offset=".9" stop-color="#d10069"/><stop offset=".96" stop-color="#ae0053"/><stop offset="1" stop-color="#920040"/></linearGradient><mask id="1xbll" width="2" height="2" x="-1" y="-1"><path fill="#fff" d="M1530 237h46v37h-46z"/><use xlink:href="#1xblb"/></mask><filter id="1xblk" width="74" height="67" x="1516" y="223" filterUnits="userSpaceOnUse"><feOffset dy="2" in="SourceGraphic" result="FeOffset1933Out"/><feGaussianBlur in="FeOffset1933Out" result="FeGaussianBlur1934Out" stdDeviation="1.6 1.6"/></filter><linearGradient id="1xblm" x1="1561.1" x2="1545.37" y1="242.46" y2="270.51" gradientUnits="userSpaceOnUse"><stop offset="0" stop-color="#0038ab"/><stop offset=".11" stop-color="#0062c9"/><stop offset=".27" stop-color="#0097f0"/><stop offset=".35" stop-color="#00acff"/><stop offset=".4" stop-color="#00bfff"/><stop offset=".47" stop-color="#00d2ff"/><stop offset=".52" stop-color="#00d9ff"/><stop offset=".66" stop-color="#00b8ff"/><stop offset=".71" stop-color="#00acff"/><stop offset=".76" stop-color="#00a2f8"/><stop offset=".83" stop-color="#0086e3"/><stop offset=".93" stop-color="#0059c3"/><stop offset="1" stop-color="#0038ab"/></linearGradient><mask id="1xblo" width="2" height="2" x="-1" y="-1"><path fill="#fff" d="M1660 65h11v6h-11z"/><use xlink:href="#1xblc"/></mask><filter id="1xbln" width="39" height="36" x="1646" y="51" filterUnits="userSpaceOnUse"><feOffset dy="2" in="SourceGraphic" result="FeOffset1963Out"/><feGaussianBlur in="FeOffset1963Out" result="FeGaussianBlur1964Out" stdDeviation="1.6 1.6"/></filter><linearGradient id="1xblp" x1="1665.18" x2="1665.18" y1="64.73" y2="70.69" gradientUnits="userSpaceOnUse"><stop offset="0" stop-color="#0038ab"/><stop offset=".11" stop-color="#0062c9"/><stop offset=".27" stop-color="#0097f0"/><stop offset=".35" stop-color="#00acff"/><stop offset=".4" stop-color="#00bfff"/><stop offset=".47" stop-color="#00d2ff"/><stop offset=".52" stop-color="#00d9ff"/><stop offset=".66" stop-color="#00b8ff"/><stop offset=".71" stop-color="#00acff"/><stop offset=".76" stop-color="#00a2f8"/><stop offset=".83" stop-color="#0086e3"/><stop offset=".93" stop-color="#0059c3"/><stop offset="1" stop-color="#0038ab"/></linearGradient><mask id="1xblr" width="2" height="2" x="-1" y="-1"><path fill="#fff" d="M1684 87h12v12h-12z"/><use xlink:href="#1xbld"/></mask><filter id="1xblq" width="40" height="42" x="1670" y="73" filterUnits="userSpaceOnUse"><feOffset dy="2" in="SourceGraphic" result="FeOffset1993Out"/><feGaussianBlur in="FeOffset1993Out" result="FeGaussianBlur1994Out" stdDeviation="1.6 1.6"/></filter><linearGradient id="1xbls" x1="1692.2" x2="1687.66" y1="96.31" y2="88.11" gradientUnits="userSpaceOnUse"><stop offset="0" stop-color="#0038ab"/><stop offset=".11" stop-color="#0062c9"/><stop offset=".27" stop-color="#0097f0"/><stop offset=".35" stop-color="#00acff"/><stop offset=".4" stop-color="#00bfff"/><stop offset=".47" stop-color="#00d2ff"/><stop offset=".52" stop-color="#00d9ff"/><stop offset=".66" stop-color="#00b8ff"/><stop offset=".71" stop-color="#00acff"/><stop offset=".76" stop-color="#00a2f8"/><stop offset=".83" stop-color="#0086e3"/><stop offset=".93" stop-color="#0059c3"/><stop offset="1" stop-color="#0038ab"/></linearGradient><mask id="1xblu" width="2" height="2" x="-1" y="-1"><path fill="#fff" d="M1740 148h37v41h-37z"/><use xlink:href="#1xble"/></mask><filter id="1xblt" width="65" height="71" x="1726" y="134" filterUnits="userSpaceOnUse"><feOffset dy="2" in="SourceGraphic" result="FeOffset2023Out"/><feGaussianBlur in="FeOffset2023Out" result="FeGaussianBlur2024Out" stdDeviation="1.6 1.6"/></filter><linearGradient id="1xblv" x1="1770.81" x2="1744.7" y1="161.19" y2="176.54" gradientUnits="userSpaceOnUse"><stop offset="0" stop-color="#ab3c00"/><stop offset=".34" stop-color="#ffc700"/><stop offset=".37" stop-color="#ffcd17"/><stop offset=".41" stop-color="#ffd533"/><stop offset=".44" stop-color="#ffda46"/><stop offset=".48" stop-color="#ffdd52"/><stop offset=".52" stop-color="#ffde56"/><stop offset=".55" stop-color="#ffdd51"/><stop offset=".59" stop-color="#ffd943"/><stop offset=".62" stop-color="#ffd32b"/><stop offset=".66" stop-color="#ffca0b"/><stop offset=".67" stop-color="#ffc700"/><stop offset="1" stop-color="#ab3c00"/></linearGradient><mask id="1xblx" width="2" height="2" x="-1" y="-1"><path fill="#fff" d="M1530 306h29v21h-29z"/><use xlink:href="#1xblf"/></mask><filter id="1xblw" width="57" height="51" x="1516" y="292" filterUnits="userSpaceOnUse"><feOffset dy="2" in="SourceGraphic" result="FeOffset2053Out"/><feGaussianBlur in="FeOffset2053Out" result="FeGaussianBlur2054Out" stdDeviation="1.6 1.6"/></filter><linearGradient id="1xbly" x1="1548.82" x2="1536.1" y1="310.89" y2="328.21" gradientUnits="userSpaceOnUse"><stop offset="0" stop-color="#920040"/><stop offset=".05" stop-color="#ae0052"/><stop offset=".12" stop-color="#d10069"/><stop offset=".19" stop-color="#ea007a"/><stop offset=".25" stop-color="#fa0084"/><stop offset=".3" stop-color="#ff0087"/><stop offset=".35" stop-color="#ff1a8b"/><stop offset=".43" stop-color="#ff3f92"/><stop offset=".5" stop-color="#ff5696"/><stop offset=".55" stop-color="#ff5e97"/><stop offset=".58" stop-color="#ff5696"/><stop offset=".64" stop-color="#ff3f92"/><stop offset=".71" stop-color="#ff198b"/><stop offset=".75" stop-color="#ff0087"/><stop offset=".79" stop-color="#fa0084"/><stop offset=".84" stop-color="#ea007a"/><stop offset=".9" stop-color="#d10069"/><stop offset=".96" stop-color="#ae0053"/><stop offset="1" stop-color="#920040"/></linearGradient><mask id="1xblA" width="2" height="2" x="-1" y="-1"><path fill="#fff" d="M1650 111h14v22h-14z"/><use xlink:href="#1xblg"/></mask><filter id="1xblz" width="42" height="52" x="1636" y="97" filterUnits="userSpaceOnUse"><feOffset dy="2" in="SourceGraphic" result="FeOffset2089Out"/><feGaussianBlur in="FeOffset2089Out" result="FeGaussianBlur2090Out" stdDeviation="1.6 1.6"/></filter><linearGradient id="1xblB" x1="1662.09" x2="1653.22" y1="124.47" y2="119.16" gradientUnits="userSpaceOnUse"><stop offset="0" stop-color="#400300"/><stop offset=".07" stop-color="#750300"/><stop offset=".14" stop-color="#a50300"/><stop offset=".21" stop-color="#c80300"/><stop offset=".26" stop-color="#dd0300"/><stop offset=".3" stop-color="#e50300"/><stop offset=".34" stop-color="#ee190c"/><stop offset=".39" stop-color="#f82e18"/><stop offset=".45" stop-color="#fd3c20"/><stop offset=".49" stop-color="#ff4022"/><stop offset=".54" stop-color="#fd3b1f"/><stop offset=".6" stop-color="#f72e18"/><stop offset=".66" stop-color="#ee180c"/><stop offset=".7" stop-color="#e50300"/><stop offset=".73" stop-color="#db0300"/><stop offset=".79" stop-color="#c20300"/><stop offset=".87" stop-color="#980300"/><stop offset=".95" stop-color="#5e0300"/><stop offset="1" stop-color="#3b0300"/></linearGradient></defs><g><g transform="translate(-1527 -64)"><g filter="url(#1xblh)"><use fill="none" stroke-opacity=".3" stroke-width="0" mask="url(&quot;#1xbli&quot;)" xlink:href="#1xbla"/><use fill-opacity=".3" xlink:href="#1xbla"/></g><use fill="url(#1xblj)" xlink:href="#1xbla"/></g><g transform="translate(-1527 -64)"><g filter="url(#1xblk)"><use fill="none" stroke-opacity=".3" stroke-width="0" mask="url(&quot;#1xbll&quot;)" xlink:href="#1xblb"/><use fill-opacity=".3" xlink:href="#1xblb"/></g><use fill="url(#1xblm)" xlink:href="#1xblb"/></g><g transform="translate(-1527 -64)"><g filter="url(#1xbln)"><use fill="none" stroke-opacity=".3" stroke-width="0" mask="url(&quot;#1xblo&quot;)" xlink:href="#1xblc"/><use fill-opacity=".3" xlink:href="#1xblc"/></g><use fill="url(#1xblp)" xlink:href="#1xblc"/></g><g transform="translate(-1527 -64)"><g filter="url(#1xblq)"><use fill="none" stroke-opacity=".3" stroke-width="0" mask="url(&quot;#1xblr&quot;)" xlink:href="#1xbld"/><use fill-opacity=".3" xlink:href="#1xbld"/></g><use fill="url(#1xbls)" xlink:href="#1xbld"/></g><g transform="translate(-1527 -64)"><g filter="url(#1xblt)"><use fill="none" stroke-opacity=".3" stroke-width="0" mask="url(&quot;#1xblu&quot;)" xlink:href="#1xble"/><use fill-opacity=".3" xlink:href="#1xble"/></g><use fill="url(#1xblv)" xlink:href="#1xble"/></g><g transform="translate(-1527 -64)"><g filter="url(#1xblw)"><use fill="none" stroke-opacity=".3" stroke-width="0" mask="url(&quot;#1xblx&quot;)" xlink:href="#1xblf"/><use fill-opacity=".3" xlink:href="#1xblf"/></g><use fill="url(#1xbly)" xlink:href="#1xblf"/></g><g transform="translate(-1527 -64)"><g filter="url(#1xblz)"><use fill="none" stroke-opacity=".3" stroke-width="0" mask="url(&quot;#1xblA&quot;)" xlink:href="#1xblg"/><use fill-opacity=".3" xlink:href="#1xblg"/></g><use fill="url(#1xblB)" xlink:href="#1xblg"/></g></g></svg>