<svg xmlns="http://www.w3.org/2000/svg" xmlns:xlink="http://www.w3.org/1999/xlink" width="709" height="590" viewBox="0 0 709 590"><defs><path id="ma59a" d="M30 876V326c0-11.046 8.954-20 20-20h306.066a36.794 36.794 0 0 1 18.518 5l4.576 2.665a8 8 0 0 0 8.026.015l4.642-2.68a37.315 37.315 0 0 1 18.659-5H718c11.046 0 20 8.954 20 20v550c0 11.046-8.954 20-20 20H410.318a36.907 36.907 0 0 1-18.549-5l-4.58-2.663a8 8 0 0 0-8.041 0l-4.58 2.663a36.907 36.907 0 0 1-18.549 5H50c-11.046 0-20-8.954-20-20z"/><path id="ma59b" d="M18 909V293h732v616zm32-12h306.019a36.907 36.907 0 0 0 18.55-5l4.579-2.663a8 8 0 0 1 8.041 0l4.58 2.663a36.907 36.907 0 0 0 18.55 5H718c11.046 0 20-8.954 20-20V327c0-11.046-8.954-20-20-20H410.487a37.315 37.315 0 0 0-18.659 5l-4.642 2.68a8 8 0 0 1-8.026-.015L374.584 312a36.794 36.794 0 0 0-18.518-5H50c-11.046 0-20 8.954-20 20v550c0 11.046 8.954 20 20 20z"/><filter id="ma59c" width="200%" height="200%" x="-50%" y="-50%"><feGaussianBlur in="SourceGraphic" result="FeGaussianBlur1017Out" stdDeviation="6 6"/></filter><mask id="ma59d"><use fill="#fff" xlink:href="#ma59a"/></mask><clipPath id="ma59e"><use fill="#fff" xlink:href="#ma59a"/></clipPath></defs><g><g transform="translate(-29 -306)"><use stroke="#000" stroke-width="0" filter="url(#ma59c)" mask="url(&quot;#ma59d&quot;)" xlink:href="#ma59b"/><use fill="#fff" fill-opacity="0" stroke="#fff" stroke-miterlimit="50" stroke-width="8" clip-path="url(&quot;#ma59e&quot;)" xlink:href="#ma59a"/></g></g></svg>