<svg xmlns="http://www.w3.org/2000/svg" xmlns:xlink="http://www.w3.org/1999/xlink" width="281" height="870" viewBox="0 0 281 870"><defs><path id="dx8ca" d="M20 1024V194c0-11.046 8.954-20 20-20h93.066a36.794 36.794 0 0 1 18.518 5l4.576 2.665a8 8 0 0 0 8.026.015l4.642-2.68a37.315 37.315 0 0 1 18.659-5H280c11.046 0 20 8.954 20 20v830c0 11.046-8.954 20-20 20h-92.682a36.907 36.907 0 0 1-18.549-5l-4.58-2.663a8 8 0 0 0-8.041 0l-4.58 2.663a36.907 36.907 0 0 1-18.549 5H40c-11.046 0-20-8.954-20-20z"/><path id="dx8cb" d="M8 1057V161h304v896zm32-12h93.019a36.907 36.907 0 0 0 18.55-5l4.579-2.663a8 8 0 0 1 8.041 0l4.58 2.663a36.907 36.907 0 0 0 18.55 5H280c11.046 0 20-8.954 20-20V195c0-11.046-8.954-20-20-20h-92.513a37.315 37.315 0 0 0-18.659 5l-4.642 2.68a8 8 0 0 1-8.026-.015L151.584 180a36.794 36.794 0 0 0-18.518-5H40c-11.046 0-20 8.954-20 20v830c0 11.046 8.954 20 20 20z"/><filter id="dx8cc" width="200%" height="200%" x="-50%" y="-50%"><feGaussianBlur in="SourceGraphic" result="FeGaussianBlur1017Out" stdDeviation="6 6"/></filter><mask id="dx8cd"><use fill="#fff" xlink:href="#dx8ca"/></mask><clipPath id="dx8ce"><use fill="#fff" xlink:href="#dx8ca"/></clipPath></defs><g><g transform="translate(-19 -174)"><use stroke="#000" stroke-width="0" filter="url(#dx8cc)" mask="url(&quot;#dx8cd&quot;)" xlink:href="#dx8cb"/><use fill="#fff" fill-opacity="0" stroke="#fff" stroke-miterlimit="50" stroke-width="8" clip-path="url(&quot;#dx8ce&quot;)" xlink:href="#dx8ca"/></g></g></svg>