<svg xmlns="http://www.w3.org/2000/svg" xmlns:xlink="http://www.w3.org/1999/xlink" width="276" height="206" viewBox="0 0 276 206"><defs><path id="jg2da" d="M233 272.5c.294.75.882 1 2.059 1.5.882-1.5 1.765-2.25 2.941-3.25-.882-.25-1.176-.75-2.059-1.75-1.176 1-2.059 2-2.941 3.5z"/><path id="jg2db" d="M246.235 274c-1.47.75-2.353 1.25-3.235 2.25.294.75.882 1.25 1.765 1.75.882-1 1.764-1.5 3.235-2.25-1.176-.5-1.765-1-1.765-1.75z"/><path id="jg2dc" d="M284 278.531c-1.826-.281-2.87-1.125-4.174-2.531-1.043 3.375-1.826 6.75-1.826 8.156 1.304.563 2.87.844 4.696.844-.261-1.969.26-3.656 1.304-6.469z"/><path id="jg2dd" d="M263 428.27c-3.408-1.078-6.291-2.962-8.65-7.27-8.389 8.885-12.583 15.615-18.35 25.846 4.194 5.654 7.864 7.808 10.485 9.154 3.67-12.115 8.389-18.577 16.515-27.73z"/><path id="jg2de" d="M468.855 292c5.11-2.672 7.531-7.216 9.145-14.966-12.103-4.275-18.559-8.017-27.703-16.034-1.614 5.612-4.573 8.819-11.297 14.431 9.145 8.017 17.752 12.293 29.855 16.569z"/><path id="jg2df" d="M309 263.296c-.79 0-1.316-.518-1.842-1.296-1.58 1.815-2.369 3.37-3.158 5.444 1.053 1.037 1.842 1.297 2.368 1.556.527-2.333 1.316-3.889 2.632-5.704z"/><path id="jg2dg" d="M353.22 257c-.805 1.29-1.61 2.323-3.22 3.355 3.488 1.548 5.634 2.839 7.78 4.645 1.879-.774 2.415-1.548 3.22-2.839-1.341-1.29-4.293-3.355-7.78-5.161z"/><path id="jg2dh" d="M385.167 280c-.834.515-1.945.515-4.167 0 0 1.03 0 1.802.556 2.831 1.666.257 2.777.257 4.444-.257-.556-.772-.556-1.545-.833-2.574z"/><path id="jg2di" d="M353 315.45c3.644 2.7 5.986 6.75 8.068 17.55 4.165-1.62 7.548-4.32 10.932-9.18-2.603-7.83-4.685-12.15-10.15-17.82-2.083 4.05-4.165 6.21-8.85 9.45z"/><path id="jg2dj" d="M210.5 263c.556-2.52 1.111-3.64 2.5-5.32-.833-.56-1.389-.84-1.667-1.68-1.666 1.68-2.5 3.08-3.333 5.6 1.111.84 1.667 1.4 2.5 1.4z"/><path id="jg2dk" d="M210 275.25c.533 1.25 1.067 2.25 2.133 2.75.8-.25 1.334-.75 1.867-1.25-1.067-1-1.6-1.5-1.867-2.75-.8.75-1.333 1.25-2.133 1.25z"/><path id="jg2dl" d="M301.8 362c-5.6 0-8.8 1.583-12.8 6.07 1.067 5.541 2.933 9.5 6.133 12.402 5.867-1.583 10.4-1.055 17.867.528-5.333-6.597-8.533-10.82-11.2-19z"/><path id="jg2dm" d="M231 289.24c0 1.96.522 2.8 1.565 4.76 1.565-1.4 2.87-1.96 4.435-2.24 0-1.68-.26-2.8-.783-4.76-1.826 1.12-3.13 1.68-5.217 2.24z"/><path id="jg2dn" d="M370.387 419c-1.577 7.585-2.103 13.863 0 20.14 4.992 1.308 8.409 1.046 12.35-.261-1.84-7.586-1.84-12.294.263-19.879-5.256 1.83-8.672 2.354-12.613 0z"/><mask id="jg2dp" width="2" height="2" x="-1" y="-1"><path fill="#fff" d="M233 269h5v5h-5z"/><use xlink:href="#jg2da"/></mask><filter id="jg2do" width="33" height="35" x="219" y="255" filterUnits="userSpaceOnUse"><feOffset dy="2" in="SourceGraphic" result="FeOffset1023Out"/><feGaussianBlur in="FeOffset1023Out" result="FeGaussianBlur1024Out" stdDeviation="1.6 1.6"/></filter><linearGradient id="jg2dq" x1="237.05" x2="233.67" y1="272.63" y2="270.46" gradientUnits="userSpaceOnUse"><stop offset="0" stop-color="#920040"/><stop offset=".05" stop-color="#ae0052"/><stop offset=".12" stop-color="#d10069"/><stop offset=".19" stop-color="#ea007a"/><stop offset=".25" stop-color="#fa0084"/><stop offset=".3" stop-color="#ff0087"/><stop offset=".35" stop-color="#ff1a8b"/><stop offset=".43" stop-color="#ff3f92"/><stop offset=".5" stop-color="#ff5696"/><stop offset=".55" stop-color="#ff5e97"/><stop offset=".58" stop-color="#ff5696"/><stop offset=".64" stop-color="#ff3f92"/><stop offset=".71" stop-color="#ff198b"/><stop offset=".75" stop-color="#ff0087"/><stop offset=".79" stop-color="#fa0084"/><stop offset=".84" stop-color="#ea007a"/><stop offset=".9" stop-color="#d10069"/><stop offset=".96" stop-color="#ae0053"/><stop offset="1" stop-color="#920040"/></linearGradient><mask id="jg2ds" width="2" height="2" x="-1" y="-1"><path fill="#fff" d="M243 274h5v4h-5z"/><use xlink:href="#jg2db"/></mask><filter id="jg2dr" width="33" height="34" x="229" y="260" filterUnits="userSpaceOnUse"><feOffset dy="2" in="SourceGraphic" result="FeOffset1059Out"/><feGaussianBlur in="FeOffset1059Out" result="FeGaussianBlur1060Out" stdDeviation="1.6 1.6"/></filter><linearGradient id="jg2dt" x1="244.25" x2="246.15" y1="275.03" y2="276.9" gradientUnits="userSpaceOnUse"><stop offset="0" stop-color="#0038ab"/><stop offset=".11" stop-color="#0062c9"/><stop offset=".27" stop-color="#0097f0"/><stop offset=".35" stop-color="#00acff"/><stop offset=".4" stop-color="#00bfff"/><stop offset=".47" stop-color="#00d2ff"/><stop offset=".52" stop-color="#00d9ff"/><stop offset=".66" stop-color="#00b8ff"/><stop offset=".71" stop-color="#00acff"/><stop offset=".76" stop-color="#00a2f8"/><stop offset=".83" stop-color="#0086e3"/><stop offset=".93" stop-color="#0059c3"/><stop offset="1" stop-color="#0038ab"/></linearGradient><mask id="jg2dv" width="2" height="2" x="-1" y="-1"><path fill="#fff" d="M278 276h6v9h-6z"/><use xlink:href="#jg2dc"/></mask><filter id="jg2du" width="34" height="39" x="264" y="262" filterUnits="userSpaceOnUse"><feOffset dy="2" in="SourceGraphic" result="FeOffset1089Out"/><feGaussianBlur in="FeOffset1089Out" result="FeGaussianBlur1090Out" stdDeviation="1.6 1.6"/></filter><linearGradient id="jg2dw" x1="283.92" x2="277.47" y1="281.47" y2="279.58" gradientUnits="userSpaceOnUse"><stop offset="0" stop-color="#ab3c00"/><stop offset=".34" stop-color="#ffc700"/><stop offset=".37" stop-color="#ffcd17"/><stop offset=".41" stop-color="#ffd533"/><stop offset=".44" stop-color="#ffda46"/><stop offset=".48" stop-color="#ffdd52"/><stop offset=".52" stop-color="#ffde56"/><stop offset=".55" stop-color="#ffdd51"/><stop offset=".59" stop-color="#ffd943"/><stop offset=".62" stop-color="#ffd32b"/><stop offset=".66" stop-color="#ffca0b"/><stop offset=".67" stop-color="#ffc700"/><stop offset="1" stop-color="#ab3c00"/></linearGradient><mask id="jg2dy" width="2" height="2" x="-1" y="-1"><path fill="#fff" d="M236 421h27v35h-27z"/><use xlink:href="#jg2dd"/></mask><filter id="jg2dx" width="55" height="65" x="222" y="407" filterUnits="userSpaceOnUse"><feOffset dy="2" in="SourceGraphic" result="FeOffset1119Out"/><feGaussianBlur in="FeOffset1119Out" result="FeGaussianBlur1120Out" stdDeviation="1.6 1.6"/></filter><linearGradient id="jg2dz" x1="255.81" x2="240.5" y1="442.39" y2="431.87" gradientUnits="userSpaceOnUse"><stop offset="0" stop-color="#0038ab"/><stop offset=".11" stop-color="#0062c9"/><stop offset=".27" stop-color="#0097f0"/><stop offset=".35" stop-color="#00acff"/><stop offset=".4" stop-color="#00bfff"/><stop offset=".47" stop-color="#00d2ff"/><stop offset=".52" stop-color="#00d9ff"/><stop offset=".66" stop-color="#00b8ff"/><stop offset=".71" stop-color="#00acff"/><stop offset=".76" stop-color="#00a2f8"/><stop offset=".83" stop-color="#0086e3"/><stop offset=".93" stop-color="#0059c3"/><stop offset="1" stop-color="#0038ab"/></linearGradient><mask id="jg2dB" width="2" height="2" x="-1" y="-1"><path fill="#fff" d="M439 261h39v31h-39z"/><use xlink:href="#jg2de"/></mask><filter id="jg2dA" width="67" height="61" x="425" y="247" filterUnits="userSpaceOnUse"><feOffset dy="2" in="SourceGraphic" result="FeOffset1149Out"/><feGaussianBlur in="FeOffset1149Out" result="FeGaussianBlur1150Out" stdDeviation="1.6 1.6"/></filter><linearGradient id="jg2dC" x1="465.35" x2="452.02" y1="265.59" y2="289.21" gradientUnits="userSpaceOnUse"><stop offset="0" stop-color="#0038ab"/><stop offset=".11" stop-color="#0062c9"/><stop offset=".27" stop-color="#0097f0"/><stop offset=".35" stop-color="#00acff"/><stop offset=".4" stop-color="#00bfff"/><stop offset=".47" stop-color="#00d2ff"/><stop offset=".52" stop-color="#00d9ff"/><stop offset=".66" stop-color="#00b8ff"/><stop offset=".71" stop-color="#00acff"/><stop offset=".76" stop-color="#00a2f8"/><stop offset=".83" stop-color="#0086e3"/><stop offset=".93" stop-color="#0059c3"/><stop offset="1" stop-color="#0038ab"/></linearGradient><mask id="jg2dE" width="2" height="2" x="-1" y="-1"><path fill="#fff" d="M304 262h5v7h-5z"/><use xlink:href="#jg2df"/></mask><filter id="jg2dD" width="33" height="37" x="290" y="248" filterUnits="userSpaceOnUse"><feOffset dy="2" in="SourceGraphic" result="FeOffset1179Out"/><feGaussianBlur in="FeOffset1179Out" result="FeGaussianBlur1180Out" stdDeviation="1.6 1.6"/></filter><linearGradient id="jg2dF" x1="307.91" x2="304.54" y1="266.15" y2="264.41" gradientUnits="userSpaceOnUse"><stop offset="0" stop-color="#400300"/><stop offset=".07" stop-color="#750300"/><stop offset=".14" stop-color="#a50300"/><stop offset=".21" stop-color="#c80300"/><stop offset=".26" stop-color="#dd0300"/><stop offset=".3" stop-color="#e50300"/><stop offset=".34" stop-color="#ee190c"/><stop offset=".39" stop-color="#f82e18"/><stop offset=".45" stop-color="#fd3c20"/><stop offset=".49" stop-color="#ff4022"/><stop offset=".54" stop-color="#fd3b1f"/><stop offset=".6" stop-color="#f72e18"/><stop offset=".66" stop-color="#ee180c"/><stop offset=".7" stop-color="#e50300"/><stop offset=".73" stop-color="#db0300"/><stop offset=".79" stop-color="#c20300"/><stop offset=".87" stop-color="#980300"/><stop offset=".95" stop-color="#5e0300"/><stop offset="1" stop-color="#3b0300"/></linearGradient><mask id="jg2dH" width="2" height="2" x="-1" y="-1"><path fill="#fff" d="M350 257h11v8h-11z"/><use xlink:href="#jg2dg"/></mask><filter id="jg2dG" width="39" height="38" x="336" y="243" filterUnits="userSpaceOnUse"><feOffset dy="2" in="SourceGraphic" result="FeOffset1215Out"/><feGaussianBlur in="FeOffset1215Out" result="FeGaussianBlur1216Out" stdDeviation="1.6 1.6"/></filter><linearGradient id="jg2dI" x1="353.49" x2="357.61" y1="264.49" y2="258.66" gradientUnits="userSpaceOnUse"><stop offset="0" stop-color="#400300"/><stop offset=".07" stop-color="#750300"/><stop offset=".14" stop-color="#a50300"/><stop offset=".21" stop-color="#c80300"/><stop offset=".26" stop-color="#dd0300"/><stop offset=".3" stop-color="#e50300"/><stop offset=".34" stop-color="#ee190c"/><stop offset=".39" stop-color="#f82e18"/><stop offset=".45" stop-color="#fd3c20"/><stop offset=".49" stop-color="#ff4022"/><stop offset=".54" stop-color="#fd3b1f"/><stop offset=".6" stop-color="#f72e18"/><stop offset=".66" stop-color="#ee180c"/><stop offset=".7" stop-color="#e50300"/><stop offset=".73" stop-color="#db0300"/><stop offset=".79" stop-color="#c20300"/><stop offset=".87" stop-color="#980300"/><stop offset=".95" stop-color="#5e0300"/><stop offset="1" stop-color="#3b0300"/></linearGradient><mask id="jg2dK" width="2" height="2" x="-1" y="-1"><path fill="#fff" d="M381 280h5v3h-5z"/><use xlink:href="#jg2dh"/></mask><filter id="jg2dJ" width="33" height="33" x="367" y="266" filterUnits="userSpaceOnUse"><feOffset dy="2" in="SourceGraphic" result="FeOffset1251Out"/><feGaussianBlur in="FeOffset1251Out" result="FeGaussianBlur1252Out" stdDeviation="1.6 1.6"/></filter><linearGradient id="jg2dL" x1="383.43" x2="383.77" y1="279.32" y2="283.58" gradientUnits="userSpaceOnUse"><stop offset="0" stop-color="#0038ab"/><stop offset=".11" stop-color="#0062c9"/><stop offset=".27" stop-color="#0097f0"/><stop offset=".35" stop-color="#00acff"/><stop offset=".4" stop-color="#00bfff"/><stop offset=".47" stop-color="#00d2ff"/><stop offset=".52" stop-color="#00d9ff"/><stop offset=".66" stop-color="#00b8ff"/><stop offset=".71" stop-color="#00acff"/><stop offset=".76" stop-color="#00a2f8"/><stop offset=".83" stop-color="#0086e3"/><stop offset=".93" stop-color="#0059c3"/><stop offset="1" stop-color="#0038ab"/></linearGradient><mask id="jg2dN" width="2" height="2" x="-1" y="-1"><path fill="#fff" d="M353 306h19v27h-19z"/><use xlink:href="#jg2di"/></mask><filter id="jg2dM" width="47" height="57" x="339" y="292" filterUnits="userSpaceOnUse"><feOffset dy="2" in="SourceGraphic" result="FeOffset1281Out"/><feGaussianBlur in="FeOffset1281Out" result="FeGaussianBlur1282Out" stdDeviation="1.6 1.6"/></filter><linearGradient id="jg2dO" x1="353.46" x2="371.81" y1="324.51" y2="313.16" gradientUnits="userSpaceOnUse"><stop offset="0" stop-color="#ab3c00"/><stop offset=".34" stop-color="#ffc700"/><stop offset=".37" stop-color="#ffcd17"/><stop offset=".41" stop-color="#ffd533"/><stop offset=".44" stop-color="#ffda46"/><stop offset=".48" stop-color="#ffdd52"/><stop offset=".52" stop-color="#ffde56"/><stop offset=".55" stop-color="#ffdd51"/><stop offset=".59" stop-color="#ffd943"/><stop offset=".62" stop-color="#ffd32b"/><stop offset=".66" stop-color="#ffca0b"/><stop offset=".67" stop-color="#ffc700"/><stop offset="1" stop-color="#ab3c00"/></linearGradient><mask id="jg2dQ" width="2" height="2" x="-1" y="-1"><path fill="#fff" d="M208 256h5v7h-5z"/><use xlink:href="#jg2dj"/></mask><filter id="jg2dP" width="33" height="37" x="194" y="242" filterUnits="userSpaceOnUse"><feOffset dy="2" in="SourceGraphic" result="FeOffset1311Out"/><feGaussianBlur in="FeOffset1311Out" result="FeGaussianBlur1312Out" stdDeviation="1.6 1.6"/></filter><linearGradient id="jg2dR" x1="208.93" x2="212.87" y1="258.63" y2="260.58" gradientUnits="userSpaceOnUse"><stop offset="0" stop-color="#005200"/><stop offset=".19" stop-color="#00890b"/><stop offset=".31" stop-color="#00a912"/><stop offset=".33" stop-color="#11ad12"/><stop offset=".37" stop-color="#3ab512"/><stop offset=".41" stop-color="#5abc12"/><stop offset=".44" stop-color="#71c112"/><stop offset=".48" stop-color="#7ec412"/><stop offset=".51" stop-color="#83c512"/><stop offset=".55" stop-color="#7fc412"/><stop offset=".59" stop-color="#72c112"/><stop offset=".63" stop-color="#5ebd12"/><stop offset=".67" stop-color="#41b712"/><stop offset=".72" stop-color="#1caf12"/><stop offset=".74" stop-color="#00a912"/><stop offset=".78" stop-color="#009e10"/><stop offset=".86" stop-color="#00800c"/><stop offset=".95" stop-color="#005004"/><stop offset="1" stop-color="#003400"/></linearGradient><mask id="jg2dT" width="2" height="2" x="-1" y="-1"><path fill="#fff" d="M210 274h4v4h-4z"/><use xlink:href="#jg2dk"/></mask><filter id="jg2dS" width="32" height="34" x="196" y="260" filterUnits="userSpaceOnUse"><feOffset dy="2" in="SourceGraphic" result="FeOffset1347Out"/><feGaussianBlur in="FeOffset1347Out" result="FeGaussianBlur1348Out" stdDeviation="1.6 1.6"/></filter><linearGradient id="jg2dU" x1="210.94" x2="212.99" y1="276.85" y2="275.45" gradientUnits="userSpaceOnUse"><stop offset="0" stop-color="#400300"/><stop offset=".07" stop-color="#750300"/><stop offset=".14" stop-color="#a50300"/><stop offset=".21" stop-color="#c80300"/><stop offset=".26" stop-color="#dd0300"/><stop offset=".3" stop-color="#e50300"/><stop offset=".34" stop-color="#ee190c"/><stop offset=".39" stop-color="#f82e18"/><stop offset=".45" stop-color="#fd3c20"/><stop offset=".49" stop-color="#ff4022"/><stop offset=".54" stop-color="#fd3b1f"/><stop offset=".6" stop-color="#f72e18"/><stop offset=".66" stop-color="#ee180c"/><stop offset=".7" stop-color="#e50300"/><stop offset=".73" stop-color="#db0300"/><stop offset=".79" stop-color="#c20300"/><stop offset=".87" stop-color="#980300"/><stop offset=".95" stop-color="#5e0300"/><stop offset="1" stop-color="#3b0300"/></linearGradient><mask id="jg2dW" width="2" height="2" x="-1" y="-1"><path fill="#fff" d="M289 362h24v19h-24z"/><use xlink:href="#jg2dl"/></mask><filter id="jg2dV" width="52" height="49" x="275" y="348" filterUnits="userSpaceOnUse"><feOffset dy="2" in="SourceGraphic" result="FeOffset1383Out"/><feGaussianBlur in="FeOffset1383Out" result="FeGaussianBlur1384Out" stdDeviation="1.6 1.6"/></filter><linearGradient id="jg2dX" x1="307.85" x2="289.73" y1="370.1" y2="379.14" gradientUnits="userSpaceOnUse"><stop offset="0" stop-color="#005200"/><stop offset=".19" stop-color="#00890b"/><stop offset=".31" stop-color="#00a912"/><stop offset=".33" stop-color="#11ad12"/><stop offset=".37" stop-color="#3ab512"/><stop offset=".41" stop-color="#5abc12"/><stop offset=".44" stop-color="#71c112"/><stop offset=".48" stop-color="#7ec412"/><stop offset=".51" stop-color="#83c512"/><stop offset=".55" stop-color="#7fc412"/><stop offset=".59" stop-color="#72c112"/><stop offset=".63" stop-color="#5ebd12"/><stop offset=".67" stop-color="#41b712"/><stop offset=".72" stop-color="#1caf12"/><stop offset=".74" stop-color="#00a912"/><stop offset=".78" stop-color="#009e10"/><stop offset=".86" stop-color="#00800c"/><stop offset=".95" stop-color="#005004"/><stop offset="1" stop-color="#003400"/></linearGradient><mask id="jg2dZ" width="2" height="2" x="-1" y="-1"><path fill="#fff" d="M231 287h6v7h-6z"/><use xlink:href="#jg2dm"/></mask><filter id="jg2dY" width="34" height="37" x="217" y="273" filterUnits="userSpaceOnUse"><feOffset dy="2" in="SourceGraphic" result="FeOffset1419Out"/><feGaussianBlur in="FeOffset1419Out" result="FeGaussianBlur1420Out" stdDeviation="1.6 1.6"/></filter><linearGradient id="jg2daa" x1="233.22" x2="235.21" y1="288.04" y2="293.35" gradientUnits="userSpaceOnUse"><stop offset="0" stop-color="#400300"/><stop offset=".07" stop-color="#750300"/><stop offset=".14" stop-color="#a50300"/><stop offset=".21" stop-color="#c80300"/><stop offset=".26" stop-color="#dd0300"/><stop offset=".3" stop-color="#e50300"/><stop offset=".34" stop-color="#ee190c"/><stop offset=".39" stop-color="#f82e18"/><stop offset=".45" stop-color="#fd3c20"/><stop offset=".49" stop-color="#ff4022"/><stop offset=".54" stop-color="#fd3b1f"/><stop offset=".6" stop-color="#f72e18"/><stop offset=".66" stop-color="#ee180c"/><stop offset=".7" stop-color="#e50300"/><stop offset=".73" stop-color="#db0300"/><stop offset=".79" stop-color="#c20300"/><stop offset=".87" stop-color="#980300"/><stop offset=".95" stop-color="#5e0300"/><stop offset="1" stop-color="#3b0300"/></linearGradient><mask id="jg2dac" width="2" height="2" x="-1" y="-1"><path fill="#fff" d="M369 419h14v21h-14z"/><use xlink:href="#jg2dn"/></mask><filter id="jg2dab" width="42" height="51" x="355" y="405" filterUnits="userSpaceOnUse"><feOffset dy="2" in="SourceGraphic" result="FeOffset1455Out"/><feGaussianBlur in="FeOffset1455Out" result="FeGaussianBlur1456Out" stdDeviation="1.6 1.6"/></filter><linearGradient id="jg2dad" x1="368.93" x2="383.09" y1="429.62" y2="429.16" gradientUnits="userSpaceOnUse"><stop offset="0" stop-color="#ab3c00"/><stop offset=".34" stop-color="#ffc700"/><stop offset=".37" stop-color="#ffcd17"/><stop offset=".41" stop-color="#ffd533"/><stop offset=".44" stop-color="#ffda46"/><stop offset=".48" stop-color="#ffdd52"/><stop offset=".52" stop-color="#ffde56"/><stop offset=".55" stop-color="#ffdd51"/><stop offset=".59" stop-color="#ffd943"/><stop offset=".62" stop-color="#ffd32b"/><stop offset=".66" stop-color="#ffca0b"/><stop offset=".67" stop-color="#ffc700"/><stop offset="1" stop-color="#ab3c00"/></linearGradient></defs><g><g transform="translate(-205 -255)"><g filter="url(#jg2do)"><use fill="none" stroke-opacity=".3" stroke-width="0" mask="url(&quot;#jg2dp&quot;)" xlink:href="#jg2da"/><use fill-opacity=".3" xlink:href="#jg2da"/></g><use fill="url(#jg2dq)" xlink:href="#jg2da"/></g><g transform="translate(-205 -255)"><g filter="url(#jg2dr)"><use fill="none" stroke-opacity=".3" stroke-width="0" mask="url(&quot;#jg2ds&quot;)" xlink:href="#jg2db"/><use fill-opacity=".3" xlink:href="#jg2db"/></g><use fill="url(#jg2dt)" xlink:href="#jg2db"/></g><g transform="translate(-205 -255)"><g filter="url(#jg2du)"><use fill="none" stroke-opacity=".3" stroke-width="0" mask="url(&quot;#jg2dv&quot;)" xlink:href="#jg2dc"/><use fill-opacity=".3" xlink:href="#jg2dc"/></g><use fill="url(#jg2dw)" xlink:href="#jg2dc"/></g><g transform="translate(-205 -255)"><g filter="url(#jg2dx)"><use fill="none" stroke-opacity=".3" stroke-width="0" mask="url(&quot;#jg2dy&quot;)" xlink:href="#jg2dd"/><use fill-opacity=".3" xlink:href="#jg2dd"/></g><use fill="url(#jg2dz)" xlink:href="#jg2dd"/></g><g transform="translate(-205 -255)"><g filter="url(#jg2dA)"><use fill="none" stroke-opacity=".3" stroke-width="0" mask="url(&quot;#jg2dB&quot;)" xlink:href="#jg2de"/><use fill-opacity=".3" xlink:href="#jg2de"/></g><use fill="url(#jg2dC)" xlink:href="#jg2de"/></g><g transform="translate(-205 -255)"><g filter="url(#jg2dD)"><use fill="none" stroke-opacity=".3" stroke-width="0" mask="url(&quot;#jg2dE&quot;)" xlink:href="#jg2df"/><use fill-opacity=".3" xlink:href="#jg2df"/></g><use fill="url(#jg2dF)" xlink:href="#jg2df"/></g><g transform="translate(-205 -255)"><g filter="url(#jg2dG)"><use fill="none" stroke-opacity=".3" stroke-width="0" mask="url(&quot;#jg2dH&quot;)" xlink:href="#jg2dg"/><use fill-opacity=".3" xlink:href="#jg2dg"/></g><use fill="url(#jg2dI)" xlink:href="#jg2dg"/></g><g transform="translate(-205 -255)"><g filter="url(#jg2dJ)"><use fill="none" stroke-opacity=".3" stroke-width="0" mask="url(&quot;#jg2dK&quot;)" xlink:href="#jg2dh"/><use fill-opacity=".3" xlink:href="#jg2dh"/></g><use fill="url(#jg2dL)" xlink:href="#jg2dh"/></g><g transform="translate(-205 -255)"><g filter="url(#jg2dM)"><use fill="none" stroke-opacity=".3" stroke-width="0" mask="url(&quot;#jg2dN&quot;)" xlink:href="#jg2di"/><use fill-opacity=".3" xlink:href="#jg2di"/></g><use fill="url(#jg2dO)" xlink:href="#jg2di"/></g><g transform="translate(-205 -255)"><g filter="url(#jg2dP)"><use fill="none" stroke-opacity=".3" stroke-width="0" mask="url(&quot;#jg2dQ&quot;)" xlink:href="#jg2dj"/><use fill-opacity=".3" xlink:href="#jg2dj"/></g><use fill="url(#jg2dR)" xlink:href="#jg2dj"/></g><g transform="translate(-205 -255)"><g filter="url(#jg2dS)"><use fill="none" stroke-opacity=".3" stroke-width="0" mask="url(&quot;#jg2dT&quot;)" xlink:href="#jg2dk"/><use fill-opacity=".3" xlink:href="#jg2dk"/></g><use fill="url(#jg2dU)" xlink:href="#jg2dk"/></g><g transform="translate(-205 -255)"><g filter="url(#jg2dV)"><use fill="none" stroke-opacity=".3" stroke-width="0" mask="url(&quot;#jg2dW&quot;)" xlink:href="#jg2dl"/><use fill-opacity=".3" xlink:href="#jg2dl"/></g><use fill="url(#jg2dX)" xlink:href="#jg2dl"/></g><g transform="translate(-205 -255)"><g filter="url(#jg2dY)"><use fill="none" stroke-opacity=".3" stroke-width="0" mask="url(&quot;#jg2dZ&quot;)" xlink:href="#jg2dm"/><use fill-opacity=".3" xlink:href="#jg2dm"/></g><use fill="url(#jg2daa)" xlink:href="#jg2dm"/></g><g transform="translate(-205 -255)"><g filter="url(#jg2dab)"><use fill="none" stroke-opacity=".3" stroke-width="0" mask="url(&quot;#jg2dac&quot;)" xlink:href="#jg2dn"/><use fill-opacity=".3" xlink:href="#jg2dn"/></g><use fill="url(#jg2dad)" xlink:href="#jg2dn"/></g></g></svg>