<svg xmlns="http://www.w3.org/2000/svg" xmlns:xlink="http://www.w3.org/1999/xlink" width="232" height="271" viewBox="0 0 232 271"><defs><path id="fev7a" d="M320.571 929c-1.587 4.127-3.492 6.35-8.571 7.619 3.81 4.127 7.619 6.032 14.286 8.889 3.81-1.27 5.397-3.175 6.984-7.302-5.714-2.54-9.841-4.762-12.699-9.206z"/><path id="fev7b" d="M294.231 996.65c-.952 8.255.953 13.652 7.302 20 8.571-.952 14.603-2.856 19.682-7.3-1.587-9.207 0-15.556 3.492-26.35-10.793 6.667-17.46 10.794-30.476 13.65z"/><path id="fev7c" d="M288 778.27c2.857 5.397 6.35 7.619 13.016 8.571 4.762-4.127 7.619-7.936 8.571-12.698-4.762-4.762-6.666-9.206-9.206-17.143-3.492 8.571-6.032 13.968-12.381 21.27z"/><path id="fev7d" d="M139.332 864.827c.952-10.476 4.445-15.873 10.794-23.492-16.508-4.445-33.334-7.302-40.953-6.032-2.54 7.937-2.54 14.92-1.587 24.762 8.571-1.27 17.143.635 31.746 4.762z"/><path id="fev7e" d="M265.33 900.556c7.302 5.714 15.556 11.11 26.032 11.746 6.031-4.762 10.476-7.62 17.778-10.477-6.032-2.857-7.937-6.984-9.207-16.825-9.206 6.984-20 10.794-34.603 15.556z"/><path id="fev7f" d="M275.873 767.238c-1.905-5.714-2.857-9.206-2.857-15.238-2.857 0-5.397.635-7.937 2.222-.317 4.127.318 9.207 1.905 15.873 3.492-2.857 5.714-3.81 8.889-2.857z"/><mask id="fev7h" width="2" height="2" x="-1" y="-1"><path fill="#fff" d="M312 929h22v17h-22z"/><use xlink:href="#fev7a"/></mask><filter id="fev7g" width="50" height="47" x="298" y="915" filterUnits="userSpaceOnUse"><feOffset dy="2" in="SourceGraphic" result="FeOffset1433Out"/><feGaussianBlur in="FeOffset1433Out" result="FeGaussianBlur1434Out" stdDeviation="1.6 1.6"/></filter><linearGradient id="fev7i" x1="326.64" x2="317.58" y1="932.74" y2="944.44" gradientUnits="userSpaceOnUse"><stop offset="0" stop-color="#0038ab"/><stop offset=".11" stop-color="#0062c9"/><stop offset=".27" stop-color="#0097f0"/><stop offset=".35" stop-color="#00acff"/><stop offset=".4" stop-color="#00bfff"/><stop offset=".47" stop-color="#00d2ff"/><stop offset=".52" stop-color="#00d9ff"/><stop offset=".66" stop-color="#00b8ff"/><stop offset=".71" stop-color="#00acff"/><stop offset=".76" stop-color="#00a2f8"/><stop offset=".83" stop-color="#0086e3"/><stop offset=".93" stop-color="#0059c3"/><stop offset="1" stop-color="#0038ab"/></linearGradient><mask id="fev7k" width="2" height="2" x="-1" y="-1"><path fill="#fff" d="M294 983h31v34h-31z"/><use xlink:href="#fev7b"/></mask><filter id="fev7j" width="59" height="64" x="280" y="969" filterUnits="userSpaceOnUse"><feOffset dy="2" in="SourceGraphic" result="FeOffset1463Out"/><feGaussianBlur in="FeOffset1463Out" result="FeGaussianBlur1464Out" stdDeviation="1.6 1.6"/></filter><linearGradient id="fev7l" x1="307.57" x2="318.44" y1="988.65" y2="1017.09" gradientUnits="userSpaceOnUse"><stop offset="0" stop-color="#400300"/><stop offset=".07" stop-color="#750300"/><stop offset=".14" stop-color="#a50300"/><stop offset=".21" stop-color="#c80300"/><stop offset=".26" stop-color="#dd0300"/><stop offset=".3" stop-color="#e50300"/><stop offset=".34" stop-color="#ee190c"/><stop offset=".39" stop-color="#f82e18"/><stop offset=".45" stop-color="#fd3c20"/><stop offset=".49" stop-color="#ff4022"/><stop offset=".54" stop-color="#fd3b1f"/><stop offset=".6" stop-color="#f72e18"/><stop offset=".66" stop-color="#ee180c"/><stop offset=".7" stop-color="#e50300"/><stop offset=".73" stop-color="#db0300"/><stop offset=".79" stop-color="#c20300"/><stop offset=".87" stop-color="#980300"/><stop offset=".95" stop-color="#5e0300"/><stop offset="1" stop-color="#3b0300"/></linearGradient><mask id="fev7n" width="2" height="2" x="-1" y="-1"><path fill="#fff" d="M288 757h22v30h-22z"/><use xlink:href="#fev7c"/></mask><filter id="fev7m" width="50" height="60" x="274" y="743" filterUnits="userSpaceOnUse"><feOffset dy="2" in="SourceGraphic" result="FeOffset1499Out"/><feGaussianBlur in="FeOffset1499Out" result="FeGaussianBlur1500Out" stdDeviation="1.6 1.6"/></filter><linearGradient id="fev7o" x1="292.54" x2="311.21" y1="767.81" y2="779.88" gradientUnits="userSpaceOnUse"><stop offset="0" stop-color="#400300"/><stop offset=".07" stop-color="#750300"/><stop offset=".14" stop-color="#a50300"/><stop offset=".21" stop-color="#c80300"/><stop offset=".26" stop-color="#dd0300"/><stop offset=".3" stop-color="#e50300"/><stop offset=".34" stop-color="#ee190c"/><stop offset=".39" stop-color="#f82e18"/><stop offset=".45" stop-color="#fd3c20"/><stop offset=".49" stop-color="#ff4022"/><stop offset=".54" stop-color="#fd3b1f"/><stop offset=".6" stop-color="#f72e18"/><stop offset=".66" stop-color="#ee180c"/><stop offset=".7" stop-color="#e50300"/><stop offset=".73" stop-color="#db0300"/><stop offset=".79" stop-color="#c20300"/><stop offset=".87" stop-color="#980300"/><stop offset=".95" stop-color="#5e0300"/><stop offset="1" stop-color="#3b0300"/></linearGradient><mask id="fev7q" width="2" height="2" x="-1" y="-1"><path fill="#fff" d="M107 835h44v30h-44z"/><use xlink:href="#fev7d"/></mask><filter id="fev7p" width="72" height="60" x="93" y="821" filterUnits="userSpaceOnUse"><feOffset dy="2" in="SourceGraphic" result="FeOffset1535Out"/><feGaussianBlur in="FeOffset1535Out" result="FeGaussianBlur1536Out" stdDeviation="1.6 1.6"/></filter><linearGradient id="fev7r" x1="124.26" x2="130.92" y1="865.39" y2="830.58" gradientUnits="userSpaceOnUse"><stop offset="0" stop-color="#ab3c00"/><stop offset=".34" stop-color="#ffc700"/><stop offset=".37" stop-color="#ffcd17"/><stop offset=".41" stop-color="#ffd533"/><stop offset=".44" stop-color="#ffda46"/><stop offset=".48" stop-color="#ffdd52"/><stop offset=".52" stop-color="#ffde56"/><stop offset=".55" stop-color="#ffdd51"/><stop offset=".59" stop-color="#ffd943"/><stop offset=".62" stop-color="#ffd32b"/><stop offset=".66" stop-color="#ffca0b"/><stop offset=".67" stop-color="#ffc700"/><stop offset="1" stop-color="#ab3c00"/></linearGradient><mask id="fev7t" width="2" height="2" x="-1" y="-1"><path fill="#fff" d="M265 885h45v28h-45z"/><use xlink:href="#fev7e"/></mask><filter id="fev7s" width="73" height="58" x="251" y="871" filterUnits="userSpaceOnUse"><feOffset dy="2" in="SourceGraphic" result="FeOffset1565Out"/><feGaussianBlur in="FeOffset1565Out" result="FeGaussianBlur1566Out" stdDeviation="1.6 1.6"/></filter><linearGradient id="fev7u" x1="281.71" x2="296.54" y1="891.16" y2="914.33" gradientUnits="userSpaceOnUse"><stop offset="0" stop-color="#0038ab"/><stop offset=".11" stop-color="#0062c9"/><stop offset=".27" stop-color="#0097f0"/><stop offset=".35" stop-color="#00acff"/><stop offset=".4" stop-color="#00bfff"/><stop offset=".47" stop-color="#00d2ff"/><stop offset=".52" stop-color="#00d9ff"/><stop offset=".66" stop-color="#00b8ff"/><stop offset=".71" stop-color="#00acff"/><stop offset=".76" stop-color="#00a2f8"/><stop offset=".83" stop-color="#0086e3"/><stop offset=".93" stop-color="#0059c3"/><stop offset="1" stop-color="#0038ab"/></linearGradient><mask id="fev7w" width="2" height="2" x="-1" y="-1"><path fill="#fff" d="M265 752h11v19h-11z"/><use xlink:href="#fev7f"/></mask><filter id="fev7v" width="39" height="49" x="251" y="738" filterUnits="userSpaceOnUse"><feOffset dy="2" in="SourceGraphic" result="FeOffset1595Out"/><feGaussianBlur in="FeOffset1595Out" result="FeGaussianBlur1596Out" stdDeviation="1.6 1.6"/></filter><linearGradient id="fev7x" x1="274.93" x2="263.69" y1="759.87" y2="762.08" gradientUnits="userSpaceOnUse"><stop offset="0" stop-color="#0038ab"/><stop offset=".11" stop-color="#0062c9"/><stop offset=".27" stop-color="#0097f0"/><stop offset=".35" stop-color="#00acff"/><stop offset=".4" stop-color="#00bfff"/><stop offset=".47" stop-color="#00d2ff"/><stop offset=".52" stop-color="#00d9ff"/><stop offset=".66" stop-color="#00b8ff"/><stop offset=".71" stop-color="#00acff"/><stop offset=".76" stop-color="#00a2f8"/><stop offset=".83" stop-color="#0086e3"/><stop offset=".93" stop-color="#0059c3"/><stop offset="1" stop-color="#0038ab"/></linearGradient></defs><g><g transform="translate(-104 -751)"><g filter="url(#fev7g)"><use fill="none" stroke-opacity=".3" stroke-width="0" mask="url(&quot;#fev7h&quot;)" xlink:href="#fev7a"/><use fill-opacity=".3" xlink:href="#fev7a"/></g><use fill="url(#fev7i)" xlink:href="#fev7a"/></g><g transform="translate(-104 -751)"><g filter="url(#fev7j)"><use fill="none" stroke-opacity=".3" stroke-width="0" mask="url(&quot;#fev7k&quot;)" xlink:href="#fev7b"/><use fill-opacity=".3" xlink:href="#fev7b"/></g><use fill="url(#fev7l)" xlink:href="#fev7b"/></g><g transform="translate(-104 -751)"><g filter="url(#fev7m)"><use fill="none" stroke-opacity=".3" stroke-width="0" mask="url(&quot;#fev7n&quot;)" xlink:href="#fev7c"/><use fill-opacity=".3" xlink:href="#fev7c"/></g><use fill="url(#fev7o)" xlink:href="#fev7c"/></g><g transform="translate(-104 -751)"><g filter="url(#fev7p)"><use fill="none" stroke-opacity=".3" stroke-width="0" mask="url(&quot;#fev7q&quot;)" xlink:href="#fev7d"/><use fill-opacity=".3" xlink:href="#fev7d"/></g><use fill="url(#fev7r)" xlink:href="#fev7d"/></g><g transform="translate(-104 -751)"><g filter="url(#fev7s)"><use fill="none" stroke-opacity=".3" stroke-width="0" mask="url(&quot;#fev7t&quot;)" xlink:href="#fev7e"/><use fill-opacity=".3" xlink:href="#fev7e"/></g><use fill="url(#fev7u)" xlink:href="#fev7e"/></g><g transform="translate(-104 -751)"><g filter="url(#fev7v)"><use fill="none" stroke-opacity=".3" stroke-width="0" mask="url(&quot;#fev7w&quot;)" xlink:href="#fev7f"/><use fill-opacity=".3" xlink:href="#fev7f"/></g><use fill="url(#fev7x)" xlink:href="#fev7f"/></g></g></svg>