<svg xmlns="http://www.w3.org/2000/svg" xmlns:xlink="http://www.w3.org/1999/xlink" width="145" height="301" viewBox="0 0 145 301"><defs><path id="6ygra" d="M150.536 713.587c-10.793 1.588-16.508 1.588-25.396-1.587-.635 4.444-1.588 6.984-3.81 8.571 9.206 4.127 16.19 5.08 27.937 4.445 1.587-3.81 1.904-7.62 1.27-11.429z"/><path id="6ygrb" d="M171 1003.127c3.492 2.857 7.302 3.175 13.333 3.175-.317-13.016 3.175-26.985 8.89-42.54-4.763-.318-7.62-1.587-11.747-4.762-7.301 16.19-9.841 25.714-10.476 44.127z"/><path id="6ygrc" d="M222.196 850.556c-.953 6.349 1.587 11.11 7.301 17.46 11.111-7.937 18.73-11.111 31.429-13.968-3.81-5.08-5.08-9.524-5.397-19.048-12.698 3.175-21.905 7.937-33.333 15.556z"/><path id="6ygrd" d="M182.143 945.683c6.35.634 11.111-2.223 17.46-8.254-8.571-11.112-12.38-18.73-15.555-31.429-4.762 4.127-9.524 5.397-19.048 6.35 3.492 12.698 8.889 21.904 17.143 33.333z"/><path id="6ygre" d="M148.33 795.175c2.857 3.81 6.667 5.079 12.698 6.666 3.175-13.65 10.477-26.984 20.318-41.587-4.762-1.587-7.62-3.81-11.111-8.254-11.111 14.92-16.19 24.444-21.905 43.175z"/><mask id="6ygrg" width="2" height="2" x="-1" y="-1"><path fill="#fff" d="M121 712h30v14h-30z"/><use xlink:href="#6ygra"/></mask><filter id="6ygrf" width="58" height="44" x="107" y="698" filterUnits="userSpaceOnUse"><feOffset dy="2" in="SourceGraphic" result="FeOffset1255Out"/><feGaussianBlur in="FeOffset1255Out" result="FeGaussianBlur1256Out" stdDeviation="1.6 1.6"/></filter><linearGradient id="6ygrh" x1="135.34" x2="137.02" y1="727.29" y2="708.34" gradientUnits="userSpaceOnUse"><stop offset="0" stop-color="#920040"/><stop offset=".05" stop-color="#ae0052"/><stop offset=".12" stop-color="#d10069"/><stop offset=".19" stop-color="#ea007a"/><stop offset=".25" stop-color="#fa0084"/><stop offset=".3" stop-color="#ff0087"/><stop offset=".35" stop-color="#ff1a8b"/><stop offset=".43" stop-color="#ff3f92"/><stop offset=".5" stop-color="#ff5696"/><stop offset=".55" stop-color="#ff5e97"/><stop offset=".58" stop-color="#ff5696"/><stop offset=".64" stop-color="#ff3f92"/><stop offset=".71" stop-color="#ff198b"/><stop offset=".75" stop-color="#ff0087"/><stop offset=".79" stop-color="#fa0084"/><stop offset=".84" stop-color="#ea007a"/><stop offset=".9" stop-color="#d10069"/><stop offset=".96" stop-color="#ae0053"/><stop offset="1" stop-color="#920040"/></linearGradient><mask id="6ygrj" width="2" height="2" x="-1" y="-1"><path fill="#fff" d="M171 959h23v48h-23z"/><use xlink:href="#6ygrb"/></mask><filter id="6ygri" width="51" height="78" x="157" y="945" filterUnits="userSpaceOnUse"><feOffset dy="2" in="SourceGraphic" result="FeOffset1291Out"/><feGaussianBlur in="FeOffset1291Out" result="FeGaussianBlur1292Out" stdDeviation="1.6 1.6"/></filter><linearGradient id="6ygrk" x1="169.67" x2="190.99" y1="979.13" y2="986.55" gradientUnits="userSpaceOnUse"><stop offset="0" stop-color="#005200"/><stop offset=".19" stop-color="#00890b"/><stop offset=".31" stop-color="#00a912"/><stop offset=".33" stop-color="#11ad12"/><stop offset=".37" stop-color="#3ab512"/><stop offset=".41" stop-color="#5abc12"/><stop offset=".44" stop-color="#71c112"/><stop offset=".48" stop-color="#7ec412"/><stop offset=".51" stop-color="#83c512"/><stop offset=".55" stop-color="#7fc412"/><stop offset=".59" stop-color="#72c112"/><stop offset=".63" stop-color="#5ebd12"/><stop offset=".67" stop-color="#41b712"/><stop offset=".72" stop-color="#1caf12"/><stop offset=".74" stop-color="#00a912"/><stop offset=".78" stop-color="#009e10"/><stop offset=".86" stop-color="#00800c"/><stop offset=".95" stop-color="#005004"/><stop offset="1" stop-color="#003400"/></linearGradient><mask id="6ygrm" width="2" height="2" x="-1" y="-1"><path fill="#fff" d="M222 835h39v33h-39z"/><use xlink:href="#6ygrc"/></mask><filter id="6ygrl" width="67" height="63" x="208" y="821" filterUnits="userSpaceOnUse"><feOffset dy="2" in="SourceGraphic" result="FeOffset1327Out"/><feGaussianBlur in="FeOffset1327Out" result="FeGaussianBlur1328Out" stdDeviation="1.6 1.6"/></filter><linearGradient id="6ygrn" x1="247.51" x2="235.22" y1="864.49" y2="837.91" gradientUnits="userSpaceOnUse"><stop offset="0" stop-color="#005200"/><stop offset=".19" stop-color="#00890b"/><stop offset=".31" stop-color="#00a912"/><stop offset=".33" stop-color="#11ad12"/><stop offset=".37" stop-color="#3ab512"/><stop offset=".41" stop-color="#5abc12"/><stop offset=".44" stop-color="#71c112"/><stop offset=".48" stop-color="#7ec412"/><stop offset=".51" stop-color="#83c512"/><stop offset=".55" stop-color="#7fc412"/><stop offset=".59" stop-color="#72c112"/><stop offset=".63" stop-color="#5ebd12"/><stop offset=".67" stop-color="#41b712"/><stop offset=".72" stop-color="#1caf12"/><stop offset=".74" stop-color="#00a912"/><stop offset=".78" stop-color="#009e10"/><stop offset=".86" stop-color="#00800c"/><stop offset=".95" stop-color="#005004"/><stop offset="1" stop-color="#003400"/></linearGradient><mask id="6ygrp" width="2" height="2" x="-1" y="-1"><path fill="#fff" d="M165 906h35v40h-35z"/><use xlink:href="#6ygrd"/></mask><filter id="6ygro" width="63" height="70" x="151" y="892" filterUnits="userSpaceOnUse"><feOffset dy="2" in="SourceGraphic" result="FeOffset1363Out"/><feGaussianBlur in="FeOffset1363Out" result="FeGaussianBlur1364Out" stdDeviation="1.6 1.6"/></filter><linearGradient id="6ygrq" x1="195.26" x2="168.68" y1="919.12" y2="932.82" gradientUnits="userSpaceOnUse"><stop offset="0" stop-color="#ab3c00"/><stop offset=".34" stop-color="#ffc700"/><stop offset=".37" stop-color="#ffcd17"/><stop offset=".41" stop-color="#ffd533"/><stop offset=".44" stop-color="#ffda46"/><stop offset=".48" stop-color="#ffdd52"/><stop offset=".52" stop-color="#ffde56"/><stop offset=".55" stop-color="#ffdd51"/><stop offset=".59" stop-color="#ffd943"/><stop offset=".62" stop-color="#ffd32b"/><stop offset=".66" stop-color="#ffca0b"/><stop offset=".67" stop-color="#ffc700"/><stop offset="1" stop-color="#ab3c00"/></linearGradient><mask id="6ygrs" width="2" height="2" x="-1" y="-1"><path fill="#fff" d="M148 752h34v50h-34z"/><use xlink:href="#6ygre"/></mask><filter id="6ygrr" width="62" height="80" x="134" y="738" filterUnits="userSpaceOnUse"><feOffset dy="2" in="SourceGraphic" result="FeOffset1393Out"/><feGaussianBlur in="FeOffset1393Out" result="FeGaussianBlur1394Out" stdDeviation="1.6 1.6"/></filter><linearGradient id="6ygrt" x1="153.31" x2="173.43" y1="770.05" y2="783.25" gradientUnits="userSpaceOnUse"><stop offset="0" stop-color="#005200"/><stop offset=".19" stop-color="#00890b"/><stop offset=".31" stop-color="#00a912"/><stop offset=".33" stop-color="#11ad12"/><stop offset=".37" stop-color="#3ab512"/><stop offset=".41" stop-color="#5abc12"/><stop offset=".44" stop-color="#71c112"/><stop offset=".48" stop-color="#7ec412"/><stop offset=".51" stop-color="#83c512"/><stop offset=".55" stop-color="#7fc412"/><stop offset=".59" stop-color="#72c112"/><stop offset=".63" stop-color="#5ebd12"/><stop offset=".67" stop-color="#41b712"/><stop offset=".72" stop-color="#1caf12"/><stop offset=".74" stop-color="#00a912"/><stop offset=".78" stop-color="#009e10"/><stop offset=".86" stop-color="#00800c"/><stop offset=".95" stop-color="#005004"/><stop offset="1" stop-color="#003400"/></linearGradient></defs><g><g transform="translate(-119 -711)"><g filter="url(#6ygrf)"><use fill="none" stroke-opacity=".3" stroke-width="0" mask="url(&quot;#6ygrg&quot;)" xlink:href="#6ygra"/><use fill-opacity=".3" xlink:href="#6ygra"/></g><use fill="url(#6ygrh)" xlink:href="#6ygra"/></g><g transform="translate(-119 -711)"><g filter="url(#6ygri)"><use fill="none" stroke-opacity=".3" stroke-width="0" mask="url(&quot;#6ygrj&quot;)" xlink:href="#6ygrb"/><use fill-opacity=".3" xlink:href="#6ygrb"/></g><use fill="url(#6ygrk)" xlink:href="#6ygrb"/></g><g transform="translate(-119 -711)"><g filter="url(#6ygrl)"><use fill="none" stroke-opacity=".3" stroke-width="0" mask="url(&quot;#6ygrm&quot;)" xlink:href="#6ygrc"/><use fill-opacity=".3" xlink:href="#6ygrc"/></g><use fill="url(#6ygrn)" xlink:href="#6ygrc"/></g><g transform="translate(-119 -711)"><g filter="url(#6ygro)"><use fill="none" stroke-opacity=".3" stroke-width="0" mask="url(&quot;#6ygrp&quot;)" xlink:href="#6ygrd"/><use fill-opacity=".3" xlink:href="#6ygrd"/></g><use fill="url(#6ygrq)" xlink:href="#6ygrd"/></g><g transform="translate(-119 -711)"><g filter="url(#6ygrr)"><use fill="none" stroke-opacity=".3" stroke-width="0" mask="url(&quot;#6ygrs&quot;)" xlink:href="#6ygre"/><use fill-opacity=".3" xlink:href="#6ygre"/></g><use fill="url(#6ygrt)" xlink:href="#6ygre"/></g></g></svg>