<svg xmlns="http://www.w3.org/2000/svg" xmlns:xlink="http://www.w3.org/1999/xlink" width="252" height="148" viewBox="0 0 252 148"><defs><path id="2mg2a" d="M1770.667 1480c-.635 10.794-1.905 16.508-6.667 24.127 4.127 1.587 6.35 2.857 7.619 5.714 6.032-7.936 8.254-14.92 9.841-26.349-3.492-2.222-6.984-3.175-10.793-3.492z"/><path id="2mg2b" d="M1802 1468.524c4.762.317 8.571 1.587 13.65 4.127 0-11.746.953-19.683 3.175-28.254-4.762-4.127-7.936-5.08-12.698-5.397-2.222 6.35-3.81 17.143-4.127 29.524z"/><path id="2mg2c" d="M1846.175 1489.62c13.968-3.493 22.222-6.985 32.38-13.334-5.714-7.937-10.476-11.746-15.872-14.286-5.397 5.397-10.794 6.984-19.683 8.571 4.444 6.985 4.762 11.746 3.175 19.048z"/><path id="2mg2d" d="M1718.08 1389.27c-2.858-8.89-6.35-15.873-12.382-21.27-6.031 1.587-9.523 3.81-12.698 7.619 6.667 6.984 9.524 11.746 11.746 20.952 4.444-5.079 7.62-7.301 13.333-7.301z"/><path id="2mg2e" d="M1640.571 1411c-1.587 4.127-3.492 6.35-8.571 7.619 3.81 4.127 7.619 6.032 14.286 8.889 3.81-1.27 5.397-3.175 6.984-7.302-5.714-2.54-9.841-4.762-12.699-9.206z"/><mask id="2mg2g" width="2" height="2" x="-1" y="-1"><path fill="#fff" d="M1764 1480h18v30h-18z"/><use xlink:href="#2mg2a"/></mask><filter id="2mg2f" width="46" height="60" x="1750" y="1466" filterUnits="userSpaceOnUse"><feOffset dy="2" in="SourceGraphic" result="FeOffset1421Out"/><feGaussianBlur in="FeOffset1421Out" result="FeGaussianBlur1422Out" stdDeviation="1.6 1.6"/></filter><linearGradient id="2mg2h" x1="1780.8" x2="1762.78" y1="1497.54" y2="1492.04" gradientUnits="userSpaceOnUse"><stop offset="0" stop-color="#ab3c00"/><stop offset=".34" stop-color="#ffc700"/><stop offset=".37" stop-color="#ffcd17"/><stop offset=".41" stop-color="#ffd533"/><stop offset=".44" stop-color="#ffda46"/><stop offset=".48" stop-color="#ffdd52"/><stop offset=".52" stop-color="#ffde56"/><stop offset=".55" stop-color="#ffdd51"/><stop offset=".59" stop-color="#ffd943"/><stop offset=".62" stop-color="#ffd32b"/><stop offset=".66" stop-color="#ffca0b"/><stop offset=".67" stop-color="#ffc700"/><stop offset="1" stop-color="#ab3c00"/></linearGradient><mask id="2mg2j" width="2" height="2" x="-1" y="-1"><path fill="#fff" d="M1802 1439h17v34h-17z"/><use xlink:href="#2mg2b"/></mask><filter id="2mg2i" width="45" height="64" x="1788" y="1425" filterUnits="userSpaceOnUse"><feOffset dy="2" in="SourceGraphic" result="FeOffset1451Out"/><feGaussianBlur in="FeOffset1451Out" result="FeGaussianBlur1452Out" stdDeviation="1.6 1.6"/></filter><linearGradient id="2mg2k" x1="1823.2" x2="1800.54" y1="1457.81" y2="1454.3" gradientUnits="userSpaceOnUse"><stop offset="0" stop-color="#400300"/><stop offset=".07" stop-color="#750300"/><stop offset=".14" stop-color="#a50300"/><stop offset=".21" stop-color="#c80300"/><stop offset=".26" stop-color="#dd0300"/><stop offset=".3" stop-color="#e50300"/><stop offset=".34" stop-color="#ee190c"/><stop offset=".39" stop-color="#f82e18"/><stop offset=".45" stop-color="#fd3c20"/><stop offset=".49" stop-color="#ff4022"/><stop offset=".54" stop-color="#fd3b1f"/><stop offset=".6" stop-color="#f72e18"/><stop offset=".66" stop-color="#ee180c"/><stop offset=".7" stop-color="#e50300"/><stop offset=".73" stop-color="#db0300"/><stop offset=".79" stop-color="#c20300"/><stop offset=".87" stop-color="#980300"/><stop offset=".95" stop-color="#5e0300"/><stop offset="1" stop-color="#3b0300"/></linearGradient><mask id="2mg2m" width="2" height="2" x="-1" y="-1"><path fill="#fff" d="M1843 1462h36v28h-36z"/><use xlink:href="#2mg2c"/></mask><filter id="2mg2l" width="64" height="58" x="1829" y="1448" filterUnits="userSpaceOnUse"><feOffset dy="2" in="SourceGraphic" result="FeOffset1487Out"/><feGaussianBlur in="FeOffset1487Out" result="FeGaussianBlur1488Out" stdDeviation="1.6 1.6"/></filter><linearGradient id="2mg2n" x1="1864.67" x2="1853.15" y1="1487.32" y2="1464.52" gradientUnits="userSpaceOnUse"><stop offset="0" stop-color="#0038ab"/><stop offset=".11" stop-color="#0062c9"/><stop offset=".27" stop-color="#0097f0"/><stop offset=".35" stop-color="#00acff"/><stop offset=".4" stop-color="#00bfff"/><stop offset=".47" stop-color="#00d2ff"/><stop offset=".52" stop-color="#00d9ff"/><stop offset=".66" stop-color="#00b8ff"/><stop offset=".71" stop-color="#00acff"/><stop offset=".76" stop-color="#00a2f8"/><stop offset=".83" stop-color="#0086e3"/><stop offset=".93" stop-color="#0059c3"/><stop offset="1" stop-color="#0038ab"/></linearGradient><mask id="2mg2p" width="2" height="2" x="-1" y="-1"><path fill="#fff" d="M1693 1368h26v29h-26z"/><use xlink:href="#2mg2d"/></mask><filter id="2mg2o" width="54" height="59" x="1679" y="1354" filterUnits="userSpaceOnUse"><feOffset dy="2" in="SourceGraphic" result="FeOffset1517Out"/><feGaussianBlur in="FeOffset1517Out" result="FeGaussianBlur1518Out" stdDeviation="1.6 1.6"/></filter><linearGradient id="2mg2q" x1="1713.02" x2="1698.39" y1="1377.06" y2="1386.1" gradientUnits="userSpaceOnUse"><stop offset="0" stop-color="#920040"/><stop offset=".05" stop-color="#ae0052"/><stop offset=".12" stop-color="#d10069"/><stop offset=".19" stop-color="#ea007a"/><stop offset=".25" stop-color="#fa0084"/><stop offset=".3" stop-color="#ff0087"/><stop offset=".35" stop-color="#ff1a8b"/><stop offset=".43" stop-color="#ff3f92"/><stop offset=".5" stop-color="#ff5696"/><stop offset=".55" stop-color="#ff5e97"/><stop offset=".58" stop-color="#ff5696"/><stop offset=".64" stop-color="#ff3f92"/><stop offset=".71" stop-color="#ff198b"/><stop offset=".75" stop-color="#ff0087"/><stop offset=".79" stop-color="#fa0084"/><stop offset=".84" stop-color="#ea007a"/><stop offset=".9" stop-color="#d10069"/><stop offset=".96" stop-color="#ae0053"/><stop offset="1" stop-color="#920040"/></linearGradient><mask id="2mg2s" width="2" height="2" x="-1" y="-1"><path fill="#fff" d="M1632 1411h22v17h-22z"/><use xlink:href="#2mg2e"/></mask><filter id="2mg2r" width="50" height="47" x="1618" y="1397" filterUnits="userSpaceOnUse"><feOffset dy="2" in="SourceGraphic" result="FeOffset1553Out"/><feGaussianBlur in="FeOffset1553Out" result="FeGaussianBlur1554Out" stdDeviation="1.6 1.6"/></filter><linearGradient id="2mg2t" x1="1646.64" x2="1637.58" y1="1414.74" y2="1426.44" gradientUnits="userSpaceOnUse"><stop offset="0" stop-color="#0038ab"/><stop offset=".11" stop-color="#0062c9"/><stop offset=".27" stop-color="#0097f0"/><stop offset=".35" stop-color="#00acff"/><stop offset=".4" stop-color="#00bfff"/><stop offset=".47" stop-color="#00d2ff"/><stop offset=".52" stop-color="#00d9ff"/><stop offset=".66" stop-color="#00b8ff"/><stop offset=".71" stop-color="#00acff"/><stop offset=".76" stop-color="#00a2f8"/><stop offset=".83" stop-color="#0086e3"/><stop offset=".93" stop-color="#0059c3"/><stop offset="1" stop-color="#0038ab"/></linearGradient></defs><g><g transform="translate(-1629 -1367)"><g filter="url(#2mg2f)"><use fill="none" stroke-opacity=".3" stroke-width="0" mask="url(&quot;#2mg2g&quot;)" xlink:href="#2mg2a"/><use fill-opacity=".3" xlink:href="#2mg2a"/></g><use fill="url(#2mg2h)" xlink:href="#2mg2a"/></g><g transform="translate(-1629 -1367)"><g filter="url(#2mg2i)"><use fill="none" stroke-opacity=".3" stroke-width="0" mask="url(&quot;#2mg2j&quot;)" xlink:href="#2mg2b"/><use fill-opacity=".3" xlink:href="#2mg2b"/></g><use fill="url(#2mg2k)" xlink:href="#2mg2b"/></g><g transform="translate(-1629 -1367)"><g filter="url(#2mg2l)"><use fill="none" stroke-opacity=".3" stroke-width="0" mask="url(&quot;#2mg2m&quot;)" xlink:href="#2mg2c"/><use fill-opacity=".3" xlink:href="#2mg2c"/></g><use fill="url(#2mg2n)" xlink:href="#2mg2c"/></g><g transform="translate(-1629 -1367)"><g filter="url(#2mg2o)"><use fill="none" stroke-opacity=".3" stroke-width="0" mask="url(&quot;#2mg2p&quot;)" xlink:href="#2mg2d"/><use fill-opacity=".3" xlink:href="#2mg2d"/></g><use fill="url(#2mg2q)" xlink:href="#2mg2d"/></g><g transform="translate(-1629 -1367)"><g filter="url(#2mg2r)"><use fill="none" stroke-opacity=".3" stroke-width="0" mask="url(&quot;#2mg2s&quot;)" xlink:href="#2mg2e"/><use fill-opacity=".3" xlink:href="#2mg2e"/></g><use fill="url(#2mg2t)" xlink:href="#2mg2e"/></g></g></svg>