<svg xmlns="http://www.w3.org/2000/svg" xmlns:xlink="http://www.w3.org/1999/xlink" width="239" height="215" viewBox="0 0 239 215"><defs><path id="z8lea" d="M1886.46 1087.314c-5.397-5.397-8.889-7.937-17.143-8.254-6.666 10.794-11.746 16.825-20.317 25.714 4.127 1.905 6.667 4.127 8.571 6.35 9.524-10.794 16.826-16.191 28.89-23.81z"/><path id="z8leb" d="M1668.238 1176.571c7.62-2.54 11.429-5.079 17.143-11.746-7.937-5.714-11.746-10.476-14.286-16.825-7.301 1.587-11.746 4.127-18.095 8.571 6.667 6.032 10.476 11.112 15.238 20z"/><path id="z8lec" d="M1867.444 1112.238c-1.27-.317-2.222-.317-3.492 0 0 2.222-.317 3.81-.952 6.032.952 0 1.587 0 1.905.317.635-2.54 1.27-3.81 2.54-6.349z"/><path id="z8led" d="M1654 1070.984c5.714 7.62 10.159 11.746 16.825 16.508 3.492-5.397 4.445-9.524 4.762-13.65-4.762-1.905-6.984-4.763-10.476-9.842-3.492 4.444-6.032 5.714-11.111 6.984z"/><path id="z8lee" d="M1779.238 1228.825c6.032-3.174 8.889-8.571 10.794-17.777-14.286-5.08-21.905-9.524-32.699-19.048-1.904 6.667-5.396 10.476-13.333 17.143 10.794 9.524 20.952 14.603 35.238 19.682z"/><path id="z8lef" d="M1847 1119.54c0 .635.317.952.635 1.587 1.27-.952 3.175-1.905 5.08-2.54-.318-.635-.318-.952-.318-1.587-2.222.952-3.492 1.27-5.397 2.54z"/><path id="z8leg" d="M1763 1076c.952 6.667 2.54 13.968 7.937 19.683 5.714.634 9.523 1.27 14.92 3.492-1.905-4.762-.635-7.937 3.81-13.969-8.254-.952-16.19-4.444-26.667-9.206z"/><path id="z8leh" d="M1848.794 1127c-.635 1.905-.635 2.857-.635 4.444 1.27 0 1.904-.317 2.54-.634-.318-.953 0-1.588.317-2.858-.953 0-1.587-.317-2.222-.952z"/><path id="z8lei" d="M1692.873 1035.238c-1.905-5.714-2.857-9.206-2.857-15.238-2.857 0-5.397.635-7.937 2.222-.317 4.127.318 9.207 1.905 15.873 3.492-2.857 5.714-3.81 8.889-2.857z"/><mask id="z8lek" width="2" height="2" x="-1" y="-1"><path fill="#fff" d="M1849 1079h38v33h-38z"/><use xlink:href="#z8lea"/></mask><filter id="z8lej" width="66" height="63" x="1835" y="1065" filterUnits="userSpaceOnUse"><feOffset dy="2" in="SourceGraphic" result="FeOffset1587Out"/><feGaussianBlur in="FeOffset1587Out" result="FeGaussianBlur1588Out" stdDeviation="1.6 1.6"/></filter><linearGradient id="z8lel" x1="1859.24" x2="1876.26" y1="1089.37" y2="1101.67" gradientUnits="userSpaceOnUse"><stop offset="0" stop-color="#005200"/><stop offset=".19" stop-color="#00890b"/><stop offset=".31" stop-color="#00a912"/><stop offset=".33" stop-color="#11ad12"/><stop offset=".37" stop-color="#3ab512"/><stop offset=".41" stop-color="#5abc12"/><stop offset=".44" stop-color="#71c112"/><stop offset=".48" stop-color="#7ec412"/><stop offset=".51" stop-color="#83c512"/><stop offset=".55" stop-color="#7fc412"/><stop offset=".59" stop-color="#72c112"/><stop offset=".63" stop-color="#5ebd12"/><stop offset=".67" stop-color="#41b712"/><stop offset=".72" stop-color="#1caf12"/><stop offset=".74" stop-color="#00a912"/><stop offset=".78" stop-color="#009e10"/><stop offset=".86" stop-color="#00800c"/><stop offset=".95" stop-color="#005004"/><stop offset="1" stop-color="#003400"/></linearGradient><mask id="z8len" width="2" height="2" x="-1" y="-1"><path fill="#fff" d="M1653 1148h33v29h-33z"/><use xlink:href="#z8leb"/></mask><filter id="z8lem" width="61" height="59" x="1639" y="1134" filterUnits="userSpaceOnUse"><feOffset dy="2" in="SourceGraphic" result="FeOffset1623Out"/><feGaussianBlur in="FeOffset1623Out" result="FeGaussianBlur1624Out" stdDeviation="1.6 1.6"/></filter><linearGradient id="z8leo" x1="1661.13" x2="1680.73" y1="1167.53" y2="1153.02" gradientUnits="userSpaceOnUse"><stop offset="0" stop-color="#920040"/><stop offset=".05" stop-color="#ae0052"/><stop offset=".12" stop-color="#d10069"/><stop offset=".19" stop-color="#ea007a"/><stop offset=".25" stop-color="#fa0084"/><stop offset=".3" stop-color="#ff0087"/><stop offset=".35" stop-color="#ff1a8b"/><stop offset=".43" stop-color="#ff3f92"/><stop offset=".5" stop-color="#ff5696"/><stop offset=".55" stop-color="#ff5e97"/><stop offset=".58" stop-color="#ff5696"/><stop offset=".64" stop-color="#ff3f92"/><stop offset=".71" stop-color="#ff198b"/><stop offset=".75" stop-color="#ff0087"/><stop offset=".79" stop-color="#fa0084"/><stop offset=".84" stop-color="#ea007a"/><stop offset=".9" stop-color="#d10069"/><stop offset=".96" stop-color="#ae0053"/><stop offset="1" stop-color="#920040"/></linearGradient><mask id="z8leq" width="2" height="2" x="-1" y="-1"><path fill="#fff" d="M1863 1112h5v7h-5z"/><use xlink:href="#z8lec"/></mask><filter id="z8lep" width="33" height="37" x="1849" y="1098" filterUnits="userSpaceOnUse"><feOffset dy="2" in="SourceGraphic" result="FeOffset1659Out"/><feGaussianBlur in="FeOffset1659Out" result="FeGaussianBlur1660Out" stdDeviation="1.6 1.6"/></filter><linearGradient id="z8ler" x1="1863.39" x2="1867.19" y1="1115.07" y2="1115.55" gradientUnits="userSpaceOnUse"><stop offset="0" stop-color="#0038ab"/><stop offset=".11" stop-color="#0062c9"/><stop offset=".27" stop-color="#0097f0"/><stop offset=".35" stop-color="#00acff"/><stop offset=".4" stop-color="#00bfff"/><stop offset=".47" stop-color="#00d2ff"/><stop offset=".52" stop-color="#00d9ff"/><stop offset=".66" stop-color="#00b8ff"/><stop offset=".71" stop-color="#00acff"/><stop offset=".76" stop-color="#00a2f8"/><stop offset=".83" stop-color="#0086e3"/><stop offset=".93" stop-color="#0059c3"/><stop offset="1" stop-color="#0038ab"/></linearGradient><mask id="z8let" width="2" height="2" x="-1" y="-1"><path fill="#fff" d="M1654 1064h22v24h-22z"/><use xlink:href="#z8led"/></mask><filter id="z8les" width="50" height="54" x="1640" y="1050" filterUnits="userSpaceOnUse"><feOffset dy="2" in="SourceGraphic" result="FeOffset1689Out"/><feGaussianBlur in="FeOffset1689Out" result="FeGaussianBlur1690Out" stdDeviation="1.6 1.6"/></filter><linearGradient id="z8leu" x1="1660.27" x2="1671.33" y1="1081.68" y2="1068.53" gradientUnits="userSpaceOnUse"><stop offset="0" stop-color="#ab3c00"/><stop offset=".34" stop-color="#ffc700"/><stop offset=".37" stop-color="#ffcd17"/><stop offset=".41" stop-color="#ffd533"/><stop offset=".44" stop-color="#ffda46"/><stop offset=".48" stop-color="#ffdd52"/><stop offset=".52" stop-color="#ffde56"/><stop offset=".55" stop-color="#ffdd51"/><stop offset=".59" stop-color="#ffd943"/><stop offset=".62" stop-color="#ffd32b"/><stop offset=".66" stop-color="#ffca0b"/><stop offset=".67" stop-color="#ffc700"/><stop offset="1" stop-color="#ab3c00"/></linearGradient><mask id="z8lew" width="2" height="2" x="-1" y="-1"><path fill="#fff" d="M1744 1192h46v37h-46z"/><use xlink:href="#z8lee"/></mask><filter id="z8lev" width="74" height="67" x="1730" y="1178" filterUnits="userSpaceOnUse"><feOffset dy="2" in="SourceGraphic" result="FeOffset1719Out"/><feGaussianBlur in="FeOffset1719Out" result="FeGaussianBlur1720Out" stdDeviation="1.6 1.6"/></filter><linearGradient id="z8lex" x1="1775.1" x2="1759.37" y1="1197.46" y2="1225.51" gradientUnits="userSpaceOnUse"><stop offset="0" stop-color="#0038ab"/><stop offset=".11" stop-color="#0062c9"/><stop offset=".27" stop-color="#0097f0"/><stop offset=".35" stop-color="#00acff"/><stop offset=".4" stop-color="#00bfff"/><stop offset=".47" stop-color="#00d2ff"/><stop offset=".52" stop-color="#00d9ff"/><stop offset=".66" stop-color="#00b8ff"/><stop offset=".71" stop-color="#00acff"/><stop offset=".76" stop-color="#00a2f8"/><stop offset=".83" stop-color="#0086e3"/><stop offset=".93" stop-color="#0059c3"/><stop offset="1" stop-color="#0038ab"/></linearGradient><mask id="z8lez" width="2" height="2" x="-1" y="-1"><path fill="#fff" d="M1847 1117h6v5h-6z"/><use xlink:href="#z8lef"/></mask><filter id="z8ley" width="34" height="35" x="1833" y="1103" filterUnits="userSpaceOnUse"><feOffset dy="2" in="SourceGraphic" result="FeOffset1749Out"/><feGaussianBlur in="FeOffset1749Out" result="FeGaussianBlur1750Out" stdDeviation="1.6 1.6"/></filter><linearGradient id="z8leA" x1="1849.39" x2="1850.28" y1="1117.64" y2="1120.48" gradientUnits="userSpaceOnUse"><stop offset="0" stop-color="#005200"/><stop offset=".19" stop-color="#00890b"/><stop offset=".31" stop-color="#00a912"/><stop offset=".33" stop-color="#11ad12"/><stop offset=".37" stop-color="#3ab512"/><stop offset=".41" stop-color="#5abc12"/><stop offset=".44" stop-color="#71c112"/><stop offset=".48" stop-color="#7ec412"/><stop offset=".51" stop-color="#83c512"/><stop offset=".55" stop-color="#7fc412"/><stop offset=".59" stop-color="#72c112"/><stop offset=".63" stop-color="#5ebd12"/><stop offset=".67" stop-color="#41b712"/><stop offset=".72" stop-color="#1caf12"/><stop offset=".74" stop-color="#00a912"/><stop offset=".78" stop-color="#009e10"/><stop offset=".86" stop-color="#00800c"/><stop offset=".95" stop-color="#005004"/><stop offset="1" stop-color="#003400"/></linearGradient><mask id="z8leC" width="2" height="2" x="-1" y="-1"><path fill="#fff" d="M1763 1076h27v24h-27z"/><use xlink:href="#z8leg"/></mask><filter id="z8leB" width="55" height="54" x="1749" y="1062" filterUnits="userSpaceOnUse"><feOffset dy="2" in="SourceGraphic" result="FeOffset1785Out"/><feGaussianBlur in="FeOffset1785Out" result="FeGaussianBlur1786Out" stdDeviation="1.6 1.6"/></filter><linearGradient id="z8leD" x1="1776.83" x2="1772.91" y1="1079.13" y2="1099.33" gradientUnits="userSpaceOnUse"><stop offset="0" stop-color="#005200"/><stop offset=".19" stop-color="#00890b"/><stop offset=".31" stop-color="#00a912"/><stop offset=".33" stop-color="#11ad12"/><stop offset=".37" stop-color="#3ab512"/><stop offset=".41" stop-color="#5abc12"/><stop offset=".44" stop-color="#71c112"/><stop offset=".48" stop-color="#7ec412"/><stop offset=".51" stop-color="#83c512"/><stop offset=".55" stop-color="#7fc412"/><stop offset=".59" stop-color="#72c112"/><stop offset=".63" stop-color="#5ebd12"/><stop offset=".67" stop-color="#41b712"/><stop offset=".72" stop-color="#1caf12"/><stop offset=".74" stop-color="#00a912"/><stop offset=".78" stop-color="#009e10"/><stop offset=".86" stop-color="#00800c"/><stop offset=".95" stop-color="#005004"/><stop offset="1" stop-color="#003400"/></linearGradient><mask id="z8leF" width="2" height="2" x="-1" y="-1"><path fill="#fff" d="M1848 1127h3v5h-3z"/><use xlink:href="#z8leh"/></mask><filter id="z8leE" width="31" height="35" x="1834" y="1113" filterUnits="userSpaceOnUse"><feOffset dy="2" in="SourceGraphic" result="FeOffset1821Out"/><feGaussianBlur in="FeOffset1821Out" result="FeGaussianBlur1822Out" stdDeviation="1.6 1.6"/></filter><linearGradient id="z8leG" x1="1847.84" x2="1851.12" y1="1129.15" y2="1129.43" gradientUnits="userSpaceOnUse"><stop offset="0" stop-color="#0038ab"/><stop offset=".11" stop-color="#0062c9"/><stop offset=".27" stop-color="#0097f0"/><stop offset=".35" stop-color="#00acff"/><stop offset=".4" stop-color="#00bfff"/><stop offset=".47" stop-color="#00d2ff"/><stop offset=".52" stop-color="#00d9ff"/><stop offset=".66" stop-color="#00b8ff"/><stop offset=".71" stop-color="#00acff"/><stop offset=".76" stop-color="#00a2f8"/><stop offset=".83" stop-color="#0086e3"/><stop offset=".93" stop-color="#0059c3"/><stop offset="1" stop-color="#0038ab"/></linearGradient><mask id="z8leI" width="2" height="2" x="-1" y="-1"><path fill="#fff" d="M1682 1020h11v19h-11z"/><use xlink:href="#z8lei"/></mask><filter id="z8leH" width="39" height="49" x="1668" y="1006" filterUnits="userSpaceOnUse"><feOffset dy="2" in="SourceGraphic" result="FeOffset1851Out"/><feGaussianBlur in="FeOffset1851Out" result="FeGaussianBlur1852Out" stdDeviation="1.6 1.6"/></filter><linearGradient id="z8leJ" x1="1691.93" x2="1680.69" y1="1027.87" y2="1030.08" gradientUnits="userSpaceOnUse"><stop offset="0" stop-color="#0038ab"/><stop offset=".11" stop-color="#0062c9"/><stop offset=".27" stop-color="#0097f0"/><stop offset=".35" stop-color="#00acff"/><stop offset=".4" stop-color="#00bfff"/><stop offset=".47" stop-color="#00d2ff"/><stop offset=".52" stop-color="#00d9ff"/><stop offset=".66" stop-color="#00b8ff"/><stop offset=".71" stop-color="#00acff"/><stop offset=".76" stop-color="#00a2f8"/><stop offset=".83" stop-color="#0086e3"/><stop offset=".93" stop-color="#0059c3"/><stop offset="1" stop-color="#0038ab"/></linearGradient></defs><g><g transform="translate(-1650 -1019)"><g filter="url(#z8lej)"><use fill="none" stroke-opacity=".3" stroke-width="0" mask="url(&quot;#z8lek&quot;)" xlink:href="#z8lea"/><use fill-opacity=".3" xlink:href="#z8lea"/></g><use fill="url(#z8lel)" xlink:href="#z8lea"/></g><g transform="translate(-1650 -1019)"><g filter="url(#z8lem)"><use fill="none" stroke-opacity=".3" stroke-width="0" mask="url(&quot;#z8len&quot;)" xlink:href="#z8leb"/><use fill-opacity=".3" xlink:href="#z8leb"/></g><use fill="url(#z8leo)" xlink:href="#z8leb"/></g><g transform="translate(-1650 -1019)"><g filter="url(#z8lep)"><use fill="none" stroke-opacity=".3" stroke-width="0" mask="url(&quot;#z8leq&quot;)" xlink:href="#z8lec"/><use fill-opacity=".3" xlink:href="#z8lec"/></g><use fill="url(#z8ler)" xlink:href="#z8lec"/></g><g transform="translate(-1650 -1019)"><g filter="url(#z8les)"><use fill="none" stroke-opacity=".3" stroke-width="0" mask="url(&quot;#z8let&quot;)" xlink:href="#z8led"/><use fill-opacity=".3" xlink:href="#z8led"/></g><use fill="url(#z8leu)" xlink:href="#z8led"/></g><g transform="translate(-1650 -1019)"><g filter="url(#z8lev)"><use fill="none" stroke-opacity=".3" stroke-width="0" mask="url(&quot;#z8lew&quot;)" xlink:href="#z8lee"/><use fill-opacity=".3" xlink:href="#z8lee"/></g><use fill="url(#z8lex)" xlink:href="#z8lee"/></g><g transform="translate(-1650 -1019)"><g filter="url(#z8ley)"><use fill="none" stroke-opacity=".3" stroke-width="0" mask="url(&quot;#z8lez&quot;)" xlink:href="#z8lef"/><use fill-opacity=".3" xlink:href="#z8lef"/></g><use fill="url(#z8leA)" xlink:href="#z8lef"/></g><g transform="translate(-1650 -1019)"><g filter="url(#z8leB)"><use fill="none" stroke-opacity=".3" stroke-width="0" mask="url(&quot;#z8leC&quot;)" xlink:href="#z8leg"/><use fill-opacity=".3" xlink:href="#z8leg"/></g><use fill="url(#z8leD)" xlink:href="#z8leg"/></g><g transform="translate(-1650 -1019)"><g filter="url(#z8leE)"><use fill="none" stroke-opacity=".3" stroke-width="0" mask="url(&quot;#z8leF&quot;)" xlink:href="#z8leh"/><use fill-opacity=".3" xlink:href="#z8leh"/></g><use fill="url(#z8leG)" xlink:href="#z8leh"/></g><g transform="translate(-1650 -1019)"><g filter="url(#z8leH)"><use fill="none" stroke-opacity=".3" stroke-width="0" mask="url(&quot;#z8leI&quot;)" xlink:href="#z8lei"/><use fill-opacity=".3" xlink:href="#z8lei"/></g><use fill="url(#z8leJ)" xlink:href="#z8lei"/></g></g></svg>