<svg height="512pt" viewBox="0 0 512 512" width="512pt" xmlns="http://www.w3.org/2000/svg"><linearGradient id="a" gradientUnits="userSpaceOnUse" x1="0" x2="512" y1="256" y2="256"><stop offset="0" stop-color="#00f38d"/><stop offset="1" stop-color="#009eff"/></linearGradient><path d="M512 256c0 141.387-114.613 256-256 256S0 397.387 0 256 114.613 0 256 0s256 114.613 256 256zm0 0" fill="url(#a)"/><g fill="#fff"><path d="M256.16 371.867l-59.683-63.094 21.796-20.617 37.829 39.992 37.597-39.96 21.852 20.554zm0 0"/><path d="M256 424.008c-60.465 0-109.656-49.192-109.656-109.656V197.648c0-60.464 49.191-109.656 109.656-109.656s109.656 49.192 109.656 109.656v116.704c0 60.464-49.191 109.656-109.656 109.656zm0-306.016c-43.926 0-79.656 35.735-79.656 79.656v116.704c0 43.921 35.73 79.656 79.656 79.656 43.922 0 79.656-35.735 79.656-79.656V197.648c0-43.921-35.734-79.656-79.656-79.656zm0 0"/><path d="M268.969 155.508c0 7.16-5.809 12.965-12.969 12.965s-12.969-5.805-12.969-12.965 5.809-12.969 12.969-12.969 12.969 5.809 12.969 12.969zm0 0"/><path d="M268.969 155.508c0 7.16-5.809 12.965-12.969 12.965s-12.969-5.805-12.969-12.965 5.809-12.969 12.969-12.969 12.969 5.809 12.969 12.969zm0 51.867c0 7.16-5.809 12.965-12.969 12.965s-12.969-5.805-12.969-12.965 5.809-12.969 12.969-12.969 12.969 5.809 12.969 12.969zm0 0"/><path d="M268.969 207.375c0 7.16-5.809 12.965-12.969 12.965s-12.969-5.805-12.969-12.965 5.809-12.969 12.969-12.969 12.969 5.809 12.969 12.969zm0 51.867c0 7.16-5.809 12.965-12.969 12.965s-12.969-5.805-12.969-12.965c0-7.164 5.809-12.969 12.969-12.969s12.969 5.805 12.969 12.97zm0 0"/><path d="M268.969 259.242c0 7.16-5.809 12.965-12.969 12.965s-12.969-5.805-12.969-12.965c0-7.164 5.809-12.969 12.969-12.969s12.969 5.805 12.969 12.97zm0 0"/></g></svg>