<svg xmlns="http://www.w3.org/2000/svg" xmlns:xlink="http://www.w3.org/1999/xlink" width="40" height="25" viewBox="0 0 40 25"><defs><path id="mrg7a" d="M429.333 444.777c-2.214-.763-4.445-2.319-6.613-2.2-2.969.16-4.137-2.357-5.559-3.845-1.006-1.047-.93-3.23-3.179-2.63-1.662.446-3.91.283-4.856 1.418-1.179 1.415-2.116 1.254-3.415 1.134-2.111-.198-4.189-.485-6.258-1.053-1.593-.431-3.29-.546-4.932.137-1.132.477-2.127.89-1.052 2.502.65.968.569 1.789-.58 2.427-.632.347-1.159 1.039-1.585 1.69-1.83 2.785-1.728 5.45.271 5.635 2.703.248 5.463 1.468 8.2-.688 1.864-1.47 4.485-.103 5.608 2.238.455.952 1.068 1.814 1.72 2.897-2.774-.288-2.71 2.065-3.607 3.603 2.71.954 3.957-1.021 5.297-2.66.601-.734 1.309-1.567 2.029-.762 1.122 1.258 2.51 1.033 3.851 1.294a1 1 0 0 1-.293.628c-.456.455-1.273.526-1.293 1.361.624.59 1.943.441 1.99 1.665.006.175-.012.378-.065.618-.124.569.68.954.95.766 1.866-1.288 4.1-1.64 5.93-3.242-.364-.03-.735-.125-1.09-.07-1.013.156-1.937.046-2.26-1.17-.318-1.202 1.027-1.661 1.384-1.735 3.12-.661 5.558-2.893 8.425-4.078 2.173-.902.27-3.225 1.482-4.459.264-.272.293-1.147-.5-1.42z"/><clipPath id="mrg7b"><use fill="#fff" xlink:href="#mrg7a"/></clipPath></defs><g><g transform="translate(-390 -436)"><use fill="#fff" fill-opacity="0" stroke="#f8e71c" stroke-miterlimit="50" stroke-width="2" clip-path="url(&quot;#mrg7b&quot;)" xlink:href="#mrg7a"/></g></g></svg>