<svg xmlns="http://www.w3.org/2000/svg" xmlns:xlink="http://www.w3.org/1999/xlink" width="40" height="40" viewBox="0 0 40 40"><defs><path id="44hja" d="M420.57 761.211c.191.313.09.722-.224.912-.587.355-1.2.682-1.822.974a.667.667 0 0 1-.888-.317.663.663 0 0 1 .319-.884c.58-.273 1.152-.578 1.7-.909a.669.669 0 0 1 .916.224zm-20.863-.635a.665.665 0 0 1-.369 1.22.668.668 0 0 1-.367-.11 20.169 20.169 0 0 1-3.157-2.582.665.665 0 1 1 .945-.939c.898.9 1.889 1.712 2.948 2.411zm5.062-34.207a.664.664 0 0 1-.434.835c-1.21.384-2.386.895-3.493 1.518a.668.668 0 0 1-.908-.252.664.664 0 0 1 .253-.906 19.96 19.96 0 0 1 3.744-1.627c.351-.11.726.083.838.432zm10.362 37.295a.664.664 0 0 1-.494.799c-1.32.311-2.682.49-4.049.528h-.02a.665.665 0 0 1-.666-.643.664.664 0 0 1 .647-.682 18.8 18.8 0 0 0 3.78-.494.668.668 0 0 1 .802.492zm-8.384-.274a.665.665 0 0 1 .542.77.667.667 0 0 1-.773.538 19.955 19.955 0 0 1-3.928-1.112.663.663 0 0 1-.372-.862.667.667 0 0 1 .867-.37 18.67 18.67 0 0 0 3.664 1.036zm-8.952-33.398a.664.664 0 0 1-.064.939 18.765 18.765 0 0 0-2.603 2.78.668.668 0 0 1-.934.126.664.664 0 0 1-.127-.932 20.16 20.16 0 0 1 2.787-2.977.667.667 0 0 1 .94.064zm-4.966 6.092a.664.664 0 0 1 .315.887 18.508 18.508 0 0 0-1.28 3.583.668.668 0 0 1-.805.49.665.665 0 0 1-.49-.805c.323-1.32.784-2.613 1.372-3.84a.668.668 0 0 1 .888-.315zm1.532 19.112a.665.665 0 0 1-.558 1.028.666.666 0 0 1-.558-.301 19.956 19.956 0 0 1-1.872-3.622.667.667 0 0 1 1.241-.486 18.6 18.6 0 0 0 1.747 3.38zm-2.765-7.053a.667.667 0 0 1-1.315.223 20.27 20.27 0 0 1-.268-4.074.667.667 0 0 1 1.333.046 18.887 18.887 0 0 0 .25 3.805zM410.008 725c.37 0 .669.297.669.662 0 .366-.3.662-.669.662-.647 0-1.298.034-1.936.098a.667.667 0 0 1-.734-.59.664.664 0 0 1 .597-.727 20.58 20.58 0 0 1 2.073-.105zm-3.276 34.002a3.207 3.207 0 0 0-.818-3.151l-.404-.403c-.37-.368-.8-.66-1.282-.866l-2.056-.88a3.574 3.574 0 0 1-2.172-3.29v-1a.53.53 0 0 0-.232-.443.53.53 0 0 0-.497-.061l-2.621.981c1.463 4.619 5.301 8.208 10.01 9.363zm17.2-11.955l-6.816-13.431c.406.24.799.5 1.177.779l5.406 8.374a13.994 13.994 0 0 1 .233 4.278zm-5.64-12.652l-1.64-2.54a15.381 15.381 0 0 1 8.676 13.44l-1.629-2.526a14 14 0 0 0-4.526-7.669l-.023-.02c-.276-.24-.562-.468-.857-.685zm-22.177 9.468l3.122-1.237a.684.684 0 0 0 .394-.85 2.004 2.004 0 0 1 .487-2.063l1.921-1.92a2.12 2.12 0 0 0 .628-1.511v-.867a3.04 3.04 0 0 0-.364-1.435 14.02 14.02 0 0 0-6.188 9.883zm-.115 1.804c0 1.002.105 1.98.306 2.922l2.496-.936a1.873 1.873 0 0 1 2.53 1.753v1.003c0 .902.534 1.714 1.363 2.07l2.055.88c.637.274 1.209.66 1.699 1.151l.403.403a4.55 4.55 0 0 1 1.158 4.465l-.04.142a14.05 14.05 0 0 0 2.025.146c3.366 0 6.458-1.195 8.875-3.183-1.832 3.219-5.205 4.516-8.875 4.516-8.452 0-15.328-6.878-15.328-15.332a15.32 15.32 0 0 1 7.483-13.172.672.672 0 0 1 .06-.032 15.232 15.232 0 0 1 7.785-2.128 15.233 15.233 0 0 1 6.432 1.416.674.674 0 0 0-.192-.056l-.154-.02a.667.667 0 0 0-.703.918c.024.057.048.119.073.182a13.916 13.916 0 0 0-5.456-1.107c-2.364 0-4.594.59-6.549 1.629a4.39 4.39 0 0 1 .55 2.119v.867c0 .928-.36 1.8-1.016 2.455l-1.92 1.921a.682.682 0 0 0-.166.7 2.02 2.02 0 0 1-1.164 2.511l-3.727 1.471a14.21 14.21 0 0 0-.003.326zm22.87 10.816c1.249-2.193 1.782-5.279 1.205-9.454l.204-.919.363.604a2.033 2.033 0 0 0 2.958.58l.322-.243a13.99 13.99 0 0 1-5.052 9.432zm.455-6.076c-.012 2.147-.551 3.676-1.603 4.546a3.247 3.247 0 0 1-2.45.712 1.532 1.532 0 0 1-1.083-.504c-.85-.907-.932-2.96-.895-4.208-.93-.15-1.796-.653-2.44-1.43-.565-.683-1.452-1.292-1.93-1.594a3.358 3.358 0 0 1-1.21-1.334l-.768-1.537a2.433 2.433 0 0 1-.243-1.377c.182-1.52.929-3.354 1.524-4.625.2-.427.615-.706 1.085-.73.466-.029.915.213 1.159.618l.661 1.104a.472.472 0 0 0 .513.218.414.414 0 0 0 .344-.356l.01-.076c.15-1.266.97-2.34 2.14-2.809l1.544-.618c.66-.48.207-2.49-.232-3.632 2.657 5.753 4.1 10.455 4.624 14.254zm4.675 9.587v1.673a.667.667 0 0 1-1.333 0v-1.519l-1.544-.514a.666.666 0 1 1 .422-1.263l1.66.553 2.338-1.817-2.553-1.53a.665.665 0 1 1 .686-1.142l2.996 1.795 2.252-1.75a.667.667 0 0 1 .818 1.052l-2.248 1.747 1.125 2.807a.666.666 0 1 1-1.238.496l-.982-2.452z"/></defs><g><g transform="translate(-390 -725)"><use fill="#a3dfff" xlink:href="#44hja"/></g></g></svg>