<svg xmlns="http://www.w3.org/2000/svg" xmlns:xlink="http://www.w3.org/1999/xlink" width="40" height="41" viewBox="0 0 40 41"><defs><path id="g75la" d="M1058.822 457.563c0 .08-.065.145-.146.145h-7.389a3.292 3.292 0 0 1-3.086-2.141 3.226 3.226 0 0 1 0-2.242 3.272 3.272 0 0 1 .198-.433 3.292 3.292 0 0 1 2.888-1.709h7.389c.08 0 .146.065.146.145zm-1.94 6.84c0 .788-.646 1.429-1.439 1.429h-32.828c-.793 0-1.438-.641-1.438-1.429v-1.62h3.172a.586.586 0 0 0 .589-.585.586.586 0 0 0-.589-.584h-3.172v-14.336h35.704v2.737h-5.594a4.47 4.47 0 0 0-4.014 2.497l-.007.015-.018.038c-.086.182-.161.37-.222.565v.001c-.13.416-.201.857-.201 1.315 0 2.443 2.002 4.43 4.462 4.43h5.594v2.738h-28.764a.586.586 0 0 0-.589.584c0 .323.264.584.589.584h28.764zm-35.705-19.915c0-.787.645-1.428 1.438-1.428h32.828c.793 0 1.438.64 1.438 1.428v1.621h-35.704zm1.525-2.872c0-.448.366-.812.817-.812h1.39l-.108 1.088h-2.099zm23.319.276h-7.314c.168-1.857 1.744-3.317 3.657-3.317s3.489 1.46 3.657 3.317zm-3.653-4.486c-2.563 0-4.668 1.984-4.84 4.486h-2.983l6.947-10.118a.21.21 0 0 1 .2-.09 4.505 4.505 0 0 0 2.766-.507.21.21 0 0 1 .216.013l6.213 4.202c.065.044.1.12.091.195-.124.94.067 1.914.537 2.74a.206.206 0 0 1-.012.217l-2.299 3.348h-1.996c-.171-2.502-2.276-4.486-4.84-4.486zm-.267-9.92a.725.725 0 0 1 .603-.317c.145 0 .287.043.409.126l11.973 8.105a.722.722 0 0 1 .192 1.006l-3.763 5.486h-.904l1.845-2.69c.3-.436.324-.991.065-1.449a3.247 3.247 0 0 1-.394-2.015 1.363 1.363 0 0 0-.595-1.311l-6.207-4.202a1.383 1.383 0 0 0-1.446-.07 3.306 3.306 0 0 1-2.032.372 1.396 1.396 0 0 0-1.334.59l-7.392 10.775h-.903zm12.848 13.319c.449 0 .814.363.814.81v.298a2.622 2.622 0 0 0-.329-.021h-2.487l.743-1.088zm3.727 9.21h-.618v-5.527a2.59 2.59 0 0 0-1.108-2.12v-.752c0-1.092-.895-1.98-1.994-1.98h-.461l1.765-2.572a1.886 1.886 0 0 0-.501-2.63l-11.979-8.105a1.903 1.903 0 0 0-1.428-.295c-.5.094-.933.376-1.22.793l-10.338 15.065h-2.877l.694-6.977a.207.207 0 0 1 .13-.174 4.467 4.467 0 0 0 2.183-1.76c.04-.064.117-.1.195-.092l4.513.443a.588.588 0 0 0 .643-.524.585.585 0 0 0-.527-.639l-4.513-.442a1.38 1.38 0 0 0-1.304.626 3.284 3.284 0 0 1-1.604 1.295 1.367 1.367 0 0 0-.887 1.152l-.706 7.092h-.75l1.098-11.035a.728.728 0 0 1 .797-.65l9.119.895a.588.588 0 0 0 .643-.524.585.585 0 0 0-.528-.639l-9.119-.894a1.904 1.904 0 0 0-2.083 1.697l-.885 8.894h-1.507c-1.1 0-1.994.888-1.994 1.98v.513a2.599 2.599 0 0 0-1.525 2.36v19.914a2.609 2.609 0 0 0 2.615 2.597h32.828a2.609 2.609 0 0 0 2.615-2.597v-5.526h.618c.73 0 1.323-.59 1.323-1.313v-6.236a1.32 1.32 0 0 0-1.323-1.313z"/></defs><g><g transform="translate(-1020 -426)"><use fill="#57ca67" xlink:href="#g75la"/></g></g></svg>