<svg xmlns="http://www.w3.org/2000/svg" xmlns:xlink="http://www.w3.org/1999/xlink" width="40" height="13" viewBox="0 0 40 13"><defs><path id="l31ja" d="M1049.244 515.123h2.702l-.754-3.339-.219-.997c-.168.435-.45 1.136-.433 1.104 0 0-1.028 2.568-1.296 3.232zm3.996-7.46l2.622 11.594h-3.006s-.299-1.333-.395-1.738l-4.15-.005c-.125.313-.68 1.743-.68 1.743h-3.403l4.811-10.632c.342-.756.92-.963 1.698-.963zm-11.464 2.208c-1.27 0-1.859.515-1.859.997-.006.543.688.9 1.822 1.438 1.875.825 2.74 1.83 2.726 3.147-.024 2.408-2.24 3.961-5.649 3.961-1.454-.015-2.854-.293-3.614-.617l.457-2.595.418.186c1.065.432 1.755.606 3.054.606.931 0 1.93-.355 1.94-1.131.005-.508-.419-.87-1.683-1.438-1.23-.555-2.86-1.485-2.84-3.15.018-2.253 2.277-3.825 5.482-3.825 1.256 0 2.263.252 2.905.487l-.439 2.512-.293-.134a6.127 6.127 0 0 0-2.427-.444zm-19.3-1.38l1.093 5.121c-1.073-2.679-3.66-4.907-7.569-5.831l.042-.231h5.023c.677.025 1.223.236 1.412.942zm4.742-.829l3.433-.002-5.103 11.569-3.428.006-2.902-9.667c2.086 1.302 3.863 3.367 4.489 4.805l.338 1.194zm4.739-.013h3.236l-2.024 11.591h-3.234z"/><clipPath id="l31jb"><use fill="#fff" xlink:href="#l31ja"/></clipPath></defs><g><g transform="translate(-1016 -507)"><use fill="#fff" fill-opacity="0" stroke="#7cb9ff" stroke-miterlimit="50" stroke-width="2" clip-path="url(&quot;#l31jb&quot;)" xlink:href="#l31ja"/></g></g></svg>