<svg xmlns="http://www.w3.org/2000/svg" xmlns:xlink="http://www.w3.org/1999/xlink" width="40" height="40" viewBox="0 0 40 40"><defs><path id="q8goa" d="M1043.949 559.051a8.09 8.09 0 0 0-1.258-.098v1.172c.36 0 .722.028 1.075.084zm2.015.598a8.05 8.05 0 0 0-1.191-.423l-.303 1.132a6.83 6.83 0 0 1 1.016.36zm4.768 7.347a8.09 8.09 0 0 0-4.02-6.964l-.586 1.014a6.913 6.913 0 0 1 3.436 5.951zm-11.385 3.49v-1.343h2.577v1.344zm3.178 1.163l.58-.581v-2.516l-.58-.581h-4.35v3.678zm-3.178 3.882v-1.334h2.577v1.334zm-1.172 1.172h4.35l.58-.581v-2.516l-.58-.581h-4.35zm6.307-5.065l-.698.699.698.698v3.657l-1.387 1.387h-.64v1.795h-1.082v-1.795h-2.75v1.795h-1.082v-1.795h-2.023v-1.376h1.28v-8.732h-1.28v-1.376h2.023V564.8h1.083v1.795h2.75V564.8h1.082v1.795h.64l1.386 1.386zm-4.286-8.01v1.795h-.405v-1.795h-3.424v1.795h-2.021v3.72h1.28v6.388h-1.28v3.72h2.021v1.795h3.424v-1.795h.405v1.795h3.423v-1.842l2.025-2.026v-4.628l-.213-.213.213-.213v-4.628l-2.025-2.026v-1.842zm6.987 30.325c-.916 0-1.66-.745-1.66-1.66 0-.856.65-1.562 1.483-1.65h.354a1.662 1.662 0 0 1 1.483 1.65c0 .915-.745 1.66-1.66 1.66zm1.6-3.99v-4.66l-.862-.863-.827.829.519.52v3.681h-.78v-3.358l-1.668-1.672-.828.829 1.326 1.328v3.306a2.834 2.834 0 0 0 1.515 5.222 2.833 2.833 0 0 0 1.605-5.162zm-17.626 2.33c0-.856.65-1.562 1.483-1.65h.354a1.662 1.662 0 0 1 1.483 1.65c0 .915-.744 1.66-1.66 1.66-.915 0-1.66-.745-1.66-1.66zm3.669-7.853l-1.67 1.672v3.358h-.779v-3.681l.519-.52-.827-.829-.862.864v4.659a2.833 2.833 0 0 0 1.605 5.162 2.833 2.833 0 0 0 1.515-5.222v-3.306l1.326-1.328zm3.514 9.728c0-.916.744-1.66 1.66-1.66.916 0 1.66.744 1.66 1.66 0 .915-.744 1.66-1.66 1.66-.916 0-1.66-.745-1.66-1.66zm3.223-9.313h-1.172v6.48h-.782v-6.48h-1.171v6.952a2.832 2.832 0 1 0 3.124 0zm8.615-4.566a.45.45 0 1 1 0-.9.45.45 0 0 1 0 .9zm1.206-4.685a.45.45 0 1 1 .001-.9.45.45 0 0 1-.001.9zm-1.206-4.686a.45.45 0 1 1 .001-.9.45.45 0 0 1-.001.9zm-20.356-.899a.45.45 0 1 1 0 .9.45.45 0 0 1 0-.9zm-1.206 4.686a.45.45 0 1 1-.001.9.45.45 0 0 1 .001-.9zm1.206 4.686a.45.45 0 1 1-.001.9.45.45 0 0 1 .001-.9zm-1.09 3.325c-3.112 0-5.79-1.89-6.949-4.582h2.793l2.301 2.301h1.435a1.624 1.624 0 0 0 1.512 1.036c.895 0 1.622-.728 1.622-1.622 0-.894-.727-1.622-1.622-1.622-.687 0-1.276.43-1.512 1.036h-.95l-2.3-2.302h-3.672a7.534 7.534 0 0 1-.195-1.214h5.91a1.625 1.625 0 0 0 1.513 1.036c.894 0 1.622-.728 1.622-1.622 0-.894-.728-1.622-1.622-1.622-.688 0-1.277.43-1.512 1.036h-5.912c.032-.414.097-.82.194-1.214h3.673l2.302-2.301h.95a1.624 1.624 0 0 0 1.511 1.035c.895 0 1.622-.727 1.622-1.622 0-.894-.727-1.621-1.622-1.621-.687 0-1.276.43-1.512 1.035h-1.435l-2.301 2.302h-2.796c1.088-2.542 3.533-4.384 6.442-4.578h3.37v-1.172h-2.753a3.187 3.187 0 0 1 4.727-2.194l.602.348.24-.652a8.871 8.871 0 0 1 8.288-5.77c4.872 0 8.835 3.965 8.835 8.837l-.003.571.529.054a7.528 7.528 0 0 1 6.182 4.556h-2.805l-2.301-2.302h-1.435a1.624 1.624 0 0 0-1.512-1.036c-.895 0-1.622.728-1.622 1.622 0 .895.727 1.622 1.622 1.622.687 0 1.276-.43 1.512-1.036h.95l2.3 2.302h3.678c.095.394.16.8.19 1.214h-5.912a1.625 1.625 0 0 0-1.512-1.036c-.894 0-1.622.728-1.622 1.622 0 .894.728 1.622 1.622 1.622.688 0 1.277-.43 1.512-1.036h5.911c-.032.415-.098.82-.195 1.214h-3.671l-2.302 2.302h-.95a1.625 1.625 0 0 0-1.511-1.036c-.895 0-1.622.728-1.622 1.622 0 .894.727 1.622 1.622 1.622.687 0 1.276-.43 1.512-1.036h1.435l2.301-2.301h2.793a7.571 7.571 0 0 1-6.95 4.582zm23.952-16.184c-.247-5.298-4.635-9.532-9.993-9.532a9.94 9.94 0 0 0-5.778 1.836 9.982 9.982 0 0 0-3.366 4.104 4.367 4.367 0 0 0-1.574-.295 4.365 4.365 0 0 0-4.328 3.84c-4.327.538-7.645 4.247-7.645 8.663 0 4.814 3.916 8.73 8.73 8.73h22.54c4.814 0 8.73-3.916 8.73-8.73a8.709 8.709 0 0 0-2.266-5.868 8.71 8.71 0 0 0-5.05-2.748z"/></defs><g><g transform="translate(-1020 -557)"><use fill="#f5a623" xlink:href="#q8goa"/></g></g></svg>