<svg xmlns="http://www.w3.org/2000/svg" xmlns:xlink="http://www.w3.org/1999/xlink" width="1267" height="1080" viewBox="0 0 1267 1080"><defs><path id="h8xva" d="M665.83 95.902L612.852 6.92 599.14 19.987z"/><path id="h8xvc" d="M1231.14 808.38l81.025 211.566 27.424-23.645z"/><path id="h8xve" d="M1153.85 24.344l62.327-176.72-29.294-9.334z"/><path id="h8xvg" d="M1351.43 720.02l198.2 179.21 16.204-39.203z"/><path id="h8xvi" d="M516.867 580.01L424 584.366l4.986 16.8z"/><path id="h8xvk" d="M665.832 825.8l-46.122 99.56 28.047-11.822z"/><path id="h8xvm" d="M846.58 69.762c0-2.489-50.484-146.852-50.484-146.852L758.7-101.98z"/><path id="h8xvo" d="M424.63 243.993L599.77 298.75 367.29 193.59z"/><path id="h8xvq" d="M1279.75 220.968l239.958-124.45-33.033-37.958z"/><path id="h8xvs" d="M993.047 1052.307L974.972 848.83l-13.712 256.99z"/><path id="h8xvu" d="M1493.53 543.919l137.119 19.912 3.116-22.401z"/><path id="h8xvw" d="M1372.62 348.53l109.072-11.822-6.856-18.668z"/><linearGradient id="h8xvb" x1="656.81" x2="610.37" y1="18.95" y2="80.91" gradientUnits="userSpaceOnUse"><stop offset="0" stop-color="#23b68e"/><stop offset="1" stop-color="#5ad069"/></linearGradient><linearGradient id="h8xvd" x1="1324.92" x2="1249.41" y1="836.98" y2="984.31" gradientUnits="userSpaceOnUse"><stop offset="0" stop-color="#23b68e"/><stop offset="1" stop-color="#5ad069"/></linearGradient><linearGradient id="h8xvf" x1="1207.75" x2="1164.35" y1="-136.56" y2="-7" gradientUnits="userSpaceOnUse"><stop offset="0" stop-color="#23b68e"/><stop offset="1" stop-color="#5ad069"/></linearGradient><linearGradient id="h8xvh" x1="1536.84" x2="1387.55" y1="744.25" y2="869.04" gradientUnits="userSpaceOnUse"><stop offset="0" stop-color="#23b68e"/><stop offset="1" stop-color="#5ad069"/></linearGradient><linearGradient id="h8xvj" x1="504.31" x2="439.64" y1="582.87" y2="597.61" gradientUnits="userSpaceOnUse"><stop offset="0" stop-color="#23b68e"/><stop offset="1" stop-color="#5ad069"/></linearGradient><linearGradient id="h8xvl" x1="659.59" x2="627.48" y1="839.26" y2="908.59" gradientUnits="userSpaceOnUse"><stop offset="0" stop-color="#23b68e"/><stop offset="1" stop-color="#5ad069"/></linearGradient><linearGradient id="h8xvn" x1="834.7" x2="773.5" y1="-78.76" y2="40.83" gradientUnits="userSpaceOnUse"><stop offset="0" stop-color="#23b68e"/><stop offset="1" stop-color="#5ad069"/></linearGradient><linearGradient id="h8xvp" x1="568.34" x2="406.45" y1="207.81" y2="281.04" gradientUnits="userSpaceOnUse"><stop offset="0" stop-color="#23b68e"/><stop offset="1" stop-color="#5ad069"/></linearGradient><linearGradient id="h8xvr" x1="1487.27" x2="1320.17" y1="80.52" y2="193.61" gradientUnits="userSpaceOnUse"><stop offset="0" stop-color="#23b68e"/><stop offset="1" stop-color="#5ad069"/></linearGradient><linearGradient id="h8xvt" x1="988.75" x2="966.62" y1="883.57" y2="1062.53" gradientUnits="userSpaceOnUse"><stop offset="0" stop-color="#23b68e"/><stop offset="1" stop-color="#5ad069"/></linearGradient><linearGradient id="h8xvv" x1="1614.81" x2="1517.15" y1="544.46" y2="560.06" gradientUnits="userSpaceOnUse"><stop offset="0" stop-color="#23b68e"/><stop offset="1" stop-color="#5ad069"/></linearGradient><linearGradient id="h8xvx" x1="1466.94" x2="1390.99" y1="322.16" y2="343.39" gradientUnits="userSpaceOnUse"><stop offset="0" stop-color="#23b68e"/><stop offset="1" stop-color="#5ad069"/></linearGradient></defs><g><g transform="translate(-367)"><g><use fill="url(#h8xvb)" xlink:href="#h8xva"/></g><g><use fill="url(#h8xvd)" xlink:href="#h8xvc"/></g><g><use fill="url(#h8xvf)" xlink:href="#h8xve"/></g><g><use fill="url(#h8xvh)" xlink:href="#h8xvg"/></g><g><use fill="url(#h8xvj)" xlink:href="#h8xvi"/></g><g><use fill="url(#h8xvl)" xlink:href="#h8xvk"/></g><g><use fill="url(#h8xvn)" xlink:href="#h8xvm"/></g><g><use fill="url(#h8xvp)" xlink:href="#h8xvo"/></g><g><use fill="url(#h8xvr)" xlink:href="#h8xvq"/></g><g><use fill="url(#h8xvt)" xlink:href="#h8xvs"/></g><g><use fill="url(#h8xvv)" xlink:href="#h8xvu"/></g><g><use fill="url(#h8xvx)" xlink:href="#h8xvw"/></g></g></g></svg>