<svg xmlns="http://www.w3.org/2000/svg" xmlns:xlink="http://www.w3.org/1999/xlink" width="138" height="139" viewBox="0 0 138 139"><defs><path id="36dra" d="M900 301c0-33.137 26.863-60 60-60s60 26.863 60 60-26.863 60-60 60-60-26.863-60-60z"/><path id="36dre" d="M990.831 279.599a2.976 2.976 0 0 0-4.242 0l-35.942 36.357-13.816-13.975a2.976 2.976 0 0 0-4.242 0 3.06 3.06 0 0 0 0 4.291l15.937 16.121a2.977 2.977 0 0 0 4.242 0l38.063-38.503a3.06 3.06 0 0 0 0-4.291z"/><mask id="36drc" width="2" height="2" x="-1" y="-1"><path fill="#fff" d="M900 241h120v120H900z"/><use xlink:href="#36dra"/></mask><filter id="36drb" width="160" height="170" x="880" y="221" filterUnits="userSpaceOnUse"><feOffset dy="10" in="SourceGraphic" result="FeOffset2620Out"/><feGaussianBlur in="FeOffset2620Out" result="FeGaussianBlur2621Out" stdDeviation="4 4"/></filter><linearGradient id="36drd" x1="960" x2="960" y1="241" y2="361" gradientUnits="userSpaceOnUse"><stop offset="0" stop-color="#fad961"/><stop offset="1" stop-color="#f76b1c"/></linearGradient></defs><g><g transform="translate(-891 -241)"><g filter="url(#36drb)"><use fill="none" stroke-width="0" mask="url(&quot;#36drc&quot;)" xlink:href="#36dra"/><use fill="#31a766" xlink:href="#36dra"/></g><use fill="url(#36drd)" xlink:href="#36dra"/></g><g transform="translate(-891 -241)"><use fill="#fff" xlink:href="#36dre"/></g></g></svg>