<svg xmlns="http://www.w3.org/2000/svg" xmlns:xlink="http://www.w3.org/1999/xlink" width="134" height="104" viewBox="0 0 134 104"><defs><path id="563ra" d="M1675.889 662.222c-1.27-1.27-1.905-1.905-3.81-2.222-1.904 2.54-2.857 3.81-5.079 5.714.952.635 1.587.953 1.905 1.588 2.54-2.223 4.127-3.492 6.984-5.08z"/><path id="563rb" d="M1651 669.46c5.08 1.905 8.571 2.54 14.603 1.27-1.905-6.667-1.587-10.793-.317-15.238-4.762-2.222-8.254-2.857-13.651-3.492.952 6.032.635 10.794-.635 17.46z"/><path id="563rc" d="M1649.667 721c-1.588 6.984-2.54 10.476-6.667 14.92 2.54 1.27 3.81 2.54 4.444 4.128 4.762-4.445 6.667-8.572 8.89-15.873-2.223-1.905-4.128-2.858-6.667-3.175z"/><path id="563rd" d="M1738.508 686.397c-1.27-1.27-1.905-2.857-1.587-5.397-6.032.952-9.524 2.54-14.921 5.08 0 3.491.952 5.396 1.905 6.666 4.762-3.81 8.571-5.08 14.603-6.35z"/><path id="563re" d="M1672.492 741.159c3.175-1.588 5.714-3.175 7.62-5.715-.953-2.222-1.906-3.492-3.493-4.444-2.222 2.857-4.127 4.127-7.619 5.397 2.222 1.27 3.175 2.54 3.492 4.762z"/><path id="563rf" d="M1755.54 747.032c1.27-.953 1.904-1.27 3.492-1.27-1.27-2.222-2.54-4.127-3.492-4.762-.953.635-1.905 1.27-2.54 2.222.952.635 1.587 1.905 2.54 3.81z"/><path id="563rg" d="M1761.032 669.127c.635-.952.952-1.587.635-3.175-2.223 0-3.81-.317-5.715-.952 0 .952-.317 1.905-.952 3.175 1.905.952 3.81.952 6.032.952z"/><path id="563rh" d="M1693.08 690.27c-.636-.318-.953-.635-1.588-1.27-1.587 1.587-2.54 2.54-3.492 4.444.635.953 1.27 1.27 1.905 1.588.952-2.222 1.587-3.175 3.174-4.762z"/><path id="563ri" d="M1689 714.587c1.27.635 1.587 1.27 2.54 2.223.635-.318.952-.953.952-1.27-.635-.635-1.27-1.588-2.54-2.54 0 .635 0 1.27-.952 1.587z"/><path id="563rj" d="M1687.635 739.209c0 .952 0 1.904-.635 3.174 2.54-.317 4.444-.317 6.35 0 .634-1.27.952-1.905.952-2.857-1.588-.635-3.81-.635-6.667-.317z"/><path id="563rk" d="M1719.492 750.159c.952-.635 1.905-.953 3.492-.635-.317-3.81-1.27-6.35-2.54-9.524-2.222 0-3.492.317-4.444.952 2.54 3.175 2.857 5.397 3.492 9.207z"/><path id="563rl" d="M1634 694.27c1.587 1.905 2.54 3.174 2.857 5.08.953-.318 1.587-.636 2.222-.318-.317-2.222-1.27-3.81-2.857-6.032a18.21 18.21 0 0 0-2.222 1.27z"/><mask id="563rn" width="2" height="2" x="-1" y="-1"><path fill="#fff" d="M1667 660h9v8h-9z"/><use xlink:href="#563ra"/></mask><filter id="563rm" width="37" height="38" x="1653" y="646" filterUnits="userSpaceOnUse"><feOffset dy="2" in="SourceGraphic" result="FeOffset2615Out"/><feGaussianBlur in="FeOffset2615Out" result="FeGaussianBlur2616Out" stdDeviation="1.6 1.6"/></filter><linearGradient id="563ro" x1="1669.55" x2="1673.42" y1="662.3" y2="665.43" gradientUnits="userSpaceOnUse"><stop offset="0" stop-color="#400300"/><stop offset=".07" stop-color="#750300"/><stop offset=".14" stop-color="#a50300"/><stop offset=".21" stop-color="#c80300"/><stop offset=".26" stop-color="#dd0300"/><stop offset=".3" stop-color="#e50300"/><stop offset=".34" stop-color="#ee190c"/><stop offset=".39" stop-color="#f82e18"/><stop offset=".45" stop-color="#fd3c20"/><stop offset=".49" stop-color="#ff4022"/><stop offset=".54" stop-color="#fd3b1f"/><stop offset=".6" stop-color="#f72e18"/><stop offset=".66" stop-color="#ee180c"/><stop offset=".7" stop-color="#e50300"/><stop offset=".73" stop-color="#db0300"/><stop offset=".79" stop-color="#c20300"/><stop offset=".87" stop-color="#980300"/><stop offset=".95" stop-color="#5e0300"/><stop offset="1" stop-color="#3b0300"/></linearGradient><mask id="563rq" width="2" height="2" x="-1" y="-1"><path fill="#fff" d="M1651 652h15v20h-15z"/><use xlink:href="#563rb"/></mask><filter id="563rp" width="43" height="50" x="1637" y="638" filterUnits="userSpaceOnUse"><feOffset dy="2" in="SourceGraphic" result="FeOffset2651Out"/><feGaussianBlur in="FeOffset2651Out" result="FeGaussianBlur2652Out" stdDeviation="1.6 1.6"/></filter><linearGradient id="563rr" x1="1651.21" x2="1668.26" y1="661.47" y2="662.38" gradientUnits="userSpaceOnUse"><stop offset="0" stop-color="#ab3c00"/><stop offset=".34" stop-color="#ffc700"/><stop offset=".37" stop-color="#ffcd17"/><stop offset=".41" stop-color="#ffd533"/><stop offset=".44" stop-color="#ffda46"/><stop offset=".48" stop-color="#ffdd52"/><stop offset=".52" stop-color="#ffde56"/><stop offset=".55" stop-color="#ffdd51"/><stop offset=".59" stop-color="#ffd943"/><stop offset=".62" stop-color="#ffd32b"/><stop offset=".66" stop-color="#ffca0b"/><stop offset=".67" stop-color="#ffc700"/><stop offset="1" stop-color="#ab3c00"/></linearGradient><mask id="563rt" width="2" height="2" x="-1" y="-1"><path fill="#fff" d="M1643 721h14v19h-14z"/><use xlink:href="#563rc"/></mask><filter id="563rs" width="42" height="49" x="1629" y="707" filterUnits="userSpaceOnUse"><feOffset dy="2" in="SourceGraphic" result="FeOffset2681Out"/><feGaussianBlur in="FeOffset2681Out" result="FeGaussianBlur2682Out" stdDeviation="1.6 1.6"/></filter><linearGradient id="563ru" x1="1654.5" x2="1643.46" y1="733.06" y2="727.88" gradientUnits="userSpaceOnUse"><stop offset="0" stop-color="#005200"/><stop offset=".19" stop-color="#00890b"/><stop offset=".31" stop-color="#00a912"/><stop offset=".33" stop-color="#11ad12"/><stop offset=".37" stop-color="#3ab512"/><stop offset=".41" stop-color="#5abc12"/><stop offset=".44" stop-color="#71c112"/><stop offset=".48" stop-color="#7ec412"/><stop offset=".51" stop-color="#83c512"/><stop offset=".55" stop-color="#7fc412"/><stop offset=".59" stop-color="#72c112"/><stop offset=".63" stop-color="#5ebd12"/><stop offset=".67" stop-color="#41b712"/><stop offset=".72" stop-color="#1caf12"/><stop offset=".74" stop-color="#00a912"/><stop offset=".78" stop-color="#009e10"/><stop offset=".86" stop-color="#00800c"/><stop offset=".95" stop-color="#005004"/><stop offset="1" stop-color="#003400"/></linearGradient><mask id="563rw" width="2" height="2" x="-1" y="-1"><path fill="#fff" d="M1722 681h17v12h-17z"/><use xlink:href="#563rd"/></mask><filter id="563rv" width="45" height="42" x="1708" y="667" filterUnits="userSpaceOnUse"><feOffset dy="2" in="SourceGraphic" result="FeOffset2717Out"/><feGaussianBlur in="FeOffset2717Out" result="FeGaussianBlur2718Out" stdDeviation="1.6 1.6"/></filter><linearGradient id="563rx" x1="1731.42" x2="1728.11" y1="690.02" y2="681.37" gradientUnits="userSpaceOnUse"><stop offset="0" stop-color="#400300"/><stop offset=".07" stop-color="#750300"/><stop offset=".14" stop-color="#a50300"/><stop offset=".21" stop-color="#c80300"/><stop offset=".26" stop-color="#dd0300"/><stop offset=".3" stop-color="#e50300"/><stop offset=".34" stop-color="#ee190c"/><stop offset=".39" stop-color="#f82e18"/><stop offset=".45" stop-color="#fd3c20"/><stop offset=".49" stop-color="#ff4022"/><stop offset=".54" stop-color="#fd3b1f"/><stop offset=".6" stop-color="#f72e18"/><stop offset=".66" stop-color="#ee180c"/><stop offset=".7" stop-color="#e50300"/><stop offset=".73" stop-color="#db0300"/><stop offset=".79" stop-color="#c20300"/><stop offset=".87" stop-color="#980300"/><stop offset=".95" stop-color="#5e0300"/><stop offset="1" stop-color="#3b0300"/></linearGradient><mask id="563rz" width="2" height="2" x="-1" y="-1"><path fill="#fff" d="M1669 731h12v11h-12z"/><use xlink:href="#563re"/></mask><filter id="563ry" width="40" height="41" x="1655" y="717" filterUnits="userSpaceOnUse"><feOffset dy="2" in="SourceGraphic" result="FeOffset2753Out"/><feGaussianBlur in="FeOffset2753Out" result="FeGaussianBlur2754Out" stdDeviation="1.6 1.6"/></filter><linearGradient id="563rA" x1="1676.89" x2="1672.77" y1="738.6" y2="733.44" gradientUnits="userSpaceOnUse"><stop offset="0" stop-color="#400300"/><stop offset=".07" stop-color="#750300"/><stop offset=".14" stop-color="#a50300"/><stop offset=".21" stop-color="#c80300"/><stop offset=".26" stop-color="#dd0300"/><stop offset=".3" stop-color="#e50300"/><stop offset=".34" stop-color="#ee190c"/><stop offset=".39" stop-color="#f82e18"/><stop offset=".45" stop-color="#fd3c20"/><stop offset=".49" stop-color="#ff4022"/><stop offset=".54" stop-color="#fd3b1f"/><stop offset=".6" stop-color="#f72e18"/><stop offset=".66" stop-color="#ee180c"/><stop offset=".7" stop-color="#e50300"/><stop offset=".73" stop-color="#db0300"/><stop offset=".79" stop-color="#c20300"/><stop offset=".87" stop-color="#980300"/><stop offset=".95" stop-color="#5e0300"/><stop offset="1" stop-color="#3b0300"/></linearGradient><mask id="563rC" width="2" height="2" x="-1" y="-1"><path fill="#fff" d="M1753 741h6v6h-6z"/><use xlink:href="#563rf"/></mask><filter id="563rB" width="34" height="36" x="1739" y="727" filterUnits="userSpaceOnUse"><feOffset dy="2" in="SourceGraphic" result="FeOffset2789Out"/><feGaussianBlur in="FeOffset2789Out" result="FeGaussianBlur2790Out" stdDeviation="1.6 1.6"/></filter><linearGradient id="563rD" x1="1754.04" x2="1758.2" y1="745.43" y2="742.6" gradientUnits="userSpaceOnUse"><stop offset="0" stop-color="#920040"/><stop offset=".05" stop-color="#ae0052"/><stop offset=".12" stop-color="#d10069"/><stop offset=".19" stop-color="#ea007a"/><stop offset=".25" stop-color="#fa0084"/><stop offset=".3" stop-color="#ff0087"/><stop offset=".35" stop-color="#ff1a8b"/><stop offset=".43" stop-color="#ff3f92"/><stop offset=".5" stop-color="#ff5696"/><stop offset=".55" stop-color="#ff5e97"/><stop offset=".58" stop-color="#ff5696"/><stop offset=".64" stop-color="#ff3f92"/><stop offset=".71" stop-color="#ff198b"/><stop offset=".75" stop-color="#ff0087"/><stop offset=".79" stop-color="#fa0084"/><stop offset=".84" stop-color="#ea007a"/><stop offset=".9" stop-color="#d10069"/><stop offset=".96" stop-color="#ae0053"/><stop offset="1" stop-color="#920040"/></linearGradient><mask id="563rF" width="2" height="2" x="-1" y="-1"><path fill="#fff" d="M1755 665h7v5h-7z"/><use xlink:href="#563rg"/></mask><filter id="563rE" width="35" height="35" x="1741" y="651" filterUnits="userSpaceOnUse"><feOffset dy="2" in="SourceGraphic" result="FeOffset2825Out"/><feGaussianBlur in="FeOffset2825Out" result="FeGaussianBlur2826Out" stdDeviation="1.6 1.6"/></filter><linearGradient id="563rG" x1="1758.76" x2="1757.95" y1="664.84" y2="669.77" gradientUnits="userSpaceOnUse"><stop offset="0" stop-color="#005200"/><stop offset=".19" stop-color="#00890b"/><stop offset=".31" stop-color="#00a912"/><stop offset=".33" stop-color="#11ad12"/><stop offset=".37" stop-color="#3ab512"/><stop offset=".41" stop-color="#5abc12"/><stop offset=".44" stop-color="#71c112"/><stop offset=".48" stop-color="#7ec412"/><stop offset=".51" stop-color="#83c512"/><stop offset=".55" stop-color="#7fc412"/><stop offset=".59" stop-color="#72c112"/><stop offset=".63" stop-color="#5ebd12"/><stop offset=".67" stop-color="#41b712"/><stop offset=".72" stop-color="#1caf12"/><stop offset=".74" stop-color="#00a912"/><stop offset=".78" stop-color="#009e10"/><stop offset=".86" stop-color="#00800c"/><stop offset=".95" stop-color="#005004"/><stop offset="1" stop-color="#003400"/></linearGradient><mask id="563rI" width="2" height="2" x="-1" y="-1"><path fill="#fff" d="M1688 689h6v6h-6z"/><use xlink:href="#563rh"/></mask><filter id="563rH" width="34" height="36" x="1674" y="675" filterUnits="userSpaceOnUse"><feOffset dy="2" in="SourceGraphic" result="FeOffset2861Out"/><feGaussianBlur in="FeOffset2861Out" result="FeGaussianBlur2862Out" stdDeviation="1.6 1.6"/></filter><linearGradient id="563rJ" x1="1691.75" x2="1689.12" y1="692.69" y2="690.73" gradientUnits="userSpaceOnUse"><stop offset="0" stop-color="#400300"/><stop offset=".07" stop-color="#750300"/><stop offset=".14" stop-color="#a50300"/><stop offset=".21" stop-color="#c80300"/><stop offset=".26" stop-color="#dd0300"/><stop offset=".3" stop-color="#e50300"/><stop offset=".34" stop-color="#ee190c"/><stop offset=".39" stop-color="#f82e18"/><stop offset=".45" stop-color="#fd3c20"/><stop offset=".49" stop-color="#ff4022"/><stop offset=".54" stop-color="#fd3b1f"/><stop offset=".6" stop-color="#f72e18"/><stop offset=".66" stop-color="#ee180c"/><stop offset=".7" stop-color="#e50300"/><stop offset=".73" stop-color="#db0300"/><stop offset=".79" stop-color="#c20300"/><stop offset=".87" stop-color="#980300"/><stop offset=".95" stop-color="#5e0300"/><stop offset="1" stop-color="#3b0300"/></linearGradient><mask id="563rL" width="2" height="2" x="-1" y="-1"><path fill="#fff" d="M1689 713h4v4h-4z"/><use xlink:href="#563ri"/></mask><filter id="563rK" width="32" height="34" x="1675" y="699" filterUnits="userSpaceOnUse"><feOffset dy="2" in="SourceGraphic" result="FeOffset2897Out"/><feGaussianBlur in="FeOffset2897Out" result="FeGaussianBlur2898Out" stdDeviation="1.6 1.6"/></filter><linearGradient id="563rM" x1="1690.34" x2="1691.92" y1="715.61" y2="713.69" gradientUnits="userSpaceOnUse"><stop offset="0" stop-color="#0038ab"/><stop offset=".11" stop-color="#0062c9"/><stop offset=".27" stop-color="#0097f0"/><stop offset=".35" stop-color="#00acff"/><stop offset=".4" stop-color="#00bfff"/><stop offset=".47" stop-color="#00d2ff"/><stop offset=".52" stop-color="#00d9ff"/><stop offset=".66" stop-color="#00b8ff"/><stop offset=".71" stop-color="#00acff"/><stop offset=".76" stop-color="#00a2f8"/><stop offset=".83" stop-color="#0086e3"/><stop offset=".93" stop-color="#0059c3"/><stop offset="1" stop-color="#0038ab"/></linearGradient><mask id="563rO" width="2" height="2" x="-1" y="-1"><path fill="#fff" d="M1687 739h8v4h-8z"/><use xlink:href="#563rj"/></mask><filter id="563rN" width="36" height="34" x="1673" y="725" filterUnits="userSpaceOnUse"><feOffset dy="2" in="SourceGraphic" result="FeOffset2927Out"/><feGaussianBlur in="FeOffset2927Out" result="FeGaussianBlur2928Out" stdDeviation="1.6 1.6"/></filter><linearGradient id="563rP" x1="1690.58" x2="1690.69" y1="743.44" y2="738.44" gradientUnits="userSpaceOnUse"><stop offset="0" stop-color="#920040"/><stop offset=".05" stop-color="#ae0052"/><stop offset=".12" stop-color="#d10069"/><stop offset=".19" stop-color="#ea007a"/><stop offset=".25" stop-color="#fa0084"/><stop offset=".3" stop-color="#ff0087"/><stop offset=".35" stop-color="#ff1a8b"/><stop offset=".43" stop-color="#ff3f92"/><stop offset=".5" stop-color="#ff5696"/><stop offset=".55" stop-color="#ff5e97"/><stop offset=".58" stop-color="#ff5696"/><stop offset=".64" stop-color="#ff3f92"/><stop offset=".71" stop-color="#ff198b"/><stop offset=".75" stop-color="#ff0087"/><stop offset=".79" stop-color="#fa0084"/><stop offset=".84" stop-color="#ea007a"/><stop offset=".9" stop-color="#d10069"/><stop offset=".96" stop-color="#ae0053"/><stop offset="1" stop-color="#920040"/></linearGradient><mask id="563rR" width="2" height="2" x="-1" y="-1"><path fill="#fff" d="M1716 740h7v11h-7z"/><use xlink:href="#563rk"/></mask><filter id="563rQ" width="35" height="41" x="1702" y="726" filterUnits="userSpaceOnUse"><feOffset dy="2" in="SourceGraphic" result="FeOffset2963Out"/><feGaussianBlur in="FeOffset2963Out" result="FeGaussianBlur2964Out" stdDeviation="1.6 1.6"/></filter><linearGradient id="563rS" x1="1717.61" x2="1723.26" y1="745.69" y2="743.95" gradientUnits="userSpaceOnUse"><stop offset="0" stop-color="#ab3c00"/><stop offset=".34" stop-color="#ffc700"/><stop offset=".37" stop-color="#ffcd17"/><stop offset=".41" stop-color="#ffd533"/><stop offset=".44" stop-color="#ffda46"/><stop offset=".48" stop-color="#ffdd52"/><stop offset=".52" stop-color="#ffde56"/><stop offset=".55" stop-color="#ffdd51"/><stop offset=".59" stop-color="#ffd943"/><stop offset=".62" stop-color="#ffd32b"/><stop offset=".66" stop-color="#ffca0b"/><stop offset=".67" stop-color="#ffc700"/><stop offset="1" stop-color="#ab3c00"/></linearGradient><mask id="563rU" width="2" height="2" x="-1" y="-1"><path fill="#fff" d="M1634 693h6v7h-6z"/><use xlink:href="#563rl"/></mask><filter id="563rT" width="34" height="37" x="1620" y="679" filterUnits="userSpaceOnUse"><feOffset dy="2" in="SourceGraphic" result="FeOffset2993Out"/><feGaussianBlur in="FeOffset2993Out" result="FeGaussianBlur2994Out" stdDeviation="1.6 1.6"/></filter><linearGradient id="563rV" x1="1638.78" x2="1634.83" y1="695.46" y2="697.57" gradientUnits="userSpaceOnUse"><stop offset="0" stop-color="#ab3c00"/><stop offset=".34" stop-color="#ffc700"/><stop offset=".37" stop-color="#ffcd17"/><stop offset=".41" stop-color="#ffd533"/><stop offset=".44" stop-color="#ffda46"/><stop offset=".48" stop-color="#ffdd52"/><stop offset=".52" stop-color="#ffde56"/><stop offset=".55" stop-color="#ffdd51"/><stop offset=".59" stop-color="#ffd943"/><stop offset=".62" stop-color="#ffd32b"/><stop offset=".66" stop-color="#ffca0b"/><stop offset=".67" stop-color="#ffc700"/><stop offset="1" stop-color="#ab3c00"/></linearGradient></defs><g><g transform="translate(-1631 -651)"><g filter="url(#563rm)"><use fill="none" stroke-opacity=".3" stroke-width="0" mask="url(&quot;#563rn&quot;)" xlink:href="#563ra"/><use fill-opacity=".3" xlink:href="#563ra"/></g><use fill="url(#563ro)" xlink:href="#563ra"/></g><g transform="translate(-1631 -651)"><g filter="url(#563rp)"><use fill="none" stroke-opacity=".3" stroke-width="0" mask="url(&quot;#563rq&quot;)" xlink:href="#563rb"/><use fill-opacity=".3" xlink:href="#563rb"/></g><use fill="url(#563rr)" xlink:href="#563rb"/></g><g transform="translate(-1631 -651)"><g filter="url(#563rs)"><use fill="none" stroke-opacity=".3" stroke-width="0" mask="url(&quot;#563rt&quot;)" xlink:href="#563rc"/><use fill-opacity=".3" xlink:href="#563rc"/></g><use fill="url(#563ru)" xlink:href="#563rc"/></g><g transform="translate(-1631 -651)"><g filter="url(#563rv)"><use fill="none" stroke-opacity=".3" stroke-width="0" mask="url(&quot;#563rw&quot;)" xlink:href="#563rd"/><use fill-opacity=".3" xlink:href="#563rd"/></g><use fill="url(#563rx)" xlink:href="#563rd"/></g><g transform="translate(-1631 -651)"><g filter="url(#563ry)"><use fill="none" stroke-opacity=".3" stroke-width="0" mask="url(&quot;#563rz&quot;)" xlink:href="#563re"/><use fill-opacity=".3" xlink:href="#563re"/></g><use fill="url(#563rA)" xlink:href="#563re"/></g><g transform="translate(-1631 -651)"><g filter="url(#563rB)"><use fill="none" stroke-opacity=".3" stroke-width="0" mask="url(&quot;#563rC&quot;)" xlink:href="#563rf"/><use fill-opacity=".3" xlink:href="#563rf"/></g><use fill="url(#563rD)" xlink:href="#563rf"/></g><g transform="translate(-1631 -651)"><g filter="url(#563rE)"><use fill="none" stroke-opacity=".3" stroke-width="0" mask="url(&quot;#563rF&quot;)" xlink:href="#563rg"/><use fill-opacity=".3" xlink:href="#563rg"/></g><use fill="url(#563rG)" xlink:href="#563rg"/></g><g transform="translate(-1631 -651)"><g filter="url(#563rH)"><use fill="none" stroke-opacity=".3" stroke-width="0" mask="url(&quot;#563rI&quot;)" xlink:href="#563rh"/><use fill-opacity=".3" xlink:href="#563rh"/></g><use fill="url(#563rJ)" xlink:href="#563rh"/></g><g transform="translate(-1631 -651)"><g filter="url(#563rK)"><use fill="none" stroke-opacity=".3" stroke-width="0" mask="url(&quot;#563rL&quot;)" xlink:href="#563ri"/><use fill-opacity=".3" xlink:href="#563ri"/></g><use fill="url(#563rM)" xlink:href="#563ri"/></g><g transform="translate(-1631 -651)"><g filter="url(#563rN)"><use fill="none" stroke-opacity=".3" stroke-width="0" mask="url(&quot;#563rO&quot;)" xlink:href="#563rj"/><use fill-opacity=".3" xlink:href="#563rj"/></g><use fill="url(#563rP)" xlink:href="#563rj"/></g><g transform="translate(-1631 -651)"><g filter="url(#563rQ)"><use fill="none" stroke-opacity=".3" stroke-width="0" mask="url(&quot;#563rR&quot;)" xlink:href="#563rk"/><use fill-opacity=".3" xlink:href="#563rk"/></g><use fill="url(#563rS)" xlink:href="#563rk"/></g><g transform="translate(-1631 -651)"><g filter="url(#563rT)"><use fill="none" stroke-opacity=".3" stroke-width="0" mask="url(&quot;#563rU&quot;)" xlink:href="#563rl"/><use fill-opacity=".3" xlink:href="#563rl"/></g><use fill="url(#563rV)" xlink:href="#563rl"/></g></g></svg>