<svg xmlns="http://www.w3.org/2000/svg" xmlns:xlink="http://www.w3.org/1999/xlink" width="204" height="244" viewBox="0 0 204 244"><defs><path id="x4l1a" d="M1787.397 705.587c-.318-.317-.635-.952-.635-1.587-1.905.317-3.175.952-4.762 1.905 0 1.27.317 1.587.635 2.222 1.587-1.587 2.857-2.222 4.762-2.54z"/><path id="x4l1b" d="M1863.65 689.095c.953-4.127 1.27-8.571-.634-13.016-3.175-1.587-5.08-2.54-7.937-5.079 0 3.175-1.27 4.762-5.079 7.302 5.08 2.222 8.889 6.031 13.65 10.793z"/><path id="x4l1c" d="M1825 686.27c2.857 5.397 6.35 7.619 13.016 8.571 4.762-4.127 7.619-7.936 8.571-12.698-4.762-4.762-6.666-9.206-9.206-17.143-3.492 8.571-6.032 13.968-12.381 21.27z"/><path id="x4l1d" d="M1851.238 731.5c1.587-.317 2.54-.635 3.81-.317 0-.635 0-.953.317-1.27-1.27-.318-2.54-.318-4.127 0-.317.317-.317.952 0 1.587z"/><path id="x4l1e" d="M1785 614.127c3.492 2.857 7.302 3.175 13.333 3.175-.317-13.016 3.175-26.985 8.89-42.54-4.763-.318-7.62-1.587-11.747-4.762-7.301 16.19-9.841 25.714-10.476 44.127z"/><path id="x4l1f" d="M1755.54 747.032c1.27-.953 1.904-1.27 3.492-1.27-1.27-2.222-2.54-4.127-3.492-4.762-.953.635-1.905 1.27-2.54 2.222.952.635 1.587 1.905 2.54 3.81z"/><path id="x4l1g" d="M1784.968 790.694c-2.857-2.54-4.762-5.397-5.08-10.794-12.063 4.444-19.047 8.571-28.888 15.238 1.27 7.302 3.81 10.794 6.032 13.333 8.571-9.523 16.19-13.333 27.936-17.777z"/><path id="x4l1h" d="M1811.35 727.397c-.636-2.222-1.588-4.127-3.175-5.397-1.588.317-2.54.952-3.175 1.905 1.587 1.587 2.54 2.857 3.175 5.397.952-1.27 1.904-1.905 3.174-1.905z"/><path id="x4l1i" d="M1794.762 690c-.635 1.27-1.587 2.222-4.762 3.492.635 1.27 1.587 2.222 3.492 2.857 2.222-1.27 3.492-2.222 4.762-4.127-1.587-.317-2.54-.952-3.492-2.222z"/><path id="x4l1j" d="M1697.111 607.937c6.35-5.08 8.889-10.16 8.889-19.048-6.667-5.397-12.063-8.572-18.73-8.889-5.397 7.619-11.111 10.794-21.27 15.873 12.698 2.857 20.317 5.08 31.111 12.064z"/><path id="x4l1k" d="M1735.556 578c-5.397 4.127-8.89 6.032-15.556 8.254.952 3.175 2.54 5.714 4.762 7.619 4.444-.952 9.841-3.492 16.508-7.302-4.127-2.54-5.714-4.444-5.714-8.571z"/><path id="x4l1l" d="M1836.397 720.714c.635-.952 1.27-1.587 2.222-2.222-2.222-1.27-3.81-2.222-5.08-3.492-1.27.317-1.904.952-2.539 1.905 1.27.952 3.175 2.222 5.397 3.81z"/><mask id="x4l1n" width="2" height="2" x="-1" y="-1"><path fill="#fff" d="M1782 704h6v5h-6z"/><use xlink:href="#x4l1a"/></mask><filter id="x4l1m" width="34" height="35" x="1768" y="690" filterUnits="userSpaceOnUse"><feOffset dy="2" in="SourceGraphic" result="FeOffset3027Out"/><feGaussianBlur in="FeOffset3027Out" result="FeGaussianBlur3028Out" stdDeviation="1.6 1.6"/></filter><linearGradient id="x4l1o" x1="1785.06" x2="1783.91" y1="706.74" y2="704" gradientUnits="userSpaceOnUse"><stop offset="0" stop-color="#0038ab"/><stop offset=".11" stop-color="#0062c9"/><stop offset=".27" stop-color="#0097f0"/><stop offset=".35" stop-color="#00acff"/><stop offset=".4" stop-color="#00bfff"/><stop offset=".47" stop-color="#00d2ff"/><stop offset=".52" stop-color="#00d9ff"/><stop offset=".66" stop-color="#00b8ff"/><stop offset=".71" stop-color="#00acff"/><stop offset=".76" stop-color="#00a2f8"/><stop offset=".83" stop-color="#0086e3"/><stop offset=".93" stop-color="#0059c3"/><stop offset="1" stop-color="#0038ab"/></linearGradient><mask id="x4l1q" width="2" height="2" x="-1" y="-1"><path fill="#fff" d="M1850 671h15v19h-15z"/><use xlink:href="#x4l1b"/></mask><filter id="x4l1p" width="43" height="49" x="1836" y="657" filterUnits="userSpaceOnUse"><feOffset dy="2" in="SourceGraphic" result="FeOffset3057Out"/><feGaussianBlur in="FeOffset3057Out" result="FeGaussianBlur3058Out" stdDeviation="1.6 1.6"/></filter><linearGradient id="x4l1r" x1="1856.52" x2="1862.93" y1="684.46" y2="673.68" gradientUnits="userSpaceOnUse"><stop offset="0" stop-color="#ab3c00"/><stop offset=".34" stop-color="#ffc700"/><stop offset=".37" stop-color="#ffcd17"/><stop offset=".41" stop-color="#ffd533"/><stop offset=".44" stop-color="#ffda46"/><stop offset=".48" stop-color="#ffdd52"/><stop offset=".52" stop-color="#ffde56"/><stop offset=".55" stop-color="#ffdd51"/><stop offset=".59" stop-color="#ffd943"/><stop offset=".62" stop-color="#ffd32b"/><stop offset=".66" stop-color="#ffca0b"/><stop offset=".67" stop-color="#ffc700"/><stop offset="1" stop-color="#ab3c00"/></linearGradient><mask id="x4l1t" width="2" height="2" x="-1" y="-1"><path fill="#fff" d="M1825 665h22v30h-22z"/><use xlink:href="#x4l1c"/></mask><filter id="x4l1s" width="50" height="60" x="1811" y="651" filterUnits="userSpaceOnUse"><feOffset dy="2" in="SourceGraphic" result="FeOffset3087Out"/><feGaussianBlur in="FeOffset3087Out" result="FeGaussianBlur3088Out" stdDeviation="1.6 1.6"/></filter><linearGradient id="x4l1u" x1="1829.54" x2="1848.21" y1="675.81" y2="687.88" gradientUnits="userSpaceOnUse"><stop offset="0" stop-color="#400300"/><stop offset=".07" stop-color="#750300"/><stop offset=".14" stop-color="#a50300"/><stop offset=".21" stop-color="#c80300"/><stop offset=".26" stop-color="#dd0300"/><stop offset=".3" stop-color="#e50300"/><stop offset=".34" stop-color="#ee190c"/><stop offset=".39" stop-color="#f82e18"/><stop offset=".45" stop-color="#fd3c20"/><stop offset=".49" stop-color="#ff4022"/><stop offset=".54" stop-color="#fd3b1f"/><stop offset=".6" stop-color="#f72e18"/><stop offset=".66" stop-color="#ee180c"/><stop offset=".7" stop-color="#e50300"/><stop offset=".73" stop-color="#db0300"/><stop offset=".79" stop-color="#c20300"/><stop offset=".87" stop-color="#980300"/><stop offset=".95" stop-color="#5e0300"/><stop offset="1" stop-color="#3b0300"/></linearGradient><mask id="x4l1w" width="2" height="2" x="-1" y="-1"><path fill="#fff" d="M1851 729h5v3h-5z"/><use xlink:href="#x4l1d"/></mask><filter id="x4l1v" width="33" height="33" x="1837" y="715" filterUnits="userSpaceOnUse"><feOffset dy="2" in="SourceGraphic" result="FeOffset3123Out"/><feGaussianBlur in="FeOffset3123Out" result="FeGaussianBlur3124Out" stdDeviation="1.6 1.6"/></filter><linearGradient id="x4l1x" x1="1853.17" x2="1853.27" y1="729.12" y2="731.9" gradientUnits="userSpaceOnUse"><stop offset="0" stop-color="#ab3c00"/><stop offset=".34" stop-color="#ffc700"/><stop offset=".37" stop-color="#ffcd17"/><stop offset=".41" stop-color="#ffd533"/><stop offset=".44" stop-color="#ffda46"/><stop offset=".48" stop-color="#ffdd52"/><stop offset=".52" stop-color="#ffde56"/><stop offset=".55" stop-color="#ffdd51"/><stop offset=".59" stop-color="#ffd943"/><stop offset=".62" stop-color="#ffd32b"/><stop offset=".66" stop-color="#ffca0b"/><stop offset=".67" stop-color="#ffc700"/><stop offset="1" stop-color="#ab3c00"/></linearGradient><mask id="x4l1z" width="2" height="2" x="-1" y="-1"><path fill="#fff" d="M1785 570h23v48h-23z"/><use xlink:href="#x4l1e"/></mask><filter id="x4l1y" width="51" height="78" x="1771" y="556" filterUnits="userSpaceOnUse"><feOffset dy="2" in="SourceGraphic" result="FeOffset3153Out"/><feGaussianBlur in="FeOffset3153Out" result="FeGaussianBlur3154Out" stdDeviation="1.6 1.6"/></filter><linearGradient id="x4l1A" x1="1783.67" x2="1804.99" y1="590.13" y2="597.55" gradientUnits="userSpaceOnUse"><stop offset="0" stop-color="#005200"/><stop offset=".19" stop-color="#00890b"/><stop offset=".31" stop-color="#00a912"/><stop offset=".33" stop-color="#11ad12"/><stop offset=".37" stop-color="#3ab512"/><stop offset=".41" stop-color="#5abc12"/><stop offset=".44" stop-color="#71c112"/><stop offset=".48" stop-color="#7ec412"/><stop offset=".51" stop-color="#83c512"/><stop offset=".55" stop-color="#7fc412"/><stop offset=".59" stop-color="#72c112"/><stop offset=".63" stop-color="#5ebd12"/><stop offset=".67" stop-color="#41b712"/><stop offset=".72" stop-color="#1caf12"/><stop offset=".74" stop-color="#00a912"/><stop offset=".78" stop-color="#009e10"/><stop offset=".86" stop-color="#00800c"/><stop offset=".95" stop-color="#005004"/><stop offset="1" stop-color="#003400"/></linearGradient><mask id="x4l1C" width="2" height="2" x="-1" y="-1"><path fill="#fff" d="M1753 741h6v6h-6z"/><use xlink:href="#x4l1f"/></mask><filter id="x4l1B" width="34" height="36" x="1739" y="727" filterUnits="userSpaceOnUse"><feOffset dy="2" in="SourceGraphic" result="FeOffset3189Out"/><feGaussianBlur in="FeOffset3189Out" result="FeGaussianBlur3190Out" stdDeviation="1.6 1.6"/></filter><linearGradient id="x4l1D" x1="1754.04" x2="1758.2" y1="745.43" y2="742.6" gradientUnits="userSpaceOnUse"><stop offset="0" stop-color="#920040"/><stop offset=".05" stop-color="#ae0052"/><stop offset=".12" stop-color="#d10069"/><stop offset=".19" stop-color="#ea007a"/><stop offset=".25" stop-color="#fa0084"/><stop offset=".3" stop-color="#ff0087"/><stop offset=".35" stop-color="#ff1a8b"/><stop offset=".43" stop-color="#ff3f92"/><stop offset=".5" stop-color="#ff5696"/><stop offset=".55" stop-color="#ff5e97"/><stop offset=".58" stop-color="#ff5696"/><stop offset=".64" stop-color="#ff3f92"/><stop offset=".71" stop-color="#ff198b"/><stop offset=".75" stop-color="#ff0087"/><stop offset=".79" stop-color="#fa0084"/><stop offset=".84" stop-color="#ea007a"/><stop offset=".9" stop-color="#d10069"/><stop offset=".96" stop-color="#ae0053"/><stop offset="1" stop-color="#920040"/></linearGradient><mask id="x4l1F" width="2" height="2" x="-1" y="-1"><path fill="#fff" d="M1751 779h34v30h-34z"/><use xlink:href="#x4l1g"/></mask><filter id="x4l1E" width="62" height="60" x="1737" y="765" filterUnits="userSpaceOnUse"><feOffset dy="2" in="SourceGraphic" result="FeOffset3225Out"/><feGaussianBlur in="FeOffset3225Out" result="FeGaussianBlur3226Out" stdDeviation="1.6 1.6"/></filter><linearGradient id="x4l1G" x1="1771.73" x2="1761.96" y1="800.19" y2="783.39" gradientUnits="userSpaceOnUse"><stop offset="0" stop-color="#400300"/><stop offset=".07" stop-color="#750300"/><stop offset=".14" stop-color="#a50300"/><stop offset=".21" stop-color="#c80300"/><stop offset=".26" stop-color="#dd0300"/><stop offset=".3" stop-color="#e50300"/><stop offset=".34" stop-color="#ee190c"/><stop offset=".39" stop-color="#f82e18"/><stop offset=".45" stop-color="#fd3c20"/><stop offset=".49" stop-color="#ff4022"/><stop offset=".54" stop-color="#fd3b1f"/><stop offset=".6" stop-color="#f72e18"/><stop offset=".66" stop-color="#ee180c"/><stop offset=".7" stop-color="#e50300"/><stop offset=".73" stop-color="#db0300"/><stop offset=".79" stop-color="#c20300"/><stop offset=".87" stop-color="#980300"/><stop offset=".95" stop-color="#5e0300"/><stop offset="1" stop-color="#3b0300"/></linearGradient><mask id="x4l1I" width="2" height="2" x="-1" y="-1"><path fill="#fff" d="M1805 722h7v8h-7z"/><use xlink:href="#x4l1h"/></mask><filter id="x4l1H" width="35" height="38" x="1791" y="708" filterUnits="userSpaceOnUse"><feOffset dy="2" in="SourceGraphic" result="FeOffset3261Out"/><feGaussianBlur in="FeOffset3261Out" result="FeGaussianBlur3262Out" stdDeviation="1.6 1.6"/></filter><linearGradient id="x4l1J" x1="1810.07" x2="1806.42" y1="724.41" y2="726.75" gradientUnits="userSpaceOnUse"><stop offset="0" stop-color="#400300"/><stop offset=".07" stop-color="#750300"/><stop offset=".14" stop-color="#a50300"/><stop offset=".21" stop-color="#c80300"/><stop offset=".26" stop-color="#dd0300"/><stop offset=".3" stop-color="#e50300"/><stop offset=".34" stop-color="#ee190c"/><stop offset=".39" stop-color="#f82e18"/><stop offset=".45" stop-color="#fd3c20"/><stop offset=".49" stop-color="#ff4022"/><stop offset=".54" stop-color="#fd3b1f"/><stop offset=".6" stop-color="#f72e18"/><stop offset=".66" stop-color="#ee180c"/><stop offset=".7" stop-color="#e50300"/><stop offset=".73" stop-color="#db0300"/><stop offset=".79" stop-color="#c20300"/><stop offset=".87" stop-color="#980300"/><stop offset=".95" stop-color="#5e0300"/><stop offset="1" stop-color="#3b0300"/></linearGradient><mask id="x4l1L" width="2" height="2" x="-1" y="-1"><path fill="#fff" d="M1790 690h9v7h-9z"/><use xlink:href="#x4l1i"/></mask><filter id="x4l1K" width="37" height="37" x="1776" y="676" filterUnits="userSpaceOnUse"><feOffset dy="2" in="SourceGraphic" result="FeOffset3297Out"/><feGaussianBlur in="FeOffset3297Out" result="FeGaussianBlur3298Out" stdDeviation="1.6 1.6"/></filter><linearGradient id="x4l1M" x1="1791.88" x2="1796.25" y1="690.64" y2="695.84" gradientUnits="userSpaceOnUse"><stop offset="0" stop-color="#005200"/><stop offset=".19" stop-color="#00890b"/><stop offset=".31" stop-color="#00a912"/><stop offset=".33" stop-color="#11ad12"/><stop offset=".37" stop-color="#3ab512"/><stop offset=".41" stop-color="#5abc12"/><stop offset=".44" stop-color="#71c112"/><stop offset=".48" stop-color="#7ec412"/><stop offset=".51" stop-color="#83c512"/><stop offset=".55" stop-color="#7fc412"/><stop offset=".59" stop-color="#72c112"/><stop offset=".63" stop-color="#5ebd12"/><stop offset=".67" stop-color="#41b712"/><stop offset=".72" stop-color="#1caf12"/><stop offset=".74" stop-color="#00a912"/><stop offset=".78" stop-color="#009e10"/><stop offset=".86" stop-color="#00800c"/><stop offset=".95" stop-color="#005004"/><stop offset="1" stop-color="#003400"/></linearGradient><mask id="x4l1O" width="2" height="2" x="-1" y="-1"><path fill="#fff" d="M1666 580h40v28h-40z"/><use xlink:href="#x4l1j"/></mask><filter id="x4l1N" width="68" height="58" x="1652" y="566" filterUnits="userSpaceOnUse"><feOffset dy="2" in="SourceGraphic" result="FeOffset3333Out"/><feGaussianBlur in="FeOffset3333Out" result="FeGaussianBlur3334Out" stdDeviation="1.6 1.6"/></filter><linearGradient id="x4l1P" x1="1682.35" x2="1694.83" y1="604.06" y2="576.69" gradientUnits="userSpaceOnUse"><stop offset="0" stop-color="#400300"/><stop offset=".07" stop-color="#750300"/><stop offset=".14" stop-color="#a50300"/><stop offset=".21" stop-color="#c80300"/><stop offset=".26" stop-color="#dd0300"/><stop offset=".3" stop-color="#e50300"/><stop offset=".34" stop-color="#ee190c"/><stop offset=".39" stop-color="#f82e18"/><stop offset=".45" stop-color="#fd3c20"/><stop offset=".49" stop-color="#ff4022"/><stop offset=".54" stop-color="#fd3b1f"/><stop offset=".6" stop-color="#f72e18"/><stop offset=".66" stop-color="#ee180c"/><stop offset=".7" stop-color="#e50300"/><stop offset=".73" stop-color="#db0300"/><stop offset=".79" stop-color="#c20300"/><stop offset=".87" stop-color="#980300"/><stop offset=".95" stop-color="#5e0300"/><stop offset="1" stop-color="#3b0300"/></linearGradient><mask id="x4l1R" width="2" height="2" x="-1" y="-1"><path fill="#fff" d="M1720 578h22v16h-22z"/><use xlink:href="#x4l1k"/></mask><filter id="x4l1Q" width="50" height="46" x="1706" y="564" filterUnits="userSpaceOnUse"><feOffset dy="2" in="SourceGraphic" result="FeOffset3369Out"/><feGaussianBlur in="FeOffset3369Out" result="FeGaussianBlur3370Out" stdDeviation="1.6 1.6"/></filter><linearGradient id="x4l1S" x1="1727.86" x2="1734.06" y1="581.72" y2="593.02" gradientUnits="userSpaceOnUse"><stop offset="0" stop-color="#0038ab"/><stop offset=".11" stop-color="#0062c9"/><stop offset=".27" stop-color="#0097f0"/><stop offset=".35" stop-color="#00acff"/><stop offset=".4" stop-color="#00bfff"/><stop offset=".47" stop-color="#00d2ff"/><stop offset=".52" stop-color="#00d9ff"/><stop offset=".66" stop-color="#00b8ff"/><stop offset=".71" stop-color="#00acff"/><stop offset=".76" stop-color="#00a2f8"/><stop offset=".83" stop-color="#0086e3"/><stop offset=".93" stop-color="#0059c3"/><stop offset="1" stop-color="#0038ab"/></linearGradient><mask id="x4l1U" width="2" height="2" x="-1" y="-1"><path fill="#fff" d="M1831 715h8v6h-8z"/><use xlink:href="#x4l1l"/></mask><filter id="x4l1T" width="36" height="36" x="1817" y="701" filterUnits="userSpaceOnUse"><feOffset dy="2" in="SourceGraphic" result="FeOffset3399Out"/><feGaussianBlur in="FeOffset3399Out" result="FeGaussianBlur3400Out" stdDeviation="1.6 1.6"/></filter><linearGradient id="x4l1V" x1="1836.58" x2="1833.53" y1="715.33" y2="719.37" gradientUnits="userSpaceOnUse"><stop offset="0" stop-color="#920040"/><stop offset=".05" stop-color="#ae0052"/><stop offset=".12" stop-color="#d10069"/><stop offset=".19" stop-color="#ea007a"/><stop offset=".25" stop-color="#fa0084"/><stop offset=".3" stop-color="#ff0087"/><stop offset=".35" stop-color="#ff1a8b"/><stop offset=".43" stop-color="#ff3f92"/><stop offset=".5" stop-color="#ff5696"/><stop offset=".55" stop-color="#ff5e97"/><stop offset=".58" stop-color="#ff5696"/><stop offset=".64" stop-color="#ff3f92"/><stop offset=".71" stop-color="#ff198b"/><stop offset=".75" stop-color="#ff0087"/><stop offset=".79" stop-color="#fa0084"/><stop offset=".84" stop-color="#ea007a"/><stop offset=".9" stop-color="#d10069"/><stop offset=".96" stop-color="#ae0053"/><stop offset="1" stop-color="#920040"/></linearGradient></defs><g><g transform="translate(-1664 -569)"><g filter="url(#x4l1m)"><use fill="none" stroke-opacity=".3" stroke-width="0" mask="url(&quot;#x4l1n&quot;)" xlink:href="#x4l1a"/><use fill-opacity=".3" xlink:href="#x4l1a"/></g><use fill="url(#x4l1o)" xlink:href="#x4l1a"/></g><g transform="translate(-1664 -569)"><g filter="url(#x4l1p)"><use fill="none" stroke-opacity=".3" stroke-width="0" mask="url(&quot;#x4l1q&quot;)" xlink:href="#x4l1b"/><use fill-opacity=".3" xlink:href="#x4l1b"/></g><use fill="url(#x4l1r)" xlink:href="#x4l1b"/></g><g transform="translate(-1664 -569)"><g filter="url(#x4l1s)"><use fill="none" stroke-opacity=".3" stroke-width="0" mask="url(&quot;#x4l1t&quot;)" xlink:href="#x4l1c"/><use fill-opacity=".3" xlink:href="#x4l1c"/></g><use fill="url(#x4l1u)" xlink:href="#x4l1c"/></g><g transform="translate(-1664 -569)"><g filter="url(#x4l1v)"><use fill="none" stroke-opacity=".3" stroke-width="0" mask="url(&quot;#x4l1w&quot;)" xlink:href="#x4l1d"/><use fill-opacity=".3" xlink:href="#x4l1d"/></g><use fill="url(#x4l1x)" xlink:href="#x4l1d"/></g><g transform="translate(-1664 -569)"><g filter="url(#x4l1y)"><use fill="none" stroke-opacity=".3" stroke-width="0" mask="url(&quot;#x4l1z&quot;)" xlink:href="#x4l1e"/><use fill-opacity=".3" xlink:href="#x4l1e"/></g><use fill="url(#x4l1A)" xlink:href="#x4l1e"/></g><g transform="translate(-1664 -569)"><g filter="url(#x4l1B)"><use fill="none" stroke-opacity=".3" stroke-width="0" mask="url(&quot;#x4l1C&quot;)" xlink:href="#x4l1f"/><use fill-opacity=".3" xlink:href="#x4l1f"/></g><use fill="url(#x4l1D)" xlink:href="#x4l1f"/></g><g transform="translate(-1664 -569)"><g filter="url(#x4l1E)"><use fill="none" stroke-opacity=".3" stroke-width="0" mask="url(&quot;#x4l1F&quot;)" xlink:href="#x4l1g"/><use fill-opacity=".3" xlink:href="#x4l1g"/></g><use fill="url(#x4l1G)" xlink:href="#x4l1g"/></g><g transform="translate(-1664 -569)"><g filter="url(#x4l1H)"><use fill="none" stroke-opacity=".3" stroke-width="0" mask="url(&quot;#x4l1I&quot;)" xlink:href="#x4l1h"/><use fill-opacity=".3" xlink:href="#x4l1h"/></g><use fill="url(#x4l1J)" xlink:href="#x4l1h"/></g><g transform="translate(-1664 -569)"><g filter="url(#x4l1K)"><use fill="none" stroke-opacity=".3" stroke-width="0" mask="url(&quot;#x4l1L&quot;)" xlink:href="#x4l1i"/><use fill-opacity=".3" xlink:href="#x4l1i"/></g><use fill="url(#x4l1M)" xlink:href="#x4l1i"/></g><g transform="translate(-1664 -569)"><g filter="url(#x4l1N)"><use fill="none" stroke-opacity=".3" stroke-width="0" mask="url(&quot;#x4l1O&quot;)" xlink:href="#x4l1j"/><use fill-opacity=".3" xlink:href="#x4l1j"/></g><use fill="url(#x4l1P)" xlink:href="#x4l1j"/></g><g transform="translate(-1664 -569)"><g filter="url(#x4l1Q)"><use fill="none" stroke-opacity=".3" stroke-width="0" mask="url(&quot;#x4l1R&quot;)" xlink:href="#x4l1k"/><use fill-opacity=".3" xlink:href="#x4l1k"/></g><use fill="url(#x4l1S)" xlink:href="#x4l1k"/></g><g transform="translate(-1664 -569)"><g filter="url(#x4l1T)"><use fill="none" stroke-opacity=".3" stroke-width="0" mask="url(&quot;#x4l1U&quot;)" xlink:href="#x4l1l"/><use fill-opacity=".3" xlink:href="#x4l1l"/></g><use fill="url(#x4l1V)" xlink:href="#x4l1l"/></g></g></svg>