<?xml version="1.0" encoding="utf-8"?>
<!-- Generator: Adobe Illustrator 16.0.0, SVG Export Plug-In . SVG Version: 6.00 Build 0)  -->
<!DOCTYPE svg PUBLIC "-//W3C//DTD SVG 1.1//EN" "http://www.w3.org/Graphics/SVG/1.1/DTD/svg11.dtd">
<svg version="1.1" id="Layer_1" xmlns="http://www.w3.org/2000/svg" xmlns:xlink="http://www.w3.org/1999/xlink" x="0px" y="0px"
	 width="1920.831px" height="824.121px" viewBox="0 0 1920.831 824.121" enable-background="new 0 0 1920.831 824.121"
	 xml:space="preserve">
<g>
	<path fill="#E0D4B1" d="M1174.847,207.76l-11.528-22.341l22.339,11.528L1174.847,207.76 M41.153,129.06L27.08,101.785
		l27.274,14.074L41.153,129.06 M1150.312,0H946.217v163.235l-67.576-67.577l-23.427,23.426l4.742-49.123l25.686,2.48
		c0.047,0.004,0.094,0.006,0.141,0.006c0.729,0,1.354-0.553,1.425-1.295c0.076-0.788-0.502-1.488-1.29-1.565l-25.685-2.479
		l1.929-19.979l13.913,1.344l-1.239,12.841c-0.075,0.788,0.5,1.488,1.289,1.564c0.046,0.005,0.093,0.007,0.139,0.007
		c0.731,0,1.355-0.554,1.426-1.296l1.241-12.841l14.626,1.413L892.315,63c-0.076,0.789,0.501,1.489,1.29,1.564
		c0.047,0.005,0.094,0.007,0.14,0.007c0.729,0,1.353-0.554,1.424-1.296l2.481-25.682c0.074-0.787-0.501-1.488-1.291-1.564
		c-0.047-0.004-0.094-0.007-0.14-0.007c-0.729,0-1.352,0.555-1.424,1.296l-0.964,9.988l-14.626-1.412l0.963-9.988
		c0.077-0.788-0.5-1.49-1.289-1.564c-0.047-0.004-0.094-0.006-0.14-0.006c-0.729-0.001-1.354,0.554-1.424,1.295l-0.966,9.986
		l-32.107-3.1l0.965-9.987c0.076-0.788-0.501-1.489-1.29-1.564c-0.048-0.005-0.095-0.007-0.142-0.007
		c-0.729,0-1.353,0.555-1.423,1.296l-0.964,9.987l-14.626-1.412l0.965-9.987c0.076-0.788-0.502-1.489-1.29-1.564
		c-0.048-0.005-0.095-0.007-0.142-0.007c-0.729,0-1.352,0.555-1.423,1.295l-2.48,25.684c-0.076,0.787,0.502,1.487,1.289,1.563
		c0.047,0.005,0.094,0.007,0.14,0.007c0.73,0,1.354-0.555,1.426-1.295l1.239-12.842l14.626,1.412l-1.24,12.842
		c-0.075,0.787,0.501,1.488,1.289,1.564c0.046,0.005,0.093,0.007,0.138,0.007c0.73,0,1.355-0.556,1.427-1.296l1.239-12.842
		l15.34,1.481l-1.928,19.979l-25.686-2.48c-0.047-0.004-0.094-0.006-0.141-0.006c-0.729,0-1.354,0.555-1.425,1.297
		c-0.075,0.787,0.501,1.487,1.29,1.562l25.686,2.48l-5.079,52.586l-44.649,44.65h-22.022l-0.388-5.672l-2.104,0.145l-3.402-49.758
		l17.823-1.219c0.547-0.037,0.961-0.512,0.922-1.057c-0.035-0.525-0.471-0.926-0.987-0.926c-0.023,0-0.046,0-0.069,0.002
		l-17.824,1.219l-0.948-13.863l9.655-0.66l0.609,8.91c0.036,0.523,0.471,0.924,0.987,0.924c0.023,0,0.047,0,0.071-0.002
		c0.547-0.037,0.959-0.512,0.922-1.057l-0.608-8.911l10.149-0.694l0.609,8.91c0.036,0.525,0.473,0.926,0.992,0.926
		c0.022,0,0.045-0.001,0.067-0.002c0.546-0.039,0.96-0.512,0.922-1.059l-0.676-9.9l-0.001-0.002l-0.542-7.92
		c-0.035-0.521-0.472-0.924-0.989-0.924c-0.022,0-0.046,0.001-0.069,0.002c-0.547,0.037-0.958,0.512-0.922,1.059l0.474,6.93
		l-10.15,0.693l-0.473-6.93c-0.036-0.524-0.474-0.924-0.991-0.924c-0.022,0-0.045,0-0.068,0.002
		c-0.547,0.037-0.959,0.511-0.922,1.058l0.473,6.93l-22.279,1.523l-0.474-6.931c-0.036-0.521-0.472-0.924-0.989-0.924
		c-0.022,0-0.046,0.001-0.069,0.002c-0.547,0.037-0.959,0.512-0.923,1.059l0.476,6.93l-10.15,0.694l-0.474-6.931
		c-0.036-0.524-0.474-0.924-0.991-0.924c-0.022,0-0.044,0-0.067,0.002c-0.547,0.037-0.959,0.511-0.923,1.057l1.219,17.822
		c0.035,0.523,0.471,0.924,0.989,0.924c0.022,0,0.046,0,0.069-0.002c0.546-0.037,0.959-0.512,0.922-1.057l-0.609-8.91l10.15-0.695
		l0.609,8.91c0.036,0.523,0.471,0.924,0.989,0.924c0.022,0,0.046,0,0.069-0.002c0.547-0.037,0.959-0.51,0.922-1.057l-0.609-8.91
		l10.645-0.729l0.948,13.863l-17.823,1.219c-0.547,0.037-0.961,0.512-0.923,1.059c0.036,0.523,0.471,0.924,0.99,0.924
		c0.023,0,0.046,0,0.069-0.002l17.823-1.219l3.402,49.76l-2.104,0.143l0.357,5.248H728.4v-39.006h12.357v-20.44h-87.089v20.44
		h12.357v39.006h-47.377v-39.006h12.357v-20.44h-87.089v20.44h12.356v15.604L412.754,0.001L307.119,105.637l-0.39-4.035
		l-2.344,0.227l-5.354-55.443l19.86-1.917c0.609-0.06,1.056-0.6,0.996-1.21c-0.055-0.571-0.536-1.001-1.1-1.002
		c-0.036,0-0.073,0.002-0.11,0.006l-19.858,1.917l-1.491-15.447l11.86-1.146l0.958,9.928c0.055,0.573,0.539,1.004,1.104,1.004
		c0.035,0,0.071-0.002,0.106-0.006c0.61-0.059,1.056-0.601,0.997-1.211l-0.958-9.928l11.309-1.092l0.958,9.929
		c0.056,0.573,0.539,1.001,1.103,1.001c0.035,0,0.071-0.001,0.107-0.005c0.609-0.06,1.056-0.601,0.996-1.21l-1.917-19.856
		c-0.055-0.572-0.538-1.001-1.1-1.001c-0.036,0-0.072,0.002-0.108,0.005c-0.61,0.058-1.057,0.601-0.998,1.21l0.745,7.721
		l-11.309,1.092l-0.746-7.722c-0.055-0.572-0.536-1.001-1.1-1.001c-0.036,0-0.072,0.002-0.108,0.005
		c-0.61,0.058-1.056,0.601-0.998,1.21l0.745,7.723l-24.824,2.396l-0.746-7.723c-0.055-0.573-0.536-1.001-1.101-1.001
		c-0.036,0-0.072,0.002-0.109,0.005c-0.609,0.059-1.055,0.6-0.996,1.209l0.746,7.723l-11.31,1.092l-0.746-7.723
		c-0.055-0.571-0.536-1.001-1.099-1.001c-0.037,0-0.073,0.002-0.11,0.005c-0.61,0.059-1.056,0.601-0.997,1.209L269.6,41.43
		c0.056,0.573,0.538,1.001,1.101,1.001c0.036,0,0.073-0.002,0.109-0.005c0.61-0.059,1.056-0.6,0.997-1.211l-0.958-9.926
		l11.308-1.092l0.958,9.928c0.056,0.572,0.538,1.001,1.101,1.001c0.036,0,0.073-0.002,0.109-0.005
		c0.61-0.059,1.056-0.601,0.998-1.211l-0.958-9.927l10.756-1.038l1.492,15.446l-19.859,1.917c-0.61,0.06-1.056,0.602-0.997,1.211
		c0.055,0.572,0.536,1.002,1.101,1.002c0.036,0,0.072-0.002,0.109-0.006l19.858-1.917l5.354,55.442l-2.344,0.227l0.938,9.715
		l-54.939,54.939h-57.642v-39.006h12.357v-20.44h-87.089v20.44h12.357v39.006H73.907l-4.891-21.326
		c1.459-0.92,2.431-2.541,2.431-4.393c0-1.605-0.729-3.041-1.874-3.994l5.948-5.949c1.068-1.066,1.068-2.798,0-3.865
		c-0.533-0.533-1.232-0.8-1.932-0.8c-0.699,0-1.399,0.267-1.933,0.8l-3.876,3.877c8.509-10.96,12.558-24.104,8.517-37.356
		l-19.365,19.366L26.281,97.464c-0.064-0.737-0.376-1.456-0.94-2.019c-0.635-0.635-1.468-0.952-2.301-0.952
		c-0.833,0-1.665,0.317-2.3,0.952c-1.271,1.271-1.271,3.332,0,4.602c0.563,0.563,1.282,0.877,2.019,0.939l15.815,30.65
		l-19.365,19.365c3.52,1.074,7.034,1.577,10.499,1.577c9.584,0,18.809-3.843,26.858-10.093l-4.122,4.122
		c-1.068,1.067-1.068,2.798,0,3.864c0.533,0.533,1.233,0.801,1.932,0.801c0.7,0,1.399-0.268,1.933-0.801l5.948-5.948
		c0.5,0.601,1.135,1.083,1.854,1.409v20.988H2.329v657.199h1916.173V238.074l-57.673-57.674l-19.188,19.189l3.884-40.238
		l21.039,2.033c0.038,0.003,0.075,0.005,0.112,0.005c0.599,0,1.111-0.453,1.169-1.062c0.062-0.646-0.41-1.221-1.056-1.283
		l-21.039-2.031l1.581-16.365l11.396,1.102l-1.017,10.518c-0.062,0.645,0.411,1.219,1.057,1.281
		c0.038,0.004,0.076,0.006,0.113,0.006c0.598,0,1.109-0.453,1.168-1.061l1.016-10.519l11.981,1.157l-1.017,10.518
		c-0.062,0.646,0.411,1.219,1.057,1.281c0.039,0.004,0.077,0.006,0.115,0.006c0.598,0,1.108-0.455,1.166-1.062l2.032-21.036
		c0.062-0.645-0.411-1.219-1.057-1.281c-0.038-0.004-0.076-0.006-0.113-0.006c-0.598,0-1.109,0.453-1.168,1.061l-0.79,8.182
		l-11.981-1.156l0.79-8.181c0.063-0.646-0.41-1.22-1.056-1.282c-0.039-0.004-0.077-0.006-0.115-0.006
		c-0.598,0-1.108,0.455-1.166,1.062l-0.791,8.18l-26.299-2.539l0.79-8.18c0.063-0.646-0.41-1.221-1.056-1.282
		c-0.039-0.004-0.077-0.006-0.115-0.006c-0.598,0-1.109,0.454-1.167,1.062l-0.79,8.18l-11.98-1.156h-0.001l0.791-8.18
		c0.063-0.646-0.411-1.221-1.057-1.281c-0.039-0.004-0.078-0.006-0.117-0.006c-0.597,0-1.106,0.455-1.164,1.061l-2.031,21.036
		c-0.063,0.646,0.41,1.22,1.056,1.282c0.038,0.003,0.076,0.005,0.113,0.005c0.598,0,1.109-0.454,1.168-1.062l1.016-10.518
		l11.98,1.156l-1.015,10.518c-0.063,0.646,0.409,1.221,1.056,1.283c0.038,0.004,0.076,0.006,0.113,0.006
		c0.598,0,1.109-0.455,1.167-1.062l1.016-10.518l12.565,1.213l-1.579,16.365l-21.039-2.032c-0.038-0.004-0.076-0.005-0.113-0.005
		c-0.598,0-1.111,0.454-1.17,1.062c-0.062,0.646,0.412,1.22,1.057,1.28l21.039,2.031l-4.159,43.075l-36.572,36.572h-18.039
		l-0.317-4.646l-1.723,0.117l-2.788-40.756l14.599-0.998c0.449-0.031,0.787-0.418,0.756-0.866c-0.03-0.431-0.388-0.759-0.812-0.759
		c-0.018,0-0.036,0.001-0.055,0.002l-14.599,0.999l-0.776-11.355l7.907-0.542l0.499,7.299c0.03,0.429,0.387,0.758,0.81,0.758
		c0.019,0,0.037,0,0.056-0.002c0.449-0.03,0.787-0.418,0.756-0.865l-0.5-7.299l8.314-0.57l0.5,7.299
		c0.029,0.429,0.386,0.758,0.81,0.758c0.019,0,0.038,0,0.056-0.002c0.448-0.031,0.786-0.418,0.756-0.865l-0.555-8.109v-0.002
		l-0.443-6.486c-0.029-0.428-0.385-0.758-0.809-0.758c-0.02,0-0.039,0.001-0.059,0.002c-0.448,0.029-0.785,0.418-0.755,0.867
		l0.388,5.676l-8.314,0.568l-0.387-5.678c-0.029-0.428-0.387-0.756-0.81-0.756c-0.019,0-0.038,0.001-0.057,0.002
		c-0.448,0.03-0.787,0.418-0.756,0.866l0.389,5.677l-18.249,1.247l-0.388-5.677c-0.03-0.428-0.387-0.756-0.811-0.756
		c-0.019,0-0.037,0-0.057,0.002c-0.447,0.029-0.786,0.418-0.756,0.867l0.39,5.676l-8.314,0.567l-0.388-5.677
		c-0.03-0.428-0.387-0.756-0.81-0.756c-0.019,0-0.038,0-0.056,0.002c-0.448,0.029-0.788,0.416-0.757,0.864l0.999,14.599
		c0.028,0.428,0.386,0.756,0.809,0.756c0.019,0,0.038,0,0.057-0.002c0.448-0.029,0.787-0.418,0.756-0.865l-0.499-7.299l8.312-0.568
		l0.5,7.299c0.028,0.428,0.386,0.758,0.808,0.758c0.019,0,0.038-0.001,0.057-0.002c0.449-0.031,0.787-0.418,0.756-0.867l-0.5-7.297
		l8.72-0.598l0.776,11.355l-14.598,0.998c-0.449,0.031-0.787,0.419-0.756,0.867c0.029,0.43,0.386,0.757,0.81,0.757
		c0.019,0,0.038-0.001,0.057-0.002l14.599-0.999l2.787,40.758l-1.724,0.117l0.294,4.3h-41.558v-31.95h10.123V190.08h-71.335v16.742
		h10.123v31.95h-38.807v-31.95h10.123V190.08h-71.335v16.742h10.121v12.781l-117.555-117.556l-86.525,86.525l-0.32-3.306
		l-1.921,0.188l-4.385-45.414l16.267-1.57c0.5-0.049,0.865-0.492,0.817-0.99c-0.046-0.469-0.438-0.821-0.897-0.821
		c-0.031,0-0.062,0.002-0.093,0.005l-16.268,1.57l-1.221-12.654l9.716-0.938l0.785,8.131c0.045,0.471,0.441,0.822,0.903,0.822
		c0.029,0,0.058-0.001,0.087-0.004c0.5-0.048,0.865-0.492,0.816-0.992l-0.784-8.131l9.263-0.895l0.785,8.133
		c0.046,0.469,0.441,0.82,0.904,0.82c0.029,0,0.059-0.002,0.088-0.005c0.499-0.048,0.865-0.492,0.817-0.991l-1.571-16.266
		c-0.045-0.467-0.44-0.818-0.901-0.818c-0.03,0-0.06,0.002-0.09,0.004c-0.5,0.047-0.865,0.492-0.817,0.991l0.611,6.323l-9.264,0.895
		l-0.611-6.324c-0.044-0.469-0.438-0.82-0.9-0.82c-0.03,0-0.06,0.002-0.09,0.004c-0.499,0.047-0.865,0.492-0.817,0.991l0.611,6.325
		l-20.333,1.963l-0.611-6.326c-0.045-0.467-0.44-0.818-0.902-0.818c-0.029,0-0.06,0.002-0.09,0.004
		c-0.499,0.047-0.864,0.49-0.817,0.99l0.611,6.326l-9.263,0.895l-0.61-6.326c-0.045-0.469-0.44-0.82-0.901-0.82
		c-0.03,0-0.06,0.002-0.09,0.004c-0.5,0.049-0.864,0.492-0.817,0.99l1.571,16.266c0.045,0.469,0.441,0.82,0.903,0.82
		c0.029,0,0.059-0.002,0.088-0.005c0.5-0.048,0.864-0.491,0.816-0.991l-0.785-8.131l9.263-0.895l0.785,8.131
		c0.045,0.471,0.441,0.822,0.903,0.822c0.029,0,0.058-0.002,0.088-0.005c0.5-0.048,0.865-0.492,0.817-0.991l-0.785-8.131
		l8.812-0.852l1.222,12.652l-16.267,1.57c-0.499,0.049-0.865,0.492-0.816,0.992c0.045,0.468,0.44,0.82,0.901,0.82
		c0.03,0,0.059-0.002,0.089-0.005l16.268-1.569l4.384,45.412l-1.92,0.186l0.769,7.957l-45,45.001h-47.215v-31.95h10.123V190.08
		h-71.334v16.742h10.121v31.95h-42.519l-4.006-17.469c1.194-0.753,1.991-2.081,1.991-3.598c0-1.315-0.598-2.491-1.535-3.271
		l4.873-4.875c0.874-0.873,0.874-2.291,0-3.166c-0.437-0.436-1.01-0.654-1.583-0.654s-1.146,0.219-1.583,0.654l-3.175,3.177
		c6.97-8.978,10.286-19.743,6.977-30.599l-15.862,15.863l-25.106-12.957c-0.053-0.603-0.309-1.191-0.769-1.654
		c-0.521-0.52-1.203-0.779-1.885-0.779c-0.682,0-1.363,0.26-1.884,0.779c-1.041,1.043-1.041,2.73,0,3.771
		c0.46,0.461,1.05,0.717,1.653,0.768l12.955,25.107l-15.861,15.861c2.884,0.879,5.762,1.291,8.601,1.291
		c7.849,0,15.404-3.147,21.997-8.267l-3.377,3.378c-0.874,0.873-0.874,2.29,0,3.164c0.438,0.438,1.011,0.656,1.583,0.656
		c0.573,0,1.146-0.219,1.583-0.656l4.873-4.873c0.41,0.492,0.929,0.889,1.518,1.156v17.19h-43.338V0"/>
</g>
</svg>
