<?xml version="1.0" encoding="utf-8"?>
<!-- Generator: Adobe Illustrator 16.0.0, SVG Export Plug-In . SVG Version: 6.00 Build 0)  -->
<!DOCTYPE svg PUBLIC "-//W3C//DTD SVG 1.1//EN" "http://www.w3.org/Graphics/SVG/1.1/DTD/svg11.dtd">
<svg version="1.1" id="Layer_1" xmlns="http://www.w3.org/2000/svg" xmlns:xlink="http://www.w3.org/1999/xlink" x="0px" y="0px"
	 width="1920.831px" height="824.121px" viewBox="0 0 1920.831 824.121" enable-background="new 0 0 1920.831 824.121"
	 xml:space="preserve">
<path fill="#F6F2E8" d="M1920.831,824.121V292.275v-58.713V140.31h-66.87V95.41h-82.891v107.066h-31.083v-65.62h-24.176v65.62
	h-27.63v-93.251h-41.446V53.965h-62.168v55.261h-27.629V33.242h-79.437v75.983h-107.068V0h-76.649v233.562h-9.125V40.151h-71.176
	v193.411h-43.368V15.975h-65.622v132.891h-58.714V36.697h-79.437v159.617h-10.949v-80.301h-57.042v117.549h-6.791v-83.82h-52.968
	v83.82h-35.587v-32.897c16.251-4.074,28.288-18.772,28.288-36.287c0-20.661-16.75-37.413-37.413-37.413
	s-37.413,16.752-37.413,37.413c0,17.515,12.037,32.213,28.288,36.287v32.897h-56.724v-58.715h-75.983V74.688h-55.261v158.875h-10.36
	v-48.354h-44.898v48.354h-6.95v-83.82h-52.966v83.82h-6.791V116.014h-57.043v80.301H341.85v-23.411h-3.309v-24.038h-76.651v24.038
	h-4.712v23.411h-42.738v37.248h-14.835v-55.261H159.69V94.115H88.515v139.447H79.39V53.965H0v179.598v48.529v542.029H1920.831z"/>
</svg>
