<?xml version="1.0" encoding="iso-8859-1"?>
<!-- Generator: Adobe Illustrator 16.0.0, SVG Export Plug-In . SVG Version: 6.00 Build 0)  -->
<!DOCTYPE svg PUBLIC "-//W3C//DTD SVG 1.1//EN" "http://www.w3.org/Graphics/SVG/1.1/DTD/svg11.dtd">
<svg version="1.1" id="Layer_1" xmlns="http://www.w3.org/2000/svg" xmlns:xlink="http://www.w3.org/1999/xlink" x="0px" y="0px"
	 width="1920px" height="393.802px" viewBox="0 0 1920 393.802" style="enable-background:new 0 0 1920 393.802;"
	 xml:space="preserve">
<path style="fill-rule:evenodd;clip-rule:evenodd;fill:#FFFFFF;" d="M1872.244,267.688
	c-9.701,71.225-70.759,126.114-144.646,126.114c-60.75,0-112.821-37.11-134.812-89.894c-12.909,14.415-31.66,23.489-52.533,23.489
	c-16.384,0-31.459-5.593-43.429-14.969c-8.163,9.79-20.449,16.02-34.191,16.02c-24.577,0-44.5-19.923-44.5-44.5
	c0-1.344,0.063-2.673,0.18-3.986c-19.275-0.898-36.998-7.729-51.39-18.707c-23.25,29.629-59.385,48.665-99.968,48.665
	c-30.607,0-58.681-10.831-80.607-28.866c-8.626,17.186-26.408,28.983-46.947,28.983c-11.918,0-22.907-3.974-31.719-10.666
	c-3.67,5.872-8.092,11.224-13.12,15.936c0.55,2.332,0.85,4.76,0.85,7.259c0,17.396-14.103,31.5-31.5,31.5
	c-12.325,0-22.989-7.083-28.164-17.396c-30.181-1.672-55.869-20.182-67.836-46.29c-10.669,15.968-28.856,26.487-49.502,26.487
	c-3.745,0-7.407-0.35-10.959-1.011c-33.144,46.819-87.726,77.387-149.454,77.387c-75.207,0-139.816-45.369-167.957-110.229
	c-15.119,9.636-33.072,15.222-52.33,15.222c-22.196,0-42.656-7.422-59.044-19.913c-19.358,36.659-57.855,61.648-102.194,61.648
	c-47.391,0-88.108-28.546-105.914-69.377C249.229,282.933,224.468,290,198.054,290c-49.559,0-93.307-24.865-119.458-62.798
	c-6.986,4.279-15.201,6.747-23.993,6.747c-25.405,0-46-20.595-46-46c0-5.349,0.916-10.483,2.595-15.259
	c-3.891-0.73-7.636-1.87-11.198-3.36V65.969c6.644-2.778,13.935-4.314,21.586-4.314c18.346,0,34.631,8.823,44.845,22.457
	C89.444,34.45,139.722,0,198.054,0c52.431,0,98.359,27.83,123.826,69.522c9.599-6.762,21.304-10.735,33.938-10.735
	c23.483,0,43.76,13.721,53.257,33.582c13.08-28.289,41.704-47.919,74.918-47.919c31.003,0,58.006,17.104,72.102,42.388
	c2.445-0.524,4.98-0.807,7.581-0.807c4.567,0,8.932,0.856,12.952,2.408c9.697-20.091,30.263-33.952,54.065-33.952
	c8.428,0,16.448,1.741,23.726,4.877c29.452-20.258,65.127-32.12,103.576-32.12c55.046,0,104.413,24.305,137.961,62.768
	c18.457-16.729,42.948-26.922,69.82-26.922c29.715,0,56.517,12.464,75.47,32.447c7.097-32.595,36.112-57.006,70.835-57.006
	c32.438,0,59.897,21.305,69.157,50.684c22.59-20.676,52.679-33.294,85.716-33.294c24.86,0,48.047,7.149,67.63,19.495
	c11.904-15.075,30.342-24.752,51.042-24.752c28.296,0,52.365,18.083,61.292,43.321c15.576-47.892,60.569-82.512,113.656-82.512
	c40.788,0,76.796,20.44,98.359,51.63c0.312-0.005,0.624-0.012,0.937-0.012c14.272,0,27.425,4.788,37.946,12.839
	c8.164-25.952,32.413-44.773,61.06-44.773c24.519,0,45.813,13.79,56.561,34.036C1838.354,30.608,1876.32,6.87,1920,3.329v277.074
	C1903.038,279.026,1886.938,274.606,1872.244,267.688z"/>
</svg>
