<?xml version="1.0" encoding="iso-8859-1"?>
<!-- Generator: Adobe Illustrator 16.0.0, SVG Export Plug-In . SVG Version: 6.00 Build 0)  -->
<!DOCTYPE svg PUBLIC "-//W3C//DTD SVG 1.1//EN" "http://www.w3.org/Graphics/SVG/1.1/DTD/svg11.dtd">
<svg version="1.1" id="Layer_1" xmlns="http://www.w3.org/2000/svg" xmlns:xlink="http://www.w3.org/1999/xlink" x="0px" y="0px"
	 width="1920px" height="673.544px" viewBox="0 0 1920 673.544" style="enable-background:new 0 0 1920 673.544;"
	 xml:space="preserve">
<path style="fill-rule:evenodd;clip-rule:evenodd;fill:#FFFFFF;" d="M0,673.544V439.398V11.69
	c72.393,12.437,132.527,60.737,161.456,125.956c2.008-0.061,4.021-0.102,6.044-0.102c101.446,0,184.733,77.671,193.684,176.787
	c21.052-21.464,50.376-34.786,82.816-34.786c12.937,0,25.375,2.123,36.994,6.032c8.612-22.251,30.215-38.033,55.506-38.033
	c20.703,0,38.933,10.576,49.591,26.618c9.264-2.996,19.147-4.617,29.409-4.617c37.076,0,69.216,21.127,85.04,52h654.468
	c8.124-5.064,17.713-8,27.992-8c9.182,0,17.818,2.337,25.348,6.446c11.635-11.408,27.57-18.446,45.152-18.446
	c13.731,0,26.459,4.292,36.918,11.606c9.878-74.386,70.539-132.722,145.994-139.029c3.694-33.509,32.095-59.576,66.588-59.576
	c9.988,0,19.464,2.189,27.979,6.108C1768.016,52.514,1838.266,5.053,1920,0v462.095v211.449H0z"/>
</svg>
