<?xml version="1.0" encoding="utf-8"?>
<svg xmlns="http://www.w3.org/2000/svg"
	xmlns:xlink="http://www.w3.org/1999/xlink"
	width="1919px" height="306px" viewBox="0 0 1919 306">
<path fillRule="evenodd" d="M 1618-139C 1618-139 1634-49 1634-49 1634-49 1537-104 1537-104 1537-104 1618-139 1618-139ZM 1316-30C 1316-30 1496-128 1496-128 1496-128 1345 12 1345 12 1345 12 1316-30 1316-30ZM 991 99C 991 99 1299 30 1299 30 1299 30 948 202 948 202 948 202 991 99 991 99ZM 821-39C 821-39 867 3 867 3 867 3 712 93 712 93 712 93 821-39 821-39ZM 743 229C 746.86 229.89 950 225 950 225 950 225 704 306 704 306 704 306 739.14 228.11 743 229ZM 644-22C 644-22 693 90 693 90 693 90 366-80 366-80 366-80 644-22 644-22ZM-56-4C-56-4 334-74 334-74 334-74 199 22 199 22 199 22-56-4-56-4ZM 159 147C 159 147 92 103 92 103 92 103 172 129 172 129 172 129 159 147 159 147ZM 638 107C 638 107 176 150 176 150 176 150 189 133 189 133 189 133 638 107 638 107ZM 1422-34C 1422-34 1668 56 1668 56 1668 56 1363 30 1363 30 1363 30 1422-34 1422-34ZM 1427 157C 1427 157 981 219 981 219 981 219 1297 99 1297 99 1297 99 1427 157 1427 157Z" fill="rgb(1,87,99)" opacity="0.50"/><path fillRule="evenodd" d="M 1919-85C 1919-85 1666 55 1666 55 1666 55 1711-147 1711-147 1711-147 1692-16 1692-16 1692-16 1919-85 1919-85ZM 1623-177C 1623-177 1681-138 1681-138 1681-138 1645.6 11.67 1645 15 1644.4 18.33 1623-177 1623-177ZM 1481-88C 1481-88 1499-141 1499-141 1499-141 1632 39 1632 39 1632 39 1481-88 1481-88ZM 1619 53C 1619 53 1458 115 1458 115 1458 115 1527 65 1527 65 1527 65 1359 29 1359 29 1359 29 1619 53 1619 53ZM 983 219C 983 219 1342 35 1342 35 1342 35 1296 99 1296 99 1296 99 983 219 983 219ZM 947 203C 947 203 1299 31 1299 31 1299 31 959 227 959 227 959 227 947 203 947 203ZM 987-5C 987-5 1299 30 1299 30 1299 30 859 49 859 49 859 49 987-5 987-5ZM 1209-167C 1209-167 1298-32 1298-32 1298-32 1082-96 1082-96 1082-96 1209-167 1209-167ZM 632-92C 632-92 955-38 955-38 955-38 697-48 697-48 697-48 632-92 632-92ZM 445-154C 445-154 614-96 614-96 614-96 365-81 365-81 365-81 445-154 445-154ZM 355-35C 355-35 304-1 304-1 304-1 357-66 357-66 357-66 681 101 681 101 681 101 355-35 355-35ZM-48-166C-48-166 338-77 338-77 338-77-27-8-27-8-27-8-48-166-48-166ZM 632 105C 632 105 218 103 218 103 218 103 241 75 241 75 241 75 632 105 632 105ZM 730 167C 730 167 718 122 718 122 718 122 931 224 931 224 931 224 730 167 730 167Z" fill="rgb(9,131,147)" opacity="0.50"/></svg>