<?xml version="1.0" encoding="iso-8859-1"?>
<!-- Generator: Adobe Illustrator 16.0.0, SVG Export Plug-In . SVG Version: 6.00 Build 0)  -->
<!DOCTYPE svg PUBLIC "-//W3C//DTD SVG 1.1//EN" "http://www.w3.org/Graphics/SVG/1.1/DTD/svg11.dtd">
<svg version="1.1" id="Layer_1" xmlns="http://www.w3.org/2000/svg" xmlns:xlink="http://www.w3.org/1999/xlink" x="0px" y="0px"
	 width="1919px" height="1692px" viewBox="0 0 1919 1692" style="enable-background:new 0 0 1919 1692;" xml:space="preserve">
<path style="fill-rule:evenodd;clip-rule:evenodd;fill:#86C69F;" d="M1840.354,1636.55c-8.153,0.954-16.445,1.45-24.854,1.45
	c-33.467,0-65.111-7.785-93.238-21.627c-8.342,4.229-17.769,6.627-27.762,6.627c-12.619,0-24.346-3.806-34.107-10.325
	c-18.864,5.415-38.787,8.325-59.393,8.325c-72.671,0-136.914-36.06-175.831-91.257c-2.869,0.166-5.758,0.257-8.669,0.257
	c-41.815,0-79.587-17.29-106.575-45.102C1282.743,1510.382,1246.2,1526,1206,1526c-23.689,0-46.111-5.421-66.097-15.088
	c-22.145,42.249-66.395,71.087-117.403,71.087c-48.778,0-91.377-26.373-114.376-65.623c-5.918,1.696-12.161,2.623-18.624,2.623
	c-17.041,0-32.595-6.328-44.474-16.746c-10.815,14.174-26.37,24.532-44.312,28.701C775.721,1562.646,736.994,1583,693.5,1583
	c-57.122,0-106.03-35.095-126.385-84.894c-6.181,1.236-12.571,1.894-19.115,1.894c-6.4,0-12.65-0.637-18.704-1.82
	C498.457,1537.626,450.451,1563,396.5,1563c-28.495,0-55.334-7.078-78.863-19.566C297.184,1628.656,220.495,1692,129,1692
	c-49.531,0-94.717-18.572-129-49.119v-289.748c0.335-0.298,0.663-0.605,1-0.902v-66.208c-0.398-2.675-0.719-5.375-1-8.087v-37.871
	c0.281-2.712,0.602-5.412,1-8.088V702H0V24.413C17.191,9.231,39.761,0,64.5,0c33.856,0,63.672,17.263,81.152,43.46
	c8.152-0.954,16.44-1.46,24.848-1.46c33.467,0,65.111,7.785,93.238,21.627C272.08,59.398,281.507,57,291.5,57
	c12.616,0,24.341,3.805,34.101,10.321C344.468,61.908,364.393,59,385,59c93.001,0,172.199,59.053,202.167,141.706
	c2.375-0.458,4.824-0.706,7.333-0.706c21.263,0,38.5,17.237,38.5,38.5c0,5.11-1.004,9.984-2.812,14.446
	c17.303,7.757,32.853,18.725,45.885,32.154C703.253,259.614,739.799,244,780,244c23.681,0,46.096,5.418,66.077,15.078
	C868.222,216.829,912.491,188,963.5,188c48.779,0,91.38,26.371,114.377,65.623c5.918-1.696,12.16-2.623,18.623-2.623
	c17.041,0,32.596,6.328,44.475,16.746c10.81-14.167,26.354-24.523,44.285-28.695C1210.256,207.353,1248.999,187,1292.5,187
	c57.122,0,106.035,35.094,126.387,84.893c6.181-1.235,12.569-1.893,19.113-1.893c6.397,0,12.643,0.636,18.694,1.818
	C1487.532,232.37,1535.547,207,1589.5,207c28.495,0,55.332,7.083,78.862,19.569C1688.814,141.346,1765.503,78,1857,78
	c21.682,0,42.531,3.559,62,10.121V1679.96C1886.184,1679.133,1857.403,1662.094,1840.354,1636.55z M40.5,39
	c-3.59,0-6.5,2.91-6.5,6.5c0,3.59,2.91,6.5,6.5,6.5S47,49.09,47,45.5C47,41.91,44.09,39,40.5,39z M54.5,55c-3.59,0-6.5,2.91-6.5,6.5
	c0,3.59,2.91,6.5,6.5,6.5s6.5-2.91,6.5-6.5C61,57.91,58.09,55,54.5,55z M65.5,30c-3.59,0-6.5,2.91-6.5,6.5c0,3.59,2.91,6.5,6.5,6.5
	S72,40.09,72,36.5C72,32.91,69.09,30,65.5,30z M84.5,43C80.91,43,78,45.91,78,49.5c0,3.59,2.91,6.5,6.5,6.5s6.5-2.91,6.5-6.5
	C91,45.91,88.09,43,84.5,43z M132.5,303c-3.59,0-6.5,2.91-6.5,6.5c0,3.59,2.91,6.5,6.5,6.5s6.5-2.911,6.5-6.5
	C139,305.91,136.09,303,132.5,303z M148.5,321c-3.59,0-6.5,2.911-6.5,6.5c0,3.59,2.91,6.5,6.5,6.5s6.5-2.91,6.5-6.5
	C155,323.911,152.09,321,148.5,321z M275.5,81c-3.59,0-6.5,2.911-6.5,6.5c0,3.59,2.91,6.5,6.5,6.5s6.5-2.91,6.5-6.5
	C282,83.91,279.09,81,275.5,81z M394.5,131c-3.59,0-6.5,2.91-6.5,6.5c0,3.59,2.91,6.5,6.5,6.5s6.5-2.911,6.5-6.5
	C401,133.91,398.09,131,394.5,131z M414.5,118c-3.59,0-6.5,2.911-6.5,6.5c0,3.59,2.91,6.5,6.5,6.5s6.5-2.91,6.5-6.5
	C421,120.911,418.09,118,414.5,118z M420.5,139c-3.59,0-6.5,2.91-6.5,6.5c0,3.59,2.91,6.5,6.5,6.5s6.5-2.911,6.5-6.5
	C427,141.91,424.09,139,420.5,139z M745.5,272c-3.59,0-6.5,2.91-6.5,6.5c0,3.589,2.91,6.5,6.5,6.5s6.5-2.911,6.5-6.5
	C752,274.91,749.09,272,745.5,272z M763.5,285c-3.59,0-6.5,2.91-6.5,6.499c0,3.59,2.91,6.5,6.5,6.5s6.5-2.91,6.5-6.5
	C770,287.91,767.09,285,763.5,285z M901.5,225c-3.59,0-6.5,2.91-6.5,6.5c0,3.59,2.91,6.5,6.5,6.5s6.5-2.911,6.5-6.5
	C908,227.91,905.09,225,901.5,225z M917.5,211c-3.59,0-6.5,2.91-6.5,6.5c0,3.589,2.91,6.5,6.5,6.5s6.5-2.911,6.5-6.5
	C924,213.91,921.09,211,917.5,211z M1174.5,250c-3.59,0-6.5,2.91-6.5,6.5c0,3.589,2.91,6.5,6.5,6.5s6.5-2.911,6.5-6.5
	C1181,252.91,1178.09,250,1174.5,250z M1348.5,216c-3.59,0-6.5,2.91-6.5,6.5c0,3.589,2.91,6.499,6.5,6.499s6.5-2.91,6.5-6.499
	C1355,218.91,1352.09,216,1348.5,216z M1367.5,330c-3.59,0-6.5,2.911-6.5,6.5c0,3.59,2.91,6.5,6.5,6.5s6.5-2.91,6.5-6.5
	C1374,332.91,1371.09,330,1367.5,330z M1383.5,347c-3.59,0-6.5,2.91-6.5,6.499c0,3.59,2.91,6.5,6.5,6.5s6.5-2.91,6.5-6.5
	C1390,349.91,1387.09,347,1383.5,347z M1395.5,330c-3.59,0-6.5,2.911-6.5,6.5c0,3.59,2.91,6.5,6.5,6.5s6.5-2.91,6.5-6.5
	C1402,332.91,1399.09,330,1395.5,330z M1535.5,232c-3.59,0-6.5,2.91-6.5,6.5c0,3.59,2.91,6.5,6.5,6.5s6.5-2.91,6.5-6.5
	C1542,234.91,1539.09,232,1535.5,232z M1556.5,238c-3.59,0-6.5,2.91-6.5,6.499c0,3.59,2.91,6.5,6.5,6.5s6.5-2.91,6.5-6.5
	C1563,240.91,1560.09,238,1556.5,238z M1678.5,291c-3.59,0-6.5,2.911-6.5,6.5c0,3.59,2.91,6.5,6.5,6.5s6.5-2.91,6.5-6.5
	C1685,293.91,1682.09,291,1678.5,291z M1713.5,180c-3.59,0-6.5,2.91-6.5,6.5c0,3.589,2.91,6.5,6.5,6.5s6.5-2.911,6.5-6.5
	C1720,182.91,1717.09,180,1713.5,180z M1730.5,163c-3.59,0-6.5,2.91-6.5,6.5c0,3.59,2.91,6.5,6.5,6.5s6.5-2.911,6.5-6.5
	C1737,165.91,1734.09,163,1730.5,163z M1734.5,185c-3.59,0-6.5,2.91-6.5,6.5c0,3.589,2.91,6.499,6.5,6.499s6.5-2.91,6.5-6.499
	C1741,187.91,1738.09,185,1734.5,185z M1753.5,157c-3.59,0-6.5,2.911-6.5,6.5c0,3.59,2.91,6.5,6.5,6.5s6.5-2.91,6.5-6.5
	C1760,159.911,1757.09,157,1753.5,157z M1871.5,297c-3.59,0-6.5,2.91-6.5,6.5c0,3.589,2.91,6.5,6.5,6.5s6.5-2.911,6.5-6.5
	C1878,299.91,1875.09,297,1871.5,297z M1876,316.5c0,3.59,2.91,6.5,6.5,6.5s6.5-2.91,6.5-6.5c0-3.59-2.91-6.5-6.5-6.5
	S1876,312.91,1876,316.5z M1886.5,273c-3.59,0-6.5,2.91-6.5,6.5c0,3.59,2.91,6.5,6.5,6.5s6.5-2.911,6.5-6.5
	C1893,275.91,1890.09,273,1886.5,273z"/>
</svg>
