<?xml version="1.0" encoding="iso-8859-1"?>
<!-- Generator: Adobe Illustrator 16.0.0, SVG Export Plug-In . SVG Version: 6.00 Build 0)  -->
<!DOCTYPE svg PUBLIC "-//W3C//DTD SVG 1.1//EN" "http://www.w3.org/Graphics/SVG/1.1/DTD/svg11.dtd">
<svg version="1.1" id="Layer_1" xmlns="http://www.w3.org/2000/svg" xmlns:xlink="http://www.w3.org/1999/xlink" x="0px" y="0px"
	 width="1920px" height="1807.996px" viewBox="0 0 1920 1807.996" style="enable-background:new 0 0 1920 1807.996;"
	 xml:space="preserve">
<path style="fill-rule:evenodd;clip-rule:evenodd;fill:#599D72;" d="M1920,1450.071h-1v328.969
	c-29.652,18.352-64.611,28.956-102.053,28.956c-91.544,0-168.273-63.332-188.736-148.538
	c-23.543,12.483-50.394,19.565-78.904,19.565c-53.981,0-102.021-25.364-132.875-64.805c-6.054,1.182-12.304,1.818-18.704,1.818
	c-6.547,0-12.94-0.658-19.124-1.893c-20.362,49.789-69.3,84.875-126.452,84.875c-43.513,0-82.25-20.354-107.259-52.032
	c-17.956-4.166-33.523-14.524-44.346-28.698c-11.885,10.416-27.448,16.743-44.498,16.743c-6.466,0-12.712-0.927-18.632-2.623
	c-23.009,39.244-65.632,65.609-114.437,65.609c-51.035,0-95.327-28.823-117.484-71.062c-19.991,9.658-42.417,15.074-66.111,15.074
	c-40.221,0-76.788-15.609-103.985-41.088c-27.002,27.803-64.791,45.087-106.625,45.087c-14.258,0-28.044-2.011-41.097-5.758
	c-42.802,43.191-102.169,69.953-167.797,69.953c-22.636,0-44.525-3.193-65.25-9.135c-10.721,7.154-23.6,11.331-37.459,11.331
	c-10.977,0-21.333-2.633-30.496-7.276c-30.897,15.198-65.658,23.745-102.422,23.745c-9.236,0-18.341-0.556-27.295-1.603
	c-13.41,20.087-33.434,35.379-56.959,42.784v-320v-183.893V659.365v-47.12V83.436C64,31.287,145.698,0,234.718,0
	c158.314,0,293.488,98.916,347.065,238.263c20.702-12.636,45.021-19.936,71.057-19.936c43.513,0,82.249,20.353,107.258,52.031
	c17.956,4.166,33.523,14.525,44.346,28.698c11.885-10.415,27.448-16.743,44.498-16.743c6.466,0,12.712,0.927,18.633,2.623
	c23.009-39.244,65.632-65.609,114.437-65.609c51.035,0,95.327,28.823,117.484,71.062c19.991-9.658,42.417-15.074,66.111-15.074
	c40.221,0,76.789,15.61,103.985,41.088c13.038-13.425,28.595-24.389,45.906-32.144c-1.809-4.461-2.814-9.333-2.814-14.443
	c0-21.258,17.246-38.492,38.52-38.492c2.51,0,4.961,0.248,7.337,0.706c29.984-82.635,109.222-141.677,202.272-141.677
	c20.618,0,40.554,2.907,59.431,8.319c9.765-6.514,21.496-10.318,34.118-10.318c9.998,0,19.43,2.398,27.776,6.626
	c28.142-13.84,59.802-21.623,93.287-21.623c8.412,0,16.705,0.506,24.861,1.46c17.489-26.191,47.32-43.451,81.194-43.451
	c13.297,0,25.968,2.668,37.52,7.482v573.397h1V1450.071z"/>
</svg>
