<?xml version="1.0" encoding="utf-8"?>
<!-- Generator: Adobe Illustrator 16.0.0, SVG Export Plug-In . SVG Version: 6.00 Build 0)  -->
<!DOCTYPE svg PUBLIC "-//W3C//DTD SVG 1.1//EN" "http://www.w3.org/Graphics/SVG/1.1/DTD/svg11.dtd">
<svg version="1.1" id="Layer_1" xmlns="http://www.w3.org/2000/svg" xmlns:xlink="http://www.w3.org/1999/xlink" x="0px" y="0px"
	 width="1345px" height="144px" viewBox="0 0 1345 144" enable-background="new 0 0 1345 144" xml:space="preserve">
<g>
	<path fill="#5C6A73" d="M20.017,0L0,101.393C0,124.924,18.818,144,42.032,144c23.211,0,42.03-19.076,42.03-42.607V0H20.017z"/>
	<path fill="#592C3F" d="M84.062,0v101.393c0,23.531,18.819,42.607,42.032,42.607c23.211,0,42.03-19.076,42.03-42.607V0H84.062z"/>
	<g>
		<path fill="#5C6A73" d="M168.125,0v101.393c0,23.531,18.818,42.607,42.032,42.607c23.211,0,42.03-19.076,42.03-42.607V0H168.125z"
			/>
		<path fill="#592C3F" d="M252.188,0v101.393c0,23.531,18.819,42.607,42.032,42.607c23.211,0,42.031-19.076,42.031-42.607V0H252.188
			z"/>
	</g>
	<g>
		<path fill="#5C6A73" d="M336.25,0v101.393c0,23.531,18.817,42.607,42.032,42.607c23.21,0,42.03-19.076,42.03-42.607V0H336.25z"/>
		<path fill="#592C3F" d="M420.312,0v101.393c0,23.531,18.819,42.607,42.032,42.607c23.212,0,42.031-19.076,42.031-42.607V0H420.312
			z"/>
	</g>
	<g>
		<path fill="#5C6A73" d="M504.375,0v101.393c0,23.531,18.817,42.607,42.032,42.607c23.21,0,42.03-19.076,42.03-42.607V0H504.375z"
			/>
		<path fill="#592C3F" d="M588.438,0v101.393c0,23.531,18.819,42.607,42.032,42.607c23.212,0,42.031-19.076,42.031-42.607V0H588.438
			z"/>
	</g>
	<g>
		<path fill="#5C6A73" d="M672.5,0v101.393c0,23.531,18.817,42.607,42.032,42.607c23.21,0,42.03-19.076,42.03-42.607V0H672.5z"/>
		<path fill="#592C3F" d="M756.562,0v101.393c0,23.531,18.819,42.607,42.032,42.607c23.212,0,42.031-19.076,42.031-42.607V0H756.562
			z"/>
	</g>
	<g>
		<path fill="#5C6A73" d="M840.625,0v101.393c0,23.531,18.817,42.607,42.032,42.607c23.21,0,42.03-19.076,42.03-42.607V0H840.625z"
			/>
		<path fill="#592C3F" d="M924.688,0v101.393c0,23.531,18.818,42.607,42.032,42.607c23.212,0,42.031-19.076,42.031-42.607V0H924.688
			z"/>
	</g>
	<g>
		<path fill="#5C6A73" d="M1008.75,0v101.393c0,23.531,18.817,42.607,42.032,42.607c23.21,0,42.03-19.076,42.03-42.607V0H1008.75z"
			/>
		<path fill="#592C3F" d="M1092.812,0v101.393c0,23.531,18.819,42.607,42.032,42.607c23.211,0,42.031-19.076,42.031-42.607V0
			H1092.812z"/>
	</g>
	<g>
		<path fill="#5C6A73" d="M1176.875,0v101.393c0,23.531,18.817,42.607,42.032,42.607c23.21,0,42.03-19.076,42.03-42.607V0H1176.875z
			"/>
		<path fill="#592C3F" d="M1260.937,0v101.393c0,23.531,18.819,42.607,42.032,42.607c23.211,0,42.031-19.076,42.031-42.607
			L1324.984,0H1260.937z"/>
	</g>
</g>
</svg>
