<?xml version="1.0" encoding="utf-8"?>
<!-- Generator: Adobe Illustrator 16.0.0, SVG Export Plug-In . SVG Version: 6.00 Build 0)  -->
<!DOCTYPE svg PUBLIC "-//W3C//DTD SVG 1.1//EN" "http://www.w3.org/Graphics/SVG/1.1/DTD/svg11.dtd">
<svg version="1.1" id="Layer_1" xmlns="http://www.w3.org/2000/svg" xmlns:xlink="http://www.w3.org/1999/xlink" x="0px" y="0px"
	 width="987px" height="148px" viewBox="0 0 987 148" enable-background="new 0 0 987 148" xml:space="preserve">
<g>
	<g>
		<rect fill="#717964" width="987" height="148"/>
	</g>
	<g>
		<g>
			<path fill="#FFF8B1" d="M970.191,140.988c-1.945,0-3.859-0.788-5.241-2.17c-1.372-1.381-2.162-3.285-2.162-5.229
				c0-1.942,0.79-3.858,2.162-5.238c1.382-1.372,3.296-2.161,5.241-2.161c1.944,0,3.849,0.789,5.23,2.161
				c1.382,1.38,2.172,3.296,2.172,5.238c0,1.944-0.79,3.849-2.172,5.229C974.04,140.2,972.135,140.988,970.191,140.988z"/>
		</g>
		<g>
			<path fill="#FFF8B1" d="M932.991,133.589c0-4.085,3.316-7.399,7.402-7.399l0,0c4.086,0,7.402,3.314,7.402,7.399l0,0
				c0,4.085-3.316,7.399-7.402,7.399l0,0C936.308,140.988,932.991,137.674,932.991,133.589z M903.203,133.589
				c0-4.085,3.307-7.399,7.402-7.399l0,0c4.087,0,7.393,3.314,7.393,7.399l0,0c0,4.085-3.306,7.399-7.393,7.399l0,0
				C906.51,140.988,903.203,137.674,903.203,133.589z M873.406,133.589c0-4.085,3.316-7.399,7.403-7.399l0,0
				c4.086,0,7.402,3.314,7.402,7.399l0,0c0,4.085-3.316,7.399-7.402,7.399l0,0C876.722,140.988,873.406,137.674,873.406,133.589z
				 M843.618,133.589c0-4.085,3.307-7.399,7.393-7.399l0,0c4.096,0,7.412,3.314,7.412,7.399l0,0c0,4.085-3.316,7.399-7.412,7.399
				l0,0C846.925,140.988,843.618,137.674,843.618,133.589z M813.82,133.589c0-4.085,3.317-7.399,7.402-7.399l0,0
				c4.087,0,7.403,3.314,7.403,7.399l0,0c0,4.085-3.316,7.399-7.403,7.399l0,0C817.137,140.988,813.82,137.674,813.82,133.589z
				 M784.023,133.589c0-4.085,3.316-7.399,7.403-7.399l0,0c4.096,0,7.402,3.314,7.402,7.399l0,0c0,4.085-3.307,7.399-7.402,7.399
				l0,0C787.339,140.988,784.023,137.674,784.023,133.589z M754.235,133.589c0-4.085,3.316-7.399,7.403-7.399l0,0
				c4.086,0,7.403,3.314,7.403,7.399l0,0c0,4.085-3.317,7.399-7.403,7.399l0,0C757.552,140.988,754.235,137.674,754.235,133.589z
				 M724.438,133.589c0-4.085,3.317-7.399,7.413-7.399l0,0c4.086,0,7.392,3.314,7.392,7.399l0,0c0,4.085-3.306,7.399-7.392,7.399
				l0,0C727.754,140.988,724.438,137.674,724.438,133.589z M694.65,133.589c0-4.085,3.316-7.399,7.402-7.399l0,0
				c4.086,0,7.402,3.314,7.402,7.399l0,0c0,4.085-3.316,7.399-7.402,7.399l0,0C697.967,140.988,694.65,137.674,694.65,133.589z
				 M664.853,133.589c0-4.085,3.316-7.399,7.402-7.399l0,0c4.096,0,7.403,3.314,7.403,7.399l0,0c0,4.085-3.307,7.399-7.403,7.399
				l0,0C668.169,140.988,664.853,137.674,664.853,133.589z M635.065,133.589c0-4.085,3.306-7.399,7.402-7.399l0,0
				c4.086,0,7.402,3.314,7.402,7.399l0,0c0,4.085-3.316,7.399-7.402,7.399l0,0C638.372,140.988,635.065,137.674,635.065,133.589z
				 M605.268,133.589c0-4.085,3.316-7.399,7.402-7.399l0,0c4.086,0,7.402,3.314,7.402,7.399l0,0c0,4.085-3.316,7.399-7.402,7.399
				l0,0C608.584,140.988,605.268,137.674,605.268,133.589z M575.479,133.589c0-4.085,3.307-7.399,7.393-7.399l0,0
				c4.096,0,7.412,3.314,7.412,7.399l0,0c0,4.085-3.316,7.399-7.412,7.399l0,0C578.786,140.988,575.479,137.674,575.479,133.589z
				 M545.683,133.589c0-4.085,3.316-7.399,7.402-7.399l0,0c4.086,0,7.402,3.314,7.402,7.399l0,0c0,4.085-3.316,7.399-7.402,7.399
				l0,0C548.999,140.988,545.683,137.674,545.683,133.589z M515.885,133.589c0-4.085,3.316-7.399,7.413-7.399l0,0
				c4.086,0,7.403,3.314,7.403,7.399l0,0c0,4.085-3.317,7.399-7.403,7.399l0,0C519.201,140.988,515.885,137.674,515.885,133.589z
				 M486.097,133.589c0-4.085,3.317-7.399,7.403-7.399l0,0c4.086,0,7.403,3.314,7.403,7.399l0,0c0,4.085-3.316,7.399-7.403,7.399
				l0,0C489.414,140.988,486.097,137.674,486.097,133.589z M456.3,133.589c0-4.085,3.316-7.399,7.412-7.399l0,0
				c4.086,0,7.393,3.314,7.393,7.399l0,0c0,4.085-3.307,7.399-7.393,7.399l0,0C459.616,140.988,456.3,137.674,456.3,133.589z
				 M426.512,133.589c0-4.085,3.316-7.399,7.402-7.399l0,0c4.086,0,7.403,3.314,7.403,7.399l0,0c0,4.085-3.317,7.399-7.403,7.399
				l0,0C429.828,140.988,426.512,137.674,426.512,133.589z M396.725,133.589c0-4.085,3.306-7.399,7.393-7.399l0,0
				c4.096,0,7.402,3.314,7.402,7.399l0,0c0,4.085-3.307,7.399-7.402,7.399l0,0C400.031,140.988,396.725,137.674,396.725,133.589z
				 M366.927,133.589c0-4.085,3.316-7.399,7.402-7.399l0,0c4.087,0,7.403,3.314,7.403,7.399l0,0c0,4.085-3.316,7.399-7.403,7.399
				l0,0C370.243,140.988,366.927,137.674,366.927,133.589z M337.129,133.589c0-4.085,3.316-7.399,7.403-7.399l0,0
				c4.085,0,7.402,3.314,7.402,7.399l0,0c0,4.085-3.317,7.399-7.402,7.399l0,0C340.445,140.988,337.129,137.674,337.129,133.589z
				 M307.342,133.589c0-4.085,3.316-7.399,7.402-7.399l0,0c4.086,0,7.402,3.314,7.402,7.399l0,0c0,4.085-3.316,7.399-7.402,7.399
				l0,0C310.658,140.988,307.342,137.674,307.342,133.589z M277.544,133.589c0-4.085,3.316-7.399,7.402-7.399l0,0
				c4.087,0,7.403,3.314,7.403,7.399l0,0c0,4.085-3.316,7.399-7.403,7.399l0,0C280.86,140.988,277.544,137.674,277.544,133.589z
				 M247.756,133.589c0-4.085,3.306-7.399,7.402-7.399l0,0c4.086,0,7.403,3.314,7.403,7.399l0,0c0,4.085-3.316,7.399-7.403,7.399
				l0,0C251.062,140.988,247.756,137.674,247.756,133.589z M217.959,133.589c0-4.085,3.316-7.399,7.402-7.399l0,0
				c4.096,0,7.402,3.314,7.402,7.399l0,0c0,4.085-3.307,7.399-7.402,7.399l0,0C221.275,140.988,217.959,137.674,217.959,133.589z
				 M188.171,133.589c0-4.085,3.306-7.399,7.403-7.399l0,0c4.085,0,7.402,3.314,7.402,7.399l0,0c0,4.085-3.317,7.399-7.402,7.399
				l0,0C191.478,140.988,188.171,137.674,188.171,133.589z M158.374,133.589c0-4.085,3.317-7.399,7.402-7.399l0,0
				c4.086,0,7.403,3.314,7.403,7.399l0,0c0,4.085-3.316,7.399-7.403,7.399l0,0C161.69,140.988,158.374,137.674,158.374,133.589z
				 M128.586,133.589c0-4.085,3.307-7.399,7.393-7.399l0,0c4.097,0,7.413,3.314,7.413,7.399l0,0c0,4.085-3.316,7.399-7.413,7.399
				l0,0C131.893,140.988,128.586,137.674,128.586,133.589z M98.789,133.589c0-4.085,3.316-7.399,7.403-7.399l0,0
				c4.086,0,7.402,3.314,7.402,7.399l0,0c0,4.085-3.316,7.399-7.402,7.399l0,0C102.104,140.988,98.789,137.674,98.789,133.589z
				 M68.991,133.589c0-4.085,3.316-7.399,7.412-7.399l0,0c4.086,0,7.402,3.314,7.402,7.399l0,0c0,4.085-3.316,7.399-7.402,7.399l0,0
				C72.307,140.988,68.991,137.674,68.991,133.589z M39.203,133.589c0-4.085,3.317-7.399,7.403-7.399l0,0
				c4.086,0,7.402,3.314,7.402,7.399l0,0c0,4.085-3.316,7.399-7.402,7.399l0,0C42.52,140.988,39.203,137.674,39.203,133.589z"/>
		</g>
		<g>
			<path fill="#FFF8B1" d="M16.809,140.988c-1.945,0-3.85-0.788-5.231-2.17c-1.381-1.381-2.171-3.285-2.171-5.229
				c0-1.942,0.79-3.858,2.171-5.238c1.382-1.372,3.287-2.161,5.231-2.161c1.954,0,3.858,0.789,5.241,2.161
				c1.372,1.38,2.162,3.296,2.162,5.238c0,1.944-0.79,3.849-2.162,5.229C20.667,140.2,18.763,140.988,16.809,140.988z"/>
		</g>
		<g>
			<path fill="#FFF8B1" d="M9.406,103.791c0-4.083,3.316-7.399,7.413-7.399l0,0c4.086,0,7.393,3.316,7.393,7.399l0,0
				c0,4.086-3.307,7.401-7.393,7.401l0,0C12.722,111.192,9.406,107.877,9.406,103.791z M9.406,73.994c0-4.084,3.316-7.4,7.413-7.4
				l0,0c4.086,0,7.393,3.316,7.393,7.4l0,0c0,4.096-3.307,7.4-7.393,7.4l0,0C12.722,81.395,9.406,78.09,9.406,73.994z M9.406,44.207
				c0-4.094,3.316-7.399,7.413-7.399l0,0c4.086,0,7.393,3.306,7.393,7.399l0,0c0,4.085-3.307,7.391-7.393,7.391l0,0
				C12.722,51.598,9.406,48.292,9.406,44.207z"/>
		</g>
		<g>
			<path fill="#FFF8B1" d="M16.818,21.811c-1.955,0-3.869-0.789-5.241-2.171c-1.381-1.372-2.171-3.286-2.171-5.229
				s0.79-3.857,2.171-5.229c1.372-1.38,3.287-2.171,5.241-2.171c1.944,0,3.849,0.791,5.231,2.171
				c1.372,1.372,2.162,3.286,2.162,5.229s-0.79,3.857-2.162,5.229C20.667,21.021,18.763,21.811,16.818,21.811z"/>
		</g>
		<g>
			<path fill="#FFF8B1" d="M932.991,14.41c0-4.084,3.316-7.4,7.402-7.4l0,0c4.086,0,7.402,3.316,7.402,7.4l0,0
				c0,4.084-3.316,7.4-7.402,7.4l0,0C936.308,21.811,932.991,18.494,932.991,14.41z M903.203,14.41c0-4.084,3.307-7.4,7.402-7.4l0,0
				c4.087,0,7.403,3.316,7.403,7.4l0,0c0,4.084-3.316,7.4-7.403,7.4l0,0C906.51,21.811,903.203,18.494,903.203,14.41z
				 M873.406,14.41c0-4.084,3.316-7.4,7.403-7.4l0,0c4.086,0,7.402,3.316,7.402,7.4l0,0c0,4.084-3.316,7.4-7.402,7.4l0,0
				C876.722,21.811,873.406,18.494,873.406,14.41z M843.608,14.41c0-4.084,3.316-7.4,7.402-7.4l0,0c4.096,0,7.402,3.316,7.402,7.4
				l0,0c0,4.084-3.307,7.4-7.402,7.4l0,0C846.925,21.811,843.608,18.494,843.608,14.41z M813.82,14.41c0-4.084,3.317-7.4,7.402-7.4
				l0,0c4.087,0,7.403,3.316,7.403,7.4l0,0c0,4.084-3.316,7.4-7.403,7.4l0,0C817.137,21.811,813.82,18.494,813.82,14.41z
				 M784.023,14.41c0-4.084,3.316-7.4,7.403-7.4l0,0c4.086,0,7.402,3.316,7.402,7.4l0,0c0,4.084-3.316,7.4-7.402,7.4l0,0
				C787.339,21.811,784.023,18.494,784.023,14.41z M754.235,14.41c0-4.084,3.307-7.4,7.403-7.4l0,0c4.086,0,7.403,3.316,7.403,7.4
				l0,0c0,4.084-3.317,7.4-7.403,7.4l0,0C757.542,21.811,754.235,18.494,754.235,14.41z M724.438,14.41c0-4.084,3.317-7.4,7.403-7.4
				l0,0c4.096,0,7.402,3.316,7.402,7.4l0,0c0,4.084-3.306,7.4-7.402,7.4l0,0C727.754,21.811,724.438,18.494,724.438,14.41z
				 M694.65,14.41c0-4.084,3.307-7.4,7.402-7.4l0,0c4.086,0,7.402,3.316,7.402,7.4l0,0c0,4.084-3.316,7.4-7.402,7.4l0,0
				C697.957,21.811,694.65,18.494,694.65,14.41z M664.853,14.41c0-4.084,3.316-7.4,7.402-7.4l0,0c4.086,0,7.403,3.316,7.403,7.4l0,0
				c0,4.084-3.317,7.4-7.403,7.4l0,0C668.169,21.811,664.853,18.494,664.853,14.41z M635.065,14.41c0-4.084,3.316-7.4,7.402-7.4l0,0
				c4.086,0,7.402,3.316,7.402,7.4l0,0c0,4.084-3.316,7.4-7.402,7.4l0,0C638.381,21.811,635.065,18.494,635.065,14.41z
				 M605.268,14.41c0-4.084,3.316-7.4,7.402-7.4l0,0c4.086,0,7.402,3.316,7.402,7.4l0,0c0,4.084-3.316,7.4-7.402,7.4l0,0
				C608.584,21.811,605.268,18.494,605.268,14.41z M575.479,14.41c0-4.084,3.307-7.4,7.403-7.4l0,0c4.086,0,7.402,3.316,7.402,7.4
				l0,0c0,4.084-3.316,7.4-7.402,7.4l0,0C578.786,21.811,575.479,18.494,575.479,14.41z M545.683,14.41c0-4.084,3.316-7.4,7.402-7.4
				l0,0c4.086,0,7.402,3.316,7.402,7.4l0,0c0,4.084-3.316,7.4-7.402,7.4l0,0C548.999,21.811,545.683,18.494,545.683,14.41z
				 M515.885,14.41c0-4.084,3.316-7.4,7.402-7.4l0,0c4.096,0,7.403,3.316,7.403,7.4l0,0c0,4.084-3.307,7.4-7.403,7.4l0,0
				C519.201,21.811,515.885,18.494,515.885,14.41z M486.097,14.41c0-4.084,3.317-7.4,7.403-7.4l0,0c4.086,0,7.403,3.316,7.403,7.4
				l0,0c0,4.084-3.316,7.4-7.403,7.4l0,0C489.414,21.811,486.097,18.494,486.097,14.41z M456.3,14.41c0-4.084,3.316-7.4,7.402-7.4
				l0,0c4.086,0,7.402,3.316,7.402,7.4l0,0c0,4.084-3.316,7.4-7.402,7.4l0,0C459.616,21.811,456.3,18.494,456.3,14.41z
				 M426.512,14.41c0-4.084,3.316-7.4,7.402-7.4l0,0c4.086,0,7.403,3.316,7.403,7.4l0,0c0,4.084-3.317,7.4-7.403,7.4l0,0
				C429.828,21.811,426.512,18.494,426.512,14.41z M396.715,14.41c0-4.084,3.316-7.4,7.402-7.4l0,0c4.096,0,7.412,3.316,7.412,7.4
				l0,0c0,4.084-3.316,7.4-7.412,7.4l0,0C400.031,21.811,396.715,18.494,396.715,14.41z M366.927,14.41c0-4.084,3.307-7.4,7.402-7.4
				l0,0c4.087,0,7.403,3.316,7.403,7.4l0,0c0,4.084-3.316,7.4-7.403,7.4l0,0C370.233,21.811,366.927,18.494,366.927,14.41z
				 M337.129,14.41c0-4.084,3.316-7.4,7.403-7.4l0,0c4.096,0,7.402,3.316,7.402,7.4l0,0c0,4.084-3.307,7.4-7.402,7.4l0,0
				C340.445,21.811,337.129,18.494,337.129,14.41z M307.342,14.41c0-4.084,3.316-7.4,7.402-7.4l0,0c4.086,0,7.402,3.316,7.402,7.4
				l0,0c0,4.084-3.316,7.4-7.402,7.4l0,0C310.658,21.811,307.342,18.494,307.342,14.41z M277.544,14.41c0-4.084,3.316-7.4,7.402-7.4
				l0,0c4.087,0,7.403,3.316,7.403,7.4l0,0c0,4.084-3.316,7.4-7.403,7.4l0,0C280.86,21.811,277.544,18.494,277.544,14.41z
				 M247.756,14.41c0-4.084,3.306-7.4,7.402-7.4l0,0c4.086,0,7.403,3.316,7.403,7.4l0,0c0,4.084-3.316,7.4-7.403,7.4l0,0
				C251.062,21.811,247.756,18.494,247.756,14.41z M217.959,14.41c0-4.084,3.316-7.4,7.402-7.4l0,0c4.086,0,7.402,3.316,7.402,7.4
				l0,0c0,4.084-3.316,7.4-7.402,7.4l0,0C221.275,21.811,217.959,18.494,217.959,14.41z M188.161,14.41c0-4.084,3.316-7.4,7.402-7.4
				l0,0c4.096,0,7.403,3.316,7.403,7.4l0,0c0,4.084-3.307,7.4-7.403,7.4l0,0C191.478,21.811,188.161,18.494,188.161,14.41z
				 M158.374,14.41c0-4.084,3.317-7.4,7.402-7.4l0,0c4.086,0,7.403,3.316,7.403,7.4l0,0c0,4.084-3.316,7.4-7.403,7.4l0,0
				C161.69,21.811,158.374,18.494,158.374,14.41z M128.586,14.41c0-4.084,3.307-7.4,7.402-7.4l0,0c4.087,0,7.403,3.316,7.403,7.4
				l0,0c0,4.084-3.316,7.4-7.403,7.4l0,0C131.893,21.811,128.586,18.494,128.586,14.41z M98.789,14.41c0-4.084,3.316-7.4,7.403-7.4
				l0,0c4.086,0,7.402,3.316,7.402,7.4l0,0c0,4.084-3.316,7.4-7.402,7.4l0,0C102.104,21.811,98.789,18.494,98.789,14.41z
				 M68.991,14.41c0-4.084,3.316-7.4,7.412-7.4l0,0c4.086,0,7.402,3.316,7.402,7.4l0,0c0,4.084-3.316,7.4-7.402,7.4l0,0
				C72.307,21.811,68.991,18.494,68.991,14.41z M39.203,14.41c0-4.084,3.317-7.4,7.403-7.4l0,0c4.086,0,7.402,3.316,7.402,7.4l0,0
				c0,4.084-3.316,7.4-7.402,7.4l0,0C42.52,21.811,39.203,18.494,39.203,14.41z"/>
		</g>
		<g>
			<path fill="#FFF8B1" d="M970.191,21.811c-1.955,0-3.859-0.789-5.241-2.171c-1.372-1.372-2.162-3.274-2.162-5.229
				c0-1.943,0.79-3.857,2.162-5.229c1.382-1.38,3.287-2.171,5.241-2.171c1.944,0,3.849,0.791,5.23,2.171
				c1.382,1.372,2.172,3.276,2.172,5.229c0,1.955-0.79,3.857-2.172,5.229C974.05,21.021,972.135,21.811,970.191,21.811z"/>
		</g>
		<g>
			<path fill="#FFF8B1" d="M962.789,103.791c0-4.083,3.307-7.399,7.403-7.399l0,0c4.086,0,7.402,3.316,7.402,7.399l0,0
				c0,4.086-3.316,7.401-7.402,7.401l0,0C966.095,111.192,962.789,107.877,962.789,103.791z M962.789,74.005
				c0-4.095,3.307-7.411,7.403-7.411l0,0c4.086,0,7.402,3.316,7.402,7.411l0,0c0,4.085-3.316,7.39-7.402,7.39l0,0
				C966.095,81.395,962.789,78.09,962.789,74.005z M962.789,44.207c0-4.094,3.307-7.399,7.403-7.399l0,0
				c4.086,0,7.402,3.306,7.402,7.399l0,0c0,4.085-3.316,7.4-7.402,7.4l0,0C966.095,51.607,962.789,48.292,962.789,44.207z"/>
		</g>
	</g>
</g>
</svg>
