<?xml version="1.0" encoding="utf-8"?>
<svg xmlns="http://www.w3.org/2000/svg"
	xmlns:xlink="http://www.w3.org/1999/xlink"
	width="362px" height="225px" viewBox="0 0 362 225">
<path fillRule="evenodd" d="M 449.77 134.46C 355.82 243.55 191.32 255.78 82.33 161.78 40.43 125.64 12.85 79.06 0.1 29.21 16.24 35.91 33.93 39.61 52.5 39.61 89.88 39.61 123.76 24.61 148.48 0.31 159 19.8 174.26 36.34 192.74 48.38 192.88 48.94 193.03 49.5 193.17 50.06 193.51 49.81 193.86 49.57 194.21 49.33 214.59 62.23 238.74 69.7 264.64 69.7 293.52 69.7 320.23 60.41 341.96 44.66 361.68 71.98 393.77 89.76 430.01 89.76 450.02 89.76 468.75 84.33 484.84 74.88 485.64 75.69 486.44 76.49 487.23 77.31 477.52 97.47 465.06 116.7 449.77 134.46Z" fill="rgb(89,157,113)"/><path fillRule="evenodd" d="M 136.41 197.79C 117.36 188.3 99.18 176.32 82.33 161.78 76.84 157.05 71.61 152.13 66.62 147.05 66.62 147.05 84.3 125.18 84.3 125.18 84.3 125.18 67.21 38.82 67.21 38.82 75.55 37.93 83.67 36.28 91.49 33.96 91.49 33.96 107.28 96.75 107.28 96.75 107.28 96.75 165.48 24.76 165.48 24.76 184.85 46.82 211.45 62.37 241.58 67.69 241.58 67.69 183.09 140.05 183.09 140.05 183.09 140.05 394.86 83.91 394.86 83.91 405.89 87.68 417.71 89.76 430.01 89.76 437.04 89.76 443.91 89.07 450.57 87.79 450.57 87.79 149.4 181.71 149.4 181.71 149.4 181.71 136.41 197.79 136.41 197.79Z" fill="rgb(111,121,99)"/></svg>