<?xml version="1.0" encoding="utf-8"?>
<svg xmlns="http://www.w3.org/2000/svg"
	xmlns:xlink="http://www.w3.org/1999/xlink"
	width="289px" height="133px" viewBox="0 0 289 133">
<path fillRule="evenodd" d="M 22.22 79.41C 77.95 143.98 175.55 151.22 240.21 95.58 265.07 74.19 281.43 46.61 289 17.11 279.42 21.07 268.92 23.26 257.91 23.26 235.73 23.26 215.63 14.38 200.97-0 194.72 11.53 185.67 21.33 174.71 28.45 174.62 28.78 174.53 29.11 174.45 29.44 174.25 29.3 174.04 29.16 173.84 29.01 161.74 36.65 147.42 41.07 132.05 41.07 114.92 41.07 99.07 35.57 86.18 26.25 74.48 42.42 55.44 52.95 33.94 52.95 22.07 52.95 10.96 49.73 1.41 44.14 0.94 44.62 0.46 45.09-0 45.58 5.76 57.51 13.15 68.9 22.22 79.41Z" fill="rgb(89,157,113)"/><path fillRule="evenodd" d="M 208.13 116.9C 219.43 111.28 230.21 104.18 240.21 95.58 243.47 92.78 246.57 89.86 249.53 86.86 249.53 86.86 239.04 73.91 239.04 73.91 239.04 73.91 249.18 22.79 249.18 22.79 244.23 22.27 239.42 21.29 234.77 19.92 234.77 19.92 225.41 57.09 225.41 57.09 225.41 57.09 190.88 14.47 190.88 14.47 179.39 27.53 163.61 36.74 145.73 39.88 145.73 39.88 180.43 82.71 180.43 82.71 180.43 82.71 54.79 49.48 54.79 49.48 48.25 51.72 41.24 52.95 33.94 52.95 29.77 52.95 25.69 52.54 21.74 51.78 21.74 51.78 200.42 107.38 200.42 107.38 200.42 107.38 208.13 116.9 208.13 116.9Z" fill="rgb(111,121,99)"/></svg>