<?xml version="1.0" encoding="utf-8"?>
<svg xmlns="http://www.w3.org/2000/svg"
	xmlns:xlink="http://www.w3.org/1999/xlink"
	width="1920px" height="977px" viewBox="0 0 1920 977">
<path fillRule="evenodd" d="M 1909 709C 1821.19 709 1750 780.19 1750 868 1750 872.29 1750.18 876.53 1750.51 880.74 1746.89 870.41 1737.06 863 1725.5 863 1719.93 863 1714.76 864.72 1710.5 867.66 1701.68 853.46 1685.95 844 1668 844 1658.79 844 1650.17 846.5 1642.76 850.85 1625.96 804.84 1581.82 772 1530 772 1466.34 772 1414.28 821.57 1410.26 884.21 1399.13 878.34 1386.46 875 1373 875 1351.44 875 1331.88 883.54 1317.49 897.41 1299.21 829.77 1237.42 780 1164 780 1076.19 780 1005 851.19 1005 939 1005 939.43 1005.01 939.86 1005.02 940.29 1005.02 940.29 998.19 940.77 998.19 940.77 993.5 936.56 987.3 934 980.5 934 974.93 934 969.76 935.72 965.49 938.66 956.67 924.46 940.95 915 923 915 913.79 915 905.16 917.5 897.75 921.85 880.95 875.85 836.82 843 785 843 721.34 843 669.28 892.57 665.26 955.21 654.13 949.34 641.46 946 628 946 613.18 946 599.32 950.05 587.42 957.08 570.37 946.67 550.33 940.66 528.89 940.66 496.14 940.66 466.67 954.66 446.11 976.98 438.38 951.33 415.79 932.12 388.34 929.36 390.05 925.07 391 920.4 391 915.5 391 894.79 374.21 878 353.5 878 351.16 878 348.88 878.23 346.66 878.63 309.65 818.84 243.49 779 168 779 99.3 779 38.31 811.99 0 862.99 0 862.99 0-8 0-8 0-8 1920-8 1920-8 1920-8 1920 709.39 1920 709.39 1916.36 709.14 1912.7 709 1909 709Z" fill="rgb(31,141,157)"/><path fillRule="evenodd" d="M 1859.91 335.06C 1858.93 324.37 1849.94 316 1839 316 1837.34 316 1835.73 316.2 1834.18 316.56 1826.88 294.73 1806.28 279 1782 279 1755.36 279 1733.15 297.94 1728.09 323.09 1725.21 321.14 1721.74 320 1718 320 1709.95 320 1703.14 325.29 1700.83 332.58 1700.83 332.58 0 306 0 306 0 306 0 0 0 0 0 0 1920 0 1920 0 1920 0 1920 336 1920 336 1920 336 1859.91 335.06 1859.91 335.06ZM 389 167C 386.24 167 384 169.24 384 172 384 174.76 386.24 177 389 177 391.76 177 394 174.76 394 172 394 169.24 391.76 167 389 167ZM 592 97C 590.9 97 590 97.9 590 99 590 100.1 590.9 101 592 101 593.1 101 594 100.1 594 99 594 97.9 593.1 97 592 97ZM 1251 288C 1248.79 288 1247 289.79 1247 292 1247 294.21 1248.79 296 1251 296 1253.21 296 1255 294.21 1255 292 1255 289.79 1253.21 288 1251 288ZM 1838 265C 1836.9 265 1836 265.9 1836 267 1836 268.1 1836.9 269 1838 269 1839.1 269 1840 268.1 1840 267 1840 265.9 1839.1 265 1838 265Z" fill="rgb(1,95,107)"/></svg>