<?xml version="1.0" encoding="utf-8"?>
<!-- Generator: Adobe Illustrator 16.0.0, SVG Export Plug-In . SVG Version: 6.00 Build 0)  -->
<!DOCTYPE svg PUBLIC "-//W3C//DTD SVG 1.1//EN" "http://www.w3.org/Graphics/SVG/1.1/DTD/svg11.dtd">
<svg version="1.1" id="Layer_1" xmlns="http://www.w3.org/2000/svg" xmlns:xlink="http://www.w3.org/1999/xlink" x="0px" y="0px"
	 width="16px" height="16px" viewBox="0 0 16 16" enable-background="new 0 0 16 16" xml:space="preserve">
<g>
	<path fill="#00FFFF" d="M10.395,2.821c0.734,0,1.397,0.318,1.864,0.827c0.581-0.118,1.127-0.335,1.618-0.635
		c-0.188,0.611-0.595,1.121-1.119,1.445c0.515-0.062,1.009-0.202,1.465-0.411C13.88,4.57,13.448,5.032,12.949,5.4
		c0.003,0.114,0.006,0.227,0.006,0.339c0,3.456-2.567,7.44-7.263,7.44c-1.441,0-2.784-0.431-3.915-1.176
		c0.201,0.024,0.404,0.037,0.61,0.037c1.194,0,2.297-0.418,3.17-1.12C4.441,10.9,3.497,10.146,3.172,9.104
		c0.155,0.033,0.315,0.05,0.482,0.05c0.232,0,0.458-0.033,0.671-0.092C3.157,8.82,2.278,7.764,2.278,6.497
		c0-0.011,0-0.023,0.001-0.035C2.622,6.66,3.017,6.777,3.436,6.791c-0.687-0.469-1.137-1.27-1.137-2.178
		c0-0.479,0.127-0.927,0.347-1.312c1.258,1.58,3.139,2.622,5.263,2.731C7.862,5.84,7.84,5.641,7.84,5.436
		C7.84,3.991,8.983,2.821,10.395,2.821 M10.395,1C8.547,1,6.967,2.189,6.344,3.86C5.447,3.514,4.642,2.927,4.024,2.15
		c-0.34-0.426-0.847-0.671-1.379-0.671c-0.045,0-0.092,0.002-0.139,0.006C1.926,1.532,1.404,1.867,1.11,2.383
		C0.725,3.06,0.521,3.832,0.521,4.613c0,0.378,0.045,0.749,0.135,1.105C0.576,5.903,0.524,6.103,0.508,6.31
		C0.504,6.361,0.501,6.446,0.501,6.497c0,1.002,0.331,1.943,0.896,2.696C1.404,9.35,1.432,9.506,1.479,9.658
		c0.057,0.182,0.124,0.358,0.201,0.527c-0.703,0.039-1.33,0.504-1.575,1.2c-0.281,0.798,0.014,1.69,0.71,2.149
		C2.271,14.494,3.957,15,5.692,15c4.311,0,8.766-3.26,9.028-8.746c0.365-0.357,0.692-0.756,0.979-1.192
		c0.419-0.641,0.396-1.479-0.045-2.093c-0.014-0.53-0.252-1.04-0.674-1.382c-0.32-0.261-0.712-0.394-1.104-0.394
		c-0.313,0-0.628,0.084-0.908,0.256c-0.112,0.068-0.229,0.13-0.348,0.184C11.953,1.224,11.182,1,10.395,1L10.395,1z"/>
</g>
</svg>
