<?xml version="1.0" encoding="utf-8"?>
<!-- Generator: Adobe Illustrator 16.0.0, SVG Export Plug-In . SVG Version: 6.00 Build 0)  -->
<!DOCTYPE svg PUBLIC "-//W3C//DTD SVG 1.1//EN" "http://www.w3.org/Graphics/SVG/1.1/DTD/svg11.dtd">
<svg version="1.1" id="Layer_1" xmlns="http://www.w3.org/2000/svg" xmlns:xlink="http://www.w3.org/1999/xlink" x="0px" y="0px"
	 width="140px" height="140px" viewBox="0 0 140 140" enable-background="new 0 0 140 140" xml:space="preserve">
<g>
	
		<polygon fill="none" stroke="#02454E" stroke-width="2" stroke-linecap="round" stroke-linejoin="round" stroke-miterlimit="10" points="
		115.913,31.661 115.913,25.432 89.063,25.432 85.105,31.661 16.565,31.661 16.565,101.982 123.434,101.982 123.434,31.661 	"/>
	
		<polygon fill="#FFFFFF" stroke="#02454E" stroke-width="2" stroke-linecap="round" stroke-linejoin="round" stroke-miterlimit="10" points="
		123.434,114.568 16.565,114.568 8.648,44.248 131.352,44.248 	"/>
	<path fill="none" stroke="#00FF5D" stroke-width="2" stroke-linecap="round" stroke-linejoin="round" stroke-miterlimit="10" d="
		M112.154,59.299v11.593c0,0.874-0.709,1.583-1.584,1.583H98.979"/>
	<path fill="none" stroke="#00FF5D" stroke-width="2" stroke-linecap="round" stroke-linejoin="round" stroke-miterlimit="10" d="
		M112.774,79.925c0,10.507-8.517,19.025-19.026,19.025c-10.508,0-19.025-8.519-19.025-19.025c0-10.508,8.518-19.026,19.025-19.026
		c7.738,0,14.398,4.619,17.371,11.252"/>
	
		<line fill="none" stroke="#00FFFF" stroke-width="2" stroke-linecap="round" stroke-linejoin="round" stroke-miterlimit="10" x1="44.909" y1="69.054" x2="44.909" y2="79.925"/>
	
		<line fill="none" stroke="#00FFFF" stroke-width="2" stroke-linecap="round" stroke-linejoin="round" stroke-miterlimit="10" x1="44.909" y1="79.925" x2="51.185" y2="79.925"/>
	<g>
		
			<line fill="none" stroke="#00FFFF" stroke-width="2" stroke-linecap="round" stroke-linejoin="round" stroke-miterlimit="10" x1="58.501" y1="79.925" x2="58.501" y2="79.925"/>
		
			<line fill="none" stroke="#00FFFF" stroke-width="2" stroke-linecap="round" stroke-linejoin="round" stroke-miterlimit="10" x1="31.316" y1="79.925" x2="31.316" y2="79.925"/>
	</g>
	
		<circle fill="none" stroke="#00FFFF" stroke-width="2" stroke-linecap="round" stroke-linejoin="round" stroke-miterlimit="10" cx="44.909" cy="79.925" r="19.058"/>
	
		<line fill="none" stroke="#00FF5D" stroke-width="2" stroke-linecap="round" stroke-linejoin="round" stroke-miterlimit="10" x1="22.799" y1="36.486" x2="117.199" y2="36.486"/>
	
		<line fill="none" stroke="#00FFFF" stroke-width="2" stroke-linecap="round" stroke-linejoin="round" stroke-miterlimit="10" x1="21.215" y1="40.365" x2="118.783" y2="40.365"/>
</g>
</svg>
