<?xml version="1.0" encoding="utf-8"?>
<!-- Generator: Adobe Illustrator 16.0.0, SVG Export Plug-In . SVG Version: 6.00 Build 0)  -->
<!DOCTYPE svg PUBLIC "-//W3C//DTD SVG 1.1//EN" "http://www.w3.org/Graphics/SVG/1.1/DTD/svg11.dtd">
<svg version="1.1" id="Layer_1" xmlns="http://www.w3.org/2000/svg" xmlns:xlink="http://www.w3.org/1999/xlink" x="0px" y="0px"
	 width="140px" height="140px" viewBox="0 0 140 140" enable-background="new 0 0 140 140" xml:space="preserve">
<g>
	<path fill="none" stroke="#00FFFF" stroke-width="2" stroke-linecap="round" stroke-linejoin="round" stroke-miterlimit="10" d="
		M39.319,74.163c-4.936,0-8.937-4.001-8.937-8.938c0-1.339,0.304-2.605,0.831-3.746c-3.062,1.418-5.191,4.51-5.191,8.106
		c0,4.937,4.002,8.938,8.938,8.938c3.596,0,6.688-2.129,8.105-5.191C41.925,73.86,40.659,74.163,39.319,74.163z"/>
	<g>
		
			<circle fill="none" stroke="#00FF5D" stroke-width="2" stroke-linecap="round" stroke-linejoin="round" stroke-miterlimit="10" cx="106.887" cy="70" r="5.756"/>
		
			<line fill="none" stroke="#00FF5D" stroke-width="2" stroke-linecap="round" stroke-linejoin="round" stroke-miterlimit="10" x1="106.887" y1="61.999" x2="106.887" y2="58.91"/>
		
			<line fill="none" stroke="#00FF5D" stroke-width="2" stroke-linecap="round" stroke-linejoin="round" stroke-miterlimit="10" x1="112.545" y1="64.342" x2="114.729" y2="62.158"/>
		
			<line fill="none" stroke="#00FF5D" stroke-width="2" stroke-linecap="round" stroke-linejoin="round" stroke-miterlimit="10" x1="114.889" y1="70" x2="117.977" y2="70"/>
		
			<line fill="none" stroke="#00FF5D" stroke-width="2" stroke-linecap="round" stroke-linejoin="round" stroke-miterlimit="10" x1="112.545" y1="75.658" x2="114.729" y2="77.842"/>
		
			<line fill="none" stroke="#00FF5D" stroke-width="2" stroke-linecap="round" stroke-linejoin="round" stroke-miterlimit="10" x1="106.888" y1="78.002" x2="106.888" y2="81.09"/>
		
			<line fill="none" stroke="#00FF5D" stroke-width="2" stroke-linecap="round" stroke-linejoin="round" stroke-miterlimit="10" x1="101.229" y1="75.658" x2="99.046" y2="77.842"/>
		
			<line fill="none" stroke="#00FF5D" stroke-width="2" stroke-linecap="round" stroke-linejoin="round" stroke-miterlimit="10" x1="98.885" y1="70" x2="95.797" y2="70.001"/>
		
			<line fill="none" stroke="#00FF5D" stroke-width="2" stroke-linecap="round" stroke-linejoin="round" stroke-miterlimit="10" x1="101.229" y1="64.342" x2="99.045" y2="62.159"/>
	</g>
	<g>
		
			<line fill="none" stroke="#02454E" stroke-width="2" stroke-linecap="round" stroke-linejoin="round" stroke-miterlimit="10" x1="85.95" y1="53.943" x2="106.188" y2="33.705"/>
		
			<line fill="none" stroke="#02454E" stroke-width="2" stroke-linecap="round" stroke-linejoin="round" stroke-miterlimit="10" x1="85.702" y1="86.019" x2="105.94" y2="106.256"/>
		
			<line fill="none" stroke="#02454E" stroke-width="2" stroke-linecap="round" stroke-linejoin="round" stroke-miterlimit="10" x1="53.627" y1="85.77" x2="33.389" y2="106.008"/>
		
			<line fill="none" stroke="#02454E" stroke-width="2" stroke-linecap="round" stroke-linejoin="round" stroke-miterlimit="10" x1="53.875" y1="53.695" x2="33.638" y2="33.457"/>
		<path fill="none" stroke="#02454E" stroke-width="2" stroke-linecap="round" stroke-linejoin="round" stroke-miterlimit="10" d="
			M121.357,70c0,28.364-22.993,51.357-51.357,51.357S18.643,98.364,18.643,70S41.636,18.643,70,18.643S121.357,41.636,121.357,70z
			 M70,47.264c-12.557,0-22.736,10.18-22.736,22.736S57.443,92.737,70,92.737S92.737,82.557,92.737,70S82.557,47.264,70,47.264z"/>
	</g>
</g>
</svg>
