<?xml version="1.0" encoding="utf-8"?>
<!-- Generator: Adobe Illustrator 16.0.0, SVG Export Plug-In . SVG Version: 6.00 Build 0)  -->
<!DOCTYPE svg PUBLIC "-//W3C//DTD SVG 1.1//EN" "http://www.w3.org/Graphics/SVG/1.1/DTD/svg11.dtd">
<svg version="1.1" id="Layer_1" xmlns="http://www.w3.org/2000/svg" xmlns:xlink="http://www.w3.org/1999/xlink" x="0px" y="0px"
	 width="140px" height="140px" viewBox="0 0 140 140" enable-background="new 0 0 140 140" xml:space="preserve">
<g>
	<g>
		<g>
			
				<line fill="none" stroke="#02454E" stroke-width="2" stroke-linecap="round" stroke-linejoin="round" stroke-miterlimit="10" x1="96.34" y1="40.352" x2="101.172" y2="35.52"/>
			
				<line fill="none" stroke="#02454E" stroke-width="2" stroke-linecap="round" stroke-linejoin="round" stroke-miterlimit="10" x1="43.66" y1="93.031" x2="38.828" y2="97.863"/>
			
				<line fill="none" stroke="#02454E" stroke-width="2" stroke-linecap="round" stroke-linejoin="round" stroke-miterlimit="10" x1="43.66" y1="40.352" x2="38.828" y2="35.52"/>
		</g>
		<g>
			
				<line fill="none" stroke="#02454E" stroke-width="2" stroke-linecap="round" stroke-linejoin="round" stroke-miterlimit="10" x1="60.359" y1="30.71" x2="58.591" y2="24.109"/>
			
				<line fill="none" stroke="#02454E" stroke-width="2" stroke-linecap="round" stroke-linejoin="round" stroke-miterlimit="10" x1="88.625" y1="34.432" x2="92.042" y2="28.514"/>
			
				<line fill="none" stroke="#02454E" stroke-width="2" stroke-linecap="round" stroke-linejoin="round" stroke-miterlimit="10" x1="105.981" y1="57.05" x2="112.582" y2="55.281"/>
			
				<line fill="none" stroke="#02454E" stroke-width="2" stroke-linecap="round" stroke-linejoin="round" stroke-miterlimit="10" x1="51.375" y1="98.951" x2="47.958" y2="104.869"/>
			
				<line fill="none" stroke="#02454E" stroke-width="2" stroke-linecap="round" stroke-linejoin="round" stroke-miterlimit="10" x1="34.02" y1="76.332" x2="27.419" y2="78.102"/>
			
				<line fill="none" stroke="#02454E" stroke-width="2" stroke-linecap="round" stroke-linejoin="round" stroke-miterlimit="10" x1="37.74" y1="48.066" x2="31.823" y2="44.649"/>
		</g>
		<g>
			
				<line fill="none" stroke="#02454E" stroke-width="2" stroke-linecap="round" stroke-linejoin="round" stroke-miterlimit="10" x1="51.375" y1="34.431" x2="47.959" y2="28.513"/>
			
				<line fill="none" stroke="#02454E" stroke-width="2" stroke-linecap="round" stroke-linejoin="round" stroke-miterlimit="10" x1="79.642" y1="30.71" x2="81.41" y2="24.109"/>
			
				<line fill="none" stroke="#02454E" stroke-width="2" stroke-linecap="round" stroke-linejoin="round" stroke-miterlimit="10" x1="102.26" y1="48.066" x2="108.179" y2="44.648"/>
			
				<line fill="none" stroke="#02454E" stroke-width="2" stroke-linecap="round" stroke-linejoin="round" stroke-miterlimit="10" x1="60.359" y1="102.672" x2="58.591" y2="109.273"/>
			
				<line fill="none" stroke="#02454E" stroke-width="2" stroke-linecap="round" stroke-linejoin="round" stroke-miterlimit="10" x1="37.741" y1="85.315" x2="31.823" y2="88.733"/>
			
				<line fill="none" stroke="#02454E" stroke-width="2" stroke-linecap="round" stroke-linejoin="round" stroke-miterlimit="10" x1="34.02" y1="57.05" x2="27.419" y2="55.281"/>
		</g>
	</g>
	<g>
		
			<line fill="none" stroke="#00FFFF" stroke-width="2" stroke-linecap="round" stroke-linejoin="round" stroke-miterlimit="10" x1="36.167" y1="66.691" x2="24.5" y2="66.691"/>
		
			<line fill="none" stroke="#00FFFF" stroke-width="2" stroke-linecap="round" stroke-linejoin="round" stroke-miterlimit="10" x1="115.5" y1="66.691" x2="103.833" y2="66.691"/>
	</g>
	<g>
		
			<line fill="none" stroke="#00FF5D" stroke-width="2" stroke-linecap="round" stroke-linejoin="round" stroke-miterlimit="10" x1="70" y1="100.524" x2="70" y2="112.191"/>
		
			<line fill="none" stroke="#00FF5D" stroke-width="2" stroke-linecap="round" stroke-linejoin="round" stroke-miterlimit="10" x1="70" y1="21.191" x2="70" y2="32.858"/>
	</g>
	<path fill="none" stroke="#02454E" stroke-width="2" stroke-linecap="round" stroke-linejoin="round" stroke-miterlimit="10" d="
		M76.176,116.314c-2.023,0.249-4.085,0.377-6.176,0.377c-27.614,0-50-22.386-50-50s22.386-50,50-50s50,22.386,50,50
		c0,2.232-0.146,4.431-0.43,6.585"/>
	
		<line fill="none" stroke="#02454E" stroke-width="2" stroke-linecap="round" stroke-linejoin="round" stroke-miterlimit="10" x1="70" y1="66.691" x2="70" y2="37.942"/>
	
		<line fill="none" stroke="#02454E" stroke-width="2" stroke-linecap="round" stroke-linejoin="round" stroke-miterlimit="10" x1="70" y1="66.691" x2="85.792" y2="56.092"/>
	
		<polygon fill="none" stroke="#02454E" stroke-width="2" stroke-linecap="round" stroke-linejoin="round" stroke-miterlimit="10" points="
		81.25,73.276 81.25,123.309 87.001,117.558 92.688,123.244 98.375,117.558 104.062,123.244 109.749,117.558 115.5,123.309 
		115.5,73.276 	"/>
	
		<line fill="none" stroke="#02454E" stroke-width="2" stroke-linecap="round" stroke-linejoin="round" stroke-miterlimit="10" x1="85.792" y1="80.691" x2="110.958" y2="80.691"/>
	
		<line fill="none" stroke="#02454E" stroke-width="2" stroke-linecap="round" stroke-linejoin="round" stroke-miterlimit="10" x1="85.792" y1="94.718" x2="110.958" y2="94.718"/>
	
		<line fill="none" stroke="#02454E" stroke-width="2" stroke-linecap="round" stroke-linejoin="round" stroke-miterlimit="10" x1="85.792" y1="99.525" x2="110.958" y2="99.525"/>
	
		<line fill="none" stroke="#02454E" stroke-width="2" stroke-linecap="round" stroke-linejoin="round" stroke-miterlimit="10" x1="85.792" y1="104.333" x2="110.958" y2="104.333"/>
	
		<line fill="none" stroke="#02454E" stroke-width="2" stroke-linecap="round" stroke-linejoin="round" stroke-miterlimit="10" x1="85.792" y1="86.864" x2="100.957" y2="86.864"/>
</g>
</svg>
