<?xml version="1.0" encoding="utf-8"?>
<!-- Generator: Adobe Illustrator 16.0.0, SVG Export Plug-In . SVG Version: 6.00 Build 0)  -->
<!DOCTYPE svg PUBLIC "-//W3C//DTD SVG 1.1//EN" "http://www.w3.org/Graphics/SVG/1.1/DTD/svg11.dtd">
<svg version="1.1" id="Layer_1" xmlns="http://www.w3.org/2000/svg" xmlns:xlink="http://www.w3.org/1999/xlink" x="0px" y="0px"
	 width="140px" height="140px" viewBox="0 0 140 140" enable-background="new 0 0 140 140" xml:space="preserve">
<g>
	<g>
		
			<path fill="#FFFFFF" stroke="#00FFFF" stroke-width="2" stroke-linecap="round" stroke-linejoin="round" stroke-miterlimit="10" d="
			M129.457,44.904c-0.016-0.023-0.043-0.068-0.072-0.109c-1.441-2.059-3.295-3.633-5.557-4.719
			c-1.889-0.908-3.883-1.389-5.967-1.541c-1.357-0.1-2.695-0.027-4.023,0.273c-1.182,0.265-2.328,0.65-3.459,1.08
			c-1.133,0.43-2.26,0.865-3.396,1.276c-0.863,0.31-1.754,0.453-2.662,0.208c-0.625-0.168-1.248-0.365-1.859-0.585
			c-1.229-0.443-2.441-0.937-3.672-1.37c-1.244-0.44-2.527-0.72-3.854-0.729c-1.961-0.014-3.855,0.345-5.668,1.086
			c-3.686,1.515-6.424,4.076-8.295,7.577c-1.316,2.471-1.994,5.128-2.264,7.902c-0.197,2.048-0.152,4.1,0.072,6.147
			c0.197,1.796,0.535,3.567,0.982,5.317c1.602,6.278,4.562,11.848,8.76,16.769c0.951,1.119,2.006,2.132,3.26,2.914
			c0.924,0.572,1.912,0.969,3.006,1.069c0.963,0.086,1.904-0.044,2.836-0.275c1.041-0.26,2.018-0.697,2.998-1.115
			c1.277-0.543,2.582-0.981,3.971-1.138c1.623-0.183,3.227-0.098,4.805,0.349c0.992,0.281,1.934,0.701,2.871,1.11
			c1.283,0.559,2.602,0.963,4.014,1.013c1.293,0.046,2.52-0.201,3.678-0.783c1.314-0.658,2.389-1.614,3.369-2.689
			c0.988-1.084,1.836-2.276,2.688-3.468c1.854-2.588,3.373-5.352,4.506-8.325c0.232-0.605,0.439-1.222,0.646-1.805
			c-5.092-2.526-8.229-6.421-8.615-12.191C122.166,52.372,124.818,48.119,129.457,44.904z M117.756,22.931
			c-0.131,0-0.227-0.006-0.32,0.001c-0.801,0.064-1.586,0.21-2.348,0.457c-4.211,1.365-7.316,4.002-9.174,8.043
			c-0.902,1.969-1.377,4.026-1.139,6.209c0.012,0.121,0.045,0.165,0.17,0.172c1.234,0.062,2.426-0.123,3.592-0.52
			c1.783-0.602,3.361-1.56,4.703-2.87c2.812-2.754,4.404-6.086,4.559-10.056C117.816,23.892,117.771,23.413,117.756,22.931z"/>
		
			<path fill-rule="evenodd" clip-rule="evenodd" fill="#FFFFFF" stroke="#00FFFF" stroke-width="2" stroke-linecap="round" stroke-linejoin="round" stroke-miterlimit="10" d="
			M129.457,44.904c-4.639,3.215-7.291,7.468-6.902,13.247c0.387,5.77,3.523,9.665,8.615,12.191
			c-0.207,0.583-0.414,1.199-0.646,1.805c-1.133,2.974-2.652,5.737-4.506,8.325c-0.852,1.191-1.699,2.384-2.688,3.468
			c-0.98,1.075-2.055,2.031-3.369,2.689c-1.158,0.582-2.385,0.829-3.678,0.783c-1.412-0.05-2.73-0.454-4.014-1.013
			c-0.938-0.409-1.879-0.829-2.871-1.11c-1.578-0.446-3.182-0.531-4.805-0.349c-1.389,0.156-2.693,0.595-3.971,1.138
			c-0.98,0.418-1.957,0.855-2.998,1.115c-0.932,0.231-1.873,0.361-2.836,0.275c-1.094-0.101-2.082-0.497-3.006-1.069
			c-1.254-0.782-2.309-1.795-3.26-2.914c-4.197-4.921-7.158-10.49-8.76-16.769c-0.447-1.75-0.785-3.521-0.982-5.317
			c-0.225-2.047-0.27-4.099-0.072-6.147c0.27-2.774,0.947-5.432,2.264-7.902c1.871-3.501,4.609-6.062,8.295-7.577
			c1.812-0.741,3.707-1.101,5.668-1.086c1.326,0.009,2.609,0.289,3.854,0.729c1.23,0.433,2.443,0.926,3.672,1.37
			c0.611,0.22,1.234,0.417,1.859,0.585c0.908,0.245,1.799,0.102,2.662-0.208c1.137-0.411,2.264-0.846,3.396-1.276
			c1.131-0.429,2.277-0.815,3.459-1.08c1.328-0.3,2.666-0.374,4.023-0.273c2.084,0.152,4.078,0.633,5.967,1.541
			c2.262,1.086,4.115,2.66,5.557,4.719C129.414,44.836,129.441,44.88,129.457,44.904z"/>
		
			<path fill-rule="evenodd" clip-rule="evenodd" fill="#FFFFFF" stroke="#00FFFF" stroke-width="2" stroke-linecap="round" stroke-linejoin="round" stroke-miterlimit="10" d="
			M117.756,22.931c0.016,0.482,0.061,0.961,0.043,1.438c-0.154,3.969-1.746,7.301-4.559,10.056c-1.342,1.31-2.92,2.268-4.703,2.87
			c-1.166,0.396-2.357,0.582-3.592,0.52c-0.125-0.007-0.158-0.051-0.17-0.172c-0.238-2.184,0.236-4.241,1.139-6.209
			c1.857-4.041,4.963-6.678,9.174-8.043c0.762-0.246,1.547-0.393,2.348-0.457C117.529,22.925,117.625,22.931,117.756,22.931z"/>
	</g>
	<g>
		<path fill="none" stroke="#00FF5D" stroke-width="2" stroke-linecap="round" stroke-linejoin="round" stroke-miterlimit="10" d="
			M18.967,46.375c0.025,0,0.049,0,0.074,0c0.002,0,0.008,0,0.012,0c3.316-0.013,34.783,0,39.832,0c0.107,0,0.213,0.004,0.311,0
			c0.248,0.008,0.453-0.038,0.428-0.503c-0.25-4.651-1.955-8.669-5.152-12.056c-1.443-1.526-3.098-2.781-4.932-3.797
			c-0.348-0.192-0.436-0.369-0.199-0.696c0.102-0.14,0.17-0.302,0.256-0.454c0.883-1.592,1.77-3.184,2.648-4.78
			c0.301-0.55,0.146-1.057-0.338-1.147c-0.068-0.012-0.129-0.015-0.184-0.012c-0.387-0.024-0.576,0.268-0.75,0.579
			c-0.953,1.726-1.926,3.445-2.859,5.183c-0.135,0.25-0.252,0.375-0.426,0.392c-0.092-0.008-0.199-0.04-0.328-0.096
			c-2.484-1.052-5.088-1.571-7.779-1.638c-0.211-0.006-0.422-0.008-0.631-0.008c-2.926-0.008-5.758,0.521-8.471,1.663
			c-0.117,0.05-0.217,0.083-0.305,0.091c-0.143-0.016-0.256-0.115-0.363-0.337c-0.314-0.644-0.684-1.256-1.033-1.882
			c-0.641-1.157-1.285-2.313-1.924-3.471c-0.158-0.284-0.359-0.503-0.709-0.476c-0.002,0-0.002,0-0.002,0
			c-0.029,0-0.057-0.002-0.086,0c-0.285,0.023-0.473,0.199-0.562,0.473c-0.102,0.306,0.07,0.544,0.205,0.788
			c0.924,1.67,1.838,3.346,2.785,5.001c0.248,0.43,0.219,0.624-0.236,0.891c-5.939,3.483-9.445,8.536-9.959,15.514
			C18.246,46.163,18.311,46.378,18.967,46.375z M48.557,36.796c0.9,0,1.629,0.73,1.629,1.63c0,0.899-0.729,1.629-1.629,1.629
			s-1.631-0.729-1.631-1.629C46.926,37.526,47.656,36.796,48.557,36.796z M29.418,36.796c0.898,0,1.629,0.73,1.629,1.63
			c0,0.899-0.73,1.629-1.629,1.629c-0.902,0-1.629-0.729-1.629-1.629C27.789,37.526,28.516,36.796,29.418,36.796z"/>
		<path fill="none" stroke="#00FF5D" stroke-width="2" stroke-linecap="round" stroke-linejoin="round" stroke-miterlimit="10" d="
			M16.646,51.875c-0.014-2.625-2.031-4.678-4.574-4.696c-2.566-0.018-4.654,2.05-4.66,4.69c-0.02,6.38-0.01,12.761-0.002,19.141
			c0,0.813,0.186,1.592,0.592,2.304c1.057,1.865,3.168,2.764,5.223,2.229c2.004-0.523,3.408-2.328,3.42-4.463
			c0.014-3.211,0.002-6.423,0.004-9.636C16.648,58.254,16.66,55.063,16.646,51.875z"/>
		<path fill="none" stroke="#00FF5D" stroke-width="2" stroke-linecap="round" stroke-linejoin="round" stroke-miterlimit="10" d="
			M70.568,51.911c0-0.48-0.07-0.951-0.209-1.41c-0.637-2.124-2.795-3.583-4.871-3.295c-2.449,0.338-4.143,2.17-4.156,4.561
			c-0.02,3.212-0.006,6.424-0.008,9.636c0,3.146,0.006,6.294-0.002,9.438c-0.002,0.547,0.043,1.081,0.207,1.605
			c0.67,2.152,2.855,3.543,5.053,3.213c2.299-0.346,3.977-2.279,3.982-4.675C70.58,64.627,70.568,58.269,70.568,51.911z"/>
		<path fill="none" stroke="#00FF5D" stroke-width="2" stroke-linecap="round" stroke-linejoin="round" stroke-miterlimit="10" d="
			M58.826,47.945c-6.6,0.022-13.199,0-19.803,0c-6.602,0-13.201,0-19.801,0c-0.861,0-0.861,0.014-0.861,0.903c0,3.3,0,6.601,0,9.901
			c0,6.297-0.006,12.594,0.002,18.89c0.004,2.704,1.693,4.782,4.295,5.15c1.088,0.153,2.211,0.09,3.318,0.047
			c0.584-0.021,0.713,0.15,0.709,0.718c-0.029,3.214-0.039,6.428-0.004,9.641c0.031,2.779,2.625,4.884,5.357,4.405
			c2.285-0.396,3.859-2.256,3.873-4.625c0.016-3.169,0.014-6.34-0.006-9.51c-0.004-0.469,0.09-0.638,0.6-0.625
			c1.627,0.034,3.258,0.035,4.885-0.001c0.539-0.013,0.686,0.133,0.682,0.677c-0.027,3.171-0.033,6.34-0.006,9.511
			c0.023,2.98,2.625,5.101,5.529,4.553c2.09-0.393,3.684-2.273,3.699-4.437c0.023-3.127,0.008-6.253,0.01-9.381
			c0-0.909,0-0.909,0.941-0.909c0.652,0,1.303,0,1.955,0c3.32,0,5.41-2.079,5.41-5.399c0.002-9.574-0.004-19.149,0.016-28.725
			C59.629,48.09,59.445,47.942,58.826,47.945z"/>
	</g>
	<g>
		<g>
			<path fill="#FFFFFF" d="M33.188,116.068c-8.601,0-15.598-6.876-15.598-15.327c0-6.667,4.347-12.526,10.816-14.581l0.73-0.232
				l-0.034-0.765c-0.022-0.513-0.042-1.022-0.042-1.533c0-17.93,14.849-32.517,33.1-32.517c12.371,0,23.621,6.719,29.36,17.536
				l0.375,0.705l0.771-0.208c2.639-0.715,5.374-1.078,8.131-1.078c16.984,0,30.803,13.68,30.803,30.495
				c0,5.981-1.747,11.771-5.054,16.741c-0.32,0.479-0.859,0.767-1.44,0.767l0,0L33.188,116.068z"/>
		</g>
		<path fill="none" stroke="#02454E" stroke-width="2" stroke-linecap="round" stroke-linejoin="round" stroke-miterlimit="10" d="
			M93.537,83.63c0-17.022-14.049-30.82-31.377-30.82S30.783,66.608,30.783,83.63c0,1.181,0.066,2.338,0.199,3.479"/>
		<path fill="none" stroke="#02454E" stroke-width="2" stroke-linecap="round" stroke-linejoin="round" stroke-miterlimit="10" d="
			M90.986,71.447c3.062-1.096,6.367-1.686,9.811-1.686c16.062,0,29.08,12.894,29.08,28.802c0,5.837-1.752,11.27-4.771,15.812
			l-91.918-0.005c-7.658,0-13.879-6.102-13.879-13.63c0-7.525,6.221-13.632,13.879-13.632"/>
	</g>
</g>
</svg>
