<?xml version="1.0" encoding="utf-8"?>
<!-- Generator: Adobe Illustrator 16.0.0, SVG Export Plug-In . SVG Version: 6.00 Build 0)  -->
<!DOCTYPE svg PUBLIC "-//W3C//DTD SVG 1.1//EN" "http://www.w3.org/Graphics/SVG/1.1/DTD/svg11.dtd">
<svg version="1.1" id="Layer_1" xmlns="http://www.w3.org/2000/svg" xmlns:xlink="http://www.w3.org/1999/xlink" x="0px" y="0px"
	 width="140px" height="140px" viewBox="0 0 140 140" enable-background="new 0 0 140 140" xml:space="preserve">
<g>
	
		<path fill="#FFFFFF" stroke="#02454E" stroke-width="2" stroke-linecap="round" stroke-linejoin="round" stroke-miterlimit="10" d="
		M119.493,58.823l-17.758-1.975l11.177-13.945c1.159-1.178,1.159-3.076,0-4.248l-11.581-11.559c-1.154-1.17-3.07-1.17-4.223,0
		L83.156,38.254l-1.979-17.753c0-1.655-1.347-3.001-3.007-3.001H61.83c-1.66,0-3.007,1.346-3.007,3.001l-1.979,17.752L42.897,27.097
		c-1.163-1.167-3.071-1.167-4.228-0.001l-11.583,11.56c-1.162,1.172-1.16,3.071,0.001,4.248l11.178,13.945L20.509,58.82
		c-1.663,0.008-3.006,1.35-3.009,3.003V78.17c-0.002,1.66,1.346,3.008,3.009,3.004l17.757,1.979L27.087,97.104
		c-1.157,1.162-1.157,3.07,0,4.227l11.58,11.582c1.156,1.16,3.071,1.16,4.225,0l13.952-11.176l1.978,17.754
		c0.007,1.664,1.349,3.006,3.008,3.008L78.17,122.5c1.66,0.002,3.009-1.346,3.004-3.01l1.979-17.754l13.953,11.176
		c1.16,1.158,3.068,1.158,4.226,0l11.581-11.582c1.161-1.154,1.161-3.07,0-4.223l-11.177-13.953l17.758-1.979
		c1.661-0.002,3.005-1.346,3.007-3.006V61.823C122.502,60.17,121.154,58.821,119.493,58.823z"/>
	
		<polygon fill="none" stroke="#00FF5D" stroke-width="2" stroke-linecap="round" stroke-linejoin="round" stroke-miterlimit="10" points="
		78.892,91.484 61.108,91.484 48.519,78.895 48.519,61.096 61.111,48.502 78.889,48.502 91.481,61.096 91.481,78.895 	"/>
	
		<path fill="#FFFFFF" stroke="#00FFFF" stroke-width="2" stroke-linecap="round" stroke-linejoin="round" stroke-miterlimit="10" d="
		M79.368,69.997c0,5.179-4.189,9.37-9.368,9.37s-9.369-4.191-9.369-9.37c0-5.161,4.19-9.351,9.369-9.351
		S79.368,64.836,79.368,69.997z"/>
</g>
</svg>
