<?xml version="1.0" encoding="utf-8"?>
<!-- Generator: Adobe Illustrator 16.0.0, SVG Export Plug-In . SVG Version: 6.00 Build 0)  -->
<!DOCTYPE svg PUBLIC "-//W3C//DTD SVG 1.1//EN" "http://www.w3.org/Graphics/SVG/1.1/DTD/svg11.dtd">
<svg version="1.1" id="Layer_1" xmlns="http://www.w3.org/2000/svg" xmlns:xlink="http://www.w3.org/1999/xlink" x="0px" y="0px"
	 width="140px" height="140px" viewBox="0 0 140 140" enable-background="new 0 0 140 140" xml:space="preserve">
<g>
	<g>
		<g>
			
				<line fill="none" stroke="#00FF5D" stroke-width="2" stroke-linecap="round" stroke-linejoin="round" x1="33.027" y1="68.191" x2="34.905" y2="68.88"/>
			
				<line fill="none" stroke="#00FF5D" stroke-width="2" stroke-linecap="round" stroke-linejoin="round" stroke-dasharray="4.2721,8.5443" x1="42.926" y1="71.823" x2="111.107" y2="96.842"/>
			
				<line fill="none" stroke="#00FF5D" stroke-width="2" stroke-linecap="round" stroke-linejoin="round" x1="115.118" y1="98.313" x2="116.996" y2="99.002"/>
		</g>
	</g>
	<g>
		<g>
			
				<line fill="none" stroke="#00FFFF" stroke-width="2" stroke-linecap="round" stroke-linejoin="round" x1="33.027" y1="68.191" x2="34.787" y2="67.24"/>
			
				<line fill="none" stroke="#00FFFF" stroke-width="2" stroke-linecap="round" stroke-linejoin="round" stroke-dasharray="3.9654,7.9307" x1="41.764" y1="63.469" x2="101.066" y2="31.416"/>
			
				<line fill="none" stroke="#00FFFF" stroke-width="2" stroke-linecap="round" stroke-linejoin="round" x1="104.555" y1="29.53" x2="106.314" y2="28.579"/>
		</g>
	</g>
	<g>
		
			<circle fill="none" stroke="#02454E" stroke-width="2" stroke-linecap="round" stroke-linejoin="round" stroke-miterlimit="10" cx="116.997" cy="99.002" r="12.859"/>
		
			<circle fill="none" stroke="#00FFFF" stroke-width="2" stroke-linecap="round" stroke-linejoin="round" stroke-miterlimit="10" cx="116.997" cy="99.002" r="5.114"/>
	</g>
	
		<circle fill="none" stroke="#00FF5D" stroke-width="2" stroke-linecap="round" stroke-linejoin="round" stroke-miterlimit="10" cx="33.518" cy="67.967" r="17.167"/>
	
		<circle fill="none" stroke="#02454E" stroke-width="2" stroke-linecap="round" stroke-linejoin="round" stroke-miterlimit="10" cx="33.518" cy="67.967" r="6.828"/>
	<g>
		<g>
			<path fill="#FFFFFF" d="M21.261,123.279c-5.578,0-10.116-4.457-10.116-9.937c0-3.762,2.137-7.158,5.575-8.864l0.476-0.235
				l0.071-0.525c1.163-8.562,8.675-15.019,17.472-15.019c2.447,0,4.926,0.516,7.165,1.49l0.899,0.391l0.408-0.891
				c3.932-8.556,12.627-14.084,22.153-14.084c13.396,0,24.296,10.705,24.296,23.863c0,0.562-0.027,1.181-0.085,1.889l-0.068,0.85
				l0.828,0.202c4.817,1.176,8.183,5.402,8.183,10.277c0,5.841-4.837,10.593-10.783,10.593H21.261z"/>
		</g>
		<path fill="none" stroke="#02454E" stroke-width="2" stroke-linecap="round" stroke-linejoin="round" stroke-miterlimit="10" d="
			M41.137,99.469c0-13.141,10.848-23.795,24.228-23.795c13.382,0,24.228,10.654,24.228,23.795c0,0.914-0.052,1.809-0.152,2.693"/>
		<path fill="none" stroke="#02454E" stroke-width="2" stroke-linecap="round" stroke-linejoin="round" stroke-miterlimit="10" d="
			M21.261,103.476c-5.55,0-10.047,4.415-10.047,9.867c0,5.449,4.497,9.868,10.047,9.868h66.474c5.916,0,10.715-4.711,10.715-10.524
			c0-5.812-4.799-10.524-10.715-10.524"/>
		<path fill="none" stroke="#02454E" stroke-width="2" stroke-linecap="round" stroke-linejoin="round" stroke-miterlimit="10" d="
			M17.291,104.027c1.004-8.594,8.433-15.26,17.447-15.26c2.92,0,5.672,0.7,8.094,1.935"/>
	</g>
	
		<circle fill="none" stroke="#02454E" stroke-width="2" stroke-linecap="round" stroke-linejoin="round" stroke-miterlimit="10" cx="106.312" cy="28.58" r="12.859"/>
	
		<circle fill="none" stroke="#00FF5D" stroke-width="2" stroke-linecap="round" stroke-linejoin="round" stroke-miterlimit="10" cx="106.313" cy="28.58" r="5.114"/>
	<g>
		<g>
			<path fill="#FFFFFF" d="M61.34,62.608c-0.145,0-0.278-0.071-0.358-0.19c-1.675-2.52-2.562-5.457-2.562-8.492
				c0-8.534,7.015-15.477,15.637-15.477c1.398,0,2.788,0.184,4.129,0.547l0.771,0.208L79.33,38.5c2.921-5.502,8.646-8.92,14.94-8.92
				c9.284,0,16.838,7.417,16.838,16.533c0,0.261-0.011,0.524-0.021,0.786l-0.03,0.761l0.727,0.231
				c3.186,1.012,5.325,3.895,5.325,7.173c0,4.159-3.446,7.542-7.683,7.542L61.34,62.608z"/>
		</g>
		<path fill="none" stroke="#02454E" stroke-width="2" stroke-linecap="round" stroke-linejoin="round" stroke-miterlimit="10" d="
			M79.188,39.74c-1.602-0.572-3.331-0.881-5.132-0.881c-8.402,0-15.213,6.745-15.213,15.066c0,3.054,0.917,5.896,2.496,8.272
			l48.087-0.002c4.008,0,7.261-3.192,7.261-7.132c0-3.935-3.253-7.131-7.261-7.131"/>
		<path fill="none" stroke="#02454E" stroke-width="2" stroke-linecap="round" stroke-linejoin="round" stroke-miterlimit="10" d="
			M77.855,46.113c0-8.905,7.351-16.123,16.415-16.123s16.415,7.218,16.415,16.123c0,0.618-0.036,1.224-0.105,1.82"/>
	</g>
	<g>
		<g>
			
				<line fill="none" stroke="#00FFFF" stroke-width="2" stroke-linecap="round" stroke-linejoin="round" x1="116.996" y1="99.002" x2="116.696" y2="97.024"/>
			
				<line fill="none" stroke="#00FFFF" stroke-width="2" stroke-linecap="round" stroke-linejoin="round" stroke-dasharray="3.9546,7.9092" x1="115.51" y1="89.205" x2="107.207" y2="34.466"/>
			
				<line fill="none" stroke="#00FFFF" stroke-width="2" stroke-linecap="round" stroke-linejoin="round" x1="106.614" y1="30.557" x2="106.314" y2="28.579"/>
		</g>
	</g>
</g>
</svg>
