<?xml version="1.0" encoding="utf-8"?>
<!-- Generator: Adobe Illustrator 16.0.0, SVG Export Plug-In . SVG Version: 6.00 Build 0)  -->
<!DOCTYPE svg PUBLIC "-//W3C//DTD SVG 1.1//EN" "http://www.w3.org/Graphics/SVG/1.1/DTD/svg11.dtd">
<svg version="1.1" id="Layer_1" xmlns="http://www.w3.org/2000/svg" xmlns:xlink="http://www.w3.org/1999/xlink" x="0px" y="0px"
	 width="140px" height="140px" viewBox="0 0 140 140" enable-background="new 0 0 140 140" xml:space="preserve">
<g>
	<g>
		<path fill="none" stroke="#02454E" stroke-width="2" stroke-linecap="round" stroke-linejoin="round" stroke-miterlimit="10" d="
			M74.167,63.956c6.171-8.035,18.785-21.234,35.063-21.234c15.065,0,27.277,12.213,27.277,27.278s-12.212,27.278-27.277,27.278
			C85.828,97.278,70,70,70,70S54.172,42.722,30.77,42.722c-15.065,0-27.277,12.213-27.277,27.277
			c0,15.065,12.212,27.279,27.277,27.279c16.221-0.001,28.804-13.106,34.997-21.149"/>
	</g>
	
		<polygon fill="none" stroke="#00FF5D" stroke-width="2" stroke-linecap="round" stroke-linejoin="round" stroke-miterlimit="10" points="
		51.079,32.261 69.999,51.181 88.919,32.261 79.926,32.261 79.926,14.676 60.073,14.676 60.073,32.261 	"/>
	
		<polygon fill="none" stroke="#00FFFF" stroke-width="2" stroke-linecap="round" stroke-linejoin="round" stroke-miterlimit="10" points="
		88.921,107.739 70.001,88.818 51.081,107.739 60.074,107.739 60.074,125.324 79.927,125.324 79.927,107.739 	"/>
</g>
</svg>
