<?xml version="1.0" encoding="iso-8859-1"?>
<!-- Generator: Adobe Illustrator 16.0.0, SVG Export Plug-In . SVG Version: 6.00 Build 0)  -->
<!DOCTYPE svg PUBLIC "-//W3C//DTD SVG 1.1//EN" "http://www.w3.org/Graphics/SVG/1.1/DTD/svg11.dtd">
<svg version="1.1" id="Layer_1" xmlns="http://www.w3.org/2000/svg" xmlns:xlink="http://www.w3.org/1999/xlink" x="0px" y="0px"
	 width="240px" height="240px" viewBox="0 0 240 240" style="enable-background:new 0 0 240 240;" xml:space="preserve">
<circle style="fill:#FFFFFF;" cx="120" cy="120" r="120"/>
<g>
	<g>
		<path style="fill:#FFFFFF;" d="M24.126,210.377c-10.763,0-19.519-8.607-19.519-19.187c0-8.833,6.092-16.489,14.813-18.619
			l0.827-0.202l-0.067-0.849c-0.103-1.287-0.15-2.351-0.15-3.347c0-23.323,19.312-42.298,43.05-42.298
			c16.878,0,32.284,9.797,39.251,24.958l0.409,0.891l0.898-0.392c3.987-1.736,8.404-2.654,12.772-2.654
			c15.689,0,29.085,11.518,31.16,26.791l0.071,0.525l0.476,0.235c6.241,3.099,10.119,9.268,10.119,16.099
			c0,9.951-8.234,18.048-18.356,18.048H24.126z"/>
	</g>
	<path style="fill:none;stroke:#02454E;stroke-width:4;stroke-linecap:round;stroke-linejoin:round;stroke-miterlimit:10;" d="
		M105.27,168.174c0-22.884-18.891-41.438-42.189-41.438c-23.302,0-42.189,18.554-42.189,41.438c0,1.588,0.091,3.148,0.266,4.69"/>
	<path style="fill:none;stroke:#02454E;stroke-width:4;stroke-linecap:round;stroke-linejoin:round;stroke-miterlimit:10;" d="
		M139.881,175.147c9.662,0,17.496,7.69,17.496,17.182c0,9.49-7.834,17.188-17.496,17.188H24.126
		c-10.304,0-18.658-8.206-18.658-18.326c0-10.122,8.354-18.326,18.658-18.326"/>
	<path style="fill:none;stroke:#02454E;stroke-width:4;stroke-linecap:round;stroke-linejoin:round;stroke-miterlimit:10;" d="
		M146.795,176.108c-1.75-14.961-14.686-26.569-30.384-26.569c-5.084,0-9.877,1.217-14.093,3.367"/>
</g>
<g>
	<g>
		<path style="fill:#FFFFFF;" d="M130.109,190.12c-0.562,0-1.084-0.278-1.396-0.744c-3.234-4.864-4.944-10.53-4.944-16.385
			c0-16.457,13.524-29.846,30.148-29.846c2.696,0,5.375,0.354,7.959,1.055l0.771,0.209l0.375-0.705
			c5.617-10.587,16.629-17.164,28.737-17.164c17.864,0,32.398,14.277,32.398,31.826c0,0.499-0.021,1.001-0.042,1.502l-0.032,0.764
			l0.729,0.232c6.328,2.011,10.58,7.741,10.58,14.26c0,8.267-6.844,14.992-15.256,14.992L130.109,190.12z"/>
	</g>
	<path style="fill:none;stroke:#02454E;stroke-width:4;stroke-linecap:round;stroke-linejoin:round;stroke-miterlimit:10;" d="
		M161.029,158.366c0-16.672,13.76-30.186,30.73-30.186s30.732,13.514,30.732,30.186c0,1.156-0.066,2.291-0.197,3.408"/>
	<path style="fill:none;stroke:#02454E;stroke-width:4;stroke-linecap:round;stroke-linejoin:round;stroke-miterlimit:10;" d="
		M163.525,146.435c-2.998-1.072-6.236-1.65-9.607-1.65c-15.73,0-28.482,12.629-28.482,28.207c0,5.719,1.717,11.039,4.674,15.488
		l90.027-0.004c7.502,0,13.592-5.977,13.592-13.352c0-7.367-6.09-13.35-13.592-13.35"/>
</g>
<g>
	<g>
		<path style="fill:#02454E;" d="M212.699,111.761l1.637,5.151l4.719-4.42l0.541,5.884l3.88,5.315c0,0-2.862,6.328-3.856,6.328
			c-0.03,0-0.06-0.007-0.086-0.019c-0.037-0.017-0.082-0.025-0.132-0.025c-0.897,0-3.751,2.605-5.297,4.017
			c-5.489-4.865-12.622-7.969-20.471-8.397c0.21-1.768,0.419-3.472,0.505-3.981c0.198-1.179,5.436-1.648,5.436-1.648l4.317-5.111
			l5.787-2.361L212.699,111.761 M212.701,107.76c-0.312,0-0.628,0.037-0.943,0.113l-3.021,0.731
			c-0.194,0.047-0.385,0.108-0.569,0.185l-5.787,2.361c-0.599,0.243-1.128,0.629-1.545,1.122l-3.28,3.884
			c-2.799,0.365-6.782,1.348-7.361,4.794c-0.058,0.342-0.171,1.127-0.532,4.173c-0.131,1.098,0.199,2.199,0.91,3.046
			c0.711,0.846,1.74,1.359,2.844,1.42c6.659,0.363,13.064,2.99,18.035,7.396c0.758,0.672,1.706,1.007,2.653,1.007
			c0.967,0,1.934-0.349,2.696-1.046c0.662-0.604,2.48-2.264,3.466-2.972c2.66-0.381,4.388-3.184,6.854-8.635
			c0.594-1.312,0.436-2.843-0.414-4.007l-3.229-4.423l-0.439-4.784c-0.14-1.521-1.134-2.83-2.562-3.373
			c-0.462-0.176-0.943-0.261-1.42-0.261c-0.999,0-1.981,0.374-2.735,1.081l-0.172,0.16
			C215.432,108.513,214.114,107.76,212.701,107.76L212.701,107.76z"/>
	</g>
	<g>
		<path style="fill:#02454E;" d="M175.695,38.722l26.077,3.697l23.78,4.147l-2.078,3.476l-2.602,6.468l-2.786,1.684l-2.765-7.525
			l-10.146,0.995l5.779,7.291l-1.215,10.202l-9.293-1.814l5.344,8.823l-3.317,6.76l-4.152,3.237l3.462,5.053l-5.804,8.014
			c0,0-8.146-14.789-8.344-15.168c-0.193-0.372-3.682-3.902-4.202-3.902c-0.01,0-0.019,0.001-0.026,0.004
			c-0.415,0.138-7.185,7.46-7.185,7.46l-1.073,4.536l-3.624-1.496l-2.518-10.392L158.82,77.01l-6.011-2.847l4.209,8.071
			l-7.737-0.829l-6.214-11.952l-5.53-0.919l2.072-4.538l0.691-4.145l-9.396,2.35l-2.769,4.009l-5.078-3.556l-7.766,4.104
			c0,0-1.99,1.093-3.634,1.093c-1.614,0-2.893-1.055-1.616-5.237c0.18-0.59,12.406-7.37,12.406-7.37l8.917-2.135l2.164-4.449
			l-5.915-4.6l7.711-2.447l10.778,2.997c0,0,13.092-2.437,13.785-2.718C160.583,41.61,175.695,38.722,175.695,38.722
			 M175.695,34.722c-0.252,0-0.503,0.023-0.751,0.071c-12.863,2.459-15.492,3.056-16.256,3.286
			c-0.886,0.236-6.824,1.386-12.405,2.429l-9.886-2.748c-0.351-0.098-0.711-0.146-1.071-0.146c-0.408,0-0.816,0.062-1.21,0.188
			l-7.711,2.447c-1.416,0.449-2.466,1.646-2.728,3.109c-0.262,1.462,0.31,2.949,1.482,3.86l3.209,2.496l-6.852,1.641
			c-0.352,0.084-0.691,0.216-1.008,0.392c-13.642,7.564-13.754,7.934-14.293,9.702c-0.393,1.286-1.588,5.203,0.528,8.062
			c1.118,1.51,2.863,2.342,4.914,2.342c2.485,0,4.966-1.265,5.524-1.567l5.583-2.951l3.076,2.153
			c0.677,0.475,1.479,0.724,2.294,0.724c0.235,0,0.473-0.021,0.707-0.063c1.049-0.188,1.979-0.787,2.584-1.663l1.912-2.768
			l1.228-0.308l-0.669,1.465c-0.518,1.132-0.478,2.44,0.107,3.54c0.584,1.099,1.647,1.863,2.876,2.067l3.559,0.591l5.292,10.179
			c0.618,1.189,1.79,1.989,3.123,2.133l7.737,0.829c0.143,0.015,0.285,0.022,0.427,0.022c1.312,0,2.554-0.646,3.304-1.747
			c0.524-0.769,0.755-1.681,0.683-2.578l4.644,1.486l1.988,8.208c0.302,1.243,1.179,2.268,2.361,2.756l3.624,1.496
			c0.49,0.202,1.009,0.303,1.526,0.303c0.627,0,1.253-0.147,1.824-0.44c1.042-0.534,1.799-1.498,2.068-2.639l0.831-3.511
			c1.287-1.387,2.644-2.83,3.747-3.987c0.271,0.274,0.51,0.523,0.673,0.704c1.071,1.961,5.965,10.846,8.183,14.873
			c0.661,1.2,1.891,1.979,3.258,2.062c0.082,0.005,0.165,0.008,0.247,0.008c1.277,0,2.483-0.611,3.238-1.653l5.804-8.014
			c0.991-1.369,1.016-3.213,0.061-4.607l-1.336-1.95l1.186-0.925c0.479-0.372,0.865-0.849,1.132-1.392l3.317-6.76
			c0.601-1.224,0.536-2.669-0.169-3.835l-0.663-1.094l0.424,0.083c0.255,0.05,0.511,0.074,0.767,0.074
			c0.84,0,1.666-0.265,2.355-0.768c0.899-0.655,1.485-1.654,1.616-2.76l1.09-9.153c0.476,0.685,1.158,1.211,1.96,1.492
			c0.431,0.151,0.879,0.226,1.325,0.226c0.721,0,1.438-0.195,2.068-0.576l2.786-1.684c0.742-0.449,1.319-1.127,1.643-1.931
			l2.484-6.178l1.918-3.206c0.676-1.131,0.752-2.521,0.203-3.719s-1.652-2.048-2.949-2.274l-23.78-4.147
			c-0.042-0.008-0.084-0.014-0.126-0.02l-26.077-3.697C176.07,34.734,175.883,34.722,175.695,34.722L175.695,34.722z"/>
	</g>
	<g>
		<path style="fill:#02454E;" d="M120.604,74.81l16.282,6.101l5.447,9.58l9.877,5.948l-5.996,9.036l-2.133,12.529l-4.216,5.551
			l-6.571,11.377l-5.645-1.252c0,0-2.794-7.26-3.043-8.575s-1.471-14.079-2.243-16.069c-0.771-1.991-2.282-6.462-3.025-7.263
			c-0.247-0.267-1.327-0.355-2.676-0.355c-2.697,0-6.468,0.355-6.797,0.355c-0.494,0-8.453-5.843-8.453-5.843v-8.941l8.453-10.956
			L120.604,74.81 M120.604,70.81c-0.151,0-0.302,0.009-0.452,0.025l-10.738,1.223c-1.075,0.123-2.055,0.675-2.715,1.531
			l-8.453,10.956c-0.54,0.7-0.833,1.56-0.833,2.443v8.941c0,1.273,0.606,2.471,1.633,3.225c9.016,6.618,9.434,6.618,10.82,6.618
			c0.236,0,0.472-0.018,1.17-0.07c1.32-0.1,3.778-0.285,5.627-0.285c0.019,0,0.038,0,0.057,0c0.435,1.063,0.957,2.485,1.264,3.317
			c0.236,0.644,0.453,1.232,0.633,1.698c0.425,1.408,1.228,8.452,1.571,11.471c0.269,2.362,0.392,3.429,0.49,3.945
			c0.274,1.453,2.147,6.431,3.239,9.268c0.481,1.251,1.559,2.179,2.867,2.469l5.645,1.252c0.289,0.063,0.579,0.095,0.867,0.095
			c1.406,0,2.737-0.744,3.463-1.999l6.445-11.159l4.063-5.351c0.39-0.513,0.649-1.112,0.758-1.748l1.99-11.694l5.528-8.33
			c0.604-0.909,0.809-2.025,0.569-3.091c-0.24-1.064-0.904-1.984-1.839-2.548l-8.98-5.408l-4.93-8.671
			c-0.463-0.813-1.197-1.439-2.074-1.769l-16.282-6.101C121.558,70.896,121.082,70.81,120.604,70.81L120.604,70.81z"/>
	</g>
	<g>
		<path style="fill:#02454E;" d="M62.44,94.574l6.37,1.609l6.967,2.333l4.825,6.707l9.475,4.422l-1.708,4.185
			c0,0-1.725,7.047-1.863,7.478c-0.14,0.431-5.903,4.289-5.903,4.289l-1.312,2.324c-4.311-1.685-8.954-2.716-13.805-2.974
			l-0.346-3.22l-4.776-4.422l-4.619-8.979l1.94-8.907L62.44,94.574 M62.44,90.574c-1.061,0-2.093,0.422-2.854,1.198l-4.756,4.845
			c-0.528,0.537-0.894,1.214-1.054,1.95l-1.94,8.907c-0.197,0.907-0.073,1.855,0.352,2.682l4.619,8.979
			c0.213,0.414,0.497,0.788,0.839,1.105l3.677,3.403l0.186,1.729c0.21,1.952,1.805,3.464,3.766,3.567
			c4.331,0.23,8.557,1.141,12.561,2.705c0.477,0.187,0.969,0.275,1.455,0.275c1.406,0,2.756-0.745,3.484-2.034l0.846-1.499
			c6.137-4.134,6.284-4.591,6.691-5.848c0.052-0.16,0.182-0.563,1.874-7.473l1.596-3.911c0.807-1.975-0.079-4.234-2.012-5.137
			l-8.528-3.98l-4.216-5.859c-0.49-0.681-1.182-1.19-1.977-1.457l-6.967-2.333c-0.096-0.032-0.192-0.061-0.291-0.085l-6.37-1.609
			C63.096,90.614,62.767,90.574,62.44,90.574L62.44,90.574z"/>
	</g>
	<g>
		<path style="fill:#02454E;" d="M104.279,35.623l5.39,0.909l-6.586,4.027l-3.639,3.956l-11.397,5.365l-4.215-2.879l3.758-4.99
			l-6.311-4.569l7.258-1.819H104.279 M104.279,31.623H88.537c-0.328,0-0.654,0.04-0.973,0.12l-7.258,1.819
			c-1.508,0.378-2.66,1.596-2.955,3.122c-0.294,1.526,0.322,3.086,1.582,3.998l3.009,2.179l-1.306,1.734
			c-0.657,0.873-0.929,1.978-0.752,3.056c0.178,1.078,0.789,2.037,1.691,2.653l4.215,2.879c0.676,0.462,1.464,0.697,2.256,0.697
			c0.58,0,1.162-0.126,1.703-0.381l11.398-5.365c0.468-0.221,0.89-0.53,1.24-0.911l3.259-3.544l6.108-3.735
			c1.424-0.87,2.157-2.532,1.841-4.171c-0.317-1.639-1.617-2.908-3.263-3.186l-5.39-0.909
			C104.725,31.642,104.502,31.623,104.279,31.623L104.279,31.623z"/>
	</g>
	<g>
		<path style="fill:#02454E;" d="M49.766,43.541c2.318,0,7.888,0.096,11.41,0.096c1.6,0,2.777-0.02,3.037-0.077
			c0.024-0.005,0.047-0.008,0.068-0.008c0.849,0-0.068,4.003-0.068,4.003s-5.757,6.387-5.332,6.387c0.018,0,0.045-0.01,0.082-0.031
			c0.099-0.056,0.226-0.08,0.377-0.08c1.271,0,4.195,1.76,5.146,1.76c0.061,0,0.112-0.007,0.155-0.021
			c0.814-0.276,5.65-6.002,5.65-6.002l5.588,1.562l1.585,6.085l-9.471,2.37l-9.999,9.393l-2.306,7.826l-9.233-2.312l-5.263,4.168
			c0,0,4.191,5.372,4.763,5.372c0.572,0,7.343,7.44,7.343,7.44l-3.179,1.816L39.129,85.43c0,0-6.97-3.749-6.97-4.302
			s-5.059-13.029-5.059-13.029s3.042-9.863,3.383-9.863c0.005,0,0.009,0.002,0.013,0.006c0.006,0.006,0.01,0.008,0.014,0.008
			c0.188,0-1.529-6.411-1.529-6.411L22.625,51.7l-6.217,3.729l-1.961-2.625l9.899-9.139c0,0,10.633-0.107,13.987-0.107
			c0.569,0,0.93,0.004,0.991,0.011c0.229,0.027,2.729,0.05,5.104,0.05c2.013,0,3.937-0.017,4.31-0.06
			C48.853,43.546,49.218,43.541,49.766,43.541 M49.767,39.541L49.767,39.541c-0.854,0-1.17,0.012-1.42,0.038
			c-0.268,0.015-1.363,0.04-3.918,0.04c-2.37,0-4.353-0.021-4.785-0.038c-0.209-0.018-0.485-0.022-1.31-0.022
			c-3.336,0-13.593,0.104-14.027,0.107c-0.992,0.01-1.944,0.389-2.673,1.061l-9.899,9.139c-1.506,1.39-1.718,3.692-0.492,5.333
			l1.961,2.625c0.781,1.045,1.983,1.606,3.208,1.606c0.703,0,1.413-0.185,2.055-0.57l5.227-3.135l2.181,0.047
			c0.181,0.709,0.343,1.361,0.464,1.873c-0.106,0.27-0.201,0.532-0.289,0.776c-0.309,0.856-0.708,2.037-1.187,3.507
			c-0.804,2.468-1.552,4.89-1.583,4.992c-0.271,0.88-0.231,1.828,0.115,2.682c2.049,5.052,4.31,10.767,4.81,12.229
			c0.295,2.191,2.201,3.443,8.807,7.001l10.784,7.71c0.692,0.495,1.509,0.746,2.326,0.746c0.683,0,1.367-0.175,1.984-0.527
			l3.179-1.816c1.054-0.602,1.777-1.649,1.967-2.849c0.189-1.198-0.176-2.419-0.992-3.316c-0.07-0.077-1.741-1.912-3.514-3.78
			c-2.346-2.474-3.636-3.799-4.765-4.443c-0.273-0.283-0.672-0.734-1.129-1.274l0.545-0.432l7.322,1.833
			c0.326,0.082,0.652,0.121,0.974,0.121c1.734,0,3.323-1.135,3.835-2.87l1.999-6.785l8.449-7.937l8.461-2.118
			c1.036-0.259,1.925-0.921,2.47-1.839c0.544-0.919,0.699-2.017,0.431-3.049l-1.585-6.085c-0.359-1.378-1.423-2.461-2.795-2.845
			l-5.588-1.562c-0.355-0.1-0.718-0.147-1.076-0.147c-0.604,0-1.198,0.137-1.738,0.397c0.311-2.72-0.254-3.933-0.949-4.806
			c-0.813-1.021-2.024-1.606-3.322-1.606c-0.221,0-0.442,0.017-0.662,0.051c-0.182,0.011-0.768,0.034-2.444,0.034
			c-1.923,0-4.499-0.029-6.771-0.055C52.52,39.561,50.814,39.541,49.767,39.541L49.767,39.541z"/>
	</g>
</g>
<line style="fill:none;stroke:#00FF5D;stroke-width:4;stroke-linecap:round;stroke-linejoin:round;stroke-miterlimit:10;" x1="38.333" y1="52.834" x2="38.333" y2="52.834"/>
<line style="fill:none;stroke:#00FFFF;stroke-width:4;stroke-linecap:round;stroke-linejoin:round;stroke-miterlimit:10;" x1="51.666" y1="63.5" x2="51.666" y2="63.5"/>
<line style="fill:none;stroke:#00FFFF;stroke-width:4;stroke-linecap:round;stroke-linejoin:round;stroke-miterlimit:10;" x1="33.832" y1="74.81" x2="33.832" y2="74.81"/>
<line style="fill:none;stroke:#00FFFF;stroke-width:4;stroke-linecap:round;stroke-linejoin:round;stroke-miterlimit:10;" x1="93.666" y1="40.167" x2="93.666" y2="40.167"/>
<line style="fill:none;stroke:#00FFFF;stroke-width:4;stroke-linecap:round;stroke-linejoin:round;stroke-miterlimit:10;" x1="112.666" y1="80.5" x2="112.666" y2="80.5"/>
<line style="fill:none;stroke:#00FFFF;stroke-width:4;stroke-linecap:round;stroke-linejoin:round;stroke-miterlimit:10;" x1="75.166" y1="104.871" x2="75.166" y2="104.871"/>
<line style="fill:none;stroke:#00FFFF;stroke-width:4;stroke-linecap:round;stroke-linejoin:round;stroke-miterlimit:10;" x1="69.666" y1="121.5" x2="69.666" y2="121.5"/>
<line style="fill:none;stroke:#00FFFF;stroke-width:4;stroke-linecap:round;stroke-linejoin:round;stroke-miterlimit:10;" x1="140.666" y1="100.333" x2="140.666" y2="100.333"/>
<line style="fill:none;stroke:#00FFFF;stroke-width:4;stroke-linecap:round;stroke-linejoin:round;stroke-miterlimit:10;" x1="215.499" y1="128.181" x2="215.499" y2="128.181"/>
<line style="fill:none;stroke:#00FFFF;stroke-width:4;stroke-linecap:round;stroke-linejoin:round;stroke-miterlimit:10;" x1="157.377" y1="72.167" x2="157.377" y2="72.167"/>
<line style="fill:none;stroke:#00FFFF;stroke-width:4;stroke-linecap:round;stroke-linejoin:round;stroke-miterlimit:10;" x1="132.999" y1="57.667" x2="132.999" y2="57.667"/>
<line style="fill:none;stroke:#00FFFF;stroke-width:4;stroke-linecap:round;stroke-linejoin:round;stroke-miterlimit:10;" x1="115.999" y1="62" x2="115.999" y2="62"/>
<line style="fill:none;stroke:#00FFFF;stroke-width:4;stroke-linecap:round;stroke-linejoin:round;stroke-miterlimit:10;" x1="170.332" y1="46.5" x2="170.332" y2="46.5"/>
<line style="fill:none;stroke:#00FFFF;stroke-width:4;stroke-linecap:round;stroke-linejoin:round;stroke-miterlimit:10;" x1="173.332" y1="64.667" x2="173.332" y2="64.667"/>
<line style="fill:none;stroke:#00FFFF;stroke-width:4;stroke-linecap:round;stroke-linejoin:round;stroke-miterlimit:10;" x1="195.332" y1="80.5" x2="195.332" y2="80.5"/>
<line style="fill:none;stroke:#00FF5D;stroke-width:4;stroke-linecap:round;stroke-linejoin:round;stroke-miterlimit:10;" x1="115.999" y1="95.5" x2="115.999" y2="95.5"/>
<line style="fill:none;stroke:#00FF5D;stroke-width:4;stroke-linecap:round;stroke-linejoin:round;stroke-miterlimit:10;" x1="193.634" y1="52" x2="193.634" y2="52"/>
<line style="fill:none;stroke:#00FF5D;stroke-width:4;stroke-linecap:round;stroke-linejoin:round;stroke-miterlimit:10;" x1="205.999" y1="63.5" x2="205.999" y2="63.5"/>
<line style="fill:none;stroke:#00FF5D;stroke-width:4;stroke-linecap:round;stroke-linejoin:round;stroke-miterlimit:10;" x1="183.999" y1="73.667" x2="183.999" y2="73.667"/>
<line style="fill:none;stroke:#00FF5D;stroke-width:4;stroke-linecap:round;stroke-linejoin:round;stroke-miterlimit:10;" x1="155.332" y1="57.667" x2="155.332" y2="57.667"/>
<line style="fill:none;stroke:#00FF5D;stroke-width:4;stroke-linecap:round;stroke-linejoin:round;stroke-miterlimit:10;" x1="128.999" y1="97.5" x2="128.999" y2="97.5"/>
<line style="fill:none;stroke:#00FF5D;stroke-width:4;stroke-linecap:round;stroke-linejoin:round;stroke-miterlimit:10;" x1="130.832" y1="124.876" x2="130.832" y2="124.876"/>
<line style="fill:none;stroke:#00FF5D;stroke-width:4;stroke-linecap:round;stroke-linejoin:round;stroke-miterlimit:10;" x1="200.999" y1="122.877" x2="200.999" y2="122.877"/>
<line style="fill:none;stroke:#00FF5D;stroke-width:4;stroke-linecap:round;stroke-linejoin:round;stroke-miterlimit:10;" x1="210.999" y1="120" x2="210.999" y2="120"/>
<line style="fill:none;stroke:#00FF5D;stroke-width:4;stroke-linecap:round;stroke-linejoin:round;stroke-miterlimit:10;" x1="81.279" y1="120.833" x2="81.279" y2="120.833"/>
<line style="fill:none;stroke:#00FF5D;stroke-width:4;stroke-linecap:round;stroke-linejoin:round;stroke-miterlimit:10;" x1="60.999" y1="107.833" x2="60.999" y2="107.833"/>
<line style="fill:none;stroke:#00FF5D;stroke-width:4;stroke-linecap:round;stroke-linejoin:round;stroke-miterlimit:10;" x1="137.666" y1="46.5" x2="137.666" y2="46.5"/>
<line style="fill:none;stroke:#00FF5D;stroke-width:4;stroke-linecap:round;stroke-linejoin:round;stroke-miterlimit:10;" x1="139.499" y1="117" x2="139.499" y2="117"/>
<line style="fill:none;stroke:#00FF5D;stroke-width:4;stroke-linecap:round;stroke-linejoin:round;stroke-miterlimit:10;" x1="131.832" y1="84.5" x2="131.832" y2="84.5"/>
</svg>
