<?xml version="1.0" encoding="utf-8"?>
<!-- Generator: Adobe Illustrator 16.0.0, SVG Export Plug-In . SVG Version: 6.00 Build 0)  -->
<!DOCTYPE svg PUBLIC "-//W3C//DTD SVG 1.1//EN" "http://www.w3.org/Graphics/SVG/1.1/DTD/svg11.dtd">
<svg version="1.1" id="Layer_1" xmlns="http://www.w3.org/2000/svg" xmlns:xlink="http://www.w3.org/1999/xlink" x="0px" y="0px"
	 width="24px" height="24px" viewBox="0 0 24 24" enable-background="new 0 0 24 24" xml:space="preserve">
<g>
	<g>
		<path fill="#00FF5D" d="M12,24C5.383,24,0,18.616,0,12S5.383,0,12,0c1.429,0,2.827,0.249,4.159,0.741
			c0.889,0.328,1.342,1.314,1.015,2.202c-0.328,0.889-1.315,1.34-2.201,1.015C14.021,3.606,13.022,3.428,12,3.428
			c-4.727,0-8.572,3.845-8.572,8.571S7.273,20.57,12,20.57c4.726,0,8.571-3.845,8.571-8.571c0-0.946,0.768-1.714,1.714-1.714
			C23.232,10.286,24,11.053,24,12C24,18.616,18.616,24,12,24z"/>
	</g>
	<g>
		<path fill="#00FFFF" d="M11.896,15.635c-0.438,0-0.877-0.168-1.212-0.502l-3.638-3.634c-0.669-0.669-0.67-1.755-0.001-2.425
			S8.8,8.405,9.47,9.073l2.425,2.423l6.062-6.059c0.671-0.669,1.756-0.669,2.425,0c0.669,0.669,0.669,1.755,0,2.424l-7.273,7.271
			C12.772,15.467,12.334,15.635,11.896,15.635z"/>
	</g>
</g>
</svg>
