<?xml version="1.0" encoding="utf-8"?>
<!-- Generator: Adobe Illustrator 16.0.0, SVG Export Plug-In . SVG Version: 6.00 Build 0)  -->
<!DOCTYPE svg PUBLIC "-//W3C//DTD SVG 1.1//EN" "http://www.w3.org/Graphics/SVG/1.1/DTD/svg11.dtd">
<svg version="1.1" id="Layer_1" xmlns="http://www.w3.org/2000/svg" xmlns:xlink="http://www.w3.org/1999/xlink" x="0px" y="0px"
	 width="242px" height="242px" viewBox="0 0 242 242" enable-background="new 0 0 242 242" xml:space="preserve">
<circle fill="#FFFFFF" cx="121" cy="121" r="120"/>
<g>
	<g>
		
			<rect x="115.607" y="29.848" fill="none" stroke="#02454E" stroke-width="4" stroke-linecap="round" stroke-linejoin="round" stroke-miterlimit="10" width="100" height="21.99"/>
		
			<line fill="none" stroke="#02454E" stroke-width="4" stroke-linecap="round" stroke-linejoin="round" stroke-miterlimit="10" x1="123.607" y1="35.098" x2="123.607" y2="45.848"/>
		
			<line fill="none" stroke="#02454E" stroke-width="4" stroke-linecap="round" stroke-linejoin="round" stroke-miterlimit="10" x1="130.232" y1="35.098" x2="130.232" y2="45.848"/>
		
			<line fill="none" stroke="#02454E" stroke-width="4" stroke-linecap="round" stroke-linejoin="round" stroke-miterlimit="10" x1="136.857" y1="35.098" x2="136.857" y2="45.848"/>
		
			<line fill="none" stroke="#02454E" stroke-width="4" stroke-linecap="round" stroke-linejoin="round" stroke-miterlimit="10" x1="143.482" y1="35.098" x2="143.482" y2="45.848"/>
		
			<line fill="none" stroke="#02454E" stroke-width="4" stroke-linecap="round" stroke-linejoin="round" stroke-miterlimit="10" x1="150.107" y1="35.098" x2="150.107" y2="45.848"/>
		
			<line fill="none" stroke="#02454E" stroke-width="4" stroke-linecap="round" stroke-linejoin="round" stroke-miterlimit="10" x1="156.732" y1="35.098" x2="156.732" y2="45.848"/>
		
			<line fill="none" stroke="#02454E" stroke-width="4" stroke-linecap="round" stroke-linejoin="round" stroke-miterlimit="10" x1="163.357" y1="35.098" x2="163.357" y2="45.848"/>
		
			<line fill="none" stroke="#02454E" stroke-width="4" stroke-linecap="round" stroke-linejoin="round" stroke-miterlimit="10" x1="169.982" y1="35.098" x2="169.982" y2="45.848"/>
		
			<line fill="none" stroke="#02454E" stroke-width="4" stroke-linecap="round" stroke-linejoin="round" stroke-miterlimit="10" x1="176.607" y1="35.098" x2="176.607" y2="45.848"/>
		
			<line fill="none" stroke="#00FFFF" stroke-width="4" stroke-linecap="round" stroke-linejoin="round" stroke-miterlimit="10" x1="208.419" y1="36.848" x2="208.419" y2="36.848"/>
		
			<line fill="none" stroke="#00FF5D" stroke-width="4" stroke-linecap="round" stroke-linejoin="round" stroke-miterlimit="10" x1="201.607" y1="36.848" x2="201.607" y2="36.848"/>
		
			<line fill="none" stroke="#02454E" stroke-width="4" stroke-linecap="round" stroke-linejoin="round" stroke-miterlimit="10" x1="208.607" y1="45.848" x2="184.607" y2="45.848"/>
		
			<rect x="115.607" y="51.838" fill="none" stroke="#02454E" stroke-width="4" stroke-linecap="round" stroke-linejoin="round" stroke-miterlimit="10" width="100" height="21.988"/>
		
			<line fill="none" stroke="#02454E" stroke-width="4" stroke-linecap="round" stroke-linejoin="round" stroke-miterlimit="10" x1="123.607" y1="57.088" x2="123.607" y2="67.838"/>
		
			<line fill="none" stroke="#02454E" stroke-width="4" stroke-linecap="round" stroke-linejoin="round" stroke-miterlimit="10" x1="130.232" y1="57.088" x2="130.232" y2="67.838"/>
		
			<line fill="none" stroke="#02454E" stroke-width="4" stroke-linecap="round" stroke-linejoin="round" stroke-miterlimit="10" x1="136.857" y1="57.088" x2="136.857" y2="67.838"/>
		
			<line fill="none" stroke="#02454E" stroke-width="4" stroke-linecap="round" stroke-linejoin="round" stroke-miterlimit="10" x1="143.482" y1="57.088" x2="143.482" y2="67.838"/>
		
			<line fill="none" stroke="#02454E" stroke-width="4" stroke-linecap="round" stroke-linejoin="round" stroke-miterlimit="10" x1="150.107" y1="57.088" x2="150.107" y2="67.838"/>
		
			<line fill="none" stroke="#02454E" stroke-width="4" stroke-linecap="round" stroke-linejoin="round" stroke-miterlimit="10" x1="156.732" y1="57.088" x2="156.732" y2="67.838"/>
		
			<line fill="none" stroke="#02454E" stroke-width="4" stroke-linecap="round" stroke-linejoin="round" stroke-miterlimit="10" x1="163.357" y1="57.088" x2="163.357" y2="67.838"/>
		
			<line fill="none" stroke="#02454E" stroke-width="4" stroke-linecap="round" stroke-linejoin="round" stroke-miterlimit="10" x1="169.982" y1="57.088" x2="169.982" y2="67.838"/>
		
			<line fill="none" stroke="#02454E" stroke-width="4" stroke-linecap="round" stroke-linejoin="round" stroke-miterlimit="10" x1="176.607" y1="57.088" x2="176.607" y2="67.838"/>
		
			<line fill="none" stroke="#00FF5D" stroke-width="4" stroke-linecap="round" stroke-linejoin="round" stroke-miterlimit="10" x1="208.419" y1="58.838" x2="208.419" y2="58.838"/>
		
			<line fill="none" stroke="#00FFFF" stroke-width="4" stroke-linecap="round" stroke-linejoin="round" stroke-miterlimit="10" x1="201.607" y1="58.838" x2="201.607" y2="58.838"/>
		
			<line fill="none" stroke="#02454E" stroke-width="4" stroke-linecap="round" stroke-linejoin="round" stroke-miterlimit="10" x1="208.607" y1="67.838" x2="184.607" y2="67.838"/>
		
			<rect x="115.607" y="73.826" fill="none" stroke="#02454E" stroke-width="4" stroke-linecap="round" stroke-linejoin="round" stroke-miterlimit="10" width="100" height="21.99"/>
		
			<line fill="none" stroke="#02454E" stroke-width="4" stroke-linecap="round" stroke-linejoin="round" stroke-miterlimit="10" x1="123.607" y1="79.076" x2="123.607" y2="89.826"/>
		
			<line fill="none" stroke="#02454E" stroke-width="4" stroke-linecap="round" stroke-linejoin="round" stroke-miterlimit="10" x1="130.232" y1="79.076" x2="130.232" y2="89.826"/>
		
			<line fill="none" stroke="#02454E" stroke-width="4" stroke-linecap="round" stroke-linejoin="round" stroke-miterlimit="10" x1="136.857" y1="79.076" x2="136.857" y2="89.826"/>
		
			<line fill="none" stroke="#02454E" stroke-width="4" stroke-linecap="round" stroke-linejoin="round" stroke-miterlimit="10" x1="143.482" y1="79.076" x2="143.482" y2="89.826"/>
		
			<line fill="none" stroke="#02454E" stroke-width="4" stroke-linecap="round" stroke-linejoin="round" stroke-miterlimit="10" x1="150.107" y1="79.076" x2="150.107" y2="89.826"/>
		
			<line fill="none" stroke="#02454E" stroke-width="4" stroke-linecap="round" stroke-linejoin="round" stroke-miterlimit="10" x1="156.732" y1="79.076" x2="156.732" y2="89.826"/>
		
			<line fill="none" stroke="#02454E" stroke-width="4" stroke-linecap="round" stroke-linejoin="round" stroke-miterlimit="10" x1="163.357" y1="79.076" x2="163.357" y2="89.826"/>
		
			<line fill="none" stroke="#02454E" stroke-width="4" stroke-linecap="round" stroke-linejoin="round" stroke-miterlimit="10" x1="169.982" y1="79.076" x2="169.982" y2="89.826"/>
		
			<line fill="none" stroke="#02454E" stroke-width="4" stroke-linecap="round" stroke-linejoin="round" stroke-miterlimit="10" x1="176.607" y1="79.076" x2="176.607" y2="89.826"/>
		
			<line fill="none" stroke="#00FFFF" stroke-width="4" stroke-linecap="round" stroke-linejoin="round" stroke-miterlimit="10" x1="208.419" y1="80.826" x2="208.419" y2="80.826"/>
		
			<line fill="none" stroke="#00FF5D" stroke-width="4" stroke-linecap="round" stroke-linejoin="round" stroke-miterlimit="10" x1="201.607" y1="80.826" x2="201.607" y2="80.826"/>
		
			<line fill="none" stroke="#02454E" stroke-width="4" stroke-linecap="round" stroke-linejoin="round" stroke-miterlimit="10" x1="208.607" y1="89.826" x2="184.607" y2="89.826"/>
		
			<rect x="115.607" y="95.816" fill="none" stroke="#02454E" stroke-width="4" stroke-linecap="round" stroke-linejoin="round" stroke-miterlimit="10" width="100" height="21.988"/>
		
			<line fill="none" stroke="#02454E" stroke-width="4" stroke-linecap="round" stroke-linejoin="round" stroke-miterlimit="10" x1="123.607" y1="101.066" x2="123.607" y2="111.816"/>
		
			<line fill="none" stroke="#02454E" stroke-width="4" stroke-linecap="round" stroke-linejoin="round" stroke-miterlimit="10" x1="130.232" y1="101.066" x2="130.232" y2="111.816"/>
		
			<line fill="none" stroke="#02454E" stroke-width="4" stroke-linecap="round" stroke-linejoin="round" stroke-miterlimit="10" x1="136.857" y1="101.066" x2="136.857" y2="111.816"/>
		
			<line fill="none" stroke="#02454E" stroke-width="4" stroke-linecap="round" stroke-linejoin="round" stroke-miterlimit="10" x1="143.482" y1="101.066" x2="143.482" y2="111.816"/>
		
			<line fill="none" stroke="#02454E" stroke-width="4" stroke-linecap="round" stroke-linejoin="round" stroke-miterlimit="10" x1="150.107" y1="101.066" x2="150.107" y2="111.816"/>
		
			<line fill="none" stroke="#02454E" stroke-width="4" stroke-linecap="round" stroke-linejoin="round" stroke-miterlimit="10" x1="156.732" y1="101.066" x2="156.732" y2="111.816"/>
		
			<line fill="none" stroke="#02454E" stroke-width="4" stroke-linecap="round" stroke-linejoin="round" stroke-miterlimit="10" x1="163.357" y1="101.066" x2="163.357" y2="111.816"/>
		
			<line fill="none" stroke="#02454E" stroke-width="4" stroke-linecap="round" stroke-linejoin="round" stroke-miterlimit="10" x1="169.982" y1="101.066" x2="169.982" y2="111.816"/>
		
			<line fill="none" stroke="#02454E" stroke-width="4" stroke-linecap="round" stroke-linejoin="round" stroke-miterlimit="10" x1="176.607" y1="101.066" x2="176.607" y2="111.816"/>
		
			<line fill="none" stroke="#00FFFF" stroke-width="4" stroke-linecap="round" stroke-linejoin="round" stroke-miterlimit="10" x1="208.419" y1="102.816" x2="208.419" y2="102.816"/>
		
			<line fill="none" stroke="#00FF5D" stroke-width="4" stroke-linecap="round" stroke-linejoin="round" stroke-miterlimit="10" x1="201.607" y1="102.816" x2="201.607" y2="102.816"/>
		
			<line fill="none" stroke="#02454E" stroke-width="4" stroke-linecap="round" stroke-linejoin="round" stroke-miterlimit="10" x1="208.607" y1="111.816" x2="184.607" y2="111.816"/>
		
			<rect x="115.607" y="117.805" fill="none" stroke="#02454E" stroke-width="4" stroke-linecap="round" stroke-linejoin="round" stroke-miterlimit="10" width="100" height="21.99"/>
		
			<line fill="none" stroke="#02454E" stroke-width="4" stroke-linecap="round" stroke-linejoin="round" stroke-miterlimit="10" x1="123.607" y1="123.055" x2="123.607" y2="133.805"/>
		
			<line fill="none" stroke="#02454E" stroke-width="4" stroke-linecap="round" stroke-linejoin="round" stroke-miterlimit="10" x1="130.232" y1="123.055" x2="130.232" y2="133.805"/>
		
			<line fill="none" stroke="#02454E" stroke-width="4" stroke-linecap="round" stroke-linejoin="round" stroke-miterlimit="10" x1="136.857" y1="123.055" x2="136.857" y2="133.805"/>
		
			<line fill="none" stroke="#02454E" stroke-width="4" stroke-linecap="round" stroke-linejoin="round" stroke-miterlimit="10" x1="143.482" y1="123.055" x2="143.482" y2="133.805"/>
		
			<line fill="none" stroke="#02454E" stroke-width="4" stroke-linecap="round" stroke-linejoin="round" stroke-miterlimit="10" x1="150.107" y1="123.055" x2="150.107" y2="133.805"/>
		
			<line fill="none" stroke="#02454E" stroke-width="4" stroke-linecap="round" stroke-linejoin="round" stroke-miterlimit="10" x1="156.732" y1="123.055" x2="156.732" y2="133.805"/>
		
			<line fill="none" stroke="#02454E" stroke-width="4" stroke-linecap="round" stroke-linejoin="round" stroke-miterlimit="10" x1="163.357" y1="123.055" x2="163.357" y2="133.805"/>
		
			<line fill="none" stroke="#02454E" stroke-width="4" stroke-linecap="round" stroke-linejoin="round" stroke-miterlimit="10" x1="169.982" y1="123.055" x2="169.982" y2="133.805"/>
		
			<line fill="none" stroke="#02454E" stroke-width="4" stroke-linecap="round" stroke-linejoin="round" stroke-miterlimit="10" x1="176.607" y1="123.055" x2="176.607" y2="133.805"/>
		
			<line fill="none" stroke="#00FF5D" stroke-width="4" stroke-linecap="round" stroke-linejoin="round" stroke-miterlimit="10" x1="208.419" y1="124.805" x2="208.419" y2="124.805"/>
		
			<line fill="none" stroke="#00FFFF" stroke-width="4" stroke-linecap="round" stroke-linejoin="round" stroke-miterlimit="10" x1="201.607" y1="124.805" x2="201.607" y2="124.805"/>
		
			<line fill="none" stroke="#02454E" stroke-width="4" stroke-linecap="round" stroke-linejoin="round" stroke-miterlimit="10" x1="208.607" y1="133.805" x2="184.607" y2="133.805"/>
		
			<rect x="115.607" y="139.795" fill="none" stroke="#02454E" stroke-width="4" stroke-linecap="round" stroke-linejoin="round" stroke-miterlimit="10" width="100" height="21.988"/>
		
			<line fill="none" stroke="#02454E" stroke-width="4" stroke-linecap="round" stroke-linejoin="round" stroke-miterlimit="10" x1="123.607" y1="145.045" x2="123.607" y2="155.795"/>
		
			<line fill="none" stroke="#02454E" stroke-width="4" stroke-linecap="round" stroke-linejoin="round" stroke-miterlimit="10" x1="130.232" y1="145.045" x2="130.232" y2="155.795"/>
		
			<line fill="none" stroke="#02454E" stroke-width="4" stroke-linecap="round" stroke-linejoin="round" stroke-miterlimit="10" x1="136.857" y1="145.045" x2="136.857" y2="155.795"/>
		
			<line fill="none" stroke="#02454E" stroke-width="4" stroke-linecap="round" stroke-linejoin="round" stroke-miterlimit="10" x1="143.482" y1="145.045" x2="143.482" y2="155.795"/>
		
			<line fill="none" stroke="#02454E" stroke-width="4" stroke-linecap="round" stroke-linejoin="round" stroke-miterlimit="10" x1="150.107" y1="145.045" x2="150.107" y2="155.795"/>
		
			<line fill="none" stroke="#02454E" stroke-width="4" stroke-linecap="round" stroke-linejoin="round" stroke-miterlimit="10" x1="156.732" y1="145.045" x2="156.732" y2="155.795"/>
		
			<line fill="none" stroke="#02454E" stroke-width="4" stroke-linecap="round" stroke-linejoin="round" stroke-miterlimit="10" x1="163.357" y1="145.045" x2="163.357" y2="155.795"/>
		
			<line fill="none" stroke="#02454E" stroke-width="4" stroke-linecap="round" stroke-linejoin="round" stroke-miterlimit="10" x1="169.982" y1="145.045" x2="169.982" y2="155.795"/>
		
			<line fill="none" stroke="#02454E" stroke-width="4" stroke-linecap="round" stroke-linejoin="round" stroke-miterlimit="10" x1="176.607" y1="145.045" x2="176.607" y2="155.795"/>
		
			<line fill="none" stroke="#00FF5D" stroke-width="4" stroke-linecap="round" stroke-linejoin="round" stroke-miterlimit="10" x1="208.419" y1="146.795" x2="208.419" y2="146.795"/>
		
			<line fill="none" stroke="#00FFFF" stroke-width="4" stroke-linecap="round" stroke-linejoin="round" stroke-miterlimit="10" x1="201.607" y1="146.795" x2="201.607" y2="146.795"/>
		
			<line fill="none" stroke="#02454E" stroke-width="4" stroke-linecap="round" stroke-linejoin="round" stroke-miterlimit="10" x1="208.607" y1="155.795" x2="184.607" y2="155.795"/>
	</g>
	<g>
		
			<rect x="19.814" y="115.328" fill="none" stroke="#02454E" stroke-width="4" stroke-linecap="round" stroke-linejoin="round" stroke-miterlimit="10" width="72.125" height="21.988"/>
		
			<line fill="none" stroke="#02454E" stroke-width="4" stroke-linecap="round" stroke-linejoin="round" stroke-miterlimit="10" x1="26.439" y1="120.578" x2="26.439" y2="131.328"/>
		
			<line fill="none" stroke="#02454E" stroke-width="4" stroke-linecap="round" stroke-linejoin="round" stroke-miterlimit="10" x1="33.064" y1="120.578" x2="33.064" y2="131.328"/>
		
			<line fill="none" stroke="#02454E" stroke-width="4" stroke-linecap="round" stroke-linejoin="round" stroke-miterlimit="10" x1="39.689" y1="120.578" x2="39.689" y2="131.328"/>
		
			<line fill="none" stroke="#02454E" stroke-width="4" stroke-linecap="round" stroke-linejoin="round" stroke-miterlimit="10" x1="46.314" y1="120.578" x2="46.314" y2="131.328"/>
		
			<line fill="none" stroke="#02454E" stroke-width="4" stroke-linecap="round" stroke-linejoin="round" stroke-miterlimit="10" x1="52.939" y1="120.578" x2="52.939" y2="131.328"/>
		
			<line fill="none" stroke="#00FF5D" stroke-width="4" stroke-linecap="round" stroke-linejoin="round" stroke-miterlimit="10" x1="84.752" y1="122.328" x2="84.752" y2="122.328"/>
		
			<line fill="none" stroke="#00FFFF" stroke-width="4" stroke-linecap="round" stroke-linejoin="round" stroke-miterlimit="10" x1="77.939" y1="122.328" x2="77.939" y2="122.328"/>
		
			<line fill="none" stroke="#02454E" stroke-width="4" stroke-linecap="round" stroke-linejoin="round" stroke-miterlimit="10" x1="84.939" y1="131.328" x2="60.939" y2="131.328"/>
		
			<rect x="19.814" y="137.316" fill="none" stroke="#02454E" stroke-width="4" stroke-linecap="round" stroke-linejoin="round" stroke-miterlimit="10" width="72.125" height="21.99"/>
		
			<line fill="none" stroke="#02454E" stroke-width="4" stroke-linecap="round" stroke-linejoin="round" stroke-miterlimit="10" x1="26.439" y1="142.566" x2="26.439" y2="153.316"/>
		
			<line fill="none" stroke="#02454E" stroke-width="4" stroke-linecap="round" stroke-linejoin="round" stroke-miterlimit="10" x1="33.064" y1="142.566" x2="33.064" y2="153.316"/>
		
			<line fill="none" stroke="#02454E" stroke-width="4" stroke-linecap="round" stroke-linejoin="round" stroke-miterlimit="10" x1="39.689" y1="142.566" x2="39.689" y2="153.316"/>
		
			<line fill="none" stroke="#02454E" stroke-width="4" stroke-linecap="round" stroke-linejoin="round" stroke-miterlimit="10" x1="46.314" y1="142.566" x2="46.314" y2="153.316"/>
		
			<line fill="none" stroke="#02454E" stroke-width="4" stroke-linecap="round" stroke-linejoin="round" stroke-miterlimit="10" x1="52.939" y1="142.566" x2="52.939" y2="153.316"/>
		
			<line fill="none" stroke="#00FFFF" stroke-width="4" stroke-linecap="round" stroke-linejoin="round" stroke-miterlimit="10" x1="84.752" y1="144.316" x2="84.752" y2="144.316"/>
		
			<line fill="none" stroke="#00FF5D" stroke-width="4" stroke-linecap="round" stroke-linejoin="round" stroke-miterlimit="10" x1="77.939" y1="144.316" x2="77.939" y2="144.316"/>
		
			<line fill="none" stroke="#02454E" stroke-width="4" stroke-linecap="round" stroke-linejoin="round" stroke-miterlimit="10" x1="84.939" y1="153.316" x2="60.939" y2="153.316"/>
	</g>
	<g>
		<path fill="#FFFFFF" d="M20.863,196.893c-8.412,0-15.256-6.726-15.256-14.992c0-6.519,4.251-12.249,10.578-14.26l0.728-0.231
			l-0.032-0.764c-0.021-0.501-0.04-1.003-0.04-1.503c0-17.549,14.534-31.826,32.398-31.826c12.108,0,23.121,6.577,28.74,17.164
			l0.374,0.705l0.771-0.209c2.585-0.7,5.262-1.055,7.958-1.055c16.625,0,30.15,13.389,30.15,29.846
			c0,5.853-1.711,11.519-4.948,16.388c-0.31,0.463-0.831,0.741-1.392,0.741l0,0L20.863,196.893z"/>
	</g>
	<path fill="none" stroke="#02454E" stroke-width="4" stroke-linecap="round" stroke-linejoin="round" stroke-miterlimit="10" d="
		M77.475,153.211c3-1.072,6.236-1.65,9.607-1.65c15.73,0,28.484,12.629,28.484,28.207c0,5.719-1.719,11.039-4.674,15.488
		l-90.029-0.004c-7.504,0-13.592-5.977-13.592-13.352c0-7.367,6.088-13.35,13.592-13.35"/>
	<g>
		<g>
			
				<line fill="none" stroke="#00FF5D" stroke-width="2" stroke-linecap="round" stroke-linejoin="round" x1="19.607" y1="110.816" x2="21.104" y2="109.49"/>
			
				<line fill="none" stroke="#00FF5D" stroke-width="2" stroke-linecap="round" stroke-linejoin="round" stroke-dasharray="4.0709,8.1418" x1="27.196" y1="104.088" x2="106.398" y2="33.875"/>
			
				<line fill="none" stroke="#00FF5D" stroke-width="2" stroke-linecap="round" stroke-linejoin="round" x1="109.445" y1="31.174" x2="110.941" y2="29.848"/>
		</g>
	</g>
	<g>
		<g>
			
				<line fill="none" stroke="#00FF5D" stroke-width="2" stroke-linecap="round" stroke-linejoin="round" x1="49.238" y1="134.957" x2="51.226" y2="134.736"/>
			
				<line fill="none" stroke="#00FF5D" stroke-width="2" stroke-linecap="round" stroke-linejoin="round" stroke-dasharray="4.1717,8.3434" x1="59.519" y1="133.814" x2="167.319" y2="121.834"/>
			
				<line fill="none" stroke="#00FF5D" stroke-width="2" stroke-linecap="round" stroke-linejoin="round" x1="171.465" y1="121.373" x2="173.453" y2="121.152"/>
		</g>
	</g>
	<g>
		<g>
			
				<line fill="none" stroke="#00FFFF" stroke-width="2" stroke-linecap="round" stroke-linejoin="round" x1="28.506" y1="199.838" x2="30.454" y2="200.29"/>
			
				<line fill="none" stroke="#00FFFF" stroke-width="2" stroke-linecap="round" stroke-linejoin="round" stroke-dasharray="3.7832,7.5664" x1="37.824" y1="202.001" x2="67.306" y2="208.845"/>
			
				<line fill="none" stroke="#00FFFF" stroke-width="2" stroke-linecap="round" stroke-linejoin="round" x1="70.991" y1="209.7" x2="72.939" y2="210.152"/>
		</g>
	</g>
	<g>
		<g>
			
				<line fill="none" stroke="#00FFFF" stroke-width="2" stroke-linecap="round" stroke-linejoin="round" x1="97.816" y1="110.816" x2="99.464" y2="109.684"/>
			
				<line fill="none" stroke="#00FFFF" stroke-width="2" stroke-linecap="round" stroke-linejoin="round" stroke-dasharray="3.9696,7.9392" x1="106.007" y1="105.186" x2="210.688" y2="33.229"/>
			
				<line fill="none" stroke="#00FFFF" stroke-width="2" stroke-linecap="round" stroke-linejoin="round" x1="213.959" y1="30.98" x2="215.607" y2="29.848"/>
		</g>
	</g>
	<path fill="none" stroke="#02454E" stroke-width="4" stroke-linecap="round" stroke-linejoin="round" stroke-miterlimit="10" d="
		M79.971,165.143c0-16.672-13.76-30.186-30.73-30.186c-16.973,0-30.732,13.514-30.732,30.186c0,1.156,0.066,2.291,0.195,3.408"/>
	<g>
		<g>
			<path fill="#FFFFFF" d="M90.883,211.152c-10.923,0-19.811-8.738-19.811-19.479c0-7.374,4.185-14.032,10.921-17.376l0.475-0.235
				l0.071-0.525c2.234-16.458,16.668-28.869,33.574-28.869c4.707,0,9.466,0.989,13.763,2.86l0.899,0.392l0.409-0.892
				c7.501-16.326,24.092-26.876,42.269-26.876c25.562,0,46.357,20.434,46.357,45.551c0,1.065-0.053,2.244-0.161,3.604l-0.067,0.849
				l0.827,0.202c9.411,2.298,15.983,10.56,15.983,20.091c0,11.416-9.448,20.703-21.061,20.703H90.883z"/>
		</g>
		<path fill="none" stroke="#02454E" stroke-width="4" stroke-linecap="round" stroke-linejoin="round" stroke-miterlimit="10" d="
			M128.092,165.703c0-24.604,20.311-44.551,45.361-44.551c25.052,0,45.357,19.947,45.357,44.551c0,1.707-0.098,3.385-0.285,5.043"/>
		<path fill="none" stroke="#02454E" stroke-width="4" stroke-linecap="round" stroke-linejoin="round" stroke-miterlimit="10" d="
			M90.883,173.201c-10.391,0-18.811,8.268-18.811,18.473c0,10.203,8.42,18.479,18.811,18.479h124.449
			c11.078,0,20.061-8.822,20.061-19.703c0-10.883-8.982-19.703-20.061-19.703"/>
		<path fill="none" stroke="#02454E" stroke-width="4" stroke-linecap="round" stroke-linejoin="round" stroke-miterlimit="10" d="
			M83.447,174.234c1.881-16.086,15.789-28.566,32.666-28.566c5.467,0,10.619,1.309,15.154,3.621"/>
	</g>
</g>
</svg>
