<?xml version="1.0" encoding="utf-8"?>
<!-- Generator: Adobe Illustrator 16.0.0, SVG Export Plug-In . SVG Version: 6.00 Build 0)  -->
<!DOCTYPE svg PUBLIC "-//W3C//DTD SVG 1.1//EN" "http://www.w3.org/Graphics/SVG/1.1/DTD/svg11.dtd">
<svg version="1.1" id="Layer_1" xmlns="http://www.w3.org/2000/svg" xmlns:xlink="http://www.w3.org/1999/xlink" x="0px" y="0px"
	 width="242px" height="242px" viewBox="0 0 242 242" enable-background="new 0 0 242 242" xml:space="preserve">
<circle fill="#FFFFFF" cx="121" cy="121" r="120"/>
<g>
	
		<polygon fill="none" stroke="#02454E" stroke-width="4" stroke-linecap="round" stroke-linejoin="round" stroke-miterlimit="10" points="
		178.999,44.777 178.999,36.908 145.082,36.908 140.082,44.777 53.5,44.777 53.5,133.607 188.499,133.607 188.499,44.777 	"/>
	
		<polygon fill="#FFFFFF" stroke="#02454E" stroke-width="4" stroke-linecap="round" stroke-linejoin="round" stroke-miterlimit="10" points="
		188.499,149.506 53.5,149.506 43.5,60.676 198.5,60.676 	"/>
	<g>
		<path fill="none" stroke="#00FF5D" stroke-width="4" stroke-linecap="round" stroke-linejoin="round" stroke-miterlimit="10" d="
			M174.25,73.374v14.644c0,1.104-0.895,2-2,2h-14.643"/>
		<path fill="none" stroke="#00FF5D" stroke-width="4" stroke-linecap="round" stroke-linejoin="round" stroke-miterlimit="10" d="
			M175.034,99.427c0,13.273-10.759,24.034-24.034,24.034c-13.273,0-24.033-10.76-24.033-24.034S137.726,75.393,151,75.393
			c9.775,0,18.188,5.836,21.943,14.214"/>
	</g>
	<g>
		
			<line fill="none" stroke="#00FFFF" stroke-width="4" stroke-linecap="round" stroke-linejoin="round" stroke-miterlimit="10" x1="89.304" y1="85.696" x2="89.304" y2="99.427"/>
		
			<line fill="none" stroke="#00FFFF" stroke-width="4" stroke-linecap="round" stroke-linejoin="round" stroke-miterlimit="10" x1="89.304" y1="99.427" x2="97.232" y2="99.427"/>
		<g>
			
				<line fill="none" stroke="#00FFFF" stroke-width="4" stroke-linecap="round" stroke-linejoin="round" stroke-miterlimit="10" x1="106.474" y1="99.427" x2="106.474" y2="99.427"/>
			
				<line fill="none" stroke="#00FFFF" stroke-width="4" stroke-linecap="round" stroke-linejoin="round" stroke-miterlimit="10" x1="72.134" y1="99.427" x2="72.134" y2="99.427"/>
		</g>
		
			<circle fill="none" stroke="#00FFFF" stroke-width="4" stroke-linecap="round" stroke-linejoin="round" stroke-miterlimit="10" cx="89.304" cy="99.427" r="24.074"/>
	</g>
	<g>
		<g>
			<path fill="#FFFFFF" d="M26.667,204.092c-11.613,0-21.061-9.287-21.061-20.703c0-9.531,6.573-17.793,15.983-20.091l0.827-0.202
				l-0.067-0.849c-0.108-1.36-0.161-2.539-0.161-3.604c0-25.116,20.797-45.55,46.359-45.55c18.175,0,34.766,10.549,42.267,26.875
				l0.409,0.892l0.899-0.392c4.297-1.871,9.056-2.86,13.763-2.86c16.905,0,31.339,12.411,33.576,28.869l0.071,0.525l0.475,0.235
				c6.737,3.344,10.921,10.002,10.921,17.376c0,10.74-8.887,19.479-19.811,19.479H26.667z"/>
		</g>
		<path fill="none" stroke="#02454E" stroke-width="4" stroke-linecap="round" stroke-linejoin="round" stroke-miterlimit="10" d="
			M113.908,158.643c0-24.604-20.311-44.55-45.359-44.55c-25.053,0-45.359,19.947-45.359,44.55c0,1.707,0.098,3.385,0.285,5.043"/>
		<path fill="none" stroke="#02454E" stroke-width="4" stroke-linecap="round" stroke-linejoin="round" stroke-miterlimit="10" d="
			M151.119,166.141c10.389,0,18.811,8.268,18.811,18.473c0,10.203-8.422,18.479-18.811,18.479H26.667
			c-11.077,0-20.061-8.822-20.061-19.703c0-10.883,8.983-19.703,20.061-19.703"/>
		<path fill="none" stroke="#02454E" stroke-width="4" stroke-linecap="round" stroke-linejoin="round" stroke-miterlimit="10" d="
			M158.552,167.174c-1.881-16.086-15.789-28.566-32.666-28.566c-5.467,0-10.619,1.309-15.152,3.621"/>
	</g>
	<g>
		<path fill="#FFFFFF" d="M131.109,189.836c-0.562,0-1.084-0.278-1.396-0.744c-3.234-4.864-4.944-10.53-4.944-16.385
			c0-16.457,13.524-29.846,30.148-29.846c2.697,0,5.375,0.354,7.959,1.055l0.771,0.209l0.374-0.705
			c5.617-10.587,16.629-17.164,28.739-17.164c17.865,0,32.398,14.277,32.398,31.826c0,0.5-0.021,1.002-0.042,1.503l-0.032,0.764
			l0.728,0.231c6.328,2.011,10.58,7.741,10.58,14.26c0,8.267-6.844,14.992-15.256,14.992L131.109,189.836z"/>
	</g>
	<path fill="none" stroke="#02454E" stroke-width="4" stroke-linecap="round" stroke-linejoin="round" stroke-miterlimit="10" d="
		M164.525,146.15c-2.998-1.072-6.236-1.65-9.607-1.65c-15.73,0-28.482,12.629-28.482,28.207c0,5.719,1.717,11.039,4.674,15.488
		l90.028-0.004c7.502,0,13.592-5.977,13.592-13.352c0-7.367-6.09-13.35-13.592-13.35"/>
	<path fill="none" stroke="#02454E" stroke-width="4" stroke-linecap="round" stroke-linejoin="round" stroke-miterlimit="10" d="
		M162.029,158.082c0-16.672,13.761-30.186,30.731-30.186s30.732,13.514,30.732,30.186c0,1.156-0.066,2.291-0.197,3.408"/>
	
		<line fill="none" stroke="#00FF5D" stroke-width="4" stroke-linecap="round" stroke-linejoin="round" stroke-miterlimit="10" x1="61.375" y1="50.872" x2="180.624" y2="50.872"/>
	
		<line fill="none" stroke="#00FFFF" stroke-width="4" stroke-linecap="round" stroke-linejoin="round" stroke-miterlimit="10" x1="59.375" y1="55.772" x2="182.624" y2="55.772"/>
</g>
</svg>
