<?xml version="1.0" encoding="utf-8"?>
<!-- Generator: Adobe Illustrator 16.0.0, SVG Export Plug-In . SVG Version: 6.00 Build 0)  -->
<!DOCTYPE svg PUBLIC "-//W3C//DTD SVG 1.1//EN" "http://www.w3.org/Graphics/SVG/1.1/DTD/svg11.dtd">
<svg version="1.1" id="Layer_1" xmlns="http://www.w3.org/2000/svg" xmlns:xlink="http://www.w3.org/1999/xlink" x="0px" y="0px"
	 width="242px" height="242px" viewBox="0 0 242 242" enable-background="new 0 0 242 242" xml:space="preserve">
<circle fill="#FFFFFF" cx="121" cy="121" r="120"/>
<g>
	<g>
		<g>
			
				<line fill="none" stroke="#00FF5D" stroke-width="2" stroke-linecap="round" stroke-linejoin="round" x1="51.781" y1="117.613" x2="53.658" y2="118.302"/>
			
				<line fill="none" stroke="#00FF5D" stroke-width="2" stroke-linecap="round" stroke-linejoin="round" stroke-dasharray="3.9867,7.9734" x1="61.144" y1="121.049" x2="203.366" y2="173.236"/>
			
				<line fill="none" stroke="#00FF5D" stroke-width="2" stroke-linecap="round" stroke-linejoin="round" x1="207.109" y1="174.609" x2="208.986" y2="175.299"/>
		</g>
	</g>
	<g>
		<g>
			
				<line fill="none" stroke="#00FFFF" stroke-width="2" stroke-linecap="round" stroke-linejoin="round" x1="51.781" y1="117.613" x2="53.54" y2="116.662"/>
			
				<line fill="none" stroke="#00FFFF" stroke-width="2" stroke-linecap="round" stroke-linejoin="round" stroke-dasharray="3.9991,7.9982" x1="60.576" y1="112.859" x2="183.709" y2="46.304"/>
			
				<line fill="none" stroke="#00FFFF" stroke-width="2" stroke-linecap="round" stroke-linejoin="round" x1="187.227" y1="44.402" x2="188.986" y2="43.451"/>
		</g>
	</g>
	<g>
		
			<circle fill="none" stroke="#02454E" stroke-width="4" stroke-linecap="round" stroke-linejoin="round" stroke-miterlimit="10" cx="208.986" cy="175.297" r="24.074"/>
		
			<circle fill="none" stroke="#00FFFF" stroke-width="4" stroke-linecap="round" stroke-linejoin="round" stroke-miterlimit="10" cx="208.986" cy="175.297" r="9.574"/>
	</g>
	
		<circle fill="none" stroke="#00FF5D" stroke-width="4" stroke-linecap="round" stroke-linejoin="round" stroke-miterlimit="10" cx="52.698" cy="117.193" r="32.141"/>
	
		<circle fill="none" stroke="#02454E" stroke-width="4" stroke-linecap="round" stroke-linejoin="round" stroke-miterlimit="10" cx="52.699" cy="117.193" r="12.782"/>
	<g>
		<g>
			<path fill="#FFFFFF" d="M29.75,221.623c-10.924,0-19.811-8.738-19.811-19.479c0-7.374,4.185-14.032,10.922-17.376l0.475-0.235
				l0.071-0.525c2.236-16.458,16.67-28.869,33.575-28.869c4.707,0,9.466,0.989,13.763,2.86l0.899,0.392l0.409-0.892
				c7.501-16.326,24.092-26.876,42.267-26.876c25.562,0,46.359,20.434,46.359,45.551c0,1.065-0.053,2.244-0.161,3.604l-0.067,0.849
				l0.827,0.202c9.411,2.298,15.983,10.56,15.983,20.091c0,11.416-9.448,20.703-21.061,20.703H29.75z"/>
		</g>
		<path fill="none" stroke="#02454E" stroke-width="4" stroke-linecap="round" stroke-linejoin="round" stroke-miterlimit="10" d="
			M66.961,176.174c0-24.604,20.311-44.551,45.359-44.551c25.053,0,45.359,19.947,45.359,44.551c0,1.707-0.098,3.385-0.285,5.043"/>
		<path fill="none" stroke="#02454E" stroke-width="4" stroke-linecap="round" stroke-linejoin="round" stroke-miterlimit="10" d="
			M29.75,183.672c-10.389,0-18.81,8.268-18.81,18.473c0,10.203,8.421,18.479,18.81,18.479h124.451
			c11.077,0,20.061-8.822,20.061-19.703c0-10.883-8.983-19.703-20.061-19.703"/>
		<path fill="none" stroke="#02454E" stroke-width="4" stroke-linecap="round" stroke-linejoin="round" stroke-miterlimit="10" d="
			M22.317,184.705c1.88-16.086,15.789-28.566,32.666-28.566c5.467,0,10.619,1.309,15.152,3.621"/>
	</g>
	
		<circle fill="none" stroke="#02454E" stroke-width="4" stroke-linecap="round" stroke-linejoin="round" stroke-miterlimit="10" cx="188.984" cy="43.453" r="24.075"/>
	
		<circle fill="none" stroke="#00FF5D" stroke-width="4" stroke-linecap="round" stroke-linejoin="round" stroke-miterlimit="10" cx="188.984" cy="43.453" r="9.574"/>
	<g>
		<g>
			<path fill="#FFFFFF" d="M104.787,108.033c-0.562,0-1.084-0.278-1.396-0.744c-3.234-4.864-4.944-10.531-4.944-16.385
				c0-16.457,13.524-29.846,30.148-29.846c2.697,0,5.375,0.355,7.959,1.055l0.771,0.208l0.374-0.705
				c5.617-10.587,16.63-17.164,28.74-17.164c17.863,0,32.396,14.277,32.396,31.826c0,0.5-0.019,1.001-0.04,1.503l-0.032,0.763
				l0.728,0.231c6.327,2.01,10.578,7.741,10.578,14.26c0,8.267-6.844,14.992-15.256,14.992L104.787,108.033z"/>
		</g>
		<path fill="none" stroke="#02454E" stroke-width="4" stroke-linecap="round" stroke-linejoin="round" stroke-miterlimit="10" d="
			M138.203,64.348c-2.998-1.072-6.236-1.65-9.607-1.65c-15.73,0-28.482,12.629-28.482,28.207c0,5.719,1.717,11.039,4.674,15.488
			l90.028-0.004c7.504,0,13.594-5.977,13.594-13.352c0-7.367-6.09-13.35-13.594-13.35"/>
		<path fill="none" stroke="#02454E" stroke-width="4" stroke-linecap="round" stroke-linejoin="round" stroke-miterlimit="10" d="
			M135.707,76.279c0-16.672,13.762-30.186,30.733-30.186c16.971,0,30.732,13.514,30.732,30.186c0,1.156-0.068,2.291-0.197,3.408"/>
	</g>
	<g>
		<g>
			
				<line fill="none" stroke="#00FFFF" stroke-width="2" stroke-linecap="round" stroke-linejoin="round" x1="208.986" y1="175.299" x2="208.687" y2="173.321"/>
			
				<line fill="none" stroke="#00FFFF" stroke-width="2" stroke-linecap="round" stroke-linejoin="round" stroke-dasharray="4.0424,8.0847" x1="207.474" y1="165.328" x2="189.893" y2="49.425"/>
			
				<line fill="none" stroke="#00FFFF" stroke-width="2" stroke-linecap="round" stroke-linejoin="round" x1="189.286" y1="45.429" x2="188.986" y2="43.451"/>
		</g>
	</g>
</g>
</svg>
