<?xml version="1.0" encoding="utf-8"?>
<!-- Generator: Adobe Illustrator 16.0.0, SVG Export Plug-In . SVG Version: 6.00 Build 0)  -->
<!DOCTYPE svg PUBLIC "-//W3C//DTD SVG 1.1//EN" "http://www.w3.org/Graphics/SVG/1.1/DTD/svg11.dtd">
<svg version="1.1" id="Layer_1" xmlns="http://www.w3.org/2000/svg" xmlns:xlink="http://www.w3.org/1999/xlink" x="0px" y="0px"
	 width="242px" height="242px" viewBox="0 0 242 242" enable-background="new 0 0 242 242" xml:space="preserve">
<circle fill="#FFFFFF" cx="121" cy="121" r="120"/>
<g>
	<g>
		<path fill="none" stroke="#00FF5D" stroke-width="4" stroke-linecap="round" stroke-linejoin="round" stroke-miterlimit="10" d="
			M35.571,84.759c0.03,0,0.061,0,0.091,0c0.005,0,0.009,0,0.014,0c3.999-0.017,41.93,0.001,48.019,0c0.127,0,0.256,0.004,0.372,0
			c0.299,0.009,0.546-0.047,0.516-0.607c-0.302-5.606-2.356-10.45-6.212-14.532c-1.738-1.841-3.733-3.354-5.943-4.578
			c-0.42-0.232-0.525-0.445-0.24-0.84c0.121-0.168,0.205-0.363,0.307-0.546c1.065-1.921,2.136-3.838,3.192-5.763
			c0.364-0.663,0.179-1.273-0.406-1.383c-0.08-0.015-0.153-0.018-0.221-0.014c-0.467-0.03-0.695,0.322-0.903,0.697
			c-1.151,2.081-2.322,4.152-3.447,6.248c-0.161,0.302-0.305,0.452-0.513,0.473c-0.111-0.01-0.24-0.048-0.397-0.115
			c-2.992-1.269-6.131-1.894-9.377-1.976c-0.254-0.006-0.508-0.009-0.761-0.009c-3.527-0.009-6.939,0.628-10.21,2.005
			c-0.142,0.061-0.262,0.099-0.368,0.109c-0.173-0.019-0.307-0.139-0.438-0.406c-0.377-0.775-0.825-1.515-1.244-2.269
			c-0.773-1.395-1.549-2.788-2.32-4.184c-0.188-0.342-0.434-0.606-0.855-0.573c-0.001,0.001-0.002,0.001-0.003,0.001
			c-0.033-0.001-0.066-0.003-0.102-0.001c-0.345,0.028-0.569,0.24-0.678,0.569c-0.123,0.369,0.084,0.657,0.247,0.951
			c1.113,2.013,2.214,4.033,3.358,6.028c0.298,0.52,0.262,0.753-0.285,1.073c-7.16,4.199-11.388,10.29-12.008,18.702
			C34.704,84.503,34.782,84.762,35.571,84.759z M71.242,73.211c1.085,0,1.964,0.88,1.964,1.965s-0.879,1.965-1.964,1.965
			s-1.965-0.88-1.965-1.965S70.157,73.211,71.242,73.211z M48.171,73.211c1.084,0,1.965,0.88,1.965,1.965s-0.881,1.965-1.965,1.965
			c-1.086,0-1.965-0.88-1.965-1.965S47.085,73.211,48.171,73.211z"/>
		<path fill="none" stroke="#00FF5D" stroke-width="4" stroke-linecap="round" stroke-linejoin="round" stroke-miterlimit="10" d="
			M32.774,91.387c-0.016-3.164-2.446-5.639-5.515-5.66c-3.093-0.021-5.606,2.472-5.616,5.654c-0.021,7.69-0.01,15.381-0.004,23.071
			c0.001,0.982,0.228,1.919,0.714,2.778c1.274,2.249,3.821,3.332,6.296,2.687c2.418-0.631,4.109-2.807,4.123-5.381
			c0.02-3.871,0.005-7.742,0.006-11.614C32.778,99.078,32.793,95.232,32.774,91.387z"/>
		<path fill="none" stroke="#00FF5D" stroke-width="4" stroke-linecap="round" stroke-linejoin="round" stroke-miterlimit="10" d="
			M97.777,91.431c0-0.579-0.087-1.146-0.253-1.699c-0.768-2.561-3.368-4.319-5.871-3.973c-2.953,0.408-4.993,2.617-5.012,5.499
			c-0.023,3.871-0.006,7.743-0.008,11.614c0,3.793,0.004,7.586-0.003,11.379c-0.001,0.658,0.053,1.303,0.25,1.934
			c0.808,2.594,3.441,4.271,6.088,3.874c2.772-0.417,4.795-2.747,4.802-5.635C97.79,106.76,97.776,99.096,97.777,91.431z"/>
		<path fill="none" stroke="#00FF5D" stroke-width="4" stroke-linecap="round" stroke-linejoin="round" stroke-miterlimit="10" d="
			M83.623,86.651c-7.957,0.026-15.914,0-23.871,0s-15.913-0.001-23.87,0c-1.038,0-1.038,0.017-1.038,1.088
			c-0.001,3.979-0.001,7.957-0.001,11.936c0.001,7.59-0.006,15.181,0.004,22.77c0.004,3.261,2.041,5.765,5.178,6.208
			c1.31,0.186,2.666,0.108,3.997,0.058c0.705-0.026,0.861,0.181,0.855,0.865c-0.034,3.873-0.046,7.747-0.003,11.621
			c0.037,3.35,3.164,5.888,6.459,5.312c2.751-0.48,4.649-2.723,4.665-5.577c0.021-3.821,0.018-7.643-0.007-11.464
			c-0.003-0.565,0.111-0.768,0.724-0.754c1.962,0.042,3.927,0.044,5.889-0.001c0.65-0.015,0.827,0.161,0.821,0.816
			c-0.031,3.821-0.039,7.643-0.007,11.464c0.03,3.593,3.165,6.148,6.666,5.489c2.519-0.475,4.44-2.741,4.459-5.349
			c0.027-3.77,0.01-7.538,0.011-11.308c0-1.097,0-1.097,1.136-1.097c0.785,0,1.57,0,2.355,0c4.006-0.001,6.523-2.507,6.524-6.508
			c0.002-11.542-0.007-23.084,0.018-34.626C84.589,86.827,84.367,86.648,83.623,86.651z"/>
	</g>
	
		<path fill="#FFFFFF" stroke="#02454E" stroke-width="4" stroke-linecap="round" stroke-linejoin="round" stroke-miterlimit="10" d="
		M216.548,99.877l-22.619-2.51l14.218-17.773c1.49-1.493,1.49-3.912-0.002-5.404l-14.73-14.731c-1.491-1.493-3.913-1.493-5.402,0
		L170.24,73.676l-2.514-22.62c0-2.11-1.712-3.821-3.821-3.821h-20.834c-2.109,0-3.821,1.711-3.821,3.821l-2.514,22.619
		l-17.766-14.217c-1.5-1.49-3.914-1.49-5.407-0.002L98.83,74.19c-1.494,1.489-1.492,3.913,0.004,5.404l14.215,17.769l-22.618,2.512
		c-2.112,0.008-3.82,1.715-3.823,3.821v20.836c-0.002,2.109,1.711,3.823,3.823,3.818l22.618,2.513L98.83,148.634
		c-1.489,1.499-1.489,3.913,0,5.406l14.73,14.732c1.493,1.493,3.914,1.493,5.404-0.003l17.771-14.217l2.512,22.62
		c0.007,2.113,1.714,3.82,3.822,3.821l20.835,0.002c2.109,0.002,3.823-1.71,3.818-3.823l2.513-22.618l17.772,14.218
		c1.497,1.49,3.911,1.49,5.405,0l14.732-14.731c1.492-1.491,1.492-3.913-0.002-5.402l-14.217-17.772l22.62-2.513
		c2.11-0.003,3.819-1.712,3.821-3.821v-20.833C220.371,101.589,218.658,99.875,216.548,99.877z"/>
	
		<polygon fill="none" stroke="#00FF5D" stroke-width="4" stroke-linecap="round" stroke-linejoin="round" stroke-miterlimit="10" points="
		161.804,134.187 145.174,134.187 133.417,122.43 133.417,105.803 145.176,94.044 161.801,94.044 173.56,105.803 173.56,122.43 	"/>
	<g>
		<g>
			<path fill="#FFFFFF" d="M50.383,176.247c-8.412,0-15.256-6.726-15.256-14.992c0-6.519,4.252-12.249,10.58-14.26l0.729-0.231
				l-0.032-0.765c-0.021-0.501-0.042-1.003-0.042-1.502c0-17.549,14.534-31.826,32.398-31.826c12.108,0,23.12,6.577,28.737,17.164
				l0.375,0.705l0.771-0.209c2.584-0.7,5.263-1.055,7.959-1.055c16.624,0,30.148,13.389,30.148,29.846
				c0,5.854-1.71,11.521-4.946,16.388c-0.31,0.463-0.831,0.741-1.394,0.741l0,0L50.383,176.247z"/>
		</g>
		<path fill="none" stroke="#02454E" stroke-width="4" stroke-linecap="round" stroke-linejoin="round" stroke-miterlimit="10" d="
			M109.49,144.497c0-16.672-13.76-30.185-30.73-30.185s-30.732,13.513-30.732,30.185c0,1.156,0.066,2.291,0.197,3.408"/>
		<path fill="none" stroke="#02454E" stroke-width="4" stroke-linecap="round" stroke-linejoin="round" stroke-miterlimit="10" d="
			M106.994,132.565c2.998-1.072,6.236-1.65,9.607-1.65c15.73,0,28.482,12.629,28.482,28.207c0,5.719-1.717,11.039-4.674,15.488
			l-90.027-0.004c-7.502,0-13.592-5.977-13.592-13.352c0-7.367,6.09-13.35,13.592-13.35"/>
	</g>
	<g>
		
			<path fill="#FFFFFF" stroke="#00FFFF" stroke-width="4" stroke-linecap="round" stroke-linejoin="round" stroke-miterlimit="10" d="
			M104.751,153.051c-0.017-0.023-0.043-0.066-0.072-0.107c-1.411-2.016-3.226-3.558-5.442-4.622c-1.848-0.888-3.802-1.36-5.844-1.51
			c-1.329-0.098-2.64-0.024-3.938,0.268c-1.158,0.261-2.281,0.638-3.391,1.059c-1.106,0.421-2.212,0.849-3.326,1.25
			c-0.846,0.304-1.719,0.442-2.605,0.203c-0.613-0.165-1.223-0.356-1.822-0.573c-1.202-0.436-2.389-0.918-3.596-1.342
			c-1.219-0.431-2.476-0.705-3.775-0.715c-1.92-0.014-3.776,0.338-5.551,1.065c-3.609,1.481-6.291,3.991-8.122,7.42
			c-1.291,2.419-1.956,5.023-2.219,7.739c-0.193,2.008-0.149,4.016,0.071,6.02c0.192,1.759,0.525,3.494,0.962,5.209
			c1.567,6.149,4.468,11.604,8.578,16.424c0.933,1.096,1.963,2.089,3.194,2.854c0.904,0.562,1.874,0.95,2.943,1.047
			c0.943,0.086,1.865-0.043,2.777-0.27c1.021-0.254,1.975-0.683,2.937-1.092c1.25-0.532,2.528-0.961,3.888-1.113
			c1.592-0.18,3.162-0.097,4.708,0.341c0.973,0.274,1.892,0.687,2.812,1.087c1.257,0.546,2.546,0.943,3.929,0.992
			c1.268,0.045,2.469-0.198,3.604-0.768c1.287-0.645,2.341-1.58,3.301-2.634c0.968-1.062,1.798-2.229,2.632-3.396
			c1.812-2.534,3.302-5.241,4.413-8.153c0.227-0.594,0.43-1.197,0.634-1.77c-4.988-2.473-8.06-6.287-8.439-11.938
			C97.609,160.365,100.207,156.2,104.751,153.051z M93.291,131.529c-0.128,0-0.223-0.006-0.315,0.001
			c-0.784,0.062-1.553,0.206-2.301,0.448c-4.123,1.336-7.162,3.919-8.982,7.877c-0.886,1.929-1.348,3.943-1.116,6.082
			c0.014,0.117,0.045,0.161,0.169,0.168c1.206,0.062,2.376-0.122,3.517-0.509c1.745-0.591,3.292-1.527,4.604-2.811
			c2.758-2.698,4.314-5.961,4.465-9.849C93.35,132.471,93.306,132.002,93.291,131.529z"/>
		
			<path fill-rule="evenodd" clip-rule="evenodd" fill="#FFFFFF" stroke="#00FFFF" stroke-width="4" stroke-linecap="round" stroke-linejoin="round" stroke-miterlimit="10" d="
			M104.751,153.051c-4.544,3.149-7.142,7.314-6.761,12.975c0.38,5.65,3.451,9.465,8.439,11.938c-0.204,0.572-0.407,1.176-0.634,1.77
			c-1.111,2.912-2.601,5.619-4.413,8.153c-0.834,1.167-1.664,2.334-2.632,3.396c-0.96,1.054-2.014,1.989-3.301,2.634
			c-1.135,0.569-2.336,0.812-3.604,0.768c-1.383-0.049-2.672-0.446-3.929-0.992c-0.921-0.4-1.84-0.812-2.812-1.087
			c-1.546-0.438-3.116-0.521-4.708-0.341c-1.359,0.152-2.638,0.581-3.888,1.113c-0.962,0.409-1.916,0.838-2.937,1.092
			c-0.912,0.227-1.834,0.355-2.777,0.27c-1.069-0.097-2.039-0.485-2.943-1.047c-1.231-0.765-2.262-1.758-3.194-2.854
			c-4.11-4.82-7.011-10.274-8.578-16.424c-0.437-1.715-0.77-3.45-0.962-5.209c-0.221-2.004-0.265-4.012-0.071-6.02
			c0.263-2.716,0.928-5.32,2.219-7.739c1.831-3.429,4.513-5.938,8.122-7.42c1.774-0.728,3.631-1.079,5.551-1.065
			c1.3,0.01,2.557,0.284,3.775,0.715c1.207,0.424,2.394,0.906,3.596,1.342c0.6,0.217,1.209,0.408,1.822,0.573
			c0.887,0.239,1.76,0.101,2.605-0.203c1.114-0.401,2.22-0.829,3.326-1.25c1.109-0.421,2.232-0.798,3.391-1.059
			c1.299-0.292,2.609-0.365,3.938-0.268c2.042,0.149,3.996,0.622,5.844,1.51c2.217,1.064,4.031,2.606,5.442,4.622
			C104.708,152.984,104.734,153.027,104.751,153.051z"/>
		
			<path fill-rule="evenodd" clip-rule="evenodd" fill="#FFFFFF" stroke="#00FFFF" stroke-width="4" stroke-linecap="round" stroke-linejoin="round" stroke-miterlimit="10" d="
			M93.291,131.529c0.015,0.473,0.059,0.941,0.04,1.408c-0.15,3.888-1.707,7.15-4.465,9.849c-1.312,1.283-2.859,2.22-4.604,2.811
			c-1.141,0.387-2.311,0.57-3.517,0.509c-0.124-0.007-0.155-0.051-0.169-0.168c-0.231-2.139,0.23-4.153,1.116-6.082
			c1.82-3.958,4.859-6.541,8.982-7.877c0.748-0.242,1.517-0.386,2.301-0.448C93.068,131.523,93.163,131.529,93.291,131.529z"/>
	</g>
	
		<circle fill="#FFFFFF" stroke="#00FFFF" stroke-width="4" stroke-linecap="round" stroke-linejoin="round" stroke-miterlimit="10" cx="153.488" cy="114.116" r="9.063"/>
</g>
</svg>
