<?xml version="1.0" encoding="utf-8"?>
<!-- Generator: Adobe Illustrator 16.0.0, SVG Export Plug-In . SVG Version: 6.00 Build 0)  -->
<!DOCTYPE svg PUBLIC "-//W3C//DTD SVG 1.1//EN" "http://www.w3.org/Graphics/SVG/1.1/DTD/svg11.dtd">
<svg version="1.1" id="Layer_1" xmlns="http://www.w3.org/2000/svg" xmlns:xlink="http://www.w3.org/1999/xlink" x="0px" y="0px"
	 width="242px" height="242px" viewBox="0 0 242 242" enable-background="new 0 0 242 242" xml:space="preserve">
<circle fill="#FFFFFF" cx="121" cy="121" r="120"/>
<g>
	<g>
		
			<rect x="127.338" y="40.401" fill="none" stroke="#02454E" stroke-width="4" stroke-linecap="round" stroke-linejoin="round" stroke-miterlimit="10" width="68.846" height="20.988"/>
		
			<line fill="none" stroke="#02454E" stroke-width="4" stroke-linecap="round" stroke-linejoin="round" stroke-miterlimit="10" x1="133.661" y1="45.412" x2="133.661" y2="55.674"/>
		
			<line fill="none" stroke="#02454E" stroke-width="4" stroke-linecap="round" stroke-linejoin="round" stroke-miterlimit="10" x1="139.984" y1="45.412" x2="139.984" y2="55.674"/>
		
			<line fill="none" stroke="#02454E" stroke-width="4" stroke-linecap="round" stroke-linejoin="round" stroke-miterlimit="10" x1="146.31" y1="45.412" x2="146.31" y2="55.674"/>
		
			<line fill="none" stroke="#02454E" stroke-width="4" stroke-linecap="round" stroke-linejoin="round" stroke-miterlimit="10" x1="152.633" y1="45.412" x2="152.633" y2="55.674"/>
		
			<line fill="none" stroke="#02454E" stroke-width="4" stroke-linecap="round" stroke-linejoin="round" stroke-miterlimit="10" x1="158.957" y1="45.412" x2="158.957" y2="55.674"/>
		
			<line fill="none" stroke="#00FF5D" stroke-width="4" stroke-linecap="round" stroke-linejoin="round" stroke-miterlimit="10" x1="189.322" y1="47.083" x2="189.322" y2="47.083"/>
		
			<line fill="none" stroke="#00FFFF" stroke-width="4" stroke-linecap="round" stroke-linejoin="round" stroke-miterlimit="10" x1="182.82" y1="47.083" x2="182.82" y2="47.083"/>
		
			<line fill="none" stroke="#02454E" stroke-width="4" stroke-linecap="round" stroke-linejoin="round" stroke-miterlimit="10" x1="189.502" y1="55.674" x2="166.593" y2="55.674"/>
		
			<rect x="127.338" y="61.39" fill="none" stroke="#02454E" stroke-width="4" stroke-linecap="round" stroke-linejoin="round" stroke-miterlimit="10" width="68.846" height="20.99"/>
		
			<line fill="none" stroke="#02454E" stroke-width="4" stroke-linecap="round" stroke-linejoin="round" stroke-miterlimit="10" x1="133.661" y1="66.4" x2="133.661" y2="76.662"/>
		
			<line fill="none" stroke="#02454E" stroke-width="4" stroke-linecap="round" stroke-linejoin="round" stroke-miterlimit="10" x1="139.984" y1="66.4" x2="139.984" y2="76.662"/>
		
			<line fill="none" stroke="#02454E" stroke-width="4" stroke-linecap="round" stroke-linejoin="round" stroke-miterlimit="10" x1="146.31" y1="66.4" x2="146.31" y2="76.662"/>
		
			<line fill="none" stroke="#02454E" stroke-width="4" stroke-linecap="round" stroke-linejoin="round" stroke-miterlimit="10" x1="152.633" y1="66.4" x2="152.633" y2="76.662"/>
		
			<line fill="none" stroke="#02454E" stroke-width="4" stroke-linecap="round" stroke-linejoin="round" stroke-miterlimit="10" x1="158.957" y1="66.4" x2="158.957" y2="76.662"/>
		
			<line fill="none" stroke="#00FFFF" stroke-width="4" stroke-linecap="round" stroke-linejoin="round" stroke-miterlimit="10" x1="189.322" y1="68.071" x2="189.322" y2="68.071"/>
		
			<line fill="none" stroke="#00FF5D" stroke-width="4" stroke-linecap="round" stroke-linejoin="round" stroke-miterlimit="10" x1="182.82" y1="68.071" x2="182.82" y2="68.071"/>
		
			<line fill="none" stroke="#02454E" stroke-width="4" stroke-linecap="round" stroke-linejoin="round" stroke-miterlimit="10" x1="189.502" y1="76.662" x2="166.593" y2="76.662"/>
	</g>
	<g>
		
			<rect x="45.816" y="40.401" fill="none" stroke="#02454E" stroke-width="4" stroke-linecap="round" stroke-linejoin="round" stroke-miterlimit="10" width="68.846" height="20.988"/>
		
			<line fill="none" stroke="#02454E" stroke-width="4" stroke-linecap="round" stroke-linejoin="round" stroke-miterlimit="10" x1="52.14" y1="45.412" x2="52.14" y2="55.674"/>
		
			<line fill="none" stroke="#02454E" stroke-width="4" stroke-linecap="round" stroke-linejoin="round" stroke-miterlimit="10" x1="58.463" y1="45.412" x2="58.463" y2="55.674"/>
		
			<line fill="none" stroke="#02454E" stroke-width="4" stroke-linecap="round" stroke-linejoin="round" stroke-miterlimit="10" x1="64.788" y1="45.412" x2="64.788" y2="55.674"/>
		
			<line fill="none" stroke="#02454E" stroke-width="4" stroke-linecap="round" stroke-linejoin="round" stroke-miterlimit="10" x1="71.111" y1="45.412" x2="71.111" y2="55.674"/>
		
			<line fill="none" stroke="#02454E" stroke-width="4" stroke-linecap="round" stroke-linejoin="round" stroke-miterlimit="10" x1="77.436" y1="45.412" x2="77.436" y2="55.674"/>
		
			<line fill="none" stroke="#00FF5D" stroke-width="4" stroke-linecap="round" stroke-linejoin="round" stroke-miterlimit="10" x1="107.801" y1="47.083" x2="107.801" y2="47.083"/>
		
			<line fill="none" stroke="#00FFFF" stroke-width="4" stroke-linecap="round" stroke-linejoin="round" stroke-miterlimit="10" x1="101.299" y1="47.083" x2="101.299" y2="47.083"/>
		
			<line fill="none" stroke="#02454E" stroke-width="4" stroke-linecap="round" stroke-linejoin="round" stroke-miterlimit="10" x1="107.98" y1="55.674" x2="85.071" y2="55.674"/>
		
			<rect x="45.816" y="61.39" fill="none" stroke="#02454E" stroke-width="4" stroke-linecap="round" stroke-linejoin="round" stroke-miterlimit="10" width="68.846" height="20.99"/>
		
			<line fill="none" stroke="#02454E" stroke-width="4" stroke-linecap="round" stroke-linejoin="round" stroke-miterlimit="10" x1="52.14" y1="66.4" x2="52.14" y2="76.662"/>
		
			<line fill="none" stroke="#02454E" stroke-width="4" stroke-linecap="round" stroke-linejoin="round" stroke-miterlimit="10" x1="58.463" y1="66.4" x2="58.463" y2="76.662"/>
		
			<line fill="none" stroke="#02454E" stroke-width="4" stroke-linecap="round" stroke-linejoin="round" stroke-miterlimit="10" x1="64.788" y1="66.4" x2="64.788" y2="76.662"/>
		
			<line fill="none" stroke="#02454E" stroke-width="4" stroke-linecap="round" stroke-linejoin="round" stroke-miterlimit="10" x1="71.111" y1="66.4" x2="71.111" y2="76.662"/>
		
			<line fill="none" stroke="#02454E" stroke-width="4" stroke-linecap="round" stroke-linejoin="round" stroke-miterlimit="10" x1="77.436" y1="66.4" x2="77.436" y2="76.662"/>
		
			<line fill="none" stroke="#00FFFF" stroke-width="4" stroke-linecap="round" stroke-linejoin="round" stroke-miterlimit="10" x1="107.801" y1="68.071" x2="107.801" y2="68.071"/>
		
			<line fill="none" stroke="#00FF5D" stroke-width="4" stroke-linecap="round" stroke-linejoin="round" stroke-miterlimit="10" x1="101.299" y1="68.071" x2="101.299" y2="68.071"/>
		
			<line fill="none" stroke="#02454E" stroke-width="4" stroke-linecap="round" stroke-linejoin="round" stroke-miterlimit="10" x1="107.98" y1="76.662" x2="85.071" y2="76.662"/>
	</g>
	<g>
		<g>
			<path fill="#FFFFFF" d="M88.583,105.392c-6.613,0-11.994-5.286-11.994-11.782c0-5.123,3.343-9.627,8.317-11.207l0.728-0.231
				l-0.031-0.762c-0.018-0.442-0.033-0.819-0.033-1.194c0-13.917,11.527-25.239,25.696-25.239c9.604,0,18.338,5.216,22.793,13.613
				l0.375,0.705l0.771-0.208c2.05-0.555,4.172-0.836,6.309-0.836c13.177,0,23.897,10.612,23.897,23.655
				c0,4.641-1.355,9.132-3.92,12.987c-0.21,0.314-0.564,0.504-0.946,0.504l0,0L88.583,105.392z"/>
		</g>
		<path fill="none" stroke="#02454E" stroke-width="4" stroke-linecap="round" stroke-linejoin="round" stroke-miterlimit="10" d="
			M135.828,80.215c0-13.326-10.998-24.128-24.562-24.128c-13.565,0-24.564,10.802-24.564,24.128c0,0.924,0.053,1.831,0.156,2.724"/>
		<path fill="none" stroke="#02454E" stroke-width="4" stroke-linecap="round" stroke-linejoin="round" stroke-miterlimit="10" d="
			M133.834,70.677c2.396-0.856,4.984-1.318,7.679-1.318c12.574,0,22.767,10.095,22.767,22.546c0,4.571-1.372,8.824-3.735,12.38
			l-71.961-0.003c-5.996,0-10.864-4.777-10.864-10.672c0-5.889,4.868-10.671,10.864-10.671"/>
	</g>
	
		<rect x="23.885" y="96.142" fill="#FFFFFF" stroke="#02454E" stroke-width="4" stroke-linecap="round" stroke-linejoin="round" stroke-miterlimit="10" width="90.777" height="27.675"/>
	
		<line fill="none" stroke="#02454E" stroke-width="4" stroke-linecap="round" stroke-linejoin="round" stroke-miterlimit="10" x1="32.223" y1="102.749" x2="32.223" y2="116.279"/>
	
		<line fill="none" stroke="#02454E" stroke-width="4" stroke-linecap="round" stroke-linejoin="round" stroke-miterlimit="10" x1="40.561" y1="102.749" x2="40.561" y2="116.279"/>
	
		<line fill="none" stroke="#02454E" stroke-width="4" stroke-linecap="round" stroke-linejoin="round" stroke-miterlimit="10" x1="48.899" y1="102.749" x2="48.899" y2="116.279"/>
	
		<line fill="none" stroke="#02454E" stroke-width="4" stroke-linecap="round" stroke-linejoin="round" stroke-miterlimit="10" x1="57.237" y1="102.749" x2="57.237" y2="116.279"/>
	
		<line fill="none" stroke="#02454E" stroke-width="4" stroke-linecap="round" stroke-linejoin="round" stroke-miterlimit="10" x1="65.576" y1="102.749" x2="65.576" y2="116.279"/>
	
		<line fill="none" stroke="#00FF5D" stroke-width="4" stroke-linecap="round" stroke-linejoin="round" stroke-miterlimit="10" x1="105.615" y1="104.952" x2="105.615" y2="104.952"/>
	
		<line fill="none" stroke="#00FFFF" stroke-width="4" stroke-linecap="round" stroke-linejoin="round" stroke-miterlimit="10" x1="97.041" y1="104.952" x2="97.041" y2="104.952"/>
	
		<line fill="none" stroke="#02454E" stroke-width="4" stroke-linecap="round" stroke-linejoin="round" stroke-miterlimit="10" x1="105.852" y1="116.279" x2="75.645" y2="116.279"/>
	
		<rect x="23.885" y="123.816" fill="#FFFFFF" stroke="#02454E" stroke-width="4" stroke-linecap="round" stroke-linejoin="round" stroke-miterlimit="10" width="90.777" height="27.677"/>
	
		<line fill="none" stroke="#02454E" stroke-width="4" stroke-linecap="round" stroke-linejoin="round" stroke-miterlimit="10" x1="32.223" y1="130.424" x2="32.223" y2="143.954"/>
	
		<line fill="none" stroke="#02454E" stroke-width="4" stroke-linecap="round" stroke-linejoin="round" stroke-miterlimit="10" x1="40.561" y1="130.424" x2="40.561" y2="143.954"/>
	
		<line fill="none" stroke="#02454E" stroke-width="4" stroke-linecap="round" stroke-linejoin="round" stroke-miterlimit="10" x1="48.899" y1="130.424" x2="48.899" y2="143.954"/>
	
		<line fill="none" stroke="#02454E" stroke-width="4" stroke-linecap="round" stroke-linejoin="round" stroke-miterlimit="10" x1="57.237" y1="130.424" x2="57.237" y2="143.954"/>
	
		<line fill="none" stroke="#02454E" stroke-width="4" stroke-linecap="round" stroke-linejoin="round" stroke-miterlimit="10" x1="65.576" y1="130.424" x2="65.576" y2="143.954"/>
	
		<line fill="none" stroke="#00FFFF" stroke-width="4" stroke-linecap="round" stroke-linejoin="round" stroke-miterlimit="10" x1="105.615" y1="132.627" x2="105.615" y2="132.627"/>
	
		<line fill="none" stroke="#00FF5D" stroke-width="4" stroke-linecap="round" stroke-linejoin="round" stroke-miterlimit="10" x1="97.041" y1="132.627" x2="97.041" y2="132.627"/>
	
		<line fill="none" stroke="#02454E" stroke-width="4" stroke-linecap="round" stroke-linejoin="round" stroke-miterlimit="10" x1="105.852" y1="143.954" x2="75.645" y2="143.954"/>
	
		<rect x="127.338" y="96.142" fill="#FFFFFF" stroke="#02454E" stroke-width="4" stroke-linecap="round" stroke-linejoin="round" stroke-miterlimit="10" width="90.777" height="27.675"/>
	
		<line fill="none" stroke="#02454E" stroke-width="4" stroke-linecap="round" stroke-linejoin="round" stroke-miterlimit="10" x1="135.676" y1="102.749" x2="135.676" y2="116.279"/>
	
		<line fill="none" stroke="#02454E" stroke-width="4" stroke-linecap="round" stroke-linejoin="round" stroke-miterlimit="10" x1="144.014" y1="102.749" x2="144.014" y2="116.279"/>
	
		<line fill="none" stroke="#02454E" stroke-width="4" stroke-linecap="round" stroke-linejoin="round" stroke-miterlimit="10" x1="152.353" y1="102.749" x2="152.353" y2="116.279"/>
	
		<line fill="none" stroke="#02454E" stroke-width="4" stroke-linecap="round" stroke-linejoin="round" stroke-miterlimit="10" x1="160.69" y1="102.749" x2="160.69" y2="116.279"/>
	
		<line fill="none" stroke="#02454E" stroke-width="4" stroke-linecap="round" stroke-linejoin="round" stroke-miterlimit="10" x1="169.029" y1="102.749" x2="169.029" y2="116.279"/>
	
		<line fill="none" stroke="#00FF5D" stroke-width="4" stroke-linecap="round" stroke-linejoin="round" stroke-miterlimit="10" x1="209.068" y1="104.952" x2="209.068" y2="104.952"/>
	
		<line fill="none" stroke="#00FFFF" stroke-width="4" stroke-linecap="round" stroke-linejoin="round" stroke-miterlimit="10" x1="200.494" y1="104.952" x2="200.494" y2="104.952"/>
	
		<line fill="none" stroke="#02454E" stroke-width="4" stroke-linecap="round" stroke-linejoin="round" stroke-miterlimit="10" x1="209.305" y1="116.279" x2="179.098" y2="116.279"/>
	
		<rect x="127.338" y="123.816" fill="#FFFFFF" stroke="#02454E" stroke-width="4" stroke-linecap="round" stroke-linejoin="round" stroke-miterlimit="10" width="90.777" height="27.677"/>
	
		<line fill="none" stroke="#02454E" stroke-width="4" stroke-linecap="round" stroke-linejoin="round" stroke-miterlimit="10" x1="135.676" y1="130.424" x2="135.676" y2="143.954"/>
	
		<line fill="none" stroke="#02454E" stroke-width="4" stroke-linecap="round" stroke-linejoin="round" stroke-miterlimit="10" x1="144.014" y1="130.424" x2="144.014" y2="143.954"/>
	
		<line fill="none" stroke="#02454E" stroke-width="4" stroke-linecap="round" stroke-linejoin="round" stroke-miterlimit="10" x1="152.353" y1="130.424" x2="152.353" y2="143.954"/>
	
		<line fill="none" stroke="#02454E" stroke-width="4" stroke-linecap="round" stroke-linejoin="round" stroke-miterlimit="10" x1="160.69" y1="130.424" x2="160.69" y2="143.954"/>
	
		<line fill="none" stroke="#02454E" stroke-width="4" stroke-linecap="round" stroke-linejoin="round" stroke-miterlimit="10" x1="169.029" y1="130.424" x2="169.029" y2="143.954"/>
	
		<line fill="none" stroke="#00FFFF" stroke-width="4" stroke-linecap="round" stroke-linejoin="round" stroke-miterlimit="10" x1="209.068" y1="132.627" x2="209.068" y2="132.627"/>
	
		<line fill="none" stroke="#00FF5D" stroke-width="4" stroke-linecap="round" stroke-linejoin="round" stroke-miterlimit="10" x1="200.494" y1="132.627" x2="200.494" y2="132.627"/>
	
		<line fill="none" stroke="#02454E" stroke-width="4" stroke-linecap="round" stroke-linejoin="round" stroke-miterlimit="10" x1="209.305" y1="143.954" x2="179.098" y2="143.954"/>
	<g>
		<g>
			<path fill="#FFFFFF" d="M58.15,200.599c-10.924,0-19.811-8.738-19.811-19.479c0-7.374,4.185-14.032,10.921-17.376l0.476-0.235
				l0.071-0.525c2.234-16.458,16.668-28.869,33.573-28.869c4.706,0,9.466,0.989,13.763,2.86l0.898,0.392l0.41-0.892
				c7.5-16.326,24.092-26.876,42.269-26.876c25.562,0,46.357,20.434,46.357,45.551c0,1.065-0.053,2.244-0.161,3.604l-0.067,0.849
				l0.827,0.202c9.411,2.298,15.983,10.56,15.983,20.091c0,11.416-9.447,20.703-21.061,20.703H58.15z"/>
		</g>
		<path fill="none" stroke="#02454E" stroke-width="4" stroke-linecap="round" stroke-linejoin="round" stroke-miterlimit="10" d="
			M95.359,155.149c0-24.604,20.311-44.551,45.361-44.551c25.053,0,45.357,19.947,45.357,44.551c0,1.707-0.098,3.385-0.285,5.043"/>
		<path fill="none" stroke="#02454E" stroke-width="4" stroke-linecap="round" stroke-linejoin="round" stroke-miterlimit="10" d="
			M58.15,162.647c-10.391,0-18.811,8.268-18.811,18.473c0,10.203,8.42,18.479,18.811,18.479H182.6
			c11.078,0,20.061-8.822,20.061-19.703c0-10.883-8.982-19.703-20.061-19.703"/>
		<path fill="none" stroke="#02454E" stroke-width="4" stroke-linecap="round" stroke-linejoin="round" stroke-miterlimit="10" d="
			M50.715,163.681c1.881-16.086,15.789-28.566,32.666-28.566c5.467,0,10.619,1.309,15.154,3.621"/>
	</g>
</g>
</svg>
