<?xml version="1.0" encoding="utf-8"?>
<!-- Generator: Adobe Illustrator 16.0.0, SVG Export Plug-In . SVG Version: 6.00 Build 0)  -->
<!DOCTYPE svg PUBLIC "-//W3C//DTD SVG 1.1//EN" "http://www.w3.org/Graphics/SVG/1.1/DTD/svg11.dtd">
<svg version="1.1" id="Layer_1" xmlns="http://www.w3.org/2000/svg" xmlns:xlink="http://www.w3.org/1999/xlink" x="0px" y="0px"
	 width="242px" height="242px" viewBox="0 0 242 242" enable-background="new 0 0 242 242" xml:space="preserve">
<circle fill="#FFFFFF" cx="121" cy="121" r="120"/>
<g>
	<g>
		<path fill="#FFFFFF" d="M20.863,188.579c-8.412,0-15.256-6.726-15.256-14.992c0-6.519,4.252-12.249,10.58-14.26l0.728-0.231
			l-0.032-0.765c-0.021-0.501-0.042-1.003-0.042-1.502c0-17.549,14.534-31.826,32.398-31.826c12.109,0,23.121,6.577,28.738,17.164
			l0.374,0.705l0.771-0.209c2.585-0.7,5.263-1.055,7.959-1.055c16.624,0,30.148,13.389,30.148,29.846
			c0,5.854-1.71,11.521-4.946,16.388c-0.31,0.463-0.832,0.741-1.394,0.741l0,0L20.863,188.579z"/>
	</g>
	<path fill="none" stroke="#02454E" stroke-width="4" stroke-linecap="round" stroke-linejoin="round" stroke-miterlimit="10" d="
		M79.971,156.829c0-16.672-13.76-30.186-30.73-30.186s-30.732,13.514-30.732,30.186c0,1.156,0.066,2.291,0.197,3.408"/>
	<path fill="none" stroke="#02454E" stroke-width="4" stroke-linecap="round" stroke-linejoin="round" stroke-miterlimit="10" d="
		M77.475,144.897c2.998-1.072,6.236-1.65,9.607-1.65c15.73,0,28.482,12.629,28.482,28.207c0,5.719-1.717,11.039-4.674,15.488
		l-90.027-0.004c-7.502,0-13.592-5.977-13.592-13.352c0-7.367,6.09-13.35,13.592-13.35"/>
	<g>
		<path fill="#FFFFFF" d="M157.074,38.161H84.926c0,9.962-8.074,18.037-18.037,18.037v55.688c0,29.886,54.111,45.998,54.111,54.111
			c0-8.113,54.111-24.226,54.111-54.111V56.198C165.15,56.198,157.074,48.123,157.074,38.161z"/>
		<path fill="none" stroke="#02454E" stroke-width="4" stroke-linecap="round" stroke-linejoin="round" stroke-miterlimit="10" d="
			M157.074,38.161H84.926c0,9.962-8.074,18.037-18.037,18.037v55.688c0,29.886,54.111,45.998,54.111,54.111
			c0-8.113,54.111-24.226,54.111-54.111V56.198C165.15,56.198,157.074,48.123,157.074,38.161z"/>
		<path fill="none" stroke="#00FFFF" stroke-width="3" stroke-linecap="round" stroke-linejoin="round" stroke-miterlimit="10" d="
			M121,156.743c-2.904-2.179-6.823-4.474-11.667-7.31c-14.513-8.497-36.444-21.339-36.444-37.548V61.44
			c8.442-2.177,15.102-8.837,17.279-17.279h61.664c2.178,8.442,8.838,15.102,17.279,17.279v50.445
			c0,16.209-21.932,29.051-36.444,37.548C127.823,152.27,123.904,154.564,121,156.743z"/>
	</g>
	<g>
		<g>
			<path fill="#FFFFFF" d="M90.881,202.839c-10.923,0-19.811-8.738-19.811-19.479c0-7.374,4.185-14.032,10.921-17.376l0.475-0.235
				l0.071-0.525c2.236-16.458,16.671-28.869,33.576-28.869c4.707,0,9.466,0.989,13.763,2.86l0.898,0.392l0.409-0.892
				c7.501-16.326,24.092-26.876,42.268-26.876c25.562,0,46.359,20.434,46.359,45.551c0,1.065-0.053,2.244-0.161,3.604l-0.067,0.849
				l0.827,0.202c9.411,2.298,15.983,10.56,15.983,20.091c0,11.416-9.447,20.703-21.061,20.703H90.881z"/>
		</g>
		<path fill="none" stroke="#02454E" stroke-width="4" stroke-linecap="round" stroke-linejoin="round" stroke-miterlimit="10" d="
			M128.092,157.39c0-24.604,20.311-44.551,45.359-44.551c25.053,0,45.359,19.947,45.359,44.551c0,1.707-0.098,3.385-0.285,5.043"/>
		<path fill="none" stroke="#02454E" stroke-width="4" stroke-linecap="round" stroke-linejoin="round" stroke-miterlimit="10" d="
			M90.881,164.888c-10.389,0-18.811,8.268-18.811,18.473c0,10.203,8.422,18.479,18.811,18.479h124.451
			c11.078,0,20.061-8.822,20.061-19.703c0-10.883-8.982-19.703-20.061-19.703"/>
		<path fill="none" stroke="#02454E" stroke-width="4" stroke-linecap="round" stroke-linejoin="round" stroke-miterlimit="10" d="
			M83.447,165.921c1.881-16.086,15.789-28.566,32.666-28.566c5.467,0,10.619,1.309,15.152,3.621"/>
	</g>
	
		<path fill="#FFFFFF" stroke="#00FFFF" stroke-width="4" stroke-linecap="round" stroke-linejoin="round" stroke-miterlimit="10" d="
		M135.203,88.527V74.324c0-7.846-6.359-14.205-14.203-14.205c-7.846,0-14.205,6.359-14.205,14.205v14.203"/>
	
		<rect x="99.693" y="88.527" fill="#FFFFFF" stroke="#00FF5D" stroke-width="4" stroke-linecap="round" stroke-linejoin="round" stroke-miterlimit="10" width="42.613" height="14.205"/>
	
		<path fill="#FFFFFF" stroke="#00FFFF" stroke-width="4" stroke-linecap="round" stroke-linejoin="round" stroke-miterlimit="10" d="
		M142.307,102.732c0,11.766-9.539,21.305-21.307,21.305s-21.307-9.539-21.307-21.305H142.307z"/>
	
		<line fill="none" stroke="#00FF5D" stroke-width="4" stroke-linecap="round" stroke-linejoin="round" stroke-miterlimit="10" x1="121" y1="95.934" x2="121" y2="109.695"/>
</g>
</svg>
