<svg xmlns="http://www.w3.org/2000/svg" xmlns:xlink="http://www.w3.org/1999/xlink" width="479" height="687" viewBox="0 0 479 687"><defs><path id="8n8sa" d="M568.004 583.195c.2.195-1.4 1.653-3.4 4.278-.5.68-1 1.458-1.6 2.236-.6.778-1 1.75-1.6 2.722-1 1.945-2 4.18-2.7 6.611a37.1 37.1 0 0 0-1.3 7c-.1 1.07-.2 2.14-.1 3.112 0 .972 0 1.847.1 2.722.2 3.305.8 5.347.5 5.444-.1 0-1-1.944-1.5-5.347-.1-.875-.2-1.75-.3-2.82-.1-.972 0-2.041 0-3.208.2-2.236.5-4.764 1.3-7.291.8-2.528 1.8-4.862 2.9-6.806.6-.972 1.1-1.944 1.7-2.722.6-.875 1.2-1.556 1.7-2.236 2.4-2.528 4.2-3.792 4.3-3.695z"/><path id="8n8sb" d="M571.6 594.958c.1.194-.8.778-1.9 2.041-.6.584-1.2 1.362-1.8 2.334-.6.972-1.1 2.041-1.5 3.208-.4 1.167-.7 2.333-.8 3.403-.1 1.07-.1 2.042-.1 2.917.1 1.652.4 2.722.2 2.722-.1.097-.8-.875-1.1-2.625-.2-.875-.3-1.945-.2-3.111.1-1.167.3-2.43.8-3.792.5-1.264 1.1-2.43 1.8-3.403.7-.972 1.4-1.75 2.2-2.333 1.3-1.167 2.3-1.556 2.4-1.361z"/><path id="8n8sc" d="M750.872 478.1c.097-.096.675.483 1.64 1.642.482.58 1.157 1.255 1.735 2.124.675.869 1.447 1.834 2.218 2.896.386.58.771 1.16 1.157 1.738.386.58.772 1.256 1.157 1.931.868 1.352 1.64 2.897 2.411 4.442 1.543 3.186 3.086 6.855 4.243 10.814 1.157 3.958 1.928 7.82 2.314 11.393.193 1.738.386 3.476.386 5.02 0 .773.096 1.545.096 2.318 0 .772 0 1.448-.096 2.124 0 1.351-.193 2.607-.193 3.669-.096 1.062-.193 2.027-.386 2.703-.289 1.448-.385 2.317-.482 2.317-.193 0 .193-3.379.193-8.69v-2.123c0-.773-.096-1.449-.096-2.221-.097-1.545-.29-3.186-.483-5.02a78.342 78.342 0 0 0-2.41-11.2c-1.157-3.863-2.604-7.532-4.05-10.718-.772-1.545-1.543-3.09-2.315-4.441-.385-.676-.771-1.352-1.157-1.931-.385-.58-.771-1.256-1.06-1.738-2.893-4.345-5.015-6.952-4.822-7.049z"/><path id="8n8sd" d="M765.815 484.275c.097-.097 1.64 1.351 3.568 4.055a34.219 34.219 0 0 1 2.99 5.117c.964 2.028 1.928 4.248 2.603 6.759a57.41 57.41 0 0 1 1.446 7.048c.193 2.22.29 4.248.193 5.89-.096 3.379-.675 5.406-.771 5.406-.193 0 0-2.027-.193-5.406 0-1.642-.193-3.573-.482-5.697a40.466 40.466 0 0 0-1.543-6.855 37.24 37.24 0 0 0-2.507-6.566c-.868-1.93-1.832-3.669-2.7-5.117-1.447-2.897-2.7-4.441-2.604-4.634z"/><path id="8n8se" d="M532.69 280.85s-5.994 4.222-3.14 10.977c3.14 6.754 16.27 27.3 33.965 26.456.857 0-22.548-37.433-22.548-37.433h-8.277z"/><path id="8n8sf" d="M505 658.41s-22.07-19.826-29.144-16.144c-8.772 4.248-58.289 52.963-56.308 75.905.849 9.346 11.601 1.416 31.125-18.693 19.524-20.11 43.858-11.613 43.858-11.613z"/><path id="8n8sg" d="M558.767 691.834l-26.598-16.144s-69.324 64.859-58.289 73.639c8.206 6.514 13.016.566 32.54-19.543 19.524-20.109 44.141-8.497 44.141-8.497z"/><path id="8n8sh" d="M722.028 478l4.81 71.373-110.918-29.172z"/><path id="8n8si" d="M615.92 522.75s97.337 6.231 110.07 1.7c0 0 18.958 186.929-14.713 207.038-33.955 20.109-109.787-9.347-109.787-9.347l20.373-40.218 44.14-2.832v-71.94l-3.112.85z"/><path id="8n8sj" d="M493.968 650.202s-24.335 10.196-16.412 34.553c0 0 83.472 65.426 124.217 50.415 22.637-8.497 47.254-73.073 64.231-128.302l60.27-82.419s-28.296 1.416-37.916 1.416c-18.11 0-72.437-3.115-72.437-3.115s-28.295 148.41-38.482 151.81c-10.186 3.681-83.471-24.358-83.471-24.358z"/><path id="8n8sk" d="M638.56 336.667s58.289-54.662 68.475-69.107c10.187-14.444 31.691-62.593 58.289-82.702l-13.016-27.473s7.923-4.248 13.016 7.08c0 0 18.675-37.385 22.92-36.819 4.244.85-8.49 28.89-8.49 28.89s18.11-26.057 22.92-25.208c5.093.85-13.016 29.173-13.016 29.173s20.09-23.508 22.92-20.393c2.829 2.833-15.846 20.393-15.846 20.393s20.09-11.613 22.353-7.647c2.264 3.681-20.09 13.878-20.09 13.878s-2.263 16.427-15.845 23.79c0 0-27.164 73.073-51.498 96.864l-78.661 81.852z"/><path id="8n8sl" d="M568.954 364.99s-55.176 57.778-69.607 67.691c-14.43 9.913-62.816 31.155-83.189 57.495l-27.164-13.312s-4.527 7.93 7.074 13.029c0 0-37.633 18.41-36.784 22.658.566 4.248 28.862-8.497 28.862-8.497s-26.032 17.843-25.466 22.941c.566 5.099 29.144-12.745 29.144-12.745s-23.485 19.826-20.656 22.942c2.83 2.832 20.656-15.578 20.656-15.578s-11.884 20.11-7.923 22.375c3.679 2.266 14.148-20.109 14.148-20.109s16.694-1.983 23.768-15.577c0 0 69.324-27.473 93.092-51.83l86.302-61.178z"/><path id="8n8sm" d="M589.613 342.05L561.6 369.523l7.074 30.871s27.447 65.992 31.69 82.136c6.509 25.207-3.96 63.443-3.96 63.443s46.687-3.965 89.13-5.382c42.444-1.416 56.308-15.01 56.308-15.01s-36.784-122.638-62.25-156.908c-25.466-34.27-34.52-45.033-34.52-45.033l-37.35 8.214z"/><path id="8n8sn" d="M671.663 364.427l29.145-18.693s4.527-19.826-30.56-43.334l-41.028 25.774z"/><path id="8n8so" d="M567.535 367.252c-15.845 2.266-44.99 42.767-48.385 42.767 0 0 20.656 33.42 36.784 34.554 0 0 71.588-85.818 11.601-77.321z"/><path id="8n8sp" d="M623.844 340.912s-23.203-17.277-22.354-24.358c.283-1.7 3.396-4.532 4.244-7.08 4.528-13.595-17.26-48.432-30.559-55.513-10.47-5.664-5.942-6.23-28.012 6.798s-9.62 35.686.283 47.582c9.337 11.045 20.09 15.86 29.427 16.71l13.582 30.305z"/><path id="8n8sq" d="M581.97 364.992c-4.528-10.762 3.96-24.357 18.674-30.305 14.714-5.948 29.994-1.982 34.521 8.78 4.244 10.763-10.47 26.907-18.675 30.305-8.206 3.116-29.993 1.983-34.52-8.78z"/><path id="8n8sr" d="M547.756 308.943s-7.418-.267-8.242 4.273c-.824 4.806 13.462 4.806 18.682 1.068z"/><path id="8n8ss" d="M551.376 312.95c-1.402-9.045-10.936-15.83-10.375-24.594 4.486 0 7.57-5.653 5.327-10.46-.84-1.978-2.243-3.674-3.084-5.37-.841-1.98-1.122-4.24.28-5.372.561-.565 1.402-.565 2.244-.565 6.73-.565 18.507 1.413 24.676-.848 5.889-2.262 12.338-6.502 11.777-13.852-.56-6.502-6.169-11.59-11.216-15.548-3.085-2.262-11.497-8.199-14.582-7.633-4.767.848-6.169 7.35-6.45 12.721-3.364-3.392-8.412-2.827-11.496 0-3.085 2.544-4.487 6.785-5.608 11.025-1.402 3.958-2.524 8.198-5.609 11.025-2.804 2.545-7.01 4.523-6.45 8.764.562 5.088 7.292 7.067 10.376 11.308-.841-1.131-1.402 5.654-.841 6.784 1.402 3.393 4.487 5.654 7.01 8.481 5.048 5.089 7.291 10.743 14.02 14.135z"/><path id="8n8st" d="M593.918 292.89l-17.008 8.732s20.353 14.928 17.008-8.732z"/><path id="8n8su" d="M569.964 295.69c.898 1.696-.598 4.239-3.291 5.652-2.693 1.413-5.984 1.13-6.882-.565-.898-1.696.598-4.24 3.291-5.652 2.992-1.413 5.984-1.13 6.882.565z"/><path id="8n8sv" d="M595.364 278.3c.898 1.696-.598 4.239-3.291 5.652-2.693 1.413-5.984 1.13-6.882-.565-.898-1.696.598-4.24 3.291-5.652 2.693-1.413 5.685-1.13 6.882.565z"/><path id="8n8sw" d="M581.496 291.548s.275-.545.825-1.09c.55-.545 1.925-1.09 2.75-1.908.825-.818 1.1-2.726-.275-2.998-1.375-.545-3.025 1.09-4.95 2.725-.55.273-.825.818-1.375 1.09-.55.273-1.375.818-2.2.818-1.65-.272-2.476-1.363-3.026-2.18-1.375-1.636-2.2-3.543-2.475-4.906-.825-2.998-.55-5.179-.275-4.906.275 0 .275 1.908 1.65 4.633.55 1.363 1.375 2.998 2.75 4.361.55.818 1.376 1.363 1.926 1.363.275 0 .275 0 .825-.545.55-.273.825-.818 1.375-1.09.825-.818 1.65-1.363 2.75-2.18 1.1-.818 2.475-1.091 3.85-.546 1.375.273 2.2 1.908 1.925 2.998-.275 1.09-.825 1.908-1.375 2.726-1.375 1.09-2.475 1.362-3.3 1.635-.825-.273-1.1 0-1.375 0z"/><path id="8n8sx" d="M576.91 324.845s11.296 0 17.38-3.865c0 0-5.215 6.54-15.352 8.027z"/><path id="8n8sy" d="M582.254 276.23c0 .645-1.7.967-3.115 1.612-1.7.644-2.833 1.933-3.4 1.61-.566-.322.284-2.577 2.55-3.543 2.266-.967 3.965 0 3.965.322z"/><path id="8n8sz" d="M560.936 290.161c-.263-.312.262-2.188 1.574-4.376 1.574-1.876 3.411-2.5 3.674-2.188.262.625-1.05 1.875-2.362 3.438-1.05 2.189-2.362 3.439-2.886 3.126z"/><path id="8n8sA" d="M552.305 287.223c-.889-.572-1.777-3.432 1.776-7.437 3.554-4.004 7.7-3.146 7.995-2.002.592 1.144-.888 2.574-3.85 6.007-3.256 3.432-5.033 4.29-5.921 3.432z"/><path id="8n8sB" d="M570.4 272.22c-.564-.839 0-3.636 4.515-5.315 4.515-1.959 7.337.28 7.337 1.399s-1.693 1.958-5.644 3.637c-3.95 1.119-5.925 1.119-6.207.28z"/></defs><g><g transform="translate(-350 -127)"><g><use fill="#fff" xlink:href="#8n8sa"/></g><g><use fill="#fff" xlink:href="#8n8sb"/></g></g><g transform="translate(-350 -127)"><g><use fill="#fff" xlink:href="#8n8sc"/></g><g><use fill="#fff" xlink:href="#8n8sd"/></g></g><g transform="translate(-350 -127)"><g><use fill="#f97a5d" xlink:href="#8n8se"/></g><g><g><use fill="#6e5395" xlink:href="#8n8sf"/></g><g><use fill="#6e5395" xlink:href="#8n8sg"/></g><g><use fill="#e0a584" xlink:href="#8n8sh"/></g><g><use fill="#1d262d" xlink:href="#8n8si"/></g><g><use fill="#2c373f" xlink:href="#8n8sj"/></g><g><use fill="#ffc5b1" xlink:href="#8n8sk"/></g><g><use fill="#ffc5b1" xlink:href="#8n8sl"/></g><g><use fill="#fff" xlink:href="#8n8sm"/></g><g><use fill="#fff" xlink:href="#8n8sn"/></g><g><use fill="#fff" xlink:href="#8n8so"/></g><g><use fill="#ffc5b1" xlink:href="#8n8sp"/></g><g><use fill="#ffc5b1" xlink:href="#8n8sq"/></g></g><g><use fill="#ffc5b1" xlink:href="#8n8sr"/></g><g><use fill="#f97a5d" xlink:href="#8n8ss"/></g><g><use fill="#fff" xlink:href="#8n8st"/></g><g><use fill="#f4b19f" xlink:href="#8n8su"/></g><g><use fill="#f4b19f" xlink:href="#8n8sv"/></g><g><use fill="#f97a5d" xlink:href="#8n8sw"/></g><g><use fill="#eda091" xlink:href="#8n8sx"/></g><g><use fill="#2c373f" xlink:href="#8n8sy"/></g><g><use fill="#2c373f" xlink:href="#8n8sz"/></g><g><use fill="#f97a5d" xlink:href="#8n8sA"/></g><g><use fill="#f97a5d" xlink:href="#8n8sB"/></g></g></g></svg>