<svg xmlns="http://www.w3.org/2000/svg" xmlns:xlink="http://www.w3.org/1999/xlink" width="317" height="735" viewBox="0 0 317 735"><defs><path id="lijza" d="M1172.632 497.87c.096 0 .48.587 1.154 1.76.673 1.174 1.442 2.935 2.211 5.282 1.539 4.596 2.5 11.345 1.923 18.68-.576 7.335-2.211 13.79-3.557 18.387-1.346 4.596-2.308 7.335-2.5 7.335-.193-.098.48-2.934 1.538-7.53 1.058-4.598 2.596-11.052 3.077-18.29.577-7.237-.192-13.79-1.538-18.289-1.058-4.597-2.5-7.237-2.308-7.335z"/><path id="lijzb" d="M1177.055 461.1c.096 0 .576.978 1.538 2.836.865 1.859 2.115 4.5 3.654 7.922 2.98 6.65 6.923 16.04 9.808 26.994 1.442 5.477 2.403 10.758 2.884 15.55.48 4.89.577 9.291.289 13.008-.193 3.716-.673 6.65-1.154 8.704-.481 2.054-.77 3.13-.866 3.13-.288 0 .866-4.499 1.058-11.736.289-7.238-.673-17.41-3.461-28.167-2.885-10.759-6.635-20.148-9.424-26.896-1.346-3.423-2.5-6.161-3.269-8.02-.769-2.25-1.154-3.325-1.057-3.325z"/><path id="lijzc" d="M1246.855 353.903c-5.165-12.758-7.132-26.988-14.756-38.52-11.066-16.437-32.461-24.534-41.315-42.199-3.934-7.605-4.918-16.192-5.164-24.534 0-16.683 4.918-34.348 17.706-44.898 14.756-12.267 37.135-12.022 54.35-3.926 17.46 8.097 30.494 23.063 41.806 38.52 11.313 15.456 21.15 32.14 34.183 46.124 9.837 10.305 21.15 19.382 28.527 31.404 20.166 33.367-.491 75.566-36.15 87.588-30.74 10.55-68.613-22.817-79.187-49.56z"/><path id="lijzd" d="M1202.899 589.249c3.188 2.457-.246.737 4.17 3.685-.982 11.301-11.283 18.18-11.283 18.18s-.49 17.935-3.68 17.443c-3.433-.246-1.226-17.197-1.226-17.197s-6.867 17.443-9.565 16.46c-2.944-1.228 7.603-21.374 7.603-21.374s-14.716 20.146-16.679 16.952c-1.962-3.194 10.792-22.602 10.792-22.602s-15.942 16.706-17.66 14.003c-1.716-2.702 18.887-25.796 18.887-25.796-9.566 0-8.83-6.633-8.83-6.633l23.301 1.474s2.698 4.177 4.17 5.405z"/><path id="lijze" d="M1426.092 252.915c3.925.737.981-.737 6.132.983 8.585-7.862 7.358-19.9 7.358-19.9s14.226-11.547 12.019-13.758c-2.453-2.211-14.717 9.827-14.717 9.827s10.057-15.969 7.359-17.443c-2.698-1.474-12.755 18.917-12.755 18.917s7.359-23.585 3.434-23.093c-3.924.49-11.773 22.11-11.773 22.11s3.68-22.11.49-21.865c-3.433.246-8.584 29.481-8.584 29.481-7.849-6.387-13.245-2.21-13.245-2.21l17.17 16.705c-.246.246 5.395 0 7.112.246z"/><path id="lijzf" d="M1328.232 350.452c7.113-1.228 29.188 13.267 23.546 42.256-.49 2.457-3.679 7.862-4.414 10.073-.982 2.703 6.867 13.021 6.867 13.021l-20.112 6.388c-.981-6.142.49-14.987-5.887-17.69-2.453-.982-5.15-1.719-7.358-2.947-6.132-3.44-9.566-10.81-12.019-16.952-1.962-4.422-3.434-9.336-3.188-14.25 0-12.283 11.037-18.18 22.565-19.899z"/><path id="lijzg" d="M1368.705 429.805c0-10.564-3.434-14.495-14.226-14.495-11.038 0-25.509 3.93-25.509 14.495 0 10.564 7.849 23.585 18.64 23.585 11.038 0 21.095-13.021 21.095-23.585z"/><path id="lijzh" d="M1359.87 410.401s34.093-35.132 40.961-69.772c6.868-34.395 18.396-90.409 18.396-90.409l13 3.44s6.131 76.405 0 88.197c-6.133 11.793-40.962 93.112-40.226 113.748z"/><path id="lijzi" d="M1299.284 427.35s-11.528 1.965-29.188 42.256c-17.66 40.291-72.356 115.468-72.356 115.468l8.83 8.108s53.225-39.554 63.28-63.63c10.302-24.077 23.057-54.05 29.189-52.575 6.377 1.228 32.13-34.64.245-49.627z"/><path id="lijzj" d="M1390.535 461.253l15.943-43.976s-2.453-20.637-33.848-28.007l-17.66 25.55z"/><path id="lijzk" d="M1304.438 424.15s-18.64 1.474-33.848 34.886c0 0 16.679 23.094 28.942 23.83 0 0 45.376-38.816 4.906-58.716z"/><path id="lijzl" d="M1355.948 819.944s-26.98 55.277-30.169 44.959c-3.188-10.319-2.207-34.886-.49-38.326 1.717-3.44 12.754-18.917 12.754-18.917z"/><path id="lijzm" d="M1357.907 557.061l24.773-9.581s73.337 129.717 73.092 165.832c-.245 36.114-100.808 108.097-100.808 108.097l-16.924-14.003s47.583-70.018 64.262-88.198c8.34-9.09-51.017-53.558-60.092-96.551-9.076-42.748 15.697-65.596 15.697-65.596z"/><path id="lijzn" d="M1209.52 790.951s-50.527 37.343-48.564 26.78c2.207-10.565 14.716-31.939 17.905-34.15 3.188-2.457 20.358-11.301 20.358-11.301z"/><path id="lijzo" d="M1290.708 603.012l73.092-42.502s2.943 147.406-14.717 179.344c-17.66 31.938-141.524 52.083-141.524 52.083l-8.339-19.9s76.526-45.695 99.827-54.54c23.792-8.844-8.34-114.485-8.34-114.485z"/><path id="lijzp" d="M1334.363 531.76s-53.715 19.163-43.659 71.492c10.302 52.329 27.471 62.156 27.471 62.156l30.905-50.855 30.905-66.333-30.905-3.93z"/><path id="lijzq" d="M1359.874 410.4s39.735 22.357 39.735 72.475c0 0-5.151 57.242-13.245 69.772 0 0-13.245 3.193-29.924 0-17.414-3.44-34.093-15.724-34.093-15.724l-13.49-70.263-10.547-41.028 5.641-1.965 29.924-3.194s-4.17 44.713 28.942 22.356c7.113-4.668-8.83-28.007-8.83-28.007z"/><path id="lijzr" d="M1207.036 278.393c.247-.246 1.972 1.48 4.93 4.93 2.957 3.452 6.9 8.63 10.843 15.532 3.943 6.903 7.887 15.778 10.844 26.132 2.958 10.108 4.93 21.694 9.365 32.788 2.218 5.424 5.176 10.6 8.626 15.038 3.45 4.438 7.147 8.382 11.09 11.834 7.887 6.656 16.266 11.34 23.66 13.805 7.393 2.712 13.8 3.945 17.99 4.438 4.437.493 6.901.493 6.901.74 0 .246-2.464.493-6.9.493-4.437 0-11.09-.987-18.73-3.452-7.64-2.465-16.513-6.903-24.892-13.805-4.19-3.452-8.133-7.643-11.583-12.08-3.45-4.684-6.655-10.108-8.873-15.778-4.682-11.587-6.407-23.174-9.118-33.281-2.711-10.108-6.162-18.737-9.858-25.886-3.697-6.903-7.148-12.326-9.858-16.024-3.204-3.205-4.683-5.177-4.437-5.424z"/><path id="lijzs" d="M1308.857 220.85c.495 0 1.237 8.135 5.937 20.213 2.227 6.163 5.69 13.065 10.637 19.967 2.474 3.451 5.195 6.902 8.411 10.353 3.216 3.451 6.68 6.902 9.895 10.846 6.679 7.888 11.132 16.516 15.337 24.158 4.205 7.641 7.669 14.79 9.4 21.445 1.732 6.41 1.98 12.079 1.237 15.777-.495 3.697-1.484 5.67-1.731 5.67-.248 0 .247-1.973.247-5.67.247-3.698-.247-8.875-2.226-15.037-1.98-6.163-5.443-13.065-9.648-20.46-4.453-7.395-8.905-15.776-15.337-23.418-3.216-3.697-6.68-7.148-9.895-10.846-3.216-3.45-6.184-7.148-8.658-10.846-4.948-7.395-8.163-14.544-10.39-20.953-2.226-6.409-2.968-11.585-3.463-15.283 0-3.944 0-5.916.247-5.916z"/><path id="lijzt" d="M1334.23 381.215c0-.232 1.22-.465 2.685-1.862.244-.233.488-.699.488-1.165 0-.232-.244-.931-.488-1.164-.488-.233-.733-.466-1.465-.466-.488 0-1.22.233-2.196.466-1.953.233-3.661-.931-4.638-1.863-.976-.931-1.952-1.863-2.44-2.794-1.22-1.63-1.71-3.027-1.465-3.027.244 0 .976.931 2.44 2.329.733.698 1.465 1.63 2.686 2.328.976.699 2.196 1.397 3.417 1.397.732 0 1.464-.466 2.44-.466.977 0 1.953.233 2.685.932.732.698.976 1.397.976 2.328-.244.932-.732 1.398-1.22 1.863-2.44 1.63-4.15 1.397-3.905 1.164z"/><path id="lijzu" d="M1344.702 384.06l-16.042 5.71c0-.238 13.574 11.42 16.042-5.71z"/><path id="lijzv" d="M1327.095 382.422c.691 1.167-.23 2.8-2.075 3.733-1.614.934-3.459.7-4.15-.466-.692-1.167.23-2.8 2.075-3.733 1.614-.933 3.689-.7 4.15.466z"/><path id="lijzw" d="M1345.927 371.993c.46 1.213-.46 2.912-2.303 3.64-1.843.729-3.686.486-4.147-.97-.46-1.214.461-2.913 2.304-3.64 1.843-.729 3.685-.244 4.146.97z"/><path id="lijzx" d="M1328.66 404.87s5.294.998 12.032-.75c0 0-3.37 3.247-8.663 3.996-.24.25-1.444-2.248-3.369-3.247z"/><path id="lijzy" d="M1334.844 369.747c.478.45.717 1.35.239 1.799-.478.45-1.435.674-1.913.225-.478-.45-.718-1.35-.24-1.799.479-.674 1.196-.9 1.914-.225z"/><path id="lijzz" d="M1324.154 375.015c.478.466.717 1.398.239 1.864-.478.466-1.435.699-1.913.233-.478-.466-.718-1.398-.24-1.864.479-.7 1.436-.7 1.914-.233z"/><path id="lijzA" d="M1335.318 363.498c-.271.477-1.63.477-3.26.954-1.63.478-2.988 1.193-3.26.716-.543-.238.544-1.909 2.717-2.386 2.173-.477 4.075.477 3.803.716z"/><path id="lijzB" d="M1315.356 374.653c-.263-.25.262-1.75 1.574-3.501 1.574-1.5 3.411-2 3.674-1.75.262.5-1.05 1.5-2.362 2.75-1.05 1.75-2.362 2.751-2.886 2.501z"/><path id="lijzC" d="M1309.375 386.321s-4.86-4.717-7.174-.524 10.414 6.29 10.414 6.29z"/><path id="lijzD" d="M1186.957 778.71s-7.373 3.153-9.34 5.093c-1.965 1.94-19.416 31.768-17.204 35.649 2.212 3.88 19.908-8.973 19.908-8.973s-14.746 2.667 6.636-31.769"/><path id="lijzE" d="M1330.22 818.84s-5.047 5.598-6.009 8.275c-.72 2.677-2.163 37.239 1.442 39.673 3.605 2.433 13.7-16.794 13.7-16.794s-11.777 9.492-9.133-31.154"/></defs><g><g transform="matrix(-1 0 0 1 1217 -194)"><g><use fill="#fff" xlink:href="#lijza"/></g><g><use fill="#fff" xlink:href="#lijzb"/></g></g><g transform="matrix(-1 0 0 1 1468 -194)"><g><use fill="#2c373f" xlink:href="#lijzc"/></g><g><g><g><use fill="#ffc5b1" xlink:href="#lijzd"/></g><g><use fill="#ffc5b1" xlink:href="#lijze"/></g><g><use fill="#ffc5b1" xlink:href="#lijzf"/></g><g><use fill="#ffc5b1" xlink:href="#lijzg"/></g><g><use fill="#ffc5b1" xlink:href="#lijzh"/></g><g><use fill="#ffc5b1" xlink:href="#lijzi"/></g><g><use fill="#f97a5d" xlink:href="#lijzj"/></g><g><use fill="#f97a5d" xlink:href="#lijzk"/></g></g><g><g><use fill="#ffc5b1" xlink:href="#lijzl"/></g><g><use fill="#5d4484" xlink:href="#lijzm"/></g></g><g><g><g><use fill="#ffc5b1" xlink:href="#lijzn"/></g><g><use fill="#6e5395" xlink:href="#lijzo"/></g></g><g><use fill="#6e5395" xlink:href="#lijzp"/></g></g><g><use fill="#f97a5d" xlink:href="#lijzq"/></g></g><g><use fill="#2c373f" xlink:href="#lijzr"/></g><g><use fill="#2c373f" xlink:href="#lijzs"/></g><g><use fill="#f97a5d" xlink:href="#lijzt"/></g><g><use fill="#fff" xlink:href="#lijzu"/></g><g><use fill="#f4b19f" xlink:href="#lijzv"/></g><g><use fill="#f4b19f" xlink:href="#lijzw"/></g><g><use fill="#eda091" xlink:href="#lijzx"/></g><g><use fill="#2c373f" xlink:href="#lijzy"/></g><g><use fill="#2c373f" xlink:href="#lijzz"/></g><g><use fill="#2c373f" xlink:href="#lijzA"/></g><g><use fill="#2c373f" xlink:href="#lijzB"/></g><g><use fill="#ffc5b1" xlink:href="#lijzC"/></g><g><use fill="#6e5395" xlink:href="#lijzD"/></g><g><use fill="#6e5395" xlink:href="#lijzE"/></g></g></g></svg>