<svg xmlns="http://www.w3.org/2000/svg" xmlns:xlink="http://www.w3.org/1999/xlink" width="119" height="314" viewBox="0 0 119 314"><defs><path id="mra8a" d="M212.206 309.587c-10.793 1.588-16.508 1.588-25.396-1.587-.635 4.444-1.588 6.984-3.81 8.571 9.206 4.127 16.19 5.08 27.937 4.445 1.587-3.81 1.904-7.62 1.27-11.429z"/><path id="mra8b" d="M265.65 385.095c.953-4.127 1.27-8.571-.634-13.016-3.175-1.587-5.08-2.54-7.937-5.079 0 3.175-1.27 4.762-5.079 7.302 5.08 2.222 8.889 6.031 13.65 10.793z"/><path id="mra8c" d="M183 511.127c3.492 2.857 7.302 3.175 13.333 3.175-.317-13.016 3.175-26.985 8.89-42.54-4.763-.318-7.62-1.587-11.747-4.762-7.301 16.19-9.841 25.714-10.476 44.127z"/><path id="mra8d" d="M272 354.238c1.27.952 2.54.952 4.444.952-.317-4.444.953-9.206 2.858-14.603-1.588 0-2.54-.635-4.127-1.587-2.223 5.397-3.175 8.889-3.175 15.238z"/><path id="mra8e" d="M166 609.175c2.857 3.81 6.667 5.079 12.698 6.666 3.175-13.65 10.477-26.984 20.318-41.587-4.762-1.587-7.62-3.81-11.111-8.254-11.111 14.92-16.19 24.444-21.905 43.175z"/><mask id="mra8g" width="2" height="2" x="-1" y="-1"><path fill="#fff" d="M183 308h30v14h-30z"/><use xlink:href="#mra8a"/></mask><filter id="mra8f" width="58" height="44" x="169" y="294" filterUnits="userSpaceOnUse"><feOffset dy="2" in="SourceGraphic" result="FeOffset1041Out"/><feGaussianBlur in="FeOffset1041Out" result="FeGaussianBlur1042Out" stdDeviation="1.6 1.6"/></filter><linearGradient id="mra8h" x1="197" x2="198.69" y1="323.29" y2="304.34" gradientUnits="userSpaceOnUse"><stop offset="0" stop-color="#920040"/><stop offset=".05" stop-color="#ae0052"/><stop offset=".12" stop-color="#d10069"/><stop offset=".19" stop-color="#ea007a"/><stop offset=".25" stop-color="#fa0084"/><stop offset=".3" stop-color="#ff0087"/><stop offset=".35" stop-color="#ff1a8b"/><stop offset=".43" stop-color="#ff3f92"/><stop offset=".5" stop-color="#ff5696"/><stop offset=".55" stop-color="#ff5e97"/><stop offset=".58" stop-color="#ff5696"/><stop offset=".64" stop-color="#ff3f92"/><stop offset=".71" stop-color="#ff198b"/><stop offset=".75" stop-color="#ff0087"/><stop offset=".79" stop-color="#fa0084"/><stop offset=".84" stop-color="#ea007a"/><stop offset=".9" stop-color="#d10069"/><stop offset=".96" stop-color="#ae0053"/><stop offset="1" stop-color="#920040"/></linearGradient><mask id="mra8j" width="2" height="2" x="-1" y="-1"><path fill="#fff" d="M252 367h15v19h-15z"/><use xlink:href="#mra8b"/></mask><filter id="mra8i" width="43" height="49" x="238" y="353" filterUnits="userSpaceOnUse"><feOffset dy="2" in="SourceGraphic" result="FeOffset1077Out"/><feGaussianBlur in="FeOffset1077Out" result="FeGaussianBlur1078Out" stdDeviation="1.6 1.6"/></filter><linearGradient id="mra8k" x1="258.52" x2="264.93" y1="380.46" y2="369.68" gradientUnits="userSpaceOnUse"><stop offset="0" stop-color="#ab3c00"/><stop offset=".34" stop-color="#ffc700"/><stop offset=".37" stop-color="#ffcd17"/><stop offset=".41" stop-color="#ffd533"/><stop offset=".44" stop-color="#ffda46"/><stop offset=".48" stop-color="#ffdd52"/><stop offset=".52" stop-color="#ffde56"/><stop offset=".55" stop-color="#ffdd51"/><stop offset=".59" stop-color="#ffd943"/><stop offset=".62" stop-color="#ffd32b"/><stop offset=".66" stop-color="#ffca0b"/><stop offset=".67" stop-color="#ffc700"/><stop offset="1" stop-color="#ab3c00"/></linearGradient><mask id="mra8m" width="2" height="2" x="-1" y="-1"><path fill="#fff" d="M183 467h23v48h-23z"/><use xlink:href="#mra8c"/></mask><filter id="mra8l" width="51" height="78" x="169" y="453" filterUnits="userSpaceOnUse"><feOffset dy="2" in="SourceGraphic" result="FeOffset1107Out"/><feGaussianBlur in="FeOffset1107Out" result="FeGaussianBlur1108Out" stdDeviation="1.6 1.6"/></filter><linearGradient id="mra8n" x1="181.67" x2="202.99" y1="487.13" y2="494.55" gradientUnits="userSpaceOnUse"><stop offset="0" stop-color="#005200"/><stop offset=".19" stop-color="#00890b"/><stop offset=".31" stop-color="#00a912"/><stop offset=".33" stop-color="#11ad12"/><stop offset=".37" stop-color="#3ab512"/><stop offset=".41" stop-color="#5abc12"/><stop offset=".44" stop-color="#71c112"/><stop offset=".48" stop-color="#7ec412"/><stop offset=".51" stop-color="#83c512"/><stop offset=".55" stop-color="#7fc412"/><stop offset=".59" stop-color="#72c112"/><stop offset=".63" stop-color="#5ebd12"/><stop offset=".67" stop-color="#41b712"/><stop offset=".72" stop-color="#1caf12"/><stop offset=".74" stop-color="#00a912"/><stop offset=".78" stop-color="#009e10"/><stop offset=".86" stop-color="#00800c"/><stop offset=".95" stop-color="#005004"/><stop offset="1" stop-color="#003400"/></linearGradient><mask id="mra8p" width="2" height="2" x="-1" y="-1"><path fill="#fff" d="M272 339h8v17h-8z"/><use xlink:href="#mra8d"/></mask><filter id="mra8o" width="36" height="47" x="258" y="325" filterUnits="userSpaceOnUse"><feOffset dy="2" in="SourceGraphic" result="FeOffset1143Out"/><feGaussianBlur in="FeOffset1143Out" result="FeGaussianBlur1144Out" stdDeviation="1.6 1.6"/></filter><linearGradient id="mra8q" x1="271.36" x2="278.71" y1="345.97" y2="348.35" gradientUnits="userSpaceOnUse"><stop offset="0" stop-color="#0038ab"/><stop offset=".11" stop-color="#0062c9"/><stop offset=".27" stop-color="#0097f0"/><stop offset=".35" stop-color="#00acff"/><stop offset=".4" stop-color="#00bfff"/><stop offset=".47" stop-color="#00d2ff"/><stop offset=".52" stop-color="#00d9ff"/><stop offset=".66" stop-color="#00b8ff"/><stop offset=".71" stop-color="#00acff"/><stop offset=".76" stop-color="#00a2f8"/><stop offset=".83" stop-color="#0086e3"/><stop offset=".93" stop-color="#0059c3"/><stop offset="1" stop-color="#0038ab"/></linearGradient><mask id="mra8s" width="2" height="2" x="-1" y="-1"><path fill="#fff" d="M166 566h33v50h-33z"/><use xlink:href="#mra8e"/></mask><filter id="mra8r" width="61" height="80" x="152" y="552" filterUnits="userSpaceOnUse"><feOffset dy="2" in="SourceGraphic" result="FeOffset1173Out"/><feGaussianBlur in="FeOffset1173Out" result="FeGaussianBlur1174Out" stdDeviation="1.6 1.6"/></filter><linearGradient id="mra8t" x1="170.98" x2="191.1" y1="584.05" y2="597.25" gradientUnits="userSpaceOnUse"><stop offset="0" stop-color="#005200"/><stop offset=".19" stop-color="#00890b"/><stop offset=".31" stop-color="#00a912"/><stop offset=".33" stop-color="#11ad12"/><stop offset=".37" stop-color="#3ab512"/><stop offset=".41" stop-color="#5abc12"/><stop offset=".44" stop-color="#71c112"/><stop offset=".48" stop-color="#7ec412"/><stop offset=".51" stop-color="#83c512"/><stop offset=".55" stop-color="#7fc412"/><stop offset=".59" stop-color="#72c112"/><stop offset=".63" stop-color="#5ebd12"/><stop offset=".67" stop-color="#41b712"/><stop offset=".72" stop-color="#1caf12"/><stop offset=".74" stop-color="#00a912"/><stop offset=".78" stop-color="#009e10"/><stop offset=".86" stop-color="#00800c"/><stop offset=".95" stop-color="#005004"/><stop offset="1" stop-color="#003400"/></linearGradient></defs><g><g transform="translate(-163 -307)"><g filter="url(#mra8f)"><use fill="none" stroke-opacity=".3" stroke-width="0" mask="url(&quot;#mra8g&quot;)" xlink:href="#mra8a"/><use fill-opacity=".3" xlink:href="#mra8a"/></g><use fill="url(#mra8h)" xlink:href="#mra8a"/></g><g transform="translate(-163 -307)"><g filter="url(#mra8i)"><use fill="none" stroke-opacity=".3" stroke-width="0" mask="url(&quot;#mra8j&quot;)" xlink:href="#mra8b"/><use fill-opacity=".3" xlink:href="#mra8b"/></g><use fill="url(#mra8k)" xlink:href="#mra8b"/></g><g transform="translate(-163 -307)"><g filter="url(#mra8l)"><use fill="none" stroke-opacity=".3" stroke-width="0" mask="url(&quot;#mra8m&quot;)" xlink:href="#mra8c"/><use fill-opacity=".3" xlink:href="#mra8c"/></g><use fill="url(#mra8n)" xlink:href="#mra8c"/></g><g transform="translate(-163 -307)"><g filter="url(#mra8o)"><use fill="none" stroke-opacity=".3" stroke-width="0" mask="url(&quot;#mra8p&quot;)" xlink:href="#mra8d"/><use fill-opacity=".3" xlink:href="#mra8d"/></g><use fill="url(#mra8q)" xlink:href="#mra8d"/></g><g transform="translate(-163 -307)"><g filter="url(#mra8r)"><use fill="none" stroke-opacity=".3" stroke-width="0" mask="url(&quot;#mra8s&quot;)" xlink:href="#mra8e"/><use fill-opacity=".3" xlink:href="#mra8e"/></g><use fill="url(#mra8t)" xlink:href="#mra8e"/></g></g></svg>