<svg xmlns="http://www.w3.org/2000/svg" xmlns:xlink="http://www.w3.org/1999/xlink" width="209" height="225" viewBox="0 0 209 225"><defs><path id="81una" d="M234 571.714c.635.318 1.27.953 1.587 1.905 2.223-1.587 3.492-3.175 5.08-5.08-.635-1.27-1.588-1.904-2.223-2.539-.952 2.54-2.222 3.81-4.444 5.714z"/><path id="81unb" d="M247.231 480.65c-.952 8.255.953 13.652 7.302 20 8.571-.952 14.603-2.856 19.682-7.3-1.587-9.207 0-15.556 3.492-26.35-10.793 6.667-17.46 10.794-30.476 13.65z"/><path id="81unc" d="M227 382.27c2.857 5.397 6.35 7.619 13.016 8.571 4.762-4.127 7.619-7.936 8.571-12.698-4.762-4.762-6.666-9.206-9.206-17.143-3.492 8.571-6.032 13.968-12.381 21.27z"/><path id="81und" d="M78.492 500.159c3.175-1.588 5.714-3.175 7.62-5.715-.953-2.222-1.906-3.492-3.493-4.444-2.222 2.857-4.127 4.127-7.619 5.397 2.222 1.27 3.175 2.54 3.492 4.762z"/><path id="81une" d="M99.08 449.27c-.636-.318-.953-.635-1.588-1.27-1.587 1.587-2.54 2.54-3.492 4.444.635.953 1.27 1.27 1.905 1.588.952-2.222 1.587-3.175 3.174-4.762z"/><path id="81unf" d="M162.332 384.827c.952-10.476 4.445-15.873 10.794-23.492-16.508-4.445-33.334-7.302-40.953-6.032-2.54 7.937-2.54 14.92-1.587 24.762 8.571-1.27 17.143.635 31.746 4.762z"/><mask id="81unh" width="2" height="2" x="-1" y="-1"><path fill="#fff" d="M234 566h7v8h-7z"/><use xlink:href="#81una"/></mask><filter id="81ung" width="35" height="38" x="220" y="552" filterUnits="userSpaceOnUse"><feOffset dy="2" in="SourceGraphic" result="FeOffset1213Out"/><feGaussianBlur in="FeOffset1213Out" result="FeGaussianBlur1214Out" stdDeviation="1.6 1.6"/></filter><linearGradient id="81uni" x1="236.1" x2="239.25" y1="568.74" y2="571.61" gradientUnits="userSpaceOnUse"><stop offset="0" stop-color="#ab3c00"/><stop offset=".34" stop-color="#ffc700"/><stop offset=".37" stop-color="#ffcd17"/><stop offset=".41" stop-color="#ffd533"/><stop offset=".44" stop-color="#ffda46"/><stop offset=".48" stop-color="#ffdd52"/><stop offset=".52" stop-color="#ffde56"/><stop offset=".55" stop-color="#ffdd51"/><stop offset=".59" stop-color="#ffd943"/><stop offset=".62" stop-color="#ffd32b"/><stop offset=".66" stop-color="#ffca0b"/><stop offset=".67" stop-color="#ffc700"/><stop offset="1" stop-color="#ab3c00"/></linearGradient><mask id="81unk" width="2" height="2" x="-1" y="-1"><path fill="#fff" d="M247 467h31v34h-31z"/><use xlink:href="#81unb"/></mask><filter id="81unj" width="59" height="64" x="233" y="453" filterUnits="userSpaceOnUse"><feOffset dy="2" in="SourceGraphic" result="FeOffset1243Out"/><feGaussianBlur in="FeOffset1243Out" result="FeGaussianBlur1244Out" stdDeviation="1.6 1.6"/></filter><linearGradient id="81unl" x1="260.57" x2="271.44" y1="472.65" y2="501.09" gradientUnits="userSpaceOnUse"><stop offset="0" stop-color="#400300"/><stop offset=".07" stop-color="#750300"/><stop offset=".14" stop-color="#a50300"/><stop offset=".21" stop-color="#c80300"/><stop offset=".26" stop-color="#dd0300"/><stop offset=".3" stop-color="#e50300"/><stop offset=".34" stop-color="#ee190c"/><stop offset=".39" stop-color="#f82e18"/><stop offset=".45" stop-color="#fd3c20"/><stop offset=".49" stop-color="#ff4022"/><stop offset=".54" stop-color="#fd3b1f"/><stop offset=".6" stop-color="#f72e18"/><stop offset=".66" stop-color="#ee180c"/><stop offset=".7" stop-color="#e50300"/><stop offset=".73" stop-color="#db0300"/><stop offset=".79" stop-color="#c20300"/><stop offset=".87" stop-color="#980300"/><stop offset=".95" stop-color="#5e0300"/><stop offset="1" stop-color="#3b0300"/></linearGradient><mask id="81unn" width="2" height="2" x="-1" y="-1"><path fill="#fff" d="M227 361h22v30h-22z"/><use xlink:href="#81unc"/></mask><filter id="81unm" width="50" height="60" x="213" y="347" filterUnits="userSpaceOnUse"><feOffset dy="2" in="SourceGraphic" result="FeOffset1279Out"/><feGaussianBlur in="FeOffset1279Out" result="FeGaussianBlur1280Out" stdDeviation="1.6 1.6"/></filter><linearGradient id="81uno" x1="231.54" x2="250.21" y1="371.81" y2="383.88" gradientUnits="userSpaceOnUse"><stop offset="0" stop-color="#400300"/><stop offset=".07" stop-color="#750300"/><stop offset=".14" stop-color="#a50300"/><stop offset=".21" stop-color="#c80300"/><stop offset=".26" stop-color="#dd0300"/><stop offset=".3" stop-color="#e50300"/><stop offset=".34" stop-color="#ee190c"/><stop offset=".39" stop-color="#f82e18"/><stop offset=".45" stop-color="#fd3c20"/><stop offset=".49" stop-color="#ff4022"/><stop offset=".54" stop-color="#fd3b1f"/><stop offset=".6" stop-color="#f72e18"/><stop offset=".66" stop-color="#ee180c"/><stop offset=".7" stop-color="#e50300"/><stop offset=".73" stop-color="#db0300"/><stop offset=".79" stop-color="#c20300"/><stop offset=".87" stop-color="#980300"/><stop offset=".95" stop-color="#5e0300"/><stop offset="1" stop-color="#3b0300"/></linearGradient><mask id="81unq" width="2" height="2" x="-1" y="-1"><path fill="#fff" d="M75 490h12v11H75z"/><use xlink:href="#81und"/></mask><filter id="81unp" width="40" height="41" x="61" y="476" filterUnits="userSpaceOnUse"><feOffset dy="2" in="SourceGraphic" result="FeOffset1315Out"/><feGaussianBlur in="FeOffset1315Out" result="FeGaussianBlur1316Out" stdDeviation="1.6 1.6"/></filter><linearGradient id="81unr" x1="82.89" x2="78.77" y1="497.6" y2="492.44" gradientUnits="userSpaceOnUse"><stop offset="0" stop-color="#400300"/><stop offset=".07" stop-color="#750300"/><stop offset=".14" stop-color="#a50300"/><stop offset=".21" stop-color="#c80300"/><stop offset=".26" stop-color="#dd0300"/><stop offset=".3" stop-color="#e50300"/><stop offset=".34" stop-color="#ee190c"/><stop offset=".39" stop-color="#f82e18"/><stop offset=".45" stop-color="#fd3c20"/><stop offset=".49" stop-color="#ff4022"/><stop offset=".54" stop-color="#fd3b1f"/><stop offset=".6" stop-color="#f72e18"/><stop offset=".66" stop-color="#ee180c"/><stop offset=".7" stop-color="#e50300"/><stop offset=".73" stop-color="#db0300"/><stop offset=".79" stop-color="#c20300"/><stop offset=".87" stop-color="#980300"/><stop offset=".95" stop-color="#5e0300"/><stop offset="1" stop-color="#3b0300"/></linearGradient><mask id="81unt" width="2" height="2" x="-1" y="-1"><path fill="#fff" d="M94 448h6v6h-6z"/><use xlink:href="#81une"/></mask><filter id="81uns" width="34" height="36" x="80" y="434" filterUnits="userSpaceOnUse"><feOffset dy="2" in="SourceGraphic" result="FeOffset1351Out"/><feGaussianBlur in="FeOffset1351Out" result="FeGaussianBlur1352Out" stdDeviation="1.6 1.6"/></filter><linearGradient id="81unu" x1="97.75" x2="95.12" y1="451.69" y2="449.73" gradientUnits="userSpaceOnUse"><stop offset="0" stop-color="#400300"/><stop offset=".07" stop-color="#750300"/><stop offset=".14" stop-color="#a50300"/><stop offset=".21" stop-color="#c80300"/><stop offset=".26" stop-color="#dd0300"/><stop offset=".3" stop-color="#e50300"/><stop offset=".34" stop-color="#ee190c"/><stop offset=".39" stop-color="#f82e18"/><stop offset=".45" stop-color="#fd3c20"/><stop offset=".49" stop-color="#ff4022"/><stop offset=".54" stop-color="#fd3b1f"/><stop offset=".6" stop-color="#f72e18"/><stop offset=".66" stop-color="#ee180c"/><stop offset=".7" stop-color="#e50300"/><stop offset=".73" stop-color="#db0300"/><stop offset=".79" stop-color="#c20300"/><stop offset=".87" stop-color="#980300"/><stop offset=".95" stop-color="#5e0300"/><stop offset="1" stop-color="#3b0300"/></linearGradient><mask id="81unw" width="2" height="2" x="-1" y="-1"><path fill="#fff" d="M130 355h44v30h-44z"/><use xlink:href="#81unf"/></mask><filter id="81unv" width="72" height="60" x="116" y="341" filterUnits="userSpaceOnUse"><feOffset dy="2" in="SourceGraphic" result="FeOffset1387Out"/><feGaussianBlur in="FeOffset1387Out" result="FeGaussianBlur1388Out" stdDeviation="1.6 1.6"/></filter><linearGradient id="81unx" x1="147.26" x2="153.92" y1="385.39" y2="350.58" gradientUnits="userSpaceOnUse"><stop offset="0" stop-color="#ab3c00"/><stop offset=".34" stop-color="#ffc700"/><stop offset=".37" stop-color="#ffcd17"/><stop offset=".41" stop-color="#ffd533"/><stop offset=".44" stop-color="#ffda46"/><stop offset=".48" stop-color="#ffdd52"/><stop offset=".52" stop-color="#ffde56"/><stop offset=".55" stop-color="#ffdd51"/><stop offset=".59" stop-color="#ffd943"/><stop offset=".62" stop-color="#ffd32b"/><stop offset=".66" stop-color="#ffca0b"/><stop offset=".67" stop-color="#ffc700"/><stop offset="1" stop-color="#ab3c00"/></linearGradient></defs><g><g transform="translate(-72 -354)"><g filter="url(#81ung)"><use fill="none" stroke-opacity=".3" stroke-width="0" mask="url(&quot;#81unh&quot;)" xlink:href="#81una"/><use fill-opacity=".3" xlink:href="#81una"/></g><use fill="url(#81uni)" xlink:href="#81una"/></g><g transform="translate(-72 -354)"><g filter="url(#81unj)"><use fill="none" stroke-opacity=".3" stroke-width="0" mask="url(&quot;#81unk&quot;)" xlink:href="#81unb"/><use fill-opacity=".3" xlink:href="#81unb"/></g><use fill="url(#81unl)" xlink:href="#81unb"/></g><g transform="translate(-72 -354)"><g filter="url(#81unm)"><use fill="none" stroke-opacity=".3" stroke-width="0" mask="url(&quot;#81unn&quot;)" xlink:href="#81unc"/><use fill-opacity=".3" xlink:href="#81unc"/></g><use fill="url(#81uno)" xlink:href="#81unc"/></g><g transform="translate(-72 -354)"><g filter="url(#81unp)"><use fill="none" stroke-opacity=".3" stroke-width="0" mask="url(&quot;#81unq&quot;)" xlink:href="#81und"/><use fill-opacity=".3" xlink:href="#81und"/></g><use fill="url(#81unr)" xlink:href="#81und"/></g><g transform="translate(-72 -354)"><g filter="url(#81uns)"><use fill="none" stroke-opacity=".3" stroke-width="0" mask="url(&quot;#81unt&quot;)" xlink:href="#81une"/><use fill-opacity=".3" xlink:href="#81une"/></g><use fill="url(#81unu)" xlink:href="#81une"/></g><g transform="translate(-72 -354)"><g filter="url(#81unv)"><use fill="none" stroke-opacity=".3" stroke-width="0" mask="url(&quot;#81unw&quot;)" xlink:href="#81unf"/><use fill-opacity=".3" xlink:href="#81unf"/></g><use fill="url(#81unx)" xlink:href="#81unf"/></g></g></svg>