<svg xmlns="http://www.w3.org/2000/svg" xmlns:xlink="http://www.w3.org/1999/xlink" width="32" height="23" viewBox="0 0 32 23"><defs><path id="ld0ka" d="M1495.205 1019.333a1.112 1.112 0 0 0-1.587 0 1.12 1.12 0 0 0 0 1.571l8.047 8.047h-26.554a1.106 1.106 0 0 0-1.111 1.112c0 .619.492 1.127 1.111 1.127h26.554l-8.047 8.032c-.429.444-.429 1.159 0 1.587a1.112 1.112 0 0 0 1.587 0l9.952-9.952a1.093 1.093 0 0 0 0-1.571z"/></defs><g><g transform="translate(-1474 -1019)"><use fill="#fff" xlink:href="#ld0ka"/></g></g></svg>