<svg xmlns="http://www.w3.org/2000/svg" xmlns:xlink="http://www.w3.org/1999/xlink" width="44" height="32" viewBox="0 0 44 32"><defs><path id="sf0ka" d="M819.564 818.966a127.541 127.541 0 0 0-4.087 3.417 62.916 62.916 0 0 1-4.489 3.551 34.996 34.996 0 0 1-5.159 3.082 21.708 21.708 0 0 1-5.829 1.876V799h19.564zm24.532 0a127.588 127.588 0 0 0-4.09 3.417 62.944 62.944 0 0 1-4.49 3.551 35.017 35.017 0 0 1-5.162 3.082 21.727 21.727 0 0 1-5.832 1.876V799h19.574z"/></defs><g><g opacity=".2" transform="translate(-800 -799)"><use fill="#fff" xlink:href="#sf0ka"/></g></g></svg>